<?xml version="1.0" encoding="UTF-8" standalone="no"?>
<!-- Created with Inkscape (http://www.inkscape.org/) -->

<svg
   width="201.67523mm"
   height="66.754578mm"
   viewBox="0 0 201.67523 66.754578"
   version="1.1"
   id="svg5"
   xml:space="preserve"
   inkscape:version="1.2.2 (732a01da63, 2022-12-09)"
   sodipodi:docname="logo_design.svg"
   inkscape:export-filename="logo_design.svg"
   inkscape:export-xdpi="96"
   inkscape:export-ydpi="96"
   xmlns:inkscape="http://www.inkscape.org/namespaces/inkscape"
   xmlns:sodipodi="http://sodipodi.sourceforge.net/DTD/sodipodi-0.dtd"
   xmlns="http://www.w3.org/2000/svg"
   xmlns:svg="http://www.w3.org/2000/svg"><sodipodi:namedview
     id="namedview7"
     pagecolor="#ffffff"
     bordercolor="#000000"
     borderopacity="0.25"
     inkscape:showpageshadow="2"
     inkscape:pageopacity="0.0"
     inkscape:pagecheckerboard="0"
     inkscape:deskcolor="#d1d1d1"
     inkscape:document-units="mm"
     showgrid="false"
     inkscape:zoom="1.4142136"
     inkscape:cx="318.19805"
     inkscape:cy="604.22275"
     inkscape:window-width="1920"
     inkscape:window-height="991"
     inkscape:window-x="-9"
     inkscape:window-y="-9"
     inkscape:window-maximized="1"
     inkscape:current-layer="layer7" /><defs
     id="defs2"><filter
       inkscape:collect="always"
       style="color-interpolation-filters:sRGB"
       id="filter3715"
       x="-0.011190703"
       y="-0.035410572"
       width="1.0223814"
       height="1.070821"><feGaussianBlur
         inkscape:collect="always"
         stdDeviation="0.72080656"
         id="feGaussianBlur3717" /></filter><filter
       inkscape:collect="always"
       style="color-interpolation-filters:sRGB"
       id="filter3721"
       x="-0.054162808"
       y="-0.091431558"
       width="1.1083256"
       height="1.1828631"><feGaussianBlur
         inkscape:collect="always"
         stdDeviation="0.49329655"
         id="feGaussianBlur3723" /></filter></defs><style
     type="text/css"
     id="style2665">
	.st0{fill:#C43124;stroke:#010202;stroke-width:5;stroke-miterlimit:10;}
	.st1{fill:#E8A627;stroke:#010202;stroke-width:5;stroke-miterlimit:10;}
	.st2{fill:#F9DE59;stroke:#010202;stroke-width:5;stroke-miterlimit:10;}
</style><g
     inkscape:groupmode="layer"
     id="layer7"
     inkscape:label="cruiser"
     transform="matrix(1.276048,0,0,1.276048,-28.053526,-182.82617)"
     style="display:inline"><g
       id="g2678"
       inkscape:label="sticker"><path
         id="path965"
         style="mix-blend-mode:normal;fill:#000000;fill-opacity:0.5;stroke:none;stroke-width:0.3;stroke-dasharray:none;stroke-opacity:1;filter:url(#filter3715)"
         inkscape:label="sticker_shadow"
         d="m 103.89933,145.00535 c -0.75576,-0.001 -1.51104,0.15294 -1.96331,0.46329 -0.34921,0.23963 -0.71885,0.65102 -0.88811,0.98813 -0.0577,0.11497 -0.16215,0.29629 -0.23245,0.40335 -0.0703,0.10705 -0.18945,0.44887 -0.26445,0.75932 -0.12909,0.53389 -0.12935,0.59387 -0.004,1.10517 0.0729,0.29735 0.11207,0.57354 0.0871,0.61394 -0.025,0.0404 -0.16655,0.096 -0.31507,0.12392 -0.362876,0.0681 -0.972686,0.56307 -1.26675,1.02823 -0.266434,0.42145 -0.477915,1.27324 -0.451545,1.81954 0.0093,0.1927 -0.02852,0.56071 -0.08383,0.81764 -0.05531,0.25694 -0.09939,0.63212 -0.09841,0.83384 9.8e-4,0.20173 -0.01973,0.40134 -0.04576,0.44344 -0.08983,0.14536 0.209244,1.2126 0.43008,1.53444 l 0.219901,0.31993 -1.621105,1.88839 c -0.891652,1.03847 -1.652231,1.88593 -1.68995,1.88393 -0.03772,-0.002 -0.08591,-0.0741 -0.107318,-0.15956 -0.0704,-0.28112 -0.522556,-0.84281 -0.871501,-1.08289 -0.224264,-0.1543 -0.563165,-0.28318 -0.981248,-0.37298 l -0.639047,-0.13729 v -1.19143 c 0,-0.80862 -0.04018,-1.37518 -0.125541,-1.76365 -0.142588,-0.64892 -0.448116,-1.13496 -0.915643,-1.46398 l -21.85839,12.45007 c -0.179133,0.70773 -0.388278,1.66219 -0.571011,2.6631 -0.07427,0.40682 -0.236729,1.27294 -0.361235,1.92483 -0.174836,0.91544 -0.22638,1.40767 -0.22638,2.16134 v 0.97558 l -5.776122,-0.0198 -5.776123,-0.0203 -0.09314,-0.36488 c -0.170206,-0.66725 -0.807447,-1.4825 -1.501233,-1.92038 -1.19022,-0.75135 -4.082894,-0.74677 -5.258567,0.008 l -0.394038,0.2527 -2.843717,0.045 c -2.388767,0.0378 -2.917586,0.0669 -3.305386,0.18143 -0.418588,0.1235 -0.618798,0.12866 -2.141494,0.0539 -0.923694,-0.0454 -2.485292,-0.11757 -3.470209,-0.16037 -3.601832,-0.15638 -5.598433,-0.24496 -8.891576,-0.39363 -3.139373,-0.14176 -3.401579,-0.14322 -3.931878,-0.0247 -1.028257,0.22981 -1.63,0.82365 -1.865708,1.841 -0.119032,0.51391 -0.119752,0.60444 -0.0077,1.10477 0.06714,0.29974 0.197395,0.65698 0.289555,0.79374 0.09216,0.13677 1.129394,1.32482 2.304698,2.64002 1.175304,1.31519 2.359714,2.65703 2.631916,2.98221 0.272202,0.32517 0.879664,1.00053 1.350179,1.50083 0.95284,1.01318 1.230166,1.35998 1.230711,1.5389 2.03e-4,0.0666 0.212455,0.40134 0.471793,0.74393 0.259338,0.34258 0.574964,0.80302 0.701412,1.02337 0.330454,0.57586 0.694933,1.49221 0.694933,1.74705 0,0.12022 -0.118945,0.45698 -0.264447,0.74839 -0.590512,1.18265 -0.768862,2.17609 -0.551573,3.07212 0.197408,0.81406 0.664496,1.43283 1.445347,1.91471 0.249313,0.15385 1.193078,0.41935 1.822781,0.51269 h 4.05e-4 c 0.128949,0.0195 1.512251,0.0282 3.074956,0.0203 l 2.842097,-0.0142 1.284573,-0.28753 c 1.385545,-0.3103 2.643221,-0.68436 4.243302,-1.2623 0.556692,-0.20108 1.292699,-0.45858 1.635278,-0.57223 l 0.622848,-0.20694 43.328411,-0.0397 c 39.861139,-0.0365 43.359859,-0.0499 43.717999,-0.16725 0.21411,-0.0701 0.54538,-0.18452 0.73624,-0.25432 0.39581,-0.14478 1.57007,-0.36363 3.15676,-0.58843 1.0511,-0.14931 1.55586,-0.15434 14.13151,-0.15834 12.37282,-0.004 13.07217,-0.011 13.64393,-0.1466 0.33146,-0.0786 0.654,-0.18562 0.7168,-0.23772 0.13676,-0.1135 0.27562,-0.045 0.27862,0.13729 0.003,0.21097 0.51235,0.84753 0.90755,1.13432 0.51782,0.37578 1.23163,0.51553 2.63313,0.51553 1.88967,0 2.63053,-0.26541 3.28432,-1.17685 0.22977,-0.32032 0.29232,-0.53209 0.57345,-1.94629 0.27701,-1.39344 0.34728,-1.63477 0.57627,-1.97667 0.38587,-0.57613 0.51029,-1.23408 0.54509,-2.88057 0.0202,-0.9573 0.0958,-1.8705 0.23853,-2.88098 0.21494,-1.52171 0.2182,-1.5515 0.1952,-1.9463 -0.008,-0.12847 -0.008,-0.36615 0,-0.52808 0.0255,-0.54377 -0.22966,-1.35819 -0.554,-1.76851 -0.16862,-0.21331 -0.33982,-0.54263 -0.39202,-0.75406 -0.2113,-0.85622 -0.88896,-1.4773 -1.85194,-1.69724 -0.47738,-0.109 -0.7931,-0.12566 -1.64216,-0.0863 -1.28216,0.0592 -1.26509,0.0592 -2.59142,0 -1.21405,-0.0542 -1.96146,0.0711 -2.48653,0.41712 -0.3314,0.2184 -0.5284,0.19897 -0.98165,-0.0976 -0.49811,-0.32594 -1.22781,-0.44265 -2.62139,-0.41915 l -1.24569,0.0211 -0.42725,-0.28834 c -0.23495,-0.15864 -0.48903,-0.28834 -0.56453,-0.28834 -0.0755,0 -0.13729,-0.0551 -0.13729,-0.1223 0,-0.1917 -0.42233,-0.75745 -0.85773,-1.14891 -0.5038,-0.45296 -1.04205,-0.7066 -1.95845,-0.92374 -0.39959,-0.0947 -0.82325,-0.23801 -0.94156,-0.31831 -0.34467,-0.23394 -1.38549,-0.44525 -2.18401,-0.44425 -0.6935,0.001 -1.59875,0.17355 -1.97667,0.37581 -0.0928,0.0496 -0.35513,0.0905 -0.58276,0.0911 -0.69383,0.002 -1.37453,0.20454 -1.82076,0.54145 -0.49236,0.37173 -0.92193,0.94359 -1.04037,1.3846 l -0.0891,0.33086 h -1.31292 -1.31252 l -0.0939,-0.40861 c -0.22068,-0.96372 -0.94184,-1.65644 -2.00178,-1.92241 -0.62239,-0.15648 -0.82832,-0.16037 -7.69489,-0.16037 -6.87128,0 -7.07191,0.004 -7.68435,0.16037 -0.35571,0.0908 -0.77594,0.26173 -0.96707,0.39323 l -0.33775,0.23245 -8.1e-4,-1.15214 c -0.002,-1.7458 -0.2617,-2.54412 -1.02296,-3.14704 -0.20519,-0.16252 -0.32279,-0.3351 -0.38229,-0.56049 -0.0473,-0.17908 -0.25307,-0.88613 -0.45722,-1.57129 -0.20416,-0.68516 -0.43232,-1.45772 -0.50702,-1.71668 -0.28256,-0.97913 -1.01249,-1.63298 -2.08116,-1.8649 l -0.59774,-0.12959 -0.0534,-0.32438 c -0.0713,-0.42995 -0.48396,-0.98012 -0.98895,-1.319 -0.50176,-0.33672 -1.38706,-0.55614 -1.7843,-0.44223 -0.34896,0.10007 -0.37627,0.0957 -0.38027,-0.062 -0.006,-0.25853 -0.20858,-0.70939 -0.46046,-1.02741 -0.3969,-0.50114 -0.86725,-0.7791 -1.61827,-0.95614 -0.65171,-0.15363 -0.68516,-0.15433 -1.29834,-0.0211 -0.74187,0.16123 -1.30354,0.49878 -1.66282,0.99907 -0.25988,0.36188 -0.48475,1.1589 -0.48475,1.7187 0,0.24754 -0.0605,0.41728 -0.23407,0.65687 -0.21072,0.29088 -0.26707,0.32342 -0.56453,0.32438 -0.18172,6e-4 -0.41451,0.0234 -0.51756,0.051 -0.18714,0.0501 -0.18732,0.0499 0.0458,-0.2928 0.28891,-0.42483 0.51983,-1.30906 0.44993,-1.72275 -0.0288,-0.17038 -0.0158,-0.34137 0.0296,-0.39607 0.14413,-0.17367 0.40173,-1.24853 0.40173,-1.67618 0,-0.95191 -0.43025,-2.00554 -1.08735,-2.6635 -0.49307,-0.49371 -0.89297,-0.70165 -1.70048,-0.88406 -0.54992,-0.12423 -0.59112,-0.12329 -1.24569,0.0381 -0.60708,0.14964 -1.08321,0.1965 -1.16551,0.1142 -0.0163,-0.0163 -0.0825,-0.26136 -0.14701,-0.54428 -0.13503,-0.59196 -0.51816,-1.13906 -1.05536,-1.50771 -0.34224,-0.23486 -1.22854,-0.48313 -1.72558,-0.48313 -0.20263,0 -0.28394,-0.0393 -0.32074,-0.15511 -0.0271,-0.0853 -0.18706,-0.32948 -0.35557,-0.54266 -0.16851,-0.21318 -0.30616,-0.40936 -0.30616,-0.43616 0,-0.0268 0.0647,-0.14187 0.14417,-0.25553 0.0795,-0.11367 0.20451,-0.4535 0.27741,-0.75528 0.12419,-0.51299 0.12407,-0.58538 0.004,-1.11489 -0.0708,-0.3115 -0.17751,-0.66041 -0.23731,-0.77511 -0.0598,-0.1147 -0.11037,-0.261 -0.11137,-0.3252 -0.004,-0.1979 -0.51791,-0.83149 -0.87069,-1.07358 -0.45452,-0.31201 -1.21079,-0.46884 -1.96654,-0.47017 z" /><path
         id="path3713"
         style="fill:#f2f2f2;stroke:#000000;stroke-width:0.235101;stroke-dasharray:none;stroke-opacity:1"
         inkscape:label="sticker"
         d="m 103.89933,145.00535 c -0.75576,-0.001 -1.51104,0.15294 -1.96331,0.46329 -0.34921,0.23963 -0.71885,0.65102 -0.88811,0.98813 -0.0577,0.11497 -0.16215,0.29629 -0.23245,0.40335 -0.0703,0.10705 -0.18945,0.44887 -0.26445,0.75932 -0.12909,0.53389 -0.12935,0.59387 -0.004,1.10517 0.0729,0.29735 0.11207,0.57354 0.0871,0.61394 -0.025,0.0404 -0.16655,0.096 -0.31507,0.12392 -0.362876,0.0681 -0.972686,0.56307 -1.26675,1.02823 -0.266434,0.42145 -0.477915,1.27324 -0.451545,1.81954 0.0093,0.1927 -0.02852,0.56071 -0.08383,0.81764 -0.05531,0.25694 -0.09939,0.63212 -0.09841,0.83384 9.8e-4,0.20173 -0.01973,0.40134 -0.04576,0.44344 -0.08983,0.14536 0.209244,1.2126 0.43008,1.53444 l 0.219901,0.31993 -1.621105,1.88839 c -0.891652,1.03847 -1.652231,1.88593 -1.68995,1.88393 -0.03772,-0.002 -0.08591,-0.0741 -0.107318,-0.15956 -0.0704,-0.28112 -0.522556,-0.84281 -0.871501,-1.08289 -0.224264,-0.1543 -0.563165,-0.28318 -0.981248,-0.37298 l -0.639047,-0.13729 v -1.19143 c 0,-0.80862 -0.04018,-1.37518 -0.125541,-1.76365 -0.142588,-0.64892 -0.448116,-1.13496 -0.915643,-1.46398 l -21.85839,12.45007 c -0.179133,0.70773 -0.388278,1.66219 -0.571011,2.6631 -0.07427,0.40682 -0.236729,1.27294 -0.361235,1.92483 -0.174836,0.91544 -0.22638,1.40767 -0.22638,2.16134 v 0.97558 l -5.776122,-0.0198 -5.776123,-0.0203 -0.09314,-0.36488 c -0.170206,-0.66725 -0.807447,-1.4825 -1.501233,-1.92038 -1.19022,-0.75135 -4.082894,-0.74677 -5.258567,0.008 l -0.394038,0.2527 -2.843717,0.045 c -2.388767,0.0378 -2.917586,0.0669 -3.305386,0.18143 -0.418588,0.1235 -0.618798,0.12866 -2.141494,0.0539 -0.923694,-0.0454 -2.485292,-0.11757 -3.470209,-0.16037 -3.601832,-0.15638 -5.598433,-0.24496 -8.891576,-0.39363 -3.139373,-0.14176 -3.401579,-0.14322 -3.931878,-0.0247 -1.028257,0.22981 -1.63,0.82365 -1.865708,1.841 -0.119032,0.51391 -0.119752,0.60444 -0.0077,1.10477 0.06714,0.29974 0.197395,0.65698 0.289555,0.79374 0.09216,0.13677 1.129394,1.32482 2.304698,2.64002 1.175304,1.31519 2.359714,2.65703 2.631916,2.98221 0.272202,0.32517 0.879664,1.00053 1.350179,1.50083 0.95284,1.01318 1.230166,1.35998 1.230711,1.5389 2.03e-4,0.0666 0.212455,0.40134 0.471793,0.74393 0.259338,0.34258 0.574964,0.80302 0.701412,1.02337 0.330454,0.57586 0.694933,1.49221 0.694933,1.74705 0,0.12022 -0.118945,0.45698 -0.264447,0.74839 -0.590512,1.18265 -0.768862,2.17609 -0.551573,3.07212 0.197408,0.81406 0.664496,1.43283 1.445347,1.91471 0.249313,0.15385 1.193078,0.41935 1.822781,0.51269 h 4.05e-4 c 0.128949,0.0195 1.512251,0.0282 3.074956,0.0203 l 2.842097,-0.0142 1.284573,-0.28753 c 1.385545,-0.3103 2.643221,-0.68436 4.243302,-1.2623 0.556692,-0.20108 1.292699,-0.45858 1.635278,-0.57223 l 0.622848,-0.20694 43.328411,-0.0397 c 39.861139,-0.0365 43.359859,-0.0499 43.717999,-0.16725 0.21411,-0.0701 0.54538,-0.18452 0.73624,-0.25432 0.39581,-0.14478 1.57007,-0.36363 3.15676,-0.58843 1.0511,-0.14931 1.55586,-0.15434 14.13151,-0.15834 12.37282,-0.004 13.07217,-0.011 13.64393,-0.1466 0.33146,-0.0786 0.654,-0.18562 0.7168,-0.23772 0.13676,-0.1135 0.27562,-0.045 0.27862,0.13729 0.003,0.21097 0.51235,0.84753 0.90755,1.13432 0.51782,0.37578 1.23163,0.51553 2.63313,0.51553 1.88967,0 2.63053,-0.26541 3.28432,-1.17685 0.22977,-0.32032 0.29232,-0.53209 0.57345,-1.94629 0.27701,-1.39344 0.34728,-1.63477 0.57627,-1.97667 0.38587,-0.57613 0.51029,-1.23408 0.54509,-2.88057 0.0202,-0.9573 0.0958,-1.8705 0.23853,-2.88098 0.21494,-1.52171 0.2182,-1.5515 0.1952,-1.9463 -0.008,-0.12847 -0.008,-0.36615 0,-0.52808 0.0255,-0.54377 -0.22966,-1.35819 -0.554,-1.76851 -0.16862,-0.21331 -0.33982,-0.54263 -0.39202,-0.75406 -0.2113,-0.85622 -0.88896,-1.4773 -1.85194,-1.69724 -0.47738,-0.109 -0.7931,-0.12566 -1.64216,-0.0863 -1.28216,0.0592 -1.26509,0.0592 -2.59142,0 -1.21405,-0.0542 -1.96146,0.0711 -2.48653,0.41712 -0.3314,0.2184 -0.5284,0.19897 -0.98165,-0.0976 -0.49811,-0.32594 -1.22781,-0.44265 -2.62139,-0.41915 l -1.24569,0.0211 -0.42725,-0.28834 c -0.23495,-0.15864 -0.48903,-0.28834 -0.56453,-0.28834 -0.0755,0 -0.13729,-0.0551 -0.13729,-0.1223 0,-0.1917 -0.42233,-0.75745 -0.85773,-1.14891 -0.5038,-0.45296 -1.04205,-0.7066 -1.95845,-0.92374 -0.39959,-0.0947 -0.82325,-0.23801 -0.94156,-0.31831 -0.34467,-0.23394 -1.38549,-0.44525 -2.18401,-0.44425 -0.6935,0.001 -1.59875,0.17355 -1.97667,0.37581 -0.0928,0.0496 -0.35513,0.0905 -0.58276,0.0911 -0.69383,0.002 -1.37453,0.20454 -1.82076,0.54145 -0.49236,0.37173 -0.92193,0.94359 -1.04037,1.3846 l -0.0891,0.33086 h -1.31292 -1.31252 l -0.0939,-0.40861 c -0.22068,-0.96372 -0.94184,-1.65644 -2.00178,-1.92241 -0.62239,-0.15648 -0.82832,-0.16037 -7.69489,-0.16037 -6.87128,0 -7.07191,0.004 -7.68435,0.16037 -0.35571,0.0908 -0.77594,0.26173 -0.96707,0.39323 l -0.33775,0.23245 -8.1e-4,-1.15214 c -0.002,-1.7458 -0.2617,-2.54412 -1.02296,-3.14704 -0.20519,-0.16252 -0.32279,-0.3351 -0.38229,-0.56049 -0.0473,-0.17908 -0.25307,-0.88613 -0.45722,-1.57129 -0.20416,-0.68516 -0.43232,-1.45772 -0.50702,-1.71668 -0.28256,-0.97913 -1.01249,-1.63298 -2.08116,-1.8649 l -0.59774,-0.12959 -0.0534,-0.32438 c -0.0713,-0.42995 -0.48396,-0.98012 -0.98895,-1.319 -0.50176,-0.33672 -1.38706,-0.55614 -1.7843,-0.44223 -0.34896,0.10007 -0.37627,0.0957 -0.38027,-0.062 -0.006,-0.25853 -0.20858,-0.70939 -0.46046,-1.02741 -0.3969,-0.50114 -0.86725,-0.7791 -1.61827,-0.95614 -0.65171,-0.15363 -0.68516,-0.15433 -1.29834,-0.0211 -0.74187,0.16123 -1.30354,0.49878 -1.66282,0.99907 -0.25988,0.36188 -0.48475,1.1589 -0.48475,1.7187 0,0.24754 -0.0605,0.41728 -0.23407,0.65687 -0.21072,0.29088 -0.26707,0.32342 -0.56453,0.32438 -0.18172,6e-4 -0.41451,0.0234 -0.51756,0.051 -0.18714,0.0501 -0.18732,0.0499 0.0458,-0.2928 0.28891,-0.42483 0.51983,-1.30906 0.44993,-1.72275 -0.0288,-0.17038 -0.0158,-0.34137 0.0296,-0.39607 0.14413,-0.17367 0.40173,-1.24853 0.40173,-1.67618 0,-0.95191 -0.43025,-2.00554 -1.08735,-2.6635 -0.49307,-0.49371 -0.89297,-0.70165 -1.70048,-0.88406 -0.54992,-0.12423 -0.59112,-0.12329 -1.24569,0.0381 -0.60708,0.14964 -1.08321,0.1965 -1.16551,0.1142 -0.0163,-0.0163 -0.0825,-0.26136 -0.14701,-0.54428 -0.13503,-0.59196 -0.51816,-1.13906 -1.05536,-1.50771 -0.34224,-0.23486 -1.22854,-0.48313 -1.72558,-0.48313 -0.20263,0 -0.28394,-0.0393 -0.32074,-0.15511 -0.0271,-0.0853 -0.18706,-0.32948 -0.35557,-0.54266 -0.16851,-0.21318 -0.30616,-0.40936 -0.30616,-0.43616 0,-0.0268 0.0647,-0.14187 0.14417,-0.25553 0.0795,-0.11367 0.20451,-0.4535 0.27741,-0.75528 0.12419,-0.51299 0.12407,-0.58538 0.004,-1.11489 -0.0708,-0.3115 -0.17751,-0.66041 -0.23731,-0.77511 -0.0598,-0.1147 -0.11037,-0.261 -0.11137,-0.3252 -0.004,-0.1979 -0.51791,-0.83149 -0.87069,-1.07358 -0.45452,-0.31201 -1.21079,-0.46884 -1.96654,-0.47017 z" /></g><path
       id="path2556"
       style="fill:#545863;fill-opacity:1;stroke-width:0.0778417"
       inkscape:label="cruiser"
       d="m 104.32212,147.73203 c -0.0825,-2.2e-4 -0.18983,0.003 -0.32884,0.008 -0.49078,0.0185 -0.607,0.0467 -0.6273,0.15308 -0.0176,0.0922 0.0378,0.13822 0.1879,0.15592 0.37737,0.0445 0.30649,0.20837 -0.10124,0.23447 -0.27058,0.0173 -0.3746,0.0566 -0.3746,0.14094 0,0.0807 0.10812,0.1286 0.3503,0.1555 l 0.3503,0.0389 -0.0121,0.77836 c -0.007,0.42813 -0.036,0.92336 -0.0656,1.10031 -0.0342,0.20477 -0.0229,0.34069 0.0312,0.37419 0.0474,0.0293 0.0855,0.27505 0.0855,0.55401 v 0.50135 h -1.28457 c -1.16765,0 -1.28589,0.0126 -1.29389,0.13648 -0.01,0.13854 -0.007,0.63319 0.004,0.73948 0.003,0.0321 0.22677,0.0583 0.4965,0.0583 0.27763,0 0.53066,0.0406 0.58356,0.0936 0.0727,0.0727 0.0935,0.0718 0.0935,-0.003 0,-0.0709 0.17931,-0.0902 0.68116,-0.0737 l 0.68117,0.0223 0.0239,0.33167 c 0.0287,0.39653 -0.0904,0.47445 -0.54185,0.35395 -0.1647,-0.044 -0.29968,-0.0498 -0.29968,-0.013 0,0.0369 -0.40072,0.0668 -0.89054,0.0668 -0.99013,0 -1.01393,0.012 -1.02093,0.50622 -0.002,0.17125 -0.0325,0.40751 -0.0668,0.52525 l -0.0624,0.21423 h 0.53376 0.53415 l 0.54267,0.68116 c 0.29857,0.37457 0.69372,0.83881 0.87798,1.03146 0.18427,0.19266 0.35249,0.42022 0.37379,0.50582 0.0213,0.0856 0.0293,2.27474 0.0174,4.86493 l -0.0215,4.70942 h -2.41323 -2.413234 l -0.02187,-0.91442 -0.02187,-0.91484 H 98.48562 98.062424 l -0.02187,0.91484 -0.02227,0.91442 -0.700198,0.0389 -0.700602,0.0393 -0.05022,0.46694 c -0.02748,0.25688 -0.05422,0.59837 -0.05832,0.75892 -0.0082,0.2829 6e-5,0.29198 0.259183,0.29198 0.147315,0 0.290708,0.0363 0.318308,0.081 0.08335,0.13486 -0.126423,0.31216 -0.343417,0.28996 -0.187626,-0.0191 -0.205524,0.005 -0.227594,0.3098 l -0.02389,0.33086 h -1.085327 c -0.792237,0 -1.085326,-0.0249 -1.085326,-0.0931 0,-0.0726 -0.02087,-0.0726 -0.09355,0 -0.05138,0.0513 -0.173641,0.0931 -0.272141,0.0931 -0.156332,0 -0.178998,-0.0383 -0.178998,-0.30454 0,-0.33712 -0.05176,-0.37698 -0.432511,-0.33248 -0.235923,0.0275 -0.26193,0.0563 -0.28348,0.31426 -0.02904,0.3481 -0.182884,0.30577 -0.170494,-0.047 l 0.0093,-0.2527 h -0.762969 -0.763373 l -0.02389,0.28551 c -0.03469,0.41068 -0.218685,0.43757 -0.218685,0.032 v -0.3175 h -0.735025 -0.73462 l -0.0243,0.29158 c -0.01332,0.16054 -0.05925,0.29199 -0.102053,0.29199 -0.04289,0 -0.08872,-0.13145 -0.102053,-0.29199 l -0.0243,-0.29158 h -0.762968 -0.762968 l 0.0093,0.29158 c 0.01262,0.41489 -0.210227,0.40505 -0.263637,-0.0117 l -0.03888,-0.30414 -0.696958,0.0174 c -0.383323,0.009 -0.724759,0.0345 -0.758919,0.0555 -0.03404,0.0211 -0.06196,0.15884 -0.06196,0.30616 v 0.26768 h -0.466934 -0.467338 v -0.29806 c 0,-0.16412 -0.01567,-0.31409 -0.03483,-0.33329 -0.01918,-0.019 -0.174697,-0.0216 -0.345847,-0.005 -0.290943,0.0277 -0.312732,0.0471 -0.334912,0.29603 -0.03091,0.34777 -0.172881,0.34419 -0.203701,-0.005 l -0.02389,-0.27174 -0.909973,-0.0219 c -0.876861,-0.0211 -0.911141,-0.0281 -0.935081,-0.19682 -0.02456,-0.17314 -0.01356,-0.17535 0.878385,-0.17535 0.730899,0 0.911396,0.0224 0.947636,0.11703 0.02464,0.0642 0.09342,0.11664 0.153079,0.11664 0.0596,0 0.108533,-0.0523 0.108533,-0.11664 0,-0.0865 0.09106,-0.11703 0.350706,-0.11703 h 0.350301 l -0.01984,-2.74369 -0.01944,-2.7441 0.330862,-0.0239 0.330863,-0.0239 v -0.38027 -0.38027 l -0.330863,-0.0239 -0.330862,-0.0239 -0.02268,-0.72773 c -0.02551,-0.82586 0.03308,-0.96308 0.379865,-0.89378 l 0.226379,0.0454 v -0.58883 -0.58883 l -0.29158,-0.0243 -0.291985,-0.0239 -0.03888,-0.77876 c -0.0077,-0.15407 -0.01464,-0.26324 -0.02187,-0.36286 l -0.379864,0.21828 c -0.0013,0.0452 -0.003,0.0687 -0.0045,0.12028 l -0.02227,0.80306 -1.225852,0.0211 -0.404163,0.007 -0.821689,0.4722 v 0.11542 c 0,0.6191 -0.03678,0.66439 -0.535778,0.66739 -0.197554,10e-4 -0.74197,0.50876 -0.67023,0.62487 0.02248,0.0364 0.0071,0.0868 -0.03402,0.11218 -0.04634,0.0286 -0.03413,0.18133 0.03199,0.40092 l 0.106508,0.35435 -0.212611,0.0741 c -0.188245,0.0656 -0.211306,0.11151 -0.204106,0.40255 l 0.0081,0.32843 0.677519,0.0227 c 0.775599,0.0257 0.76095,0.006 0.568581,0.78362 -0.05981,0.24165 -0.130479,0.53548 -0.157129,0.65322 l -0.0486,0.21423 h -1.90661 -1.906611 l -0.983273,-0.83708 c -0.268497,-0.22849 -0.399568,-0.33756 -0.627707,-0.53051 l -0.234074,0.13404 c 0.395297,0.33059 0.785534,0.65098 1.122988,0.91929 0.377514,0.30013 0.287108,0.32248 -1.24286,0.31548 -1.255964,-0.006 -1.467248,0.01 -1.507308,0.1142 -0.02562,0.0668 -0.08627,0.58454 -0.134856,1.15093 l -0.08869,1.02984 -0.73705,0.0389 -0.737454,0.0389 -0.496092,2.56874 -0.496496,2.56874 -0.05062,2.41323 -0.05103,2.41323 H 62.88035 c -6.929401,0 -8.757384,-0.0205 -8.783044,-0.0976 -0.01783,-0.0534 0.03168,-0.11961 0.110153,-0.14741 0.519358,-0.18369 1.035742,-0.93416 1.03673,-1.50649 5.61e-4,-0.32538 -0.221384,-0.71672 -0.516745,-0.91038 -0.171348,-0.11234 -0.409865,-0.14553 -1.191024,-0.16523 -1.127098,-0.0284 -1.537846,0.0686 -1.700885,0.40133 -0.09155,0.18681 -0.143344,0.20734 -0.527679,0.20734 -0.307147,0 -0.439118,0.0325 -0.471388,0.11664 -0.03872,0.10096 -0.440348,0.11663 -2.959944,0.11663 -1.923729,0 -2.898955,0.0269 -2.867205,0.0782 0.03059,0.0495 1.073754,0.0792 2.86518,0.0802 2.353767,0.002 2.842203,0.0211 2.968449,0.11663 0.08311,0.0629 0.266955,0.11421 0.408617,0.11421 0.187419,0 0.257562,0.035 0.257562,0.12837 0,0.1167 -0.132641,0.12319 -1.45952,0.0721 -3.145914,-0.12111 -4.947224,-0.19776 -6.402615,-0.27336 -1.917523,-0.0995 -3.863382,-0.18608 -12.337892,-0.54752 -1.969394,-0.084 -3.913525,-0.17468 -4.320246,-0.20168 l -0.73948,-0.0494 0.202081,0.22193 c 1.078513,1.18359 1.922943,2.14408 2.110717,2.40108 0.125119,0.17126 0.653989,0.76002 1.175635,1.30847 0.521647,0.54847 0.963063,1.03888 0.980843,1.08978 0.04977,0.14261 1.803267,2.07751 1.882717,2.07751 0.03856,0 0.07033,0.0437 0.07087,0.0972 5.33e-4,0.0535 0.197069,0.2989 0.436561,0.54509 v -0.002 l 0.435345,0.4479 h 70.973457 70.97183 l 0.0486,-0.24339 c 0.0268,-0.13379 0.0486,-0.34192 0.0486,-0.46248 0,-0.12056 0.0302,-0.2379 0.0672,-0.2608 0.0368,-0.0229 0.0507,-0.13023 0.03,-0.23853 -0.0207,-0.10831 0.005,-0.2475 0.0559,-0.3094 0.0513,-0.0618 0.0832,-0.22865 0.0709,-0.37055 -0.0121,-0.1419 -9.9e-4,-0.29241 0.0247,-0.33451 0.0258,-0.0422 0.0589,-0.25206 0.0741,-0.46612 l 0.0279,-0.38918 -0.38958,-0.0389 c -0.38431,-0.0385 -0.38948,-0.0423 -0.41308,-0.32641 l -0.0239,-0.28794 0.41267,-0.0235 c 0.33107,-0.019 0.4178,-0.0526 0.4402,-0.17008 0.0373,-0.19618 -0.11473,-0.27965 -0.5131,-0.28065 l -0.33086,-8.1e-4 v -0.73989 -0.73948 h -0.89215 -0.89216 l -0.0223,0.72005 -0.0227,0.72004 -0.64188,0.0227 -0.64229,0.0227 v -0.74272 -0.74272 h -0.91483 -0.91443 l 0.0247,0.73989 0.0247,0.73948 h -1.45102 -1.45061 l 0.0247,-0.17495 c 0.0207,-0.14559 0.0809,-0.17935 0.35597,-0.19925 0.18194,-0.0132 0.33087,-0.0568 0.33087,-0.0972 0,-0.0415 0.37199,-0.0733 0.85611,-0.0733 0.51894,0 0.85611,-0.031 0.85611,-0.0782 0,-0.047 -0.32322,-0.0778 -0.8144,-0.0778 -0.73494,0 -0.82262,-0.0151 -0.89782,-0.15551 -0.0654,-0.12238 -0.16317,-0.15592 -0.45519,-0.15592 -0.31438,0 -0.41169,-0.0391 -0.63054,-0.2531 l -0.25878,-0.25271 h -1.22869 c -1.20251,0 -1.23327,0.004 -1.43968,0.19439 -0.30313,0.27977 -0.445,0.65947 -0.3831,1.02539 l 0.0514,0.30454 -0.64957,-0.0227 -0.64958,-0.0227 -0.0219,-1.04564 c -0.0126,-0.60846 -0.057,-1.08849 -0.10651,-1.14809 -0.066,-0.0796 -0.50891,-0.10246 -1.98274,-0.10246 h -1.8977 v -0.38392 c 0,-0.33888 0.0208,-0.38671 0.17535,-0.40861 0.11262,-0.016 0.18416,-0.0875 0.20006,-0.20006 0.024,-0.16913 0.0541,-0.17535 0.83019,-0.17535 0.44305,0 0.8609,-0.0209 0.9286,-0.047 0.33889,-0.13003 -0.0852,-0.54683 -0.77592,-0.76216 -0.25453,-0.0794 -0.52611,-0.17655 -0.60341,-0.21585 -0.0773,-0.0392 -0.36931,-0.0925 -0.64877,-0.11866 -0.43969,-0.0411 -0.51739,-0.0723 -0.57749,-0.23042 -0.0671,-0.17674 -0.0989,-0.18265 -0.92779,-0.18265 h -0.85814 v 0.19439 0.19479 l -0.83667,0.0134 c -0.46023,0.007 -0.91192,0.0164 -1.00352,0.0194 -0.2089,0.008 -0.49488,0.25964 -0.49488,0.43575 0,0.31242 0.52257,0.63197 1.16754,0.71357 0.13296,0.0168 0.20249,0.08 0.21949,0.19965 0.0177,0.12425 0.0774,0.17495 0.20573,0.17495 0.20679,0 0.25017,0.0842 0.24217,0.46733 l -0.006,0.27215 -4.61224,0.0202 -4.61182,0.0202 v -0.77916 c 0,-0.78407 -0.058,-0.92362 -0.28753,-0.69413 -0.0537,0.0539 -0.28056,0.0691 -0.6188,0.0417 -0.29369,-0.0236 -0.58649,-0.0415 -0.65079,-0.0405 -0.0642,0.001 -0.37951,0.009 -0.7006,0.0166 l -0.58357,0.0142 v -0.46694 -0.46693 l 0.54307,-0.0235 c 0.43621,-0.0188 0.56164,0.002 0.63824,0.10651 0.0878,0.12014 0.10506,0.1205 0.22151,0.004 0.17732,-0.17734 1.02161,-0.17502 1.21857,0.003 0.16964,0.15348 0.28498,0.0819 0.14336,-0.0887 -0.0869,-0.10465 -0.94157,-0.11866 -7.28667,-0.11866 -8.08082,0 -7.36522,-0.0578 -7.29842,0.59167 0.0218,0.21306 -0.004,0.34913 -0.0769,0.40983 -0.0788,0.0652 -0.66524,0.0855 -2.0852,0.0705 l -1.97546,-0.0211 -0.0389,-2.56874 -0.0389,-2.56875 -0.36974,-0.0235 c -0.20336,-0.0132 -0.36974,-0.041 -0.36974,-0.062 0,-0.021 -0.17197,-0.60579 -0.3823,-1.29956 -0.21034,-0.69376 -0.54511,-1.82089 -0.74393,-2.50476 -0.19882,-0.68387 -0.3745,-1.25652 -0.3904,-1.27242 -0.0159,-0.0165 -0.55038,-0.0246 -1.18778,-0.0186 -0.63742,0.006 -1.21784,-0.012 -1.28984,-0.0397 -0.11377,-0.0437 -0.13121,-0.18716 -0.13121,-1.08654 0,-1.09113 -0.0143,-1.13217 -0.36488,-1.06507 -0.17103,0.0327 -0.17622,0.0623 -0.19722,1.09504 l -0.0215,1.06184 -0.81764,0.0227 c -1.2452,0.0346 -1.15865,0.10857 -1.18455,-1.01608 l -0.0219,-0.95249 h -0.27254 -0.27215 l -0.0219,-1.08492 c -0.0133,-0.66292 -0.0562,-1.12593 -0.11016,-1.19103 -0.0528,-0.0636 -0.20049,-0.097 -0.36731,-0.083 l -0.27902,0.0235 v 1.1481 c 0,0.70521 -0.0304,1.15405 -0.0782,1.16105 -0.0428,0.007 -0.20045,0.015 -0.3503,0.019 l -0.27255,0.007 -0.0389,0.7006 -0.0389,0.7006 -0.54469,0.0389 -0.5451,0.0389 -0.0211,1.53727 c -0.0198,1.44278 -0.0301,1.53728 -0.16685,1.53728 -0.0802,0 -0.16892,-0.0602 -0.19722,-0.13405 -0.0283,-0.0739 -0.0453,-0.76599 -0.0373,-1.53768 l 0.0146,-1.40282 h -0.67955 -0.67954 l -0.0117,1.51783 -0.0118,1.51784 -0.17819,0.0251 c -0.17805,0.0252 -0.17833,0.0241 -0.12473,-0.68643 l 0.0539,-0.71194 -0.30373,0.0251 c -0.28393,0.0232 -0.30256,0.0403 -0.28996,0.25837 0.0229,0.39514 -0.0433,0.58356 -0.20532,0.58356 -0.12615,0 -0.15393,-0.065 -0.17373,-0.40861 l -0.0235,-0.40862 h -0.31142 -0.31143 l -0.0389,0.38918 c -0.0354,0.35459 -0.0576,0.39168 -0.25109,0.41388 l -0.21261,0.0243 -0.0211,1.53241 -0.0211,1.53242 -1.30199,0.0211 -1.30158,0.0215 -0.0215,1.14648 -0.0215,1.14607 -0.4803,0.0231 -0.47989,0.0231 -0.0486,-0.5293 c -0.0267,-0.29093 -0.0802,-0.80884 -0.11865,-1.15134 -0.0383,-0.34251 -0.0908,-0.92066 -0.11704,-1.28457 -0.0261,-0.36391 -0.0829,-0.91213 -0.12595,-1.21816 -0.0706,-0.5023 -0.0617,-0.59292 0.0907,-0.93386 0.27885,-0.62367 0.35772,-0.81049 0.68521,-1.62313 0.17254,-0.42812 0.45587,-1.1033 0.62933,-1.50002 0.17347,-0.3967 0.31547,-0.77317 0.31547,-0.83667 0,-0.0636 0.035,-0.11542 0.0778,-0.11542 0.0429,0 0.0777,-0.0878 0.0777,-0.19479 0,-0.10711 0.0354,-0.19439 0.0782,-0.19439 0.0429,0 0.0778,-0.0805 0.0778,-0.179 0,-0.0985 0.0437,-0.22309 0.0972,-0.27659 0.0535,-0.0535 0.10048,-0.12187 0.10448,-0.15187 0.004,-0.03 0.0687,-0.19443 0.14377,-0.36569 0.0751,-0.17125 0.18911,-0.43412 0.25351,-0.58397 0.0644,-0.14984 0.1925,-0.42978 0.2847,-0.62244 l 0.16725,-0.3503 0.62285,-0.009 c 0.50187,-0.008 0.62724,-0.0339 0.64714,-0.13364 0.0212,-0.10635 -0.0995,-0.1273 -0.85611,-0.1462 l -0.88081,-0.0219 -0.003,-0.20613 c -0.002,-0.11349 -0.0435,-0.25496 -0.0927,-0.31426 -0.0532,-0.0641 -0.0626,-0.15104 -0.0231,-0.21504 0.036,-0.0591 0.0488,-0.21686 0.0271,-0.3507 -0.0318,-0.19586 0.008,-0.29437 0.2037,-0.50379 0.25907,-0.27733 0.21689,-0.26934 1.35382,-0.24784 0.42313,0.008 0.45126,0.0202 0.42806,0.18385 -0.0365,0.25676 -0.44306,0.43533 -0.85773,0.37663 -0.18408,-0.0261 -0.47509,-0.0257 -0.64634,8.1e-4 -0.37911,0.0585 -0.3016,0.0827 0.31142,0.0976 0.39313,0.01 0.46541,0.0327 0.45641,0.14741 -0.0131,0.16499 0.0155,0.16463 0.35637,-0.004 0.17763,-0.0879 0.34235,-0.26988 0.49002,-0.54105 l 0.22273,-0.40861 h -1.3684 c -1.19803,0 -1.37481,-0.0159 -1.41781,-0.12797 -0.10512,-0.27401 0.17326,-0.33776 1.37124,-0.31386 0.62433,0.0126 1.19682,0.0506 1.27202,0.085 0.11929,0.0544 0.11389,0.0191 -0.0393,-0.2766 -0.0967,-0.18668 -0.21072,-0.37494 -0.25352,-0.41834 -0.12539,-0.12687 -0.52165,-0.28196 -0.57425,-0.22476 -0.0267,0.0288 -0.005,0.0681 0.0486,0.0871 0.1602,0.0572 0.11027,0.17738 -0.0737,0.17738 -0.1238,0 -0.14785,0.0234 -0.0863,0.085 0.0599,0.0601 0.13033,0.0613 0.23731,0.004 0.11357,-0.0609 0.19424,-0.0517 0.31952,0.036 0.0922,0.0646 0.16766,0.14951 0.16766,0.18831 0,0.0406 -0.9663,0.0696 -2.27878,0.0676 -1.25335,-0.002 -2.3705,0.0197 -2.48248,0.0478 -0.26291,0.066 -0.37795,-0.0995 -0.17414,-0.25068 0.0815,-0.0606 0.24607,-0.096 0.36569,-0.079 0.11961,0.017 0.23556,0.002 0.25756,-0.034 0.0221,-0.0357 0.003,-0.0648 -0.0421,-0.0648 -0.0454,0 -0.0826,-0.0712 -0.0826,-0.15794 0,-0.14745 -0.0141,-0.15025 -0.21423,-0.045 -0.31006,0.16315 -0.59826,0.54927 -0.54266,0.72693 0.01,0.0304 0.56022,0.0565 1.22383,0.0575 l 1.20681,0.002 0.0243,0.2118 0.0243,0.21221 -1.26959,0.0215 c -1.16376,0.0196 -1.26956,0.0331 -1.25906,0.16037 0.0346,0.42692 0.88406,1.11876 0.88406,0.72004 0,-0.0904 0.0966,-0.10796 0.46774,-0.0863 0.25726,0.0151 0.48717,-0.004 0.51067,-0.0417 0.0436,-0.0705 -0.2382,-0.0916 -0.94399,-0.0709 -0.47886,0.0141 -0.83076,-0.20689 -0.69169,-0.43454 0.0683,-0.11192 0.19662,-0.13337 0.75892,-0.12837 0.87491,0.008 0.83262,0.002 0.83262,0.13202 0,0.0618 0.0787,0.16779 0.17495,0.23569 0.1378,0.097 0.15275,0.13733 0.0696,0.18913 -0.0624,0.0389 -0.0745,0.0853 -0.0296,0.11298 0.0824,0.0508 0.0638,0.4714 -0.0397,0.90674 l -0.0648,0.27214 -0.92456,0.0223 c -0.50852,0.0121 -0.95333,-0.007 -0.98853,-0.0421 -0.0608,-0.0608 -0.1759,-1.04978 -0.2604,-2.23747 -0.0213,-0.2997 -0.0754,-0.85694 -0.11987,-1.2384 -0.0445,-0.38147 -0.0532,-0.72086 -0.0194,-0.75406 0.0338,-0.0334 0.2192,-0.0716 0.41186,-0.085 l 0.3503,-0.0243 0.0231,-0.49325 c 0.0141,-0.29669 -0.0128,-0.53731 -0.0676,-0.60341 -0.0731,-0.0882 -0.40546,-0.10975 -1.67294,-0.10975 -1.07217,0 -1.59878,-0.0279 -1.63488,-0.0863 -0.0371,-0.0602 -0.073,-0.0543 -0.11825,0.019 -0.1122,0.18145 -0.24001,-0.0407 -0.21301,-0.37015 0.0201,-0.24484 0.0581,-0.30661 0.20005,-0.32681 0.0999,-0.0141 0.17495,0.0162 0.17495,0.0705 0,0.0608 0.0553,0.0451 0.15227,-0.0425 0.11831,-0.10703 0.14837,-0.22623 0.13607,-0.5374 -0.0157,-0.39715 -0.0178,-0.3999 -0.28834,-0.4236 -0.14985,-0.0131 -0.30863,-0.0712 -0.35313,-0.12878 -0.0445,-0.0576 -0.16719,-0.11712 -0.27255,-0.13202 -0.16818,-0.0237 -0.19434,-0.0711 -0.21504,-0.39161 -0.0195,-0.30226 0.004,-0.37953 0.13607,-0.45033 0.21216,-0.11368 0.21311,-0.47634 0.001,-0.60867 -0.14422,-0.0902 -0.15637,-0.16588 -0.13607,-0.85571 l 0.0223,-0.75649 0.3503,-0.0389 c 0.24217,-0.0269 0.3503,-0.0748 0.3503,-0.1555 0,-0.0807 -0.10813,-0.12902 -0.3503,-0.15592 -0.40614,-0.0451 -0.46774,-0.18339 -0.0976,-0.21909 0.19189,-0.0185 0.25311,-0.0613 0.25311,-0.17819 0,-0.10664 -0.0261,-0.13907 -0.27376,-0.13971 z m -1.77783,5.36588 c -0.0483,10e-4 -0.0199,0.0541 0.0632,0.11704 l 4.1e-4,-8.1e-4 c 0.19406,0.1473 0.24413,0.14624 0.12108,-0.002 -0.0533,-0.0642 -0.13636,-0.1152 -0.18466,-0.1142 z m 0.049,0.75325 c 0.59843,0.004 1.18929,0.0313 1.20439,0.0765 0.0163,0.0488 -0.0483,0.11357 -0.14336,0.14377 l -0.17293,0.0547 0.18103,0.13647 c 0.11103,0.0837 0.16274,0.18297 0.13404,0.25757 -0.0393,0.10258 -0.23361,0.12211 -1.25744,0.12311 -0.71143,0.001 -1.21375,-0.0289 -1.21775,-0.0725 -0.0246,-0.28055 -0.0123,-0.62582 0.0231,-0.66132 0.0448,-0.0448 0.65051,-0.0627 1.24894,-0.0583 z m 4.66528,0.0296 c 0.33851,0.003 0.59466,0.0134 0.67509,0.0332 0.17652,0.0434 0.1786,0.0511 0.0478,0.1956 -0.1094,0.12093 -0.1175,0.17337 -0.0409,0.26567 0.0517,0.063 0.073,0.14936 0.0466,0.19276 -0.065,0.10555 -3.2906,0.10398 -3.3556,-0.001 -0.0262,-0.0424 -0.006,-0.12722 0.0453,-0.18912 0.0953,-0.11491 0.051,-0.36565 -0.0583,-0.32925 -0.0332,0.0111 -0.0778,-0.0147 -0.0992,-0.0575 -0.032,-0.0636 1.72372,-0.11955 2.73923,-0.11016 z m -1.03835,0.1952 c -0.095,-0.0184 -0.14417,0.0357 -0.14417,0.16118 0,0.1182 0.14334,0.134 0.30252,0.0332 0.0869,-0.055 0.0774,-0.0846 -0.0482,-0.15187 -0.0418,-0.0223 -0.0785,-0.0364 -0.11015,-0.0425 z m -3.6079,0.0705 c -0.0785,0 -0.15755,0.0437 -0.17535,0.0972 -0.0206,0.0617 0.0439,0.0976 0.17535,0.0976 0.13144,0 0.19545,-0.0359 0.17495,-0.0976 -0.0178,-0.0535 -0.0965,-0.0972 -0.17495,-0.0972 z m 2.96926,0.73624 c 0.62149,0.006 1.24309,0.0256 1.26999,0.0534 0.0475,0.0491 -0.0863,0.15429 -0.6848,0.53902 -0.46026,0.29588 -0.60056,0.31962 -0.8302,0.14093 -0.0856,-0.0666 -0.33513,-0.20158 -0.5544,-0.30008 -0.38592,-0.17333 -0.55559,-0.31876 -0.47099,-0.40336 0.0273,-0.0273 0.64891,-0.0357 1.2704,-0.03 z m -2.61653,0.003 c 0.75959,0 0.85397,0.10427 0.46086,0.50986 -0.30385,0.31345 -0.25975,0.45293 0.0518,0.16401 0.11763,-0.10907 0.2424,-0.18075 0.2774,-0.15915 0.0349,0.0216 0.0636,0.31769 0.0636,0.65767 0,0.33997 -0.0282,0.61799 -0.0628,0.61799 -0.0346,0 -0.16603,-0.14495 -0.29198,-0.32195 -0.12595,-0.17699 -0.31659,-0.41326 -0.4236,-0.52525 -0.35776,-0.37437 -0.7006,-0.80152 -0.7006,-0.87272 0,-0.0387 0.28143,-0.0705 0.62527,-0.0705 z m 4.12019,0.31142 c 0.0326,0 0.0824,0.23627 0.11097,0.52525 0.0286,0.289 0.0722,0.63922 0.0972,0.77836 v 4e-4 c 0.0352,0.19627 0.0184,0.2527 -0.0753,0.2527 -0.0665,0 -0.14206,-0.0343 -0.16806,-0.0765 -0.0261,-0.0422 -0.29789,-0.22306 -0.60381,-0.40173 -0.62669,-0.36601 -0.64306,-0.28423 0.1632,-0.80792 0.22907,-0.14879 0.44324,-0.27052 0.47584,-0.27052 z m -2.92187,0.045 c 0.0638,0.0122 0.17498,0.0642 0.28469,0.13607 0.1463,0.0958 0.3971,0.2423 0.55765,0.3256 0.16055,0.0833 0.29199,0.17285 0.29199,0.19925 0,0.0263 -0.24388,0.19379 -0.54226,0.37176 -0.29838,0.17799 -0.57865,0.32357 -0.62285,0.32357 -0.0967,0 -0.11139,-1.29482 -0.0154,-1.35422 0.009,-0.006 0.0249,-0.006 0.0462,-0.002 z m -13.504215,0.82574 c -0.05353,0.0178 -0.08646,0.86175 -0.09719,2.47762 l -0.0162,2.4509 -0.467339,0.0393 -0.466933,0.0389 -0.0093,1.82926 -0.0093,1.82926 -0.282265,0.0239 -0.282266,0.0243 v -1.873 -1.873 h -0.311424 -0.311424 v -2.49746 c 0,-1.54037 -0.02165,-2.32757 -0.06682,-2.44725 l -0.03159,0.0178 c -0.04337,0.18082 -0.07068,1.0038 -0.08019,2.43712 l -0.0162,2.4509 -0.50581,0.0389 -0.505811,0.0389 -0.0097,1.82926 -0.0093,1.82926 -0.340582,0.0389 -0.340581,0.0389 -0.02146,0.42846 c -0.01187,0.23547 -0.04223,0.48039 -0.06763,0.54469 -0.02535,0.0642 -0.03999,0.2971 -0.03159,0.51755 0.0084,0.23045 -0.02289,0.42419 -0.07371,0.45559 -0.05196,0.0322 -0.08241,0.23505 -0.07411,0.49407 0.0079,0.24187 -0.01,0.49942 -0.04009,0.57182 -0.0298,0.0724 -0.04273,0.19464 -0.02794,0.27214 0.02329,0.1218 0.1249,0.14391 0.750009,0.16321 0.547047,0.017 0.733098,0.0504 0.766208,0.13647 l -0.002,8.1e-4 c 0.05634,0.1468 0.15404,0.14518 0.21099,-0.003 0.06733,-0.17546 1.344627,-0.16675 1.540516,0.0105 0.130248,0.11791 0.144237,0.11791 0.189527,0 0.07421,-0.19364 1.392112,-0.18698 1.500828,0.007 0.0714,0.12757 0.08338,0.12757 0.224354,0 0.203261,-0.18392 1.47886,-0.19862 1.54821,-0.0178 0.05714,0.14845 0.183858,0.15158 0.183858,0.004 0,-0.0764 0.105611,-0.12007 0.330862,-0.13647 l 0.330863,-0.0239 0.01174,-0.71113 c 0.0065,-0.39107 0.05014,-0.78237 0.09679,-0.86947 0.06318,-0.11739 0.06112,-0.16633 -0.0073,-0.18913 -0.06502,-0.0217 -0.08616,-0.26368 -0.07127,-0.81764 0.01957,-0.72838 0.0092,-0.79342 -0.140526,-0.87352 -0.156515,-0.0838 -0.161584,-0.14349 -0.161584,-1.91309 v -1.82643 H 92.685637 91.90728 v 1.87341 1.87299 l -0.243388,-0.0243 -0.242984,-0.0243 -0.0097,-1.82926 -0.0093,-1.82926 -0.330862,-0.0239 -0.330863,-0.0243 v -2.4926 c 0,-1.69362 -0.02591,-2.48418 -0.08099,-2.46588 z m 14.909065,0.0113 c 0.0962,-0.004 0.21627,0.0671 0.5212,0.25351 0.27403,0.16748 0.56524,0.34207 0.64674,0.38797 0.0815,0.0459 0.16169,0.12444 0.17859,0.17494 0.0227,0.0681 -0.3243,0.0919 -1.34775,0.0919 -1.53754,0 -1.55784,-0.012 -0.78848,-0.46045 0.22128,-0.129 0.49464,-0.29411 0.60746,-0.36691 0.0753,-0.0486 0.12452,-0.0784 0.18224,-0.081 z m 4.63369,0.13 c -0.0907,0 -0.14354,0.035 -0.11704,0.0778 0.0266,0.0429 0.0792,0.0778 0.11704,0.0778 0.0378,0 0.0901,-0.035 0.11663,-0.0778 0.0265,-0.0429 -0.026,-0.0778 -0.11663,-0.0778 z m -1.10476,8.1e-4 c -0.1446,0.001 -0.15677,0.0162 -0.0628,0.0769 0.14481,0.0937 0.13648,0.0937 0.19438,0 0.0268,-0.0435 -0.0313,-0.0776 -0.13161,-0.0769 z m 1.8248,0 c -0.0963,-6e-4 -0.17535,0.0341 -0.17535,0.0769 h 4e-4 c 0,0.0976 0.0823,0.0976 0.23327,0 0.0943,-0.0611 0.0833,-0.076 -0.0583,-0.0769 z m 0.97761,0 c -0.1447,0.001 -0.15718,0.0162 -0.0632,0.0769 0.1448,0.0937 0.13689,0.0937 0.19479,0 0.0268,-0.0435 -0.0313,-0.0776 -0.13161,-0.0769 z m -2.1743,0.009 c -0.0423,-5.5e-4 -0.0873,0.004 -0.12514,0.0142 -0.0758,0.0197 -0.0329,0.0369 0.0956,0.0389 0.1287,0.002 0.19039,-0.0147 0.13769,-0.036 -0.0264,-0.0107 -0.0658,-0.0164 -0.10813,-0.017 z m 1.71263,0 c -0.0423,-5.5e-4 -0.0873,0.004 -0.12514,0.0142 -0.0757,0.0197 -0.0329,0.0369 0.0956,0.0389 0.12871,0.002 0.1904,-0.0147 0.1377,-0.036 -0.0264,-0.0107 -0.0658,-0.0164 -0.10813,-0.017 z m -8.75065,4e-4 c -0.0218,-0.0218 -0.13512,0.0767 -0.25189,0.21909 -0.11677,0.14235 -0.3087,0.35789 -0.42644,0.47908 -0.11777,0.12119 -0.21382,0.24107 -0.21382,0.26647 0,0.0254 -0.52642,0.65691 -1.16956,1.40364 -0.643139,0.74672 -1.145656,1.35787 -1.116917,1.35787 0.02873,0 0.160837,-0.11391 0.293606,-0.25311 0.420851,-0.44127 1.869121,-2.14814 2.226131,-2.62341 0.10703,-0.14249 0.30813,-0.38298 0.44669,-0.53456 0.1386,-0.15157 0.2339,-0.29337 0.2122,-0.31507 z m 0.24096,0.22314 c -0.019,0 -0.0561,0.0354 -0.0826,0.0782 -0.0264,0.0429 -0.0109,0.0778 0.0344,0.0778 0.0455,0 0.0826,-0.035 0.0826,-0.0778 0,-0.0429 -0.0156,-0.0782 -0.0344,-0.0782 z m -0.13323,0.32317 c -0.005,-0.006 -0.0265,-0.004 -0.0656,0.006 -0.11392,0.0293 -1.50238,2.02385 -3.482359,5.00262 -0.540695,0.81344 -1.192844,1.79426 -1.449396,2.17956 -0.256561,0.38533 -0.617866,0.90226 -0.803061,1.14891 -0.185194,0.24665 -0.336937,0.48336 -0.336937,0.52566 0,0.0423 -0.03495,0.0769 -0.07775,0.0769 -0.0429,0 -0.07775,0.0523 -0.07775,0.11663 0,0.0642 -0.03536,0.11704 -0.07816,0.11704 -0.04291,0 -0.07776,0.0523 -0.07776,0.11663 0,0.0642 -0.03495,0.11663 -0.07775,0.11663 -0.04291,0 -0.07816,0.0368 -0.07816,0.0814 0,0.0446 -0.06992,0.15585 -0.155509,0.24785 -0.08562,0.0919 -0.15551,0.2132 -0.15551,0.2693 0,0.0562 -0.03536,0.10206 -0.07816,0.10206 -0.04291,0 -0.07775,0.0496 -0.07775,0.11015 0,0.0606 -0.0289,0.12217 -0.06399,0.13647 -0.07426,0.0302 -0.714371,0.96501 -0.714371,1.04321 h 4.05e-4 c 0,0.029 0.05238,0.009 0.116632,-0.0441 0.06418,-0.0533 0.116632,-0.14222 0.116632,-0.19762 0,-0.0554 0.02772,-0.11246 0.06156,-0.12676 0.06831,-0.0289 1.573318,-2.21841 1.573318,-2.28891 0,-0.0245 0.0571,-0.1017 0.126756,-0.1713 0.06971,-0.0697 0.65934,-0.93434 1.310491,-1.92119 1.640067,-2.48558 4.398029,-6.52892 4.506129,-6.60672 0.0299,-0.0216 0.0426,-0.0352 0.0381,-0.0409 z m 2.96439,0.45519 c 1.01453,0 1.33419,0.0233 1.31049,0.0944 -0.0173,0.0517 -0.28587,0.24433 -0.59692,0.42805 -0.31105,0.18372 -0.60657,0.33062 -0.65647,0.32762 -0.0499,-0.003 -0.2833,-0.12587 -0.51876,-0.27214 -0.23548,-0.14626 -0.46621,-0.2659 -0.51311,-0.26606 -0.0469,-1.8e-4 -0.14887,-0.0703 -0.22637,-0.15592 -0.14037,-0.15514 -0.13577,-0.15591 1.20114,-0.15591 z m -1.64337,0.2037 c 0.035,-0.0217 0.27018,0.0973 0.52241,0.26485 0.25224,0.1675 0.55578,0.34524 0.67468,0.39444 0.11888,0.0493 0.19775,0.11983 0.17495,0.15673 -0.0228,0.037 -0.24595,0.18693 -0.49568,0.33329 -0.24974,0.14637 -0.54022,0.3225 -0.64513,0.3912 -0.10492,0.0687 -0.21418,0.10129 -0.24298,0.0725 -0.075,-0.0751 -0.0643,-1.566 0.0117,-1.613 z m 3.19968,0.0692 c 0.0131,10e-5 0.0227,0.005 0.028,0.0134 0.032,0.0536 0.15481,1.22119 0.14781,1.40445 -0.004,0.10595 -0.13445,0.10176 -0.24987,-0.008 -0.0631,-0.06 -0.33352,-0.22154 -0.60098,-0.35881 -0.26746,-0.13727 -0.46694,-0.28071 -0.44344,-0.31871 0.0235,-0.038 0.20747,-0.16276 0.40862,-0.27741 0.20115,-0.11466 0.44074,-0.27538 0.53254,-0.35718 0.0688,-0.061 0.13821,-0.0979 0.17737,-0.0976 z m 3.24626,0.81683 c 0.33693,0 0.34961,0.009 0.32601,0.21423 -0.0219,0.19068 -0.0597,0.21672 -0.34869,0.23772 -0.26971,0.0196 -0.333,-0.003 -0.375,-0.13567 -0.0772,-0.24352 0.0145,-0.31628 0.39768,-0.31628 z m -4.73939,0.0863 c 0.0932,5e-5 0.18964,0.0457 0.31952,0.13728 0.11364,0.0802 0.38816,0.23736 0.60989,0.34909 0.22175,0.1117 0.42413,0.23723 0.44993,0.27903 0.0275,0.0477 -0.45922,0.0839 -1.31778,0.0984 -1.52198,0.0256 -1.63119,-0.0161 -0.95614,-0.36812 0.22477,-0.11722 0.49235,-0.2788 0.59449,-0.3588 0.11681,-0.0914 0.20684,-0.13694 0.30009,-0.13688 z m 0.098,1.08168 c 0.81519,0 1.32345,0.0293 1.32345,0.0765 0,0.0421 -0.16639,0.16172 -0.36974,0.26607 -0.20337,0.10438 -0.49037,0.28036 -0.63783,0.39079 v -4e-4 c -0.31808,0.23824 -0.33368,0.24044 -0.49407,0.0648 -0.0684,-0.0749 -0.35386,-0.25599 -0.63459,-0.40213 -0.28072,-0.14614 -0.51067,-0.29466 -0.51067,-0.33046 0,-0.0358 0.59562,-0.0652 1.32345,-0.0652 z m 3.8035,4e-4 c 0.83882,0.008 1.65892,0.0362 1.68307,0.0753 0.0257,0.0416 -0.0374,0.26042 -0.14012,0.48637 -0.10275,0.22595 -0.23542,0.55082 -0.29482,0.72207 -0.0594,0.17126 -0.14864,0.33774 -0.19844,0.36974 -0.0495,0.032 -0.073,0.12339 -0.0522,0.20329 0.027,0.10333 -0.0145,0.15898 -0.14376,0.19358 h -4.1e-4 c -0.0998,0.0268 -0.71794,0.0492 -1.37407,0.0498 l -1.19305,8.1e-4 0.0142,-0.21382 c 0.008,-0.11773 0.006,-0.23171 -0.004,-0.25311 -0.0101,-0.0214 -0.0589,-0.37973 -0.10813,-0.79618 -0.0742,-0.62839 -0.0713,-0.76409 0.0166,-0.79779 0.0987,-0.0379 0.95643,-0.0485 1.79524,-0.0401 z m -5.58295,0.15511 c 0.0488,0 0.35091,0.15764 0.67145,0.3503 0.32054,0.19265 0.60887,0.3503 0.64107,0.3503 0.0321,0 0.10066,0.0504 0.15186,0.11218 0.0768,0.0925 0.0341,0.14248 -0.24338,0.28348 -0.18512,0.0941 -0.52117,0.28862 -0.74677,0.43251 -0.45285,0.28892 -0.43808,0.28278 -0.51108,0.20978 -0.0948,-0.0948 -0.06,-1.73855 0.0369,-1.73855 z m 3.41919,0.13404 c 0.0307,0.0333 0.0805,0.40224 0.11055,0.81967 0.0471,0.65401 0.0381,0.75892 -0.0648,0.75892 -0.0656,0 -0.14024,-0.0338 -0.16564,-0.0749 -0.0254,-0.0411 -0.29011,-0.20749 -0.58802,-0.36974 -0.29793,-0.16224 -0.54225,-0.33564 -0.54225,-0.38554 -6.9e-4,-0.12042 1.17825,-0.82619 1.25015,-0.74839 z m -8.123347,0.28429 c -0.02005,-0.02 -0.207067,0.16647 -0.415501,0.4147 -0.208436,0.24825 -0.398452,0.46902 -0.421982,0.49042 -0.02353,0.0214 -1.001716,1.15983 -2.173892,2.52986 -1.172177,1.37001 -2.151447,2.50846 -2.175917,2.52986 -0.02446,0.0214 -0.09693,0.10571 -0.161179,0.18751 -0.07497,0.0958 -0.08258,0.13763 -0.02146,0.11703 0.05229,-0.0177 1.027868,-1.118 2.167818,-2.44522 2.969815,-3.45761 3.242717,-3.78356 3.202117,-3.82416 z m -15.870871,0.25757 c 0.479284,0.005 0.968058,0.0278 1.02782,0.0648 0.04175,0.0258 0.07573,0.29004 0.07573,0.58721 0,0.65265 -0.04992,0.66783 -0.73948,0.22638 -0.256885,-0.16445 -0.630524,-0.35561 -0.830598,-0.42481 -0.372536,-0.12902 -0.576121,-0.2939 -0.505001,-0.40903 0.02231,-0.0361 0.492245,-0.0494 0.971529,-0.0445 z m 22.405908,0.41388 c 0.083,0 0.18406,0.0325 0.22476,0.0717 0.0407,0.0393 0.28418,0.18366 0.54105,0.32114 0.25688,0.13749 0.51843,0.29798 0.58113,0.35678 0.0968,0.0907 -0.10587,0.10692 -1.34734,0.10692 -0.80374,0 -1.44335,-0.0293 -1.42145,-0.0648 0.0779,-0.12603 1.27335,-0.79172 1.42185,-0.79172 z m -22.919413,0.15591 c 0.03916,0 0.21751,0.0991 0.396468,0.22031 0.178968,0.12123 0.37798,0.24323 0.44223,0.27093 0.276605,0.11935 0.715475,0.41001 0.726925,0.48151 0.01071,0.067 -1.568357,0.16623 -1.590327,0.10003 -0.04935,-0.14882 -0.02809,-1.07278 0.0247,-1.07278 z m 22.813313,0.93387 c 0.84341,0 1.53363,0.0307 1.53363,0.068 0,0.0374 -0.30388,0.24743 -0.67509,0.46693 -0.37118,0.21948 -0.71262,0.39704 -0.75892,0.39404 -0.10814,-0.006 -1.42971,-0.72589 -1.54537,-0.84154 -0.0651,-0.0651 0.30785,-0.0875 1.44575,-0.0875 z m 3.40663,0 c 0.62653,0 1.09559,0.032 1.12339,0.077 0.0262,0.0424 -0.15736,0.55943 -0.4078,1.1485 l -0.45519,1.07074 -0.59977,0.0227 -0.59976,0.0227 v -0.26242 c 0,-0.14451 -0.0239,-0.28709 -0.0535,-0.31669 -0.0295,-0.0296 -0.0447,-0.22459 -0.0336,-0.43332 0.0117,-0.22009 -0.0169,-0.40203 -0.068,-0.43373 -0.0486,-0.03 -0.0787,-0.14769 -0.0668,-0.2612 0.0119,-0.11352 -0.006,-0.25157 -0.0405,-0.30697 -0.0348,-0.0565 -0.0208,-0.15023 0.032,-0.21383 0.074,-0.0892 0.32277,-0.11339 1.16956,-0.11339 z m -1.5555,0.23367 c 0.0394,0 0.0717,0.064 0.0717,0.14255 0,0.0785 0.0243,0.16681 0.0539,0.19641 0.0295,0.0295 0.0443,0.2246 0.0332,0.43332 -0.011,0.20872 0.0174,0.40249 0.0632,0.43089 0.0458,0.0283 0.0834,0.1524 0.0834,0.27579 0,0.12338 -0.0277,0.24132 -0.0611,0.26202 -0.10869,0.0672 -1.577,-0.76068 -1.5551,-0.87677 0.0201,-0.10636 1.1697,-0.86421 1.3109,-0.86421 z m -3.62005,0.0591 c 0.0427,-0.0427 1.04609,0.46469 1.43968,0.72814 l 0.18831,0.12594 -0.36083,0.22436 c -0.19843,0.12342 -0.53105,0.32918 -0.73907,0.45721 -0.48168,0.29661 -0.45638,0.28594 -0.51918,0.22314 -0.0645,-0.0643 -0.0726,-1.69509 -0.009,-1.75879 z m -19.922619,0.65767 c 0.481297,0.0211 0.388284,0.11958 -0.133236,0.40254 -0.232353,0.12606 -0.434035,0.25862 -0.448305,0.29442 v -4.1e-4 c -0.03616,0.0912 -0.479892,0.0827 -0.479892,-0.009 0,-0.041 -0.159037,-0.16786 -0.353541,-0.28186 -0.194515,-0.11398 -0.340828,-0.24692 -0.324788,-0.29522 0.01924,-0.058 0.381512,-0.0953 1.061838,-0.10975 0.293382,-0.006 0.517491,-0.008 0.677924,-8.1e-4 z m -1.764466,0.28672 c 0.04693,-0.0117 0.09259,0.0281 0.129997,0.12554 0.02472,0.0644 0.163804,0.17328 0.308994,0.24218 0.14519,0.0689 0.264042,0.16965 0.264042,0.22395 0,0.0543 -0.192588,0.19298 -0.428056,0.30818 -0.235476,0.11521 -0.428056,0.24226 -0.428056,0.28186 h -4.05e-4 c 0,0.0396 -0.0563,0.0721 -0.125542,0.0721 -0.09372,0 -0.113029,-0.0449 -0.07492,-0.17536 0.02813,-0.0963 0.09109,-0.37625 0.139715,-0.62244 0.0542,-0.27431 0.136013,-0.4365 0.21423,-0.456 z m 23.675505,0.0215 c 0.0553,0.004 0.0947,0.0408 0.14579,0.10246 0.0528,0.0636 0.42459,0.27877 0.82655,0.47828 0.40198,0.19951 0.73097,0.39277 0.73097,0.42927 0,0.0365 -0.77482,0.0664 -1.72194,0.0664 -1.83872,0 -1.90263,-0.0174 -1.26109,-0.34746 0.1637,-0.0842 0.49687,-0.28594 0.7407,-0.4479 0.30997,-0.20589 0.44685,-0.28822 0.53902,-0.28106 z m -21.490678,0.0275 c 0.04113,0.0255 0.07492,0.32459 0.07492,0.66456 0,0.71104 -0.03358,0.73423 -0.516745,0.36083 -0.177208,-0.13693 -0.387283,-0.28843 -0.466933,-0.33693 -0.07971,-0.0485 -0.127553,-0.10217 -0.106103,-0.11947 0.273732,-0.22096 0.957481,-0.60439 1.014861,-0.56899 z m -1.239621,0.75366 c 0.146829,4.6e-4 0.284092,0.0741 0.455594,0.22071 0.148231,0.12665 0.310726,0.23043 0.361236,0.23043 0.0505,0 0.111021,0.0499 0.134451,0.11096 0.04551,0.11861 -0.105897,0.51007 -0.197627,0.51107 -0.03023,3.3e-4 -0.233302,0.10564 -0.451139,0.23408 -0.490487,0.28919 -0.655988,0.29186 -1.093831,0.0154 -0.190339,-0.12018 -0.407462,-0.24172 -0.482322,-0.27012 -0.336822,-0.12736 -0.06737,-0.18053 0.754463,-0.14903 0.923144,0.0353 1.289028,-0.007 1.289028,-0.14862 0,-0.0558 -0.322121,-0.0744 -0.973959,-0.0571 -0.786885,0.0208 -0.966541,0.006 -0.934271,-0.0778 0.02197,-0.0569 0.04009,-0.11817 0.04009,-0.13607 0,-0.0179 0.05473,-0.0328 0.121897,-0.0328 0.06721,0 0.274984,-0.10522 0.461668,-0.23367 0.211252,-0.14544 0.367891,-0.21793 0.51472,-0.21747 z m 34.977469,0.52889 c 0.11379,0 0.21523,0.19055 0.14093,0.26485 -0.0726,0.0725 -0.23959,0.0548 -0.29279,-0.0312 -0.0635,-0.10278 0.0215,-0.23367 0.15186,-0.23367 z m 4.74507,0.009 c 0.15982,1.2e-4 0.37086,0.004 0.64917,0.009 0.95913,0.018 1.14809,0.0405 1.14809,0.1381 0,0.0975 -0.18896,0.1205 -1.14809,0.1385 -1.11316,0.0209 -1.1481,0.0165 -1.1481,-0.1385 0,-0.11624 0.0195,-0.14738 0.49893,-0.147 z m -2.57401,0.006 c 0.16839,-0.004 0.37976,-0.003 0.64107,0.002 0.90166,0.0181 1.08371,0.0413 1.08371,0.1385 0,0.0972 -0.18427,0.1205 -1.10355,0.1385 -0.74859,0.0146 -1.12071,-0.006 -1.15701,-0.0652 -0.0872,-0.14113 0.0306,-0.20133 0.53578,-0.21383 z m -14.34979,0.0239 c 0.89907,0 1.62521,0.029 1.61341,0.0644 -0.0118,0.0353 -0.24445,0.1852 -0.51715,0.33329 -0.2727,0.14811 -0.5926,0.33829 -0.71073,0.42239 -0.22035,0.157 -0.46994,0.19825 -0.57344,0.0948 -0.0321,-0.0321 -0.36112,-0.22182 -0.73098,-0.42158 -0.36984,-0.19973 -0.68222,-0.39235 -0.69412,-0.42805 -0.0119,-0.0357 0.71394,-0.0652 1.61301,-0.0652 z m 2.77649,0.001 c 0.49315,-0.0147 0.49889,0.005 0.19277,0.67793 -0.12229,0.26865 -0.26664,0.62857 -0.32074,0.79982 -0.11666,0.36884 -0.21655,0.49899 -0.26405,0.34382 -0.083,-0.27098 -0.16096,-1.72397 -0.0948,-1.76487 0.0394,-0.0244 0.25849,-0.0497 0.48678,-0.0567 z m -4.77382,0.19358 c 0.0574,0 0.39816,0.1764 0.7569,0.39201 0.35873,0.21561 0.72972,0.41155 0.82452,0.43535 0.26658,0.0669 0.14217,0.22736 -0.38837,0.50135 -0.26395,0.13629 -0.63071,0.34837 -0.8148,0.47139 -0.18411,0.12299 -0.34458,0.22355 -0.35678,0.22355 -0.0984,0 -0.12555,-0.23107 -0.12555,-1.06387 0,-0.75065 0.0225,-0.95978 0.10408,-0.95978 z m 3.79459,0.11987 c 0.14304,-0.0176 0.18726,0.18247 0.26688,0.98935 h -4e-4 c 0.057,0.57646 0.0576,0.83441 0.002,0.83141 -0.18844,-0.0123 -1.63949,-0.84096 -1.66079,-0.94845 -0.0204,-0.10267 0.82322,-0.64556 1.32466,-0.85246 0.0249,-0.0103 0.0472,-0.0173 0.0676,-0.0199 z m -23.378652,0.11704 c 0.07123,-0.002 0.09719,0.19437 0.09719,0.73583 0,0.65332 -0.01571,0.73905 -0.136071,0.73705 -0.07492,-10e-4 -0.206395,-0.0565 -0.291985,-0.1227 -0.08562,-0.0663 -0.324306,-0.20727 -0.530514,-0.31305 -0.206207,-0.10578 -0.361786,-0.23143 -0.345846,-0.27943 0.03479,-0.10436 1.068259,-0.7527 1.207222,-0.7577 z m -2.661074,0.15227 c 0.02024,0 0.167523,0.0812 0.327218,0.18062 0.159695,0.0995 0.351871,0.20364 0.426841,0.23124 0.244827,0.0903 0.144131,0.26152 -0.323168,0.54995 h -4.05e-4 c -0.252636,0.15594 -0.498033,0.28348 -0.545093,0.28348 -0.108172,0 -0.110478,-0.56758 -0.0032,-0.95371 0.04457,-0.16055 0.09765,-0.29158 0.117847,-0.29158 z m 40.355916,0.46288 v 0.35233 0.35232 h -1.1315 c -1.22693,0 -1.24021,-0.005 -1.19021,-0.44101 l 0.0255,-0.22071 1.1481,-0.0215 z m -3.89017,0.0154 c 0.0283,0.002 0.0512,0.0253 0.0806,0.0717 0.0825,0.1304 0.0924,0.32081 0.0259,0.49447 -0.0487,0.12623 -0.19794,0.16289 -0.28996,0.0709 -0.098,-0.098 -0.0521,-0.47413 0.0705,-0.57587 0.0508,-0.042 0.0847,-0.0627 0.11299,-0.0611 z m 4.24047,0.0275 h 1.12866 1.12865 l 0.0239,0.33086 0.0239,0.33086 h -1.13554 c -1.23182,0 -1.24508,-0.005 -1.19508,-0.44101 z m -16.44917,0.18953 0.36245,0.24055 c 0.19939,0.13226 0.6141,0.36317 0.92131,0.5131 0.30723,0.14992 0.593,0.31429 0.6354,0.36529 0.0593,0.0715 -0.3702,0.0927 -1.86247,0.0927 -1.06669,0 -1.9394,-0.0201 -1.93941,-0.0445 -1e-5,-0.0244 0.29711,-0.21095 0.6601,-0.4147 0.363,-0.20374 0.78642,-0.45629 0.94116,-0.56129 z m -23.055492,0.005 c 0.07515,0 0.182204,0.0549 0.238123,0.1223 0.05589,0.0674 0.235487,0.19077 0.398898,0.27417 0.163413,0.0834 0.296845,0.18569 0.296845,0.22759 0,0.0456 -0.375949,0.0765 -0.933866,0.0765 -0.557917,0 -0.934272,-0.031 -0.934272,-0.0765 0,-0.0419 0.133837,-0.14419 0.29725,-0.22759 0.163411,-0.0834 0.342978,-0.20677 0.398898,-0.27417 0.05589,-0.0674 0.162954,-0.1223 0.238124,-0.1223 z m 39.855362,1.01203 h 0.26769 c 0.14732,0 0.2902,0.036 0.3175,0.0802 0.0804,0.13084 0.0826,1.711 0.002,1.7916 -0.0849,0.0845 -0.45753,0.10011 -0.53537,0.0223 -0.0285,-0.0285 -0.0518,-0.46654 -0.0518,-0.97315 z m -0.97355,0.0389 h 0.31142 0.31143 v 0.93387 0.93427 l -0.29239,0.0243 c -0.19436,0.016 -0.3064,-0.0119 -0.3337,-0.083 -0.0228,-0.0589 -0.0313,-0.48997 -0.019,-0.95816 z m 1.9463,0 h 0.3503 0.3503 l 0.0219,0.84478 c 0.0146,0.55631 -0.008,0.88231 -0.0676,0.95371 -0.0495,0.0598 -0.18658,0.10853 -0.30454,0.10853 -0.34937,0 -0.39688,-0.1354 -0.37258,-1.06224 z m -18.60565,0.40417 c 0.21845,-0.004 0.50111,-0.003 0.85773,4e-4 0.83488,0.009 1.52091,0.0435 1.52391,0.0778 0.007,0.0775 -0.0377,0.0996 -0.9043,0.44425 -0.38694,0.15388 -0.71968,0.27636 -0.73948,0.27336 -0.0383,-0.007 -1.04885,-0.50052 -1.238,-0.60463 -0.2334,-0.12841 -0.15522,-0.17966 0.50014,-0.19114 z m -1.2376,0.15996 c 0.0251,-0.0251 0.39278,0.12713 0.81724,0.33815 0.72296,0.35941 0.93821,0.53781 0.64795,0.53781 -0.0683,0 -0.21722,0.0517 -0.33086,0.11501 h -4.1e-4 c -0.38765,0.21615 -1.08963,0.49381 -1.13473,0.44871 -0.0589,-0.059 -0.0582,-1.38068 8.1e-4,-1.43968 z m 4.2101,0.062 c 0.019,-7.6e-4 0.0337,0.001 0.0421,0.006 0.034,0.0209 0.0642,0.20252 0.0672,0.40335 0.003,0.20083 0.034,0.55788 0.0688,0.79335 0.0348,0.23546 0.041,0.45036 0.0138,0.47786 -0.0649,0.0656 -1.95722,-0.88633 -1.93212,-0.97193 0.0106,-0.0361 0.29828,-0.17035 0.63945,-0.29847 0.34117,-0.12813 0.72415,-0.27984 0.85085,-0.33734 0.095,-0.0431 0.19271,-0.071 0.24987,-0.0733 z m 6.95378,0.11339 h 0.3503 0.3499 v 0.70061 c 0,0.3853 0.009,0.72681 0.0198,0.75891 0.0107,0.0322 -0.14693,0.0692 -0.3503,0.0822 l -0.36974,0.0235 v -0.7824 z m 1.63447,0 h 0.3503 c 0.19266,0 0.35297,0.0351 0.35597,0.0778 0.003,0.0428 0.005,0.35809 0.005,0.7006 0,0.34249 -0.002,0.6578 -0.005,0.7006 -0.003,0.0429 -0.16331,0.0778 -0.35597,0.0778 h -0.3503 v -0.77836 z m 1.55671,0 h 0.38918 c 0.21407,0 0.39185,0.0351 0.39485,0.0778 0.003,0.0428 0.005,0.35809 0.005,0.7006 0,0.34249 -0.002,0.6578 -0.005,0.7006 -0.003,0.0429 -0.18078,0.0778 -0.39485,0.0778 h -0.38918 v -0.77836 z m 1.63488,0 h 0.3503 0.3503 v 0.77836 0.77836 h -0.3503 -0.3503 v -0.77836 z m -43.132814,0.14984 c 0.660792,-9.4e-4 1.326504,0.0318 1.393915,0.0992 0.06676,0.0667 0.09355,0.56244 0.09355,1.73612 0,1.17369 -0.02681,1.66901 -0.09355,1.73571 -0.06518,0.0652 -0.485557,0.0936 -1.391485,0.0936 -1.074853,0 -1.315465,-0.0209 -1.397965,-0.12028 -0.05962,-0.0719 -0.07103,-0.14823 -0.02875,-0.19033 0.04033,-0.0401 0.05374,-0.73412 0.03159,-1.61179 -0.02141,-0.84783 -0.0082,-1.58543 0.02916,-1.63893 0.04716,-0.0676 0.702751,-0.10232 1.363542,-0.10327 z m 20.558833,0.3171 h 1.011621 1.012027 v 0.66172 0.66173 H 98.52534 97.513719 v -0.66173 z m 8.635231,0.23205 0.99501,0.51512 c 0.54727,0.28328 1.02843,0.54618 1.06913,0.58438 0.0435,0.0408 -0.77588,0.0696 -1.99165,0.0696 -1.13598,0 -2.0886,-0.0232 -2.1172,-0.0518 -0.10855,-0.10857 -0.0421,-0.19359 0.24015,-0.30738 0.16054,-0.0647 0.4667,-0.19978 0.68076,-0.30008 0.21407,-0.1003 0.55453,-0.25625 0.75649,-0.34625 z m -11.670905,0.62406 c -0.0429,0 -0.07816,0.0548 -0.07816,0.12149 0,0.0671 0.03536,0.0998 0.07816,0.0733 0.04291,-0.0265 0.07776,-0.0812 0.07776,-0.12149 0,-0.0403 -0.03496,-0.0733 -0.07776,-0.0733 z m 12.143105,0.77836 c 0.85626,0 1.55671,0.0292 1.55671,0.0648 0,0.0356 -0.30655,0.16958 -0.68116,0.29766 -0.37462,0.12808 -0.7335,0.25547 -0.7978,0.28307 -0.0642,0.0276 -0.29174,-0.0341 -0.50581,-0.13728 -0.21405,-0.10316 -0.4522,-0.19037 -0.5293,-0.19237 -0.14686,-0.005 -0.59976,-0.21542 -0.59976,-0.27902 0,-0.0202 0.70087,-0.0368 1.55712,-0.0368 z m 15.3363,0.0126 c 0.48847,-0.002 1.1351,0.001 1.98842,0.006 3.28337,0.0199 3.34224,0.0228 3.34224,0.17576 0,0.15296 -0.0587,0.15586 -3.35804,0.17576 -2.76274,0.0168 -3.36533,0.002 -3.39853,-0.0846 -0.0804,-0.20951 -0.0395,-0.26664 1.42591,-0.27336 z m -17.83701,0.0324 c 0.0375,-0.0232 0.34402,0.066 0.68116,0.19803 0.33713,0.13201 0.77036,0.30049 0.96303,0.37419 0.19266,0.0738 0.3503,0.16057 0.3503,0.19277 0,0.0538 -0.2592,0.15863 -1.20641,0.4884 -0.19266,0.0671 -0.41939,0.17021 -0.50379,0.22921 -0.31592,0.22067 -0.35233,0.15148 -0.35233,-0.66658 0,-0.4256 0.0305,-0.79292 0.068,-0.81602 z m 4.36763,0.2442 c 0.0887,-0.0126 0.1305,0.11818 0.1794,0.55926 0.0617,0.55591 0.0111,0.78184 -0.14336,0.64148 -0.0407,-0.037 -0.38,-0.18589 -0.75446,-0.33086 -0.37445,-0.14498 -0.68117,-0.30075 -0.68117,-0.34585 -2.4e-4,-0.0719 1.08921,-0.47973 1.39959,-0.52403 z m 15.2059,0.65565 c 0.5132,-0.002 0.52862,0.11741 0.50298,0.89701 l -0.0227,0.68845 -0.67347,0.0227 c -0.4067,0.0136 -0.6844,-0.009 -0.7006,-0.0567 -0.0148,-0.0435 -0.01,-0.40408 0.0117,-0.80104 l 0.0393,-0.72166 0.59085,-0.0223 c 0.095,-0.004 0.17858,-0.006 0.25189,-0.006 z m -17.16354,0.0437 c 0.15378,0.003 0.40745,0.0913 0.97113,0.32317 0.5057,0.20801 1.01358,0.45185 1.12865,0.54145 l 0.20937,0.1632 -2.35491,0.004 c -1.52079,0.003 -2.35451,-0.0234 -2.35451,-0.0737 0,-0.0428 0.0437,-0.0779 0.0972,-0.0782 0.0535,-2.5e-4 0.19781,-0.0528 0.32074,-0.11704 0.12293,-0.0641 0.54999,-0.23898 0.94885,-0.38837 0.39885,-0.14938 0.80612,-0.3068 0.90512,-0.3503 0.0368,-0.0161 0.0771,-0.0252 0.12837,-0.0243 z m -7.958113,0.0198 c 0.721245,-0.002 1.436393,0.0267 1.474503,0.0883 0.0696,0.1123 0.072,0.88411 0.003,0.99542 l -4e-4,-8.1e-4 c -0.07875,0.12749 -2.86013,0.12289 -2.98789,-0.005 -0.05134,-0.0514 -0.09314,-0.27208 -0.09314,-0.49042 0,-0.21835 0.04181,-0.43912 0.09314,-0.49042 0.06195,-0.0617 0.789303,-0.095 1.510547,-0.0972 z m 4.660833,1.02134 c 0.0219,-0.005 0.048,0.0218 0.0786,0.0713 0.0618,0.0994 0.0615,4.80806 0,4.90746 h -4e-4 c -0.16281,0.26342 -0.19358,-0.12512 -0.19358,-2.45413 0,-1.89323 0.0204,-2.50373 0.11542,-2.5246 z m -1.59398,0.0336 c 0.10101,0 0.11949,0.33999 0.13729,2.51043 0.0179,2.18484 0.005,2.51042 -0.096,2.51042 -0.064,0 -0.13515,-0.0787 -0.15875,-0.17495 -0.0229,-0.0963 -0.0331,-1.22604 -0.0211,-2.51042 0.0188,-2.0142 0.0378,-2.33548 0.1385,-2.33548 z m 23.27458,0.26121 0.17536,0.0247 c 0.17313,0.0245 0.17494,0.041 0.17494,1.19265 0,1.15159 -0.002,1.16814 -0.17494,1.19264 l -0.17536,0.0247 v -1.21734 z m -39.445937,0.10408 c 0.126826,-0.0245 0.13607,0.1214 0.13607,2.19778 0,1.22399 -0.03085,2.22411 -0.06844,2.22411 -0.219688,0 -0.24506,-0.26101 -0.22476,-2.3047 0.01906,-1.92016 0.03205,-2.09319 0.15713,-2.11719 z m 1.439677,0 c 0.125243,0.0241 0.138169,0.19988 0.157129,2.1747 0.017,1.7644 0.0012,2.16439 -0.08828,2.23869 -0.08486,0.0704 -0.119344,0.0628 -0.156724,-0.0348 -0.02645,-0.0688 -0.04819,-1.08801 -0.04819,-2.26501 0,-1.99617 0.009,-2.13795 0.136071,-2.11355 z m 32.99999,0.52282 c 0.23741,0.004 0.49115,0.0522 0.59005,0.14174 0.14184,0.12836 0.15445,0.12836 0.24825,0 0.0767,-0.10498 0.21486,-0.13486 0.61758,-0.13486 0.48524,0 0.5235,0.0129 0.5945,0.19965 0.10526,0.27681 0.0978,0.32336 -0.081,0.50217 l -0.15713,0.15713 0.16888,0.228 c 0.16037,0.21701 0.1619,0.23784 0.0381,0.42684 -0.11722,0.1789 -0.18004,0.19843 -0.63055,0.19843 -0.39325,0 -0.51616,-0.0286 -0.57546,-0.13445 -0.0714,-0.12758 -0.083,-0.12758 -0.22395,0 -0.19719,0.17843 -1.01438,0.19192 -1.08128,0.0178 -0.0246,-0.0642 -0.0895,-0.11663 -0.14376,-0.11663 -0.0544,0 -0.14271,0.0523 -0.19601,0.11663 -0.1331,0.16034 -0.91397,0.15892 -1.09181,-0.002 -0.11758,-0.10641 -0.14132,-0.10641 -0.22962,0 -0.13751,0.16574 -1.00005,0.16735 -1.06345,0.002 -0.0246,-0.0642 -0.0895,-0.11663 -0.14377,-0.11663 -0.0544,0 -0.1423,0.0523 -0.1956,0.11663 -0.0677,0.0816 -0.24728,0.11663 -0.59531,0.11663 -0.46664,0 -0.50348,-0.0131 -0.57628,-0.20491 -0.0875,-0.23018 -0.0441,-0.43669 0.12069,-0.57344 0.0946,-0.0785 0.0868,-0.12457 -0.0535,-0.31426 -0.15614,-0.2112 -0.15808,-0.23245 -0.0344,-0.42117 0.11749,-0.17938 0.17976,-0.19844 0.63702,-0.19844 0.37852,0 0.51767,0.0294 0.55117,0.11663 0.0246,0.0642 0.09,0.11663 0.14498,0.11663 0.0551,0 0.12038,-0.0523 0.14498,-0.11663 0.0329,-0.0859 0.1684,-0.11663 0.51148,-0.11663 0.40226,0 0.47966,0.0239 0.55926,0.17252 l 0.0923,0.17211 0.1146,-0.17211 c 0.0984,-0.14818 0.18475,-0.17252 0.61354,-0.17252 0.37167,0 0.51017,0.0297 0.54347,0.11663 0.0246,0.0642 0.09,0.11663 0.14498,0.11663 0.0551,0 0.12028,-0.0523 0.14498,-0.11663 0.0335,-0.0873 0.25464,-0.12755 0.49204,-0.12351 z m 0.72247,0.51958 -0.17049,0.17089 c -0.16864,0.16865 -0.16888,0.17197 -0.0182,0.28591 v 4.1e-4 c 0.18698,0.14119 0.19553,0.14101 0.37419,0.006 0.13933,-0.10555 0.13871,-0.11486 -0.0207,-0.28591 z m -2.74652,0.0786 c -0.0405,-0.002 -0.0862,0.0297 -0.16928,0.0923 l -0.17535,0.13243 0.15753,0.16361 c 0.15568,0.16183 0.15958,0.16196 0.30778,0.0138 0.14151,-0.14156 0.14254,-0.15824 0.0178,-0.29604 -0.0626,-0.0692 -0.098,-0.10428 -0.1385,-0.1061 z m 1.36719,0.002 c -0.035,-0.003 -0.0697,0.0346 -0.13729,0.10934 -0.1119,0.12368 -0.11918,0.17271 -0.0389,0.26931 0.11916,0.14356 0.26578,0.15191 0.3742,0.0211 0.0574,-0.0693 0.0403,-0.147 -0.0591,-0.26971 -0.0689,-0.085 -0.10393,-0.12736 -0.1389,-0.13 z m -2.72385,8.1e-4 c -0.0339,-0.003 -0.0667,0.0296 -0.12716,0.0964 -0.15036,0.16618 -0.15833,0.2584 -0.0328,0.38392 0.12458,0.12454 0.16173,0.11874 0.30535,-0.049 0.11111,-0.12984 0.11019,-0.15752 -0.0122,-0.30859 -0.0643,-0.0795 -0.0993,-0.11926 -0.13324,-0.12271 z m -6.55772,0.0154 c 2.03165,10e-4 4.06349,0.0442 4.09549,0.12757 0.0698,0.18194 -0.31796,0.9357 -0.57587,1.11934 -0.23313,0.1661 -0.27817,0.16806 -3.59859,0.16806 h -3.36248 l -0.25757,-0.25756 c -0.25741,-0.25741 -0.47566,-0.82777 -0.39606,-1.03511 0.032,-0.0834 2.06343,-0.12355 4.09508,-0.1223 z m 5.83728,0.179 c -0.0494,0 -0.0986,0.005 -0.13607,0.0146 -0.0749,0.0196 -0.0138,0.0356 0.13607,0.0356 0.14992,0 0.21087,-0.016 0.13607,-0.0356 -0.0375,-0.01 -0.0867,-0.0146 -0.13607,-0.0146 z m 1.4012,0 c -0.0494,0 -0.0986,0.005 -0.13607,0.0146 -0.0749,0.0196 -0.0138,0.0356 0.13607,0.0356 0.14992,0 0.21107,-0.016 0.13607,-0.0356 -0.0375,-0.01 -0.0867,-0.0146 -0.13607,-0.0146 z m 1.32345,0 c -0.0494,0 -0.099,0.005 -0.13647,0.0146 -0.0749,0.0196 -0.0134,0.0356 0.13647,0.0356 0.14992,0 0.21097,-0.016 0.13607,-0.0356 -0.0375,-0.01 -0.0867,-0.0146 -0.13607,-0.0146 z m 1.4008,0 c -0.0494,0 -0.0986,0.005 -0.13607,0.0146 -0.0749,0.0196 -0.0138,0.0356 0.13607,0.0356 0.14994,0 0.21148,-0.016 0.13648,-0.0356 -0.0375,-0.01 -0.0871,-0.0146 -0.13648,-0.0146 z m 1.39189,8.1e-4 c -0.0423,-5.5e-4 -0.0873,0.004 -0.12514,0.0138 v 4e-4 c -0.0758,0.0197 -0.0329,0.0375 0.0956,0.0385 0.12871,0.002 0.19039,-0.0147 0.13769,-0.036 -0.0264,-0.0107 -0.0658,-0.0161 -0.10813,-0.0166 z m 16.69783,0.13971 c 0.0627,0.007 0.12732,0.0382 0.1879,0.0988 0.14348,0.14345 0.12036,0.81349 -0.03,0.87109 -0.32673,0.12539 -0.53325,-0.0574 -0.52525,-0.46491 0.006,-0.31952 0.17919,-0.5247 0.36731,-0.505 z m -3.99303,0.005 c 0.40327,0 0.53208,0.0278 0.56858,0.12311 0.0804,0.20952 0.0521,0.69706 -0.0462,0.79536 -0.0912,0.0913 -0.93331,0.12262 -1.13271,0.0421 -0.12611,-0.0508 -0.12928,-0.74182 -0.004,-0.86704 0.054,-0.0541 0.31292,-0.0935 0.61435,-0.0935 z m 1.42753,0 c 0.64385,0 0.66699,0.0205 0.66699,0.58194 0,0.23422 -0.0372,0.3497 -0.12312,0.3827 v -4e-4 c -0.13798,0.0534 -0.93151,0.0488 -1.14161,-0.006 -0.10102,-0.0264 -0.13648,-0.11572 -0.13648,-0.34625 0,-0.54431 0.0814,-0.61191 0.73422,-0.61191 z m 1.36111,0 c 0.30086,0 0.55953,0.0395 0.61353,0.0935 0.14347,0.14345 0.12074,0.81349 -0.0296,0.87109 -0.21748,0.0834 -1.01029,0.0503 -1.10679,-0.0462 -0.0999,-0.0999 -0.12104,-0.45645 -0.0441,-0.74312 0.0427,-0.15945 0.0933,-0.17535 0.56696,-0.17535 z m 1.99165,0 c 0.055,0 0.12141,0.0554 0.14741,0.12311 0.0804,0.20952 0.0521,0.69706 -0.0462,0.79536 -0.19831,0.19839 -0.29604,0.0859 -0.29604,-0.34139 0,-0.39858 0.0604,-0.57708 0.19479,-0.57708 z m 0.94764,0 c 0.6211,0 0.71109,0.0843 0.65079,0.60867 l -0.0417,0.36448 -0.55239,0.0227 c -0.62263,0.0255 -0.7088,-0.0279 -0.7168,-0.44547 -0.01,-0.47375 0.0819,-0.55035 0.66011,-0.55035 z m 2.86518,0 c 0.63878,0 0.71393,0.0492 0.75163,0.49366 0.0191,0.22496 -0.0117,0.32622 -0.12433,0.40862 v 4e-4 c -0.16771,0.1227 -1.0261,0.1495 -1.20277,0.0377 -0.0603,-0.0383 -0.15868,-0.0505 -0.21868,-0.0275 -0.0859,0.0331 -0.10405,-0.038 -0.085,-0.33815 0.0164,-0.25755 0.056,-0.37331 0.12352,-0.35961 0.0548,0.011 0.11978,-0.0329 0.14458,-0.0976 0.0345,-0.0898 0.1783,-0.11744 0.6111,-0.11744 z m -10.09435,0.001 c 0.24375,9e-4 0.482,0.0272 0.5293,0.0587 0.12,0.0798 0.18569,0.7664 0.083,0.86907 h -8.1e-4 c -0.0458,0.0457 -0.2986,0.083 -0.56169,0.083 -0.36455,0 -0.50886,-0.0337 -0.60706,-0.14214 -0.16125,-0.17889 -0.16434,-0.47174 -0.007,-0.69655 0.1013,-0.14461 0.19364,-0.17312 0.56412,-0.17212 z m 8.44409,0 c 0.39567,0.002 0.45688,0.0803 0.43008,0.55117 -0.0239,0.42016 -0.0243,0.4208 -0.29644,0.4398 -0.3901,0.0273 -0.54469,-0.0915 -0.54469,-0.41753 0,-0.40969 0.11822,-0.57444 0.41105,-0.57344 z m 3.89948,0.49609 c -0.009,-2.6e-4 -0.0199,0.003 -0.0308,0.01 -0.0434,0.0269 -0.0587,0.0813 -0.034,0.12109 0.0666,0.10795 0.11339,0.0877 0.11339,-0.049 0,-0.0505 -0.0202,-0.081 -0.0486,-0.0818 z m -18.04963,0.82655 c 0.39894,0 0.42806,0.0506 0.42806,0.74758 v 0.65363 h -0.42806 -0.42846 v -0.65363 c 0,-0.69702 0.0295,-0.74758 0.42846,-0.74758 z m -10.48312,0.001 c 0.37165,0.002 0.41125,0.0781 0.38635,0.74474 l -0.0227,0.61596 -0.40862,0.0235 -0.40902,0.0239 v -0.65768 c 0,-0.7093 0.0266,-0.75241 0.45397,-0.75041 z m 9.16696,0.001 c 0.13918,-0.002 0.27283,0.0244 0.30778,0.081 0.0404,0.0662 0.0634,0.77908 0.0393,1.23881 -0.002,0.0429 -0.17916,0.0782 -0.39322,0.0782 h -0.38918 v -0.60746 c 0,-0.36844 0.037,-0.644 0.0935,-0.7006 0.058,-0.0577 0.20262,-0.0879 0.34179,-0.0899 z m 6.57756,0 c 0.15774,8.5e-4 0.31145,0.0327 0.358,0.0948 0.0401,0.0535 0.0686,0.36007 0.0636,0.68116 l -0.009,0.58356 -0.38756,0.0231 c -0.21337,0.0127 -0.41295,-0.002 -0.44345,-0.0324 -0.0948,-0.0948 -0.0626,-1.15877 0.0381,-1.25946 0.0615,-0.0614 0.22294,-0.0916 0.38067,-0.0907 z m -14.5296,0.005 c 0.0406,-8.5e-4 0.0859,0.002 0.13607,0.006 l 0.25797,0.0247 0.0227,0.68116 0.0223,0.68076 h -0.34017 c -0.18719,0 -0.36382,-0.0232 -0.39242,-0.0518 -0.0285,-0.0285 -0.0518,-0.30441 -0.0518,-0.61313 0,-0.56036 0.0612,-0.72221 0.34544,-0.72814 z m 2.67363,4e-4 c 0.067,-0.004 0.13351,-0.002 0.18386,0.005 0.17606,0.0249 0.18305,0.0519 0.18305,0.68724 l 4e-4,0.66172 -0.31426,0.0231 c -0.17279,0.0128 -0.33924,-0.002 -0.36974,-0.0324 -0.0306,-0.0306 -0.0559,-0.3292 -0.0559,-0.66375 0,-0.57703 0.01,-0.61075 0.18669,-0.65525 0.0513,-0.013 0.11887,-0.0217 0.18588,-0.0255 z m 2.68132,0 c 0.0676,0.004 0.13572,0.0132 0.18791,0.0263 0.18442,0.0463 0.18875,0.0661 0.16685,0.68765 l -0.0223,0.63985 -0.37298,0.0239 -0.37258,0.0239 0.0223,-0.68562 c 0.0215,-0.65272 0.0314,-0.68683 0.20573,-0.71153 0.0503,-0.007 0.11749,-0.008 0.18507,-0.004 z m 5.18041,0 c 0.067,-0.004 0.13392,-0.002 0.18426,0.005 0.17425,0.0246 0.18433,0.0588 0.20573,0.70708 l 0.0223,0.68076 h -0.39201 -0.39242 v -0.6601 c 0,-0.63183 0.008,-0.66219 0.18669,-0.70709 0.0513,-0.013 0.11847,-0.0217 0.18548,-0.0255 z m 2.6469,0 c 0.067,-0.004 0.13351,-0.002 0.18386,0.005 0.17425,0.0246 0.18433,0.0588 0.20572,0.70708 l 0.0227,0.68076 h -0.39241 -0.39242 v -0.6601 c 0,-0.63183 0.008,-0.66219 0.18669,-0.70709 0.0513,-0.013 0.11886,-0.0217 0.18588,-0.0255 z m -9.25402,8.1e-4 c 0.0741,-0.004 0.15075,-0.003 0.2122,0.004 l 0.22355,0.0255 0.0227,0.68116 0.0223,0.68076 h -0.37946 c -0.2086,0 -0.40229,-0.0232 -0.43089,-0.0518 -0.0285,-0.0285 -0.0518,-0.32556 -0.0518,-0.66011 0,-0.57556 0.01,-0.61084 0.18507,-0.65484 0.0509,-0.0125 0.12234,-0.0212 0.19642,-0.0251 z m 2.64649,0 c 0.0741,-0.004 0.15116,-0.003 0.21261,0.004 l 0.22314,0.0255 0.0227,0.68116 0.0223,0.68076 h -0.37905 c -0.20861,0 -0.4027,-0.0232 -0.4313,-0.0518 -0.0286,-0.0285 -0.0518,-0.32556 -0.0518,-0.66011 0,-0.57556 0.01,-0.61084 0.18507,-0.65484 0.0509,-0.0125 0.12234,-0.0212 0.19641,-0.0251 z m 5.38735,0 c 0.0746,0.004 0.14704,0.0129 0.19884,0.0259 0.18253,0.0458 0.18743,0.067 0.16563,0.68724 l -0.0227,0.63985 -0.40093,0.0231 c -0.22708,0.0131 -0.41265,-0.0116 -0.42805,-0.0571 -0.015,-0.0442 -0.01,-0.35228 0.0117,-0.68481 0.0385,-0.59735 0.0416,-0.60504 0.26242,-0.63014 0.0615,-0.007 0.13839,-0.008 0.21302,-0.004 z m -10.64308,0.005 c 0.16618,-0.0135 0.33881,0.012 0.38351,0.0567 0.0633,0.0633 0.091,0.68366 0.0571,1.27202 -0.002,0.0322 -0.17953,0.0583 -0.39526,0.0583 h -0.39241 l 0.0227,-0.68076 0.0223,-0.68116 z m 14.17646,0.0251 h 0.35031 0.3503 v 0.66132 0.66172 l -0.37298,0.0239 -0.37298,0.0239 0.0227,-0.68562 z m 30.88969,3.84724 0.25958,0.25189 c 0.14287,0.13848 0.25999,0.27976 0.25999,0.31426 0,0.0345 -0.45137,0.0624 -1.00271,0.0624 -1.08077,0 -1.19194,-0.0392 -1.10314,-0.38918 0.048,-0.18903 0.0716,-0.19537 0.81804,-0.21707 z m 3.4941,0.002 1.37326,0.0215 c 1.36753,0.0211 1.37357,0.0218 1.39877,0.20046 0.014,0.0987 -0.0167,0.23009 -0.068,0.29199 -0.0753,0.0909 -0.37559,0.11218 -1.55793,0.11218 -0.80568,0 -1.48463,-0.0318 -1.50893,-0.0709 -0.0242,-0.0392 0.0476,-0.18041 0.15956,-0.31344 z m 4.57578,0.004 h 0.53862 c 0.29618,0 0.59402,0.0209 0.66172,0.047 0.14503,0.0557 0.16278,0.34837 0.0296,0.48192 -0.0982,0.0983 -1.08656,0.13331 -1.17806,0.0417 -0.0285,-0.0285 -0.0518,-0.16872 -0.0518,-0.31143 z m -137.968453,4.59239 c -0.03956,6e-5 -4.95e-4,0.079 0.08667,0.17535 0.380604,0.42064 1.164463,1.69145 1.446156,2.34439 0.398976,0.92481 0.550311,1.64319 0.498521,2.36666 -0.03455,0.4827 -0.101001,0.68773 -0.452354,1.39472 -0.326971,0.65795 -0.412592,0.90845 -0.414692,1.21452 -0.0022,0.32449 0.02928,0.40953 0.197222,0.53618 0.109766,0.0828 0.372235,0.18087 0.583565,0.21787 l -4.05e-4,8.1e-4 c 0.211332,0.037 1.627589,0.0591 3.147446,0.0486 2.664742,-0.0179 2.796641,-0.0258 3.697399,-0.22435 1.339963,-0.29531 2.871715,-0.7635 3.503012,-1.07035 0.29376,-0.14279 1.547859,-0.55295 2.447249,-0.80063 l 0.899849,-0.24784 43.202059,-0.0413 43.202456,-0.0413 0.66132,-0.21504 c 0.3639,-0.11815 1.23989,-0.31789 1.9463,-0.44385 2.74341,-0.48921 1.90656,-0.46491 16.17946,-0.46491 10.05231,0 13.07918,-0.0217 13.15108,-0.0936 0.12485,-0.12434 0.11993,-0.48899 -0.008,-0.59491 -0.056,-0.0465 -0.4853,-0.0946 -0.95371,-0.10691 l -0.85165,-0.0219 v -0.54387 -0.54348 l 0.31142,-0.0522 c 0.42807,-0.0717 3.30155,-0.26044 3.96994,-0.26121 l 0.54469,-8.1e-4 0.35354,1.79039 0.35354,1.79038 h 1.23922 1.23922 l 0.35961,-1.83493 c 0.19783,-1.00912 0.38511,-1.87595 0.41631,-1.92645 0.0312,-0.0505 0.12229,-0.0919 0.20249,-0.0919 0.19623,0 0.21824,-0.11152 0.24784,-1.26433 l 0.0255,-0.99218 -70.68026,-8.1e-4 c -38.874118,-7.8e-4 -70.712748,-8.7e-4 -70.752328,-8.1e-4 z m 130.211613,2.94334 c 0.24858,-0.004 0.38761,0.007 0.42036,0.0336 0.058,0.0466 0.0972,0.26339 0.0972,0.53578 v 0.45722 h -5.95026 c -3.88289,0 -5.96715,0.0274 -5.99845,0.0782 -0.0606,0.0981 -1.36105,0.10043 -1.51541,0.003 -0.26436,-0.16718 -0.025,-0.20038 2.79998,-0.39039 0.70642,-0.0475 2.19509,-0.15442 3.30822,-0.23732 1.11314,-0.0829 2.5494,-0.18817 3.19159,-0.23407 0.64219,-0.0459 1.7981,-0.1302 2.56874,-0.1871 0.47137,-0.0349 0.82946,-0.0545 1.07804,-0.0587 z" /><path
       id="path3703"
       style="mix-blend-mode:multiply;fill:#000000;fill-opacity:0.5;stroke:none;stroke-width:0.3;stroke-dasharray:none;stroke-opacity:1;filter:url(#filter3721)"
       inkscape:label="crease_shadow"
       d="m 71.656559,166.8536 c 0.153956,-2.7e-4 0.310879,-0.0301 0.583161,-0.0899 0.544877,-0.12021 0.62908,-0.12034 1.167535,-0.002 0.536803,0.11793 0.622772,0.11791 1.148502,4.1e-4 0.803855,-0.17965 1.502181,-0.70802 1.788764,-1.35342 l 0.08828,-0.19844 0.520389,0.11177 c 0.46742,0.1004 0.581281,0.098 1.11651,-0.0211 0.698907,-0.1555 1.225686,-0.5207 1.627989,-1.12866 0.245306,-0.37071 0.262207,-0.38058 0.87636,-0.50946 0.450573,-0.0946 0.728062,-0.2049 0.988133,-0.39363 0.409706,-0.29732 0.795961,-0.81594 0.873931,-1.17321 0.02893,-0.13256 0.15174,-0.31415 0.272951,-0.40375 0.121209,-0.0896 0.356186,-0.36663 0.522415,-0.61556 0.297086,-0.4449 0.355044,-0.58859 0.627707,-1.56198 0.07497,-0.26764 0.154748,-0.48575 0.177378,-0.48475 0.04375,0.002 0.76912,0.60572 2.104237,1.7515 1.025895,0.88041 1.2293,1.00255 1.927264,1.15863 0.521756,0.11641 0.606903,0.11625 1.128658,-0.002 1.041528,-0.23611 1.658278,-0.85642 1.882313,-1.89365 0.117989,-0.54626 0.118033,-0.6301 -0.0028,-1.17239 -0.140196,-0.629 -0.273184,-0.872 -0.750414,-1.37286 -0.168644,-0.17699 -0.272125,-0.34293 -0.230025,-0.36893 0.0421,-0.026 0.122533,-0.27804 0.178593,-0.56008 0.08284,-0.41679 0.139048,-0.53226 0.30049,-0.61596 0.312863,-0.16217 0.911907,-0.71927 1.099095,-1.02215 0.06869,-0.11115 0.185167,-0.51218 0.315474,-1.02701 l -21.85839,12.45007 c 0.267082,0.18795 0.585736,0.32576 0.96019,0.41064 0.260316,0.0589 0.411385,0.0882 0.565341,0.0879 z" /><path
       id="path3719"
       style="fill:#f2f2f2;stroke:#000000;stroke-width:0.235101;stroke-dasharray:none;stroke-opacity:1"
       inkscape:label="crease"
       d="m 71.656559,166.8536 c 0.153956,-2.7e-4 0.310879,-0.0301 0.583161,-0.0899 0.544877,-0.12021 0.62908,-0.12034 1.167535,-0.002 0.536803,0.11793 0.622772,0.11791 1.148502,4.1e-4 0.803855,-0.17965 1.502181,-0.70802 1.788764,-1.35342 l 0.08828,-0.19844 0.520389,0.11177 c 0.46742,0.1004 0.581281,0.098 1.11651,-0.0211 0.698907,-0.1555 1.225686,-0.5207 1.627989,-1.12866 0.245306,-0.37071 0.262207,-0.38058 0.87636,-0.50946 0.450573,-0.0946 0.728062,-0.2049 0.988133,-0.39363 0.409706,-0.29732 0.795961,-0.81594 0.873931,-1.17321 0.02893,-0.13256 0.15174,-0.31415 0.272951,-0.40375 0.121209,-0.0896 0.356186,-0.36663 0.522415,-0.61556 0.297086,-0.4449 0.355044,-0.58859 0.627707,-1.56198 0.07497,-0.26764 0.154748,-0.48575 0.177378,-0.48475 0.04375,0.002 0.76912,0.60572 2.104237,1.7515 1.025895,0.88041 1.2293,1.00255 1.927264,1.15863 0.521756,0.11641 0.606903,0.11625 1.128658,-0.002 1.041528,-0.23611 1.658278,-0.85642 1.882313,-1.89365 0.117989,-0.54626 0.118033,-0.6301 -0.0028,-1.17239 -0.140196,-0.629 -0.273184,-0.872 -0.750414,-1.37286 -0.168644,-0.17699 -0.272125,-0.34293 -0.230025,-0.36893 0.0421,-0.026 0.122533,-0.27804 0.178593,-0.56008 0.08284,-0.41679 0.139048,-0.53226 0.30049,-0.61596 0.312863,-0.16217 0.911907,-0.71927 1.099095,-1.02215 0.06869,-0.11115 0.185167,-0.51218 0.315474,-1.02701 l -21.85839,12.45007 c 0.267082,0.18795 0.585736,0.32576 0.96019,0.41064 0.260316,0.0589 0.411385,0.0882 0.565341,0.0879 z"
       inkscape:export-filename=".\path3719.svg"
       inkscape:export-xdpi="96"
       inkscape:export-ydpi="96" /></g></svg>
