<?xml version="1.0" encoding="UTF-8" standalone="no"?>
<!-- Created with Inkscape (http://www.inkscape.org/) -->

<svg
   width="204.17438mm"
   height="49.225716mm"
   viewBox="0 0 204.17438 49.225716"
   version="1.1"
   id="svg5"
   xml:space="preserve"
   inkscape:version="1.2.2 (732a01da63, 2022-12-09)"
   sodipodi:docname="logo_design.svg"
   inkscape:export-filename="logo_design.svg"
   inkscape:export-xdpi="96"
   inkscape:export-ydpi="96"
   xmlns:inkscape="http://www.inkscape.org/namespaces/inkscape"
   xmlns:sodipodi="http://sodipodi.sourceforge.net/DTD/sodipodi-0.dtd"
   xmlns="http://www.w3.org/2000/svg"
   xmlns:svg="http://www.w3.org/2000/svg"><sodipodi:namedview
     id="namedview7"
     pagecolor="#ffffff"
     bordercolor="#000000"
     borderopacity="0.25"
     inkscape:showpageshadow="2"
     inkscape:pageopacity="0.0"
     inkscape:pagecheckerboard="0"
     inkscape:deskcolor="#d1d1d1"
     inkscape:document-units="mm"
     showgrid="false"
     inkscape:zoom="1.4142136"
     inkscape:cx="323.85491"
     inkscape:cy="520.07704"
     inkscape:window-width="1920"
     inkscape:window-height="991"
     inkscape:window-x="-9"
     inkscape:window-y="-9"
     inkscape:window-maximized="1"
     inkscape:current-layer="layer6" /><defs
     id="defs2"><filter
       inkscape:collect="always"
       style="color-interpolation-filters:sRGB"
       id="filter3605"
       x="-0.013993495"
       y="-0.063648149"
       width="1.027987"
       height="1.1272963"><feGaussianBlur
         inkscape:collect="always"
         stdDeviation="1.1580534"
         id="feGaussianBlur3607" /></filter></defs><style
     type="text/css"
     id="style2665">
	.st0{fill:#C43124;stroke:#010202;stroke-width:5;stroke-miterlimit:10;}
	.st1{fill:#E8A627;stroke:#010202;stroke-width:5;stroke-miterlimit:10;}
	.st2{fill:#F9DE59;stroke:#010202;stroke-width:5;stroke-miterlimit:10;}
</style><g
     inkscape:groupmode="layer"
     id="layer6"
     inkscape:label="submarine"
     style="display:inline"
     transform="translate(-2.9128123,-123.88713)"><path
       style="fill:#000000;fill-opacity:0.5;stroke:none;stroke-width:0.3;stroke-dasharray:none;stroke-opacity:1;filter:url(#filter3605)"
       d="m 16.693959,170.1809 c -1.908836,-0.45899 -2.660172,-0.66275 -2.894418,-0.78497 -0.144719,-0.0755 -0.311807,-0.13756 -0.371308,-0.13788 -0.162692,-9.9e-4 -0.73934,-0.29472 -1.093981,-0.55738 -0.172757,-0.12795 -0.343459,-0.23263 -0.379336,-0.23263 -0.03588,0 -0.427365,-0.26318 -0.869974,-0.58483 -1.2210556,-0.88739 -2.9123627,-2.69361 -3.460144,-3.69524 -0.063034,-0.11526 -0.2736398,-0.45377 -0.4680128,-0.75226 -0.194373,-0.29849 -0.3866026,-0.69811 -0.4271769,-0.88806 -0.040574,-0.18995 -0.105253,-0.38976 -0.1437307,-0.44403 -0.076481,-0.10787 -0.2710596,-0.77378 -0.6487221,-2.22015 -0.2127743,-0.81488 -0.2447973,-1.15038 -0.2450138,-2.56699 -2.269e-4,-1.45791 0.031332,-1.76981 0.2994914,-2.9602 0.3384888,-1.5026 0.4920906,-2.07528 0.5950788,-2.21866 0.1684426,-0.23448 0.6839528,-1.2472 0.6839528,-1.34362 0,-0.26093 1.2699376,-1.81623 2.3348786,-2.85954 1.5689887,-1.53709 3.2022547,-2.58537 4.7695947,-3.06125 0.352756,-0.10711 0.730182,-0.23551 0.838722,-0.28535 0.10854,-0.0498 0.470174,-0.15875 0.803629,-0.24202 0.539861,-0.13483 4.923339,-0.15153 40.011996,-0.15246 l 39.405715,-10e-4 0.962064,-0.93182 0.962065,-0.93181 v -3.41919 c 0,-3.71885 0.04147,-4.09346 0.572616,-5.17218 0.492489,-1.00022 1.777484,-2.03945 2.762325,-2.23402 l 0.32541,-0.0643 -0.0157,-0.85011 c -0.039,-2.11047 0.81466,-3.39349 2.53141,-3.8044 0.65709,-0.15727 0.73814,-0.15734 1.33209,-8.9e-4 0.34784,0.0916 0.76564,0.16164 0.92844,0.15559 0.60038,-0.0223 1.66696,0.30348 2.15651,0.65863 0.78944,0.5727 1.20892,1.18835 1.40248,2.05831 0.13775,0.61919 0.14783,0.84247 0.0559,1.24046 -0.0617,0.26695 -0.11204,0.52638 -0.11204,0.57651 0,0.14987 4.63482,0.11801 4.68521,-0.0322 0.0227,-0.0679 0.0874,-0.30095 0.14374,-0.51803 0.13279,-0.51193 0.72148,-1.27996 1.33856,-1.74636 0.88882,-0.67177 2.3686,-0.8625 3.65048,-0.4705 1.20966,0.36991 1.25543,0.36711 1.74141,-0.10641 0.85947,-0.83744 1.36966,-1.14955 2.15619,-1.31904 0.69759,-0.15032 0.78333,-0.14899 1.49435,0.0232 1.81889,0.44061 2.84727,1.88872 2.84727,4.00936 v 0.74444 l 0.71538,0.001 c 1.52765,0.003 2.72446,0.47821 3.72492,1.47864 0.97691,0.97689 1.15934,1.417 1.6157,3.8976 0.0799,0.43415 0.19716,1.0558 0.26062,1.38142 0.0635,0.32562 0.15252,0.94726 0.19786,1.38142 0.10007,0.95854 0.27918,2.11641 0.34342,2.22034 0.0259,0.0419 0.21404,0.10717 0.41816,0.14512 0.50818,0.0945 2.03613,0.61185 2.65915,0.90037 0.28155,0.13039 0.56162,0.23707 0.62238,0.23707 0.0607,0 0.3093,0.11101 0.55232,0.24668 l 0.44185,0.24669 h 4.01808 c 2.66597,0 4.13408,0.0368 4.36279,0.1093 0.1896,0.0601 0.89974,0.14802 1.57812,0.19535 3.25209,0.22686 3.82316,0.27897 4.14363,0.37811 0.18959,0.0586 0.65611,0.10663 1.03671,0.10663 0.38062,0 0.84713,0.0481 1.03673,0.10688 0.32625,0.10119 1.02832,0.17812 3.38868,0.37145 0.56163,0.0459 1.07302,0.11569 1.1364,0.15486 0.12377,0.0765 1.19502,0.21673 2.62807,0.34403 0.48843,0.0434 1.15449,0.1277 1.48011,0.18735 0.32561,0.0596 1.03606,0.18097 1.57876,0.2696 0.5427,0.0887 1.17292,0.20182 1.40045,0.25153 0.22755,0.0497 0.59261,0.0904 0.81126,0.0904 0.21864,0 0.7207,0.0642 1.11572,0.14258 0.96377,0.19134 2.24386,0.41804 3.08634,0.5466 0.37988,0.058 1.17914,0.20026 1.77611,0.3162 0.59698,0.11594 1.39623,0.25045 1.77612,0.2989 1.25448,0.16001 1.16952,0.18139 1.26203,-0.31755 0.3485,-1.8794 1.40392,-5.87172 1.71952,-6.50446 0.34606,-0.69381 1.50159,-1.86615 2.12863,-2.1596 1.02339,-0.47894 1.45879,-0.51713 5.8946,-0.51698 3.45248,1e-4 4.2461,0.0261 4.74543,0.15551 0.32976,0.0855 0.67293,0.19224 0.76257,0.23731 0.0897,0.045 0.29543,0.14264 0.45728,0.21681 0.46609,0.21358 1.45677,1.26966 1.74723,1.86259 0.48486,0.98977 0.49108,1.07652 0.47891,6.67451 l -0.0114,5.26399 1.163,0.001 c 0.71093,9.9e-4 1.37396,0.0578 1.7057,0.14684 0.29849,0.0801 0.70583,0.1462 0.90519,0.14684 0.19939,9.9e-4 0.57681,0.0446 0.83874,0.0977 0.26192,0.0531 0.83144,0.16896 1.2656,0.25743 0.43417,0.0884 0.83379,0.1953 0.88806,0.23739 0.0543,0.0421 0.25409,0.10942 0.44403,0.14963 0.54261,0.11486 1.59993,0.85331 1.99164,1.39097 0.244,0.33495 0.4064,0.71708 0.53019,1.24756 0.17213,0.73771 0.17213,0.79173 0,1.52943 -0.34554,1.48081 -1.26183,2.2909 -3.15774,2.79175 l -0.84419,0.22301 v 2.75229 c 0,2.22393 -0.0313,2.87933 -0.16272,3.41396 -0.3042,1.23678 -1.12825,2.04466 -2.37292,2.32637 -0.61094,0.13827 -1.49061,0.16073 -6.29481,0.16073 -4.83757,0 -5.67313,-0.0216 -6.24627,-0.16158 -1.17835,-0.28778 -2.26165,-1.33089 -2.62114,-2.52389 -0.0934,-0.31022 -0.21257,-0.59035 -0.26465,-0.62253 -0.0521,-0.0322 -0.0947,-0.12691 -0.0947,-0.21048 0,-0.13588 -0.12813,-0.47101 -0.41094,-1.07489 -0.0901,-0.19236 -0.12757,-0.19667 -0.75466,-0.0867 -0.36292,0.0636 -0.94848,0.1927 -1.30124,0.28692 -0.35276,0.0943 -0.86339,0.20668 -1.13474,0.24992 -0.27135,0.0432 -1.18161,0.23739 -2.0228,0.43144 -0.84119,0.19405 -1.66265,0.35356 -1.82545,0.35449 -0.16282,9.9e-4 -0.80666,0.10857 -1.43077,0.23921 -1.34378,0.2813 -2.59577,0.50185 -3.74958,0.6605 -0.4613,0.0635 -1.08935,0.17613 -1.39567,0.25044 -0.30632,0.0743 -0.77284,0.13509 -1.03672,0.13509 -0.26388,0 -0.63489,0.0471 -0.82448,0.10463 -0.18959,0.0576 -0.52232,0.10411 -0.7394,0.10348 -0.21707,-9.9e-4 -0.64532,0.0633 -0.95163,0.14205 -0.30633,0.0788 -0.72845,0.1432 -0.93805,0.1432 -0.20961,0 -0.53622,0.0457 -0.72581,0.1016 -0.33334,0.0982 -1.15112,0.20378 -3.00888,0.38824 -0.48843,0.0485 -1.04318,0.13574 -1.23276,0.19385 -0.1896,0.0581 -0.63391,0.10568 -0.98739,0.10568 -0.35348,0 -0.79779,0.0467 -0.98738,0.10381 -0.36588,0.11017 -1.68349,0.24909 -3.55593,0.37491 -0.62649,0.0421 -1.20313,0.11614 -1.2814,0.1645 -0.0783,0.0484 -0.72017,0.12417 -1.42643,0.16843 -0.70625,0.0442 -1.90573,0.11864 -2.66552,0.16532 -0.75978,0.0467 -1.53654,0.13458 -1.72613,0.19533 -0.25298,0.0811 -17.42476,0.10785 -64.532295,0.10067 -55.560062,-0.008 -64.267168,-0.0289 -64.77963,-0.15213 z"
       id="path1259"
       inkscape:label="submarine_sticker_shadow" /><path
       style="fill:#f2f2f2;stroke:#000000;stroke-width:0.3;stroke-dasharray:none;stroke-opacity:1"
       d="m 16.693959,170.1809 c -1.908836,-0.45899 -2.660172,-0.66275 -2.894418,-0.78497 -0.144719,-0.0755 -0.311807,-0.13756 -0.371308,-0.13788 -0.162692,-9.9e-4 -0.73934,-0.29472 -1.093981,-0.55738 -0.172757,-0.12795 -0.343459,-0.23263 -0.379336,-0.23263 -0.03588,0 -0.427365,-0.26318 -0.869974,-0.58483 -1.2210556,-0.88739 -2.9123627,-2.69361 -3.460144,-3.69524 -0.063034,-0.11526 -0.2736398,-0.45377 -0.4680128,-0.75226 -0.194373,-0.29849 -0.3866026,-0.69811 -0.4271769,-0.88806 -0.040574,-0.18995 -0.105253,-0.38976 -0.1437307,-0.44403 -0.076481,-0.10787 -0.2710596,-0.77378 -0.6487221,-2.22015 -0.2127743,-0.81488 -0.2447973,-1.15038 -0.2450138,-2.56699 -2.269e-4,-1.45791 0.031332,-1.76981 0.2994914,-2.9602 0.3384888,-1.5026 0.4920906,-2.07528 0.5950788,-2.21866 0.1684426,-0.23448 0.6839528,-1.2472 0.6839528,-1.34362 0,-0.26093 1.2699376,-1.81623 2.3348786,-2.85954 1.5689887,-1.53709 3.2022547,-2.58537 4.7695947,-3.06125 0.352756,-0.10711 0.730182,-0.23551 0.838722,-0.28535 0.10854,-0.0498 0.470174,-0.15875 0.803629,-0.24202 0.539861,-0.13483 4.923339,-0.15153 40.011996,-0.15246 l 39.405715,-10e-4 0.962064,-0.93182 0.962065,-0.93181 v -3.41919 c 0,-3.71885 0.04147,-4.09346 0.572616,-5.17218 0.492489,-1.00022 1.777484,-2.03945 2.762325,-2.23402 l 0.32541,-0.0643 -0.0157,-0.85011 c -0.039,-2.11047 0.81466,-3.39349 2.53141,-3.8044 0.65709,-0.15727 0.73814,-0.15734 1.33209,-8.9e-4 0.34784,0.0916 0.76564,0.16164 0.92844,0.15559 0.60038,-0.0223 1.66696,0.30348 2.15651,0.65863 0.78944,0.5727 1.20892,1.18835 1.40248,2.05831 0.13775,0.61919 0.14783,0.84247 0.0559,1.24046 -0.0617,0.26695 -0.11204,0.52638 -0.11204,0.57651 0,0.14987 4.63482,0.11801 4.68521,-0.0322 0.0227,-0.0679 0.0874,-0.30095 0.14374,-0.51803 0.13279,-0.51193 0.72148,-1.27996 1.33856,-1.74636 0.88882,-0.67177 2.3686,-0.8625 3.65048,-0.4705 1.20966,0.36991 1.25543,0.36711 1.74141,-0.10641 0.85947,-0.83744 1.36966,-1.14955 2.15619,-1.31904 0.69759,-0.15032 0.78333,-0.14899 1.49435,0.0232 1.81889,0.44061 2.84727,1.88872 2.84727,4.00936 v 0.74444 l 0.71538,0.001 c 1.52765,0.003 2.72446,0.47821 3.72492,1.47864 0.97691,0.97689 1.15934,1.417 1.6157,3.8976 0.0799,0.43415 0.19716,1.0558 0.26062,1.38142 0.0635,0.32562 0.15252,0.94726 0.19786,1.38142 0.10007,0.95854 0.27918,2.11641 0.34342,2.22034 0.0259,0.0419 0.21404,0.10717 0.41816,0.14512 0.50818,0.0945 2.03613,0.61185 2.65915,0.90037 0.28155,0.13039 0.56162,0.23707 0.62238,0.23707 0.0607,0 0.3093,0.11101 0.55232,0.24668 l 0.44185,0.24669 h 4.01808 c 2.66597,0 4.13408,0.0368 4.36279,0.1093 0.1896,0.0601 0.89974,0.14802 1.57812,0.19535 3.25209,0.22686 3.82316,0.27897 4.14363,0.37811 0.18959,0.0586 0.65611,0.10663 1.03671,0.10663 0.38062,0 0.84713,0.0481 1.03673,0.10688 0.32625,0.10119 1.02832,0.17812 3.38868,0.37145 0.56163,0.0459 1.07302,0.11569 1.1364,0.15486 0.12377,0.0765 1.19502,0.21673 2.62807,0.34403 0.48843,0.0434 1.15449,0.1277 1.48011,0.18735 0.32561,0.0596 1.03606,0.18097 1.57876,0.2696 0.5427,0.0887 1.17292,0.20182 1.40045,0.25153 0.22755,0.0497 0.59261,0.0904 0.81126,0.0904 0.21864,0 0.7207,0.0642 1.11572,0.14258 0.96377,0.19134 2.24386,0.41804 3.08634,0.5466 0.37988,0.058 1.17914,0.20026 1.77611,0.3162 0.59698,0.11594 1.39623,0.25045 1.77612,0.2989 1.25448,0.16001 1.16952,0.18139 1.26203,-0.31755 0.3485,-1.8794 1.40392,-5.87172 1.71952,-6.50446 0.34606,-0.69381 1.50159,-1.86615 2.12863,-2.1596 1.02339,-0.47894 1.45879,-0.51713 5.8946,-0.51698 3.45248,1e-4 4.2461,0.0261 4.74543,0.15551 0.32976,0.0855 0.67293,0.19224 0.76257,0.23731 0.0897,0.045 0.29543,0.14264 0.45728,0.21681 0.46609,0.21358 1.45677,1.26966 1.74723,1.86259 0.48486,0.98977 0.49108,1.07652 0.47891,6.67451 l -0.0114,5.26399 1.163,0.001 c 0.71093,9.9e-4 1.37396,0.0578 1.7057,0.14684 0.29849,0.0801 0.70583,0.1462 0.90519,0.14684 0.19939,9.9e-4 0.57681,0.0446 0.83874,0.0977 0.26192,0.0531 0.83144,0.16896 1.2656,0.25743 0.43417,0.0884 0.83379,0.1953 0.88806,0.23739 0.0543,0.0421 0.25409,0.10942 0.44403,0.14963 0.54261,0.11486 1.59993,0.85331 1.99164,1.39097 0.244,0.33495 0.4064,0.71708 0.53019,1.24756 0.17213,0.73771 0.17213,0.79173 0,1.52943 -0.34554,1.48081 -1.26183,2.2909 -3.15774,2.79175 l -0.84419,0.22301 v 2.75229 c 0,2.22393 -0.0313,2.87933 -0.16272,3.41396 -0.3042,1.23678 -1.12825,2.04466 -2.37292,2.32637 -0.61094,0.13827 -1.49061,0.16073 -6.29481,0.16073 -4.83757,0 -5.67313,-0.0216 -6.24627,-0.16158 -1.17835,-0.28778 -2.26165,-1.33089 -2.62114,-2.52389 -0.0934,-0.31022 -0.21257,-0.59035 -0.26465,-0.62253 -0.0521,-0.0322 -0.0947,-0.12691 -0.0947,-0.21048 0,-0.13588 -0.12813,-0.47101 -0.41094,-1.07489 -0.0901,-0.19236 -0.12757,-0.19667 -0.75466,-0.0867 -0.36292,0.0636 -0.94848,0.1927 -1.30124,0.28692 -0.35276,0.0943 -0.86339,0.20668 -1.13474,0.24992 -0.27135,0.0432 -1.18161,0.23739 -2.0228,0.43144 -0.84119,0.19405 -1.66265,0.35356 -1.82545,0.35449 -0.16282,9.9e-4 -0.80666,0.10857 -1.43077,0.23921 -1.34378,0.2813 -2.59577,0.50185 -3.74958,0.6605 -0.4613,0.0635 -1.08935,0.17613 -1.39567,0.25044 -0.30632,0.0743 -0.77284,0.13509 -1.03672,0.13509 -0.26388,0 -0.63489,0.0471 -0.82448,0.10463 -0.18959,0.0576 -0.52232,0.10411 -0.7394,0.10348 -0.21707,-9.9e-4 -0.64532,0.0633 -0.95163,0.14205 -0.30633,0.0788 -0.72845,0.1432 -0.93805,0.1432 -0.20961,0 -0.53622,0.0457 -0.72581,0.1016 -0.33334,0.0982 -1.15112,0.20378 -3.00888,0.38824 -0.48843,0.0485 -1.04318,0.13574 -1.23276,0.19385 -0.1896,0.0581 -0.63391,0.10568 -0.98739,0.10568 -0.35348,0 -0.79779,0.0467 -0.98738,0.10381 -0.36588,0.11017 -1.68349,0.24909 -3.55593,0.37491 -0.62649,0.0421 -1.20313,0.11614 -1.2814,0.1645 -0.0783,0.0484 -0.72017,0.12417 -1.42643,0.16843 -0.70625,0.0442 -1.90573,0.11864 -2.66552,0.16532 -0.75978,0.0467 -1.53654,0.13458 -1.72613,0.19533 -0.25298,0.0811 -17.42476,0.10785 -64.532295,0.10067 -55.560062,-0.008 -64.267168,-0.0289 -64.77963,-0.15213 z"
       id="path3602"
       inkscape:label="submarine_sticker" /><path
       style="fill:#545863;fill-opacity:1;stroke-width:0.0989119"
       d="m 17.800844,167.29772 c -3.034641,-0.0549 -8.8060926,-2.58718 -8.8925559,-9.52484 -0.046544,-7.23851 5.7247859,-10.01069 8.0524109,-10.10055 0.217243,-0.1423 3.970145,-0.15898 40.7721,-0.18161 l 40.532853,-0.0248 0.03046,-0.31409 c 0.01612,-0.17281 0.09461,-0.36738 0.173154,-0.4325 0.07839,-0.0651 0.142667,-0.18954 0.142667,-0.2765 0,-0.19875 1.078351,-1.29882 1.282761,-1.30857 0.0833,-0.003 0.284996,-0.0924 0.448196,-0.19675 0.31382,-0.20042 0.39062,-0.23808 0.66765,-0.32745 0.1615,-0.052 0.17316,-0.35488 0.17316,-4.50415 0,-2.85883 0.0354,-4.47013 0.0989,-4.50942 0.0543,-0.0336 0.0989,-0.14069 0.0989,-0.23779 0,-0.21063 0.29978,-0.50406 0.51495,-0.50406 0.0844,0 0.20862,-0.0668 0.27635,-0.1484 0.0972,-0.11717 0.37981,-0.1484 1.34738,-0.1484 0.91072,0 1.22692,-0.0241 1.22692,-0.0241 l -0.0185,-4.37618 0.5298,-0.003 c 0,0 4.1e-4,0.56521 0.0126,2.25797 l 0.0161,2.09688 h 0.6429 0.64294 l 0.019,-2.11272 c 0.0205,-2.2722 0.0256,-2.10699 0.0256,-2.10699 0,0 0.13997,-0.0449 0.19198,0.0959 0.0655,0.17711 0.0108,0.78261 0.0329,2.30428 l 0.0271,1.81956 0.4432,0.0316 c 0.24374,0.0179 0.49966,0.0784 0.56874,0.13567 0.0884,0.0734 0.16563,0.0711 0.26082,-0.009 0.10278,-0.0854 0.16492,-0.0764 0.25938,0.0374 0.10712,0.12903 0.67877,0.14966 4.16157,0.14966 2.58494,0 4.05946,0.0356 4.09858,0.0989 0.0336,0.0544 0.28106,0.0989 0.54985,0.0989 h 0.48873 v -1.4664 c 0,-1.71447 0.10268,-1.94018 0.8542,-1.87848 l 0.3822,0.0314 -0.002,3.28156 c 0.45032,5.3e-4 0.66217,0.0218 1.38299,-0.0179 l -0.0314,-1.19772 -0.0314,-1.19769 1.27816,-0.0337 c 0,0 0.0108,-0.35443 0.0465,1.20162 l 0.028,1.22755 h 1.02946 1.02947 l -0.0223,-1.93152 -0.0223,-1.93148 1.29656,-1.00817 c 0,0 0.002,0.12722 0.002,2.71037 0,2.73154 -0.22292,2.50698 2.4887,2.50698 1.6471,0 2.08968,0.0294 2.34206,0.15522 1.78466,1.9413 2.18591,6.00308 2.19204,8.49632 0,0.8982 0.002,1.06217 0.61387,1.14072 2.54519,0.48067 3.09757,0.52597 4.33174,1.50286 1.01195,0.29807 1.20243,0.40422 2.07714,0.72291 0.90099,0.30883 0.7204,0.14876 4.38896,0.15145 3.65261,0.003 4.29428,0.0248 4.46365,0.15289 0.15486,0.11717 0.44765,0.16204 1.41822,0.13422 8.84191,1.61738 14.24322,1.79747 29.52523,4.29734 0.4604,0.0598 0.75,0.10659 0.81762,-0.11196 0.0294,-0.0951 0.0947,-0.25038 0.14535,-0.34484 0.97452,-2.26648 0.89607,-8.1741 2.97756,-9.57108 0.0859,0 0.21167,-0.0668 0.27939,-0.1484 0.10569,-0.1274 0.68622,-0.1484 4.10485,-0.1484 3.41864,0 3.99913,0.021 4.10484,0.1484 0.0676,0.0816 0.19981,0.1484 0.29352,0.1484 0.20537,0 0.49778,0.30251 0.49778,0.51497 0,0.0844 0.0663,0.20835 0.14768,0.27575 0.12776,0.10605 0.15109,1.01609 0.17316,6.76287 l 0.0254,6.64028 2.63511,0.0264 c 2.27571,0.0734 4.90359,0.21246 6.81815,0.99203 0.31171,0.12251 0.51815,0.31259 0.11077,0.51495 -4.17134,1.42439 -3.97593,0.37965 -3.97547,5.17464 v 3.92536 h -5.62266 c -6.21033,0 -5.46743,0.0793 -5.95003,-0.61387 -0.71782,-1.52606 -0.13207,-4.79302 -1.87967,-4.64055 -6.86498,0.59897 -14.19049,4.57488 -36.5048,5.55144 -43.21895,-0.45268 -121.442635,0.33736 -130.161827,0.0989 -4.3e-5,0 -2.7e-5,-1.2e-4 -2.7e-5,-1.2e-4 z m 49.931069,-10.75943 0.02999,-0.52204 -1.41476,0.0274 -1.41476,0.0274 -0.03228,0.2823 c -0.0705,0.61644 0.256895,0.76577 1.610106,0.73443 l 1.191719,-0.0276 z m 3.217808,0.36591 c 0.109155,-0.12741 0.164477,-0.32478 0.145618,-0.5193 l -0.03042,-0.31369 h -1.384768 -1.384766 l -0.03132,0.38132 c -0.05409,0.6586 -0.05674,0.65726 1.292087,0.65726 1.110462,0 1.233,-0.0181 1.393558,-0.20559 z m 3.276694,-0.33843 -0.0038,-0.49456 -1.405799,-0.0274 -1.4058,-0.0274 v 0.48078 c 0,0.64133 -0.04888,0.62181 1.478104,0.59063 l 1.34089,-0.0274 -0.0038,-0.49456 z m 3.069965,0 v -0.49456 l -1.218038,-0.0278 c -1.164064,-0.0266 -1.226376,-0.018 -1.406205,0.19782 -0.508568,0.60988 -0.04975,0.88107 1.432523,0.84674 l 1.19172,-0.0276 z m 3.363007,0 v -0.49456 h -1.384768 -1.384767 l -0.03131,0.38132 c -0.0554,0.67444 -0.0747,0.66592 1.438787,0.63534 l 1.362066,-0.0274 z m 3.084954,0.42038 c 0.07796,-0.10446 0.09516,-0.44928 0.04314,-0.86548 -0.0075,-0.0607 -0.548136,-0.0989 -1.397129,-0.0989 h -1.384768 v 0.47807 c 0,0.26293 0.02968,0.50775 0.06595,0.544 0.127369,0.1274 2.574022,0.0746 2.672822,-0.0578 z m 8.065117,0 c 0.02404,-0.068 0.02404,-0.31281 1.97e-4,-0.54402 l -0.04342,-0.42039 h -1.374374 c -0.84482,0 -1.377552,0.038 -1.38263,0.0989 -0.03356,0.40269 -0.01436,0.77504 0.04702,0.87299 0.104611,0.16922 2.693336,0.16222 2.7532,-0.007 z m 3.093241,-0.42038 v -0.49456 h -1.384756 -1.384769 l -0.0323,0.28231 c -0.07052,0.61644 0.256892,0.76577 1.610088,0.73442 l 1.191726,-0.0276 z m 3.204974,0.30704 c 0.149114,-0.15863 0.211953,-0.33025 0.19033,-0.51929 l -0.03234,-0.28231 h -1.384767 -1.384777 l -0.03119,0.38132 c -0.0538,0.65639 -0.05223,0.65726 1.247365,0.65726 1.109513,0 1.184828,-0.0126 1.395431,-0.23698 z m 3.273777,-0.30704 v -0.54403 h -1.37483 -1.374794 l -0.03517,0.44339 c -0.05296,0.66475 -0.09671,0.64466 1.408364,0.64466 h 1.37653 z m 3.18212,0.38032 c 0.22494,-0.20358 0.23193,-0.50615 0.0179,-0.74345 -0.43118,-0.47646 -2.90257,-0.19279 -2.90257,0.33315 0,0.54828 2.36182,0.88412 2.8854,0.4103 z m 3.29661,-0.38032 v -0.49456 h -1.38479 -1.38475 l -0.0314,0.38132 c -0.0555,0.67444 -0.0746,0.66592 1.43878,0.63534 l 1.36208,-0.0274 z m 7.83238,0.32894 c 0.27515,-0.25848 0.28036,-0.35829 0.0342,-0.6535 -0.17982,-0.21564 -0.24214,-0.22442 -1.40619,-0.19783 l -1.21804,0.0278 -0.0314,0.38131 c -0.0538,0.6557 -0.051,0.65728 1.23351,0.65728 1.05376,0 1.1797,-0.0196 1.38785,-0.21509 z m 3.27574,-0.35642 0.0299,-0.52204 -1.41475,0.0274 -1.41476,0.0274 -0.0108,0.44511 c -0.0143,0.62315 -0.0675,0.60183 1.42716,0.57147 l 1.3525,-0.0274 z m 3.1352,0.0274 v -0.49454 h -1.38477 -1.38478 l -0.0293,0.29797 c -0.0612,0.62315 0.22105,0.75044 1.59374,0.71886 l 1.20503,-0.0276 z m 3.20496,0.30702 c 0.14912,-0.15862 0.21196,-0.33025 0.19034,-0.51927 l -0.0323,-0.28232 -1.40949,-0.0274 -1.4095,-0.0274 v 0.48079 c 0,0.63234 -0.0412,0.61268 1.28511,0.61268 1.08882,0 1.16562,-0.0126 1.37584,-0.23699 z m 3.2543,-0.3345 0.0299,-0.52204 -1.41475,0.0274 -1.41476,0.0274 -0.0312,0.38132 c -0.0555,0.67443 -0.0746,0.66591 1.43879,0.63533 l 1.36207,-0.0274 z m 3.23151,0.31781 c 0.54789,-0.54787 0.0793,-0.83435 -1.36498,-0.83435 -1.48096,0 -1.90648,0.27416 -1.37999,0.88908 0.29027,0.339 2.39315,0.29709 2.74497,-0.0547 z m 6.67082,0.0631 c 0.16204,-0.1405 0.21147,-0.277 0.18823,-0.51927 l -0.0316,-0.32869 h -1.38477 -1.38477 l -0.0312,0.38132 c -0.054,0.65649 -0.0525,0.65724 1.24948,0.65724 1.01809,0 1.20425,-0.0254 1.39467,-0.1906 z m 3.32187,-0.35341 v -0.49455 h -1.38476 -1.38476 l -0.0312,0.38132 c -0.0555,0.67444 -0.0746,0.66592 1.43877,0.63534 l 1.36207,-0.0274 z m 3.18355,0.32895 c 0.12596,-0.11825 0.22893,-0.26006 0.22893,-0.31507 0,-0.79447 -3.13366,-0.81454 -3.16191,-0.0203 -0.0201,0.56787 2.3919,0.84364 2.93298,0.33533 z m 3.24573,-0.32895 v -0.49455 h -1.38477 -1.38475 l -0.0314,0.38132 c -0.0555,0.67444 -0.0746,0.66592 1.43878,0.63534 l 1.36207,-0.0274 z m 3.1546,0.38756 c 0.0331,-0.0861 0.0601,-0.26044 0.0601,-0.38756 0,-0.5382 -0.0161,-0.544 -1.49425,-0.544 h -1.37417 v 0.47807 c 0,0.26294 0.0296,0.50775 0.066,0.54401 0.15539,0.15539 2.68009,0.0719 2.74244,-0.0904 z m 3.19413,-0.0587 c 0.23028,-0.21632 0.27994,-0.42707 0.16885,-0.71649 -0.064,-0.16671 -2.78968,-0.24617 -2.8239,-0.0824 -0.19968,0.95683 -0.13063,1.01384 1.22744,1.01384 1.09454,0 1.21851,-0.0186 1.42757,-0.21507 z m 7.46644,0.0513 c 0.11591,-0.10497 0.18088,-0.30127 0.18088,-0.54673 v -0.38302 l -1.4095,0.0274 -1.40949,0.0274 -0.0312,0.38131 c -0.054,0.65809 -0.0556,0.65725 1.28155,0.65725 0.9843,0 1.24035,-0.0301 1.38786,-0.16365 z m 3.2966,-0.38031 v -0.49457 h -1.38476 -1.38477 l -0.0314,0.38134 c -0.0555,0.67444 -0.0746,0.66591 1.4388,0.63532 l 1.36206,-0.0274 z m 3.09626,-0.0274 0.0299,-0.52204 -1.41475,0.0274 -1.41477,0.0274 -0.0323,0.28231 c -0.0705,0.61643 0.25689,0.76577 1.61011,0.73442 l 1.19172,-0.0276 z m 3.33302,0.0274 v -0.49457 h -1.38476 -1.38477 l -0.0314,0.38134 c -0.0555,0.67444 -0.0746,0.66591 1.43879,0.63532 l 1.36207,-0.0274 z m 3.16518,0 v -0.49457 l -1.40948,-0.0274 -1.40951,-0.0274 v 0.4808 c 0,0.64133 -0.0488,0.62181 1.4781,0.59061 l 1.34089,-0.0274 z m 3.18352,0.32896 c 0.28342,-0.26625 0.28533,-0.35511 0.0143,-0.64405 -0.23317,-0.2482 -2.64196,-0.36586 -2.66161,-0.1301 -0.0822,0.98607 -0.0782,0.98913 1.26883,0.98913 1.04459,0 1.17097,-0.0198 1.37891,-0.21508 z M 36.476896,153.81336 c 0.03404,-0.41362 -0.188177,-0.85793 -0.429076,-0.85793 -0.08035,0 -0.146086,0.0445 -0.146086,0.0989 0,0.13351 -1.414889,0.12812 -1.548827,-0.005 -0.162702,-0.16276 -0.755977,0.20922 -0.776422,0.48673 -0.04353,0.59084 0.248533,0.71437 1.617586,0.68417 l 1.251678,-0.0276 z m 3.101516,0.26422 c 0.308614,-0.27928 0.238982,-0.78194 -0.134115,-0.96806 -0.213186,-0.10641 -0.347454,-0.12471 -0.41543,-0.0567 -0.141635,0.14158 -1.309734,0.12525 -1.545025,-0.0218 -0.344641,-0.21523 -0.57112,0.2858 -0.502331,1.11127 0.01525,0.18412 2.387245,0.1249 2.596894,-0.0648 z m 3.325961,-0.33607 c 0.03332,-0.51137 -0.265625,-0.93557 -0.496575,-0.70463 -0.07005,0.07 -0.435219,0.11646 -0.917542,0.11646 -0.482322,0 -0.847497,-0.0463 -0.917544,-0.11646 -0.209362,-0.20936 -0.51668,0.18274 -0.51668,0.65922 0,0.56462 -0.03018,0.55394 1.478103,0.52312 l 1.340887,-0.0274 z m 3.094619,0.40087 c 0.0688,-0.82549 -0.157695,-1.32651 -0.502331,-1.1113 -0.235291,0.14697 -1.403381,0.1633 -1.545025,0.0217 -0.399894,-0.39991 -0.952055,0.58179 -0.566724,1.00759 0.18588,0.20539 2.597494,0.28101 2.61408,0.0821 z m 3.173879,-0.0648 c 0.308614,-0.2793 0.238981,-0.78196 -0.134116,-0.96808 -0.213186,-0.10641 -0.347455,-0.12471 -0.415431,-0.0567 -0.130976,0.13099 -1.544552,0.13242 -1.544552,0.001 0,-0.16903 -0.215398,-0.10893 -0.408773,0.11412 -0.179706,0.20721 -0.257648,0.86808 -0.118756,1.00696 0.155577,0.15557 2.435641,0.0705 2.621621,-0.0978 z m 3.325962,-0.33608 c 0.03332,-0.51136 -0.265627,-0.93557 -0.496575,-0.70462 -0.07005,0.07 -0.435221,0.11646 -0.917544,0.11646 -0.482322,0 -0.847494,-0.0463 -0.917544,-0.11646 -0.178348,-0.17836 -0.516678,0.178 -0.516678,0.54427 0,0.59382 0.185666,0.66902 1.575746,0.63821 l 1.243243,-0.0274 z m 12.959023,0.0199 c 0.02166,-0.30168 -0.01992,-0.48665 -0.138961,-0.6182 -0.181422,-0.20047 -0.435956,-0.25232 -0.435956,-0.0889 0,0.15145 -1.457547,0.12741 -1.508908,-0.0248 -0.09455,-0.28021 -0.819098,0.25193 -0.781647,0.5741 0.06862,0.59021 0.213355,0.64621 1.591327,0.61567 l 1.243244,-0.0274 z m 3.174635,0.24234 c 0.380007,-0.4045 -0.228511,-1.34478 -0.618141,-0.95515 -0.144434,0.14446 -1.30993,0.13208 -1.547715,-0.0161 -0.278604,-0.17406 -0.48852,0.14104 -0.492528,0.73936 l -0.0032,0.46983 h 1.219159 c 1.159299,0 1.230116,-0.0126 1.442371,-0.2376 z m 3.253083,-0.26217 c 0.03332,-0.51138 -0.265627,-0.93559 -0.496575,-0.70463 -0.07005,0.07 -0.435222,0.11646 -0.917544,0.11646 -0.482322,0 -0.847495,-0.0463 -0.917542,-0.11646 -0.209362,-0.20935 -0.51668,0.18274 -0.51668,0.65923 0,0.5646 -0.03021,0.55393 1.478103,0.52311 l 1.340888,-0.0274 z m 3.165242,0.0505 c 0.03876,-0.52687 -0.278966,-0.94451 -0.576955,-0.7584 -0.232239,0.14499 -1.400636,0.15952 -1.541024,0.0191 -0.201025,-0.20103 -0.730423,0.17603 -0.730423,0.52026 0,0.60252 0.182055,0.67719 1.575747,0.6463 l 1.243244,-0.0274 z m 3.103256,0.28559 c 0.225383,-0.20397 0.234463,-0.70119 0.01723,-0.94129 -0.178061,-0.19675 -0.48068,-0.23966 -0.578142,-0.0821 -0.08762,0.14176 -1.300001,0.12238 -1.538858,-0.0248 -0.385285,-0.23714 -0.614213,0.28483 -0.498872,1.13749 0.02228,0.16473 2.408487,0.0826 2.598686,-0.0895 z m 3.32596,-0.33607 c 0.03332,-0.51137 -0.265625,-0.93557 -0.496574,-0.70463 -0.143411,0.14338 -1.56047,0.15935 -1.56047,0.018 0,-0.1581 -0.412552,-0.11432 -0.610413,0.0648 -0.228856,0.20712 -0.232877,0.66353 -0.0081,0.92599 0.159346,0.18609 0.268487,0.19959 1.409496,0.17423 l 1.23677,-0.0274 z m 12.95902,0.0199 c 0.02177,-0.30168 -0.01989,-0.48665 -0.138888,-0.6182 -0.181434,-0.20047 -0.435954,-0.25231 -0.435954,-0.0889 0,0.14731 -1.457492,0.12812 -1.506786,-0.0199 -0.09079,-0.27235 -0.768197,0.20032 -0.768197,0.53601 0,0.60531 0.180915,0.6798 1.575746,0.6489 l 1.243256,-0.0274 z m 3.152632,0.26487 c 0.326099,-0.30633 0.288054,-0.87296 -0.05872,-0.87296 -0.0921,0 -0.220871,-0.0535 -0.28616,-0.11879 -0.09221,-0.0922 -0.14499,-0.0922 -0.237386,0 -0.154671,0.15467 -1.386557,0.15647 -1.540684,0.002 -0.224816,-0.22483 -0.516669,0.18479 -0.516669,0.72517 v 0.47922 h 1.20529 c 1.10137,0 1.22504,-0.0185 1.43422,-0.21506 z m 3.295196,-0.26414 c 0,-0.54038 -0.29184,-0.95 -0.51669,-0.72517 -0.14463,0.14463 -1.758281,0.16059 -1.758281,0.0179 0,-0.18032 -0.283041,-0.10246 -0.439502,0.12095 -0.154137,0.22018 -0.211974,0.87615 -0.08813,1.00008 0.03621,0.0362 0.681671,0.0658 1.434227,0.0658 h 1.368286 z m 3.14687,0.0513 c 0.0341,-0.41362 -0.18819,-0.85793 -0.42907,-0.85793 -0.0804,0 -0.14607,0.0445 -0.14607,0.0989 0,0.14732 -1.45747,0.12812 -1.50678,-0.0199 -0.0908,-0.27234 -0.76821,0.20031 -0.76821,0.53602 0,0.6053 0.18093,0.6798 1.57576,0.64888 l 1.24325,-0.0274 z m 3.1603,0.18766 c 0.21565,-0.27415 0.22064,-0.50363 0.0179,-0.82303 -0.14427,-0.22739 -0.52764,-0.30172 -0.63767,-0.12364 -0.0872,0.14105 -1.29998,0.12274 -1.53361,-0.0233 -0.34464,-0.21523 -0.57111,0.2858 -0.50233,1.11127 0.0204,0.24638 2.45252,0.11701 2.65567,-0.14139 z m 3.26718,-0.25951 c 0.0334,-0.51135 -0.26562,-0.93556 -0.49658,-0.70461 -0.14212,0.14211 -1.4248,0.157 -1.51102,0.0179 -0.18942,-0.3065 -0.84074,0.055 -0.84074,0.46656 0,0.62085 0.22707,0.72051 1.5826,0.69459 l 1.2364,-0.0237 z m -84.902985,-1.97574 c 0.05911,-0.059 1.611596,-0.0962 4.025724,-0.0962 h 3.929516 l 0.195977,-0.24916 c 0.107791,-0.13709 0.18119,-0.3262 0.163114,-0.42036 -0.01807,-0.0942 -0.03627,-0.22687 -0.04043,-0.29488 -0.0041,-0.068 -0.09114,-0.12364 -0.193281,-0.12364 -0.10214,0 -0.241124,-0.0668 -0.308847,-0.1484 -0.105531,-0.12723 -0.664933,-0.1484 -3.913295,-0.1484 -2.42008,0 -3.812261,-0.0357 -3.851293,-0.0989 -0.03878,-0.0628 -1.268452,-0.0989 -3.363006,-0.0989 -2.094554,0 -3.324228,0.0362 -3.363007,0.0989 -0.03363,0.0543 -0.356079,0.0989 -0.716573,0.0989 -0.998718,0 -1.444812,0.57404 -0.898233,1.15584 0.183323,0.19515 0.312929,0.22892 0.878097,0.22892 0.4098,0 0.702191,0.0472 0.765562,0.12364 0.127512,0.15378 6.535042,0.12741 6.689973,-0.0274 z m 107.178275,-1.28315 c 1.92676,-0.29839 4.42232,-1.23845 4.9456,-2.49156 0.21632,-0.62384 -0.69574,-0.89092 -1.03858,-0.37669 -1.38321,1.13089 -3.22403,1.32724 -4.69831,1.53328 -0.8608,0.11392 -1.69732,0.1484 -13.20475,0.1484 -11.50742,0 -11.05418,-0.11712 -13.20474,-0.1484 -2.9881,-0.49079 -2.96919,-0.66222 -4.47646,-1.88085 -0.72021,-0.88534 -1.663522,-0.1764 -0.96369,0.73057 1.16574,1.56117 2.70516,1.96961 5.20268,2.54361 2.46299,0.0816 4.31037,0.041 13.49751,0.041 9.22789,0 13.94074,-0.0334 13.94074,-0.0989 z m -61.374857,-2.3245 v -0.29675 l -2.596438,-0.0264 c -2.377754,-0.0243 -2.596439,-0.0126 -2.596439,0.14014 0,0.48887 0.17842,0.52105 2.769535,0.49972 l 2.423342,-0.0199 z m 2.151336,0.20849 c 0.485087,-0.36824 0.02539,-0.61731 -1.023816,-0.5547 -0.858708,0.0512 -0.998541,0.14248 -0.842253,0.5498 0.07382,0.19238 1.613762,0.19642 1.866069,0.005 z m 5.613253,-0.20849 v -0.34621 l -2.398615,0.003 c -2.648972,0.003 -2.981308,0.0662 -2.597863,0.48985 0.171513,0.18951 0.299738,0.19939 2.588465,0.19939 h 2.408013 z m 2.193802,0.18176 c 0.367405,-0.3325 -0.01113,-0.52797 -1.022189,-0.52797 h -0.874877 v 0.34621 0.34617 h 0.857691 c 0.660807,0 0.899397,-0.0377 1.039375,-0.16436 z m 5.570789,-0.18176 v -0.29675 h -2.462021 c -2.190061,0 -2.473502,0.0181 -2.565977,0.16473 -0.275916,0.4374 -0.01381,0.4834 2.593445,0.45508 l 2.434553,-0.0264 z m 2.373892,0 v -0.29675 h -1.037236 c -0.921944,0 -1.041041,0.0199 -1.071672,0.17891 -0.08273,0.42972 0.02297,0.47254 1.093277,0.44281 l 1.015631,-0.0282 z m 5.390697,-0.002 v -0.34792 l -2.446766,0.0264 c -2.269923,0.0246 -2.449241,0.0395 -2.481164,0.20534 -0.08865,0.46083 -0.07123,0.46406 2.501477,0.46406 h 2.426453 z m 2.373886,0.002 v -0.34621 h -1.038583 -1.038562 v 0.34621 0.34617 h 1.038562 1.038583 z m 47.873382,0 v -0.34621 h -2.47281 -2.4728 v 0.34621 0.34617 h 2.4728 2.47281 z m 2.32443,0 v -0.29675 l -0.87527,-0.0287 c -0.95157,-0.0312 -1.15242,0.0454 -1.15242,0.43994 0,0.23855 0,0.23862 1.01384,0.21045 l 1.01385,-0.0282 z m -16.50008,-3.42958 c 0.62796,-0.58996 -27.72191,-1.00228 -28.37343,-0.41267 -0.1817,0.16437 -0.23785,0.43876 -0.11484,0.56165 0.0362,0.0362 6.40949,0.0658 14.16274,0.0658 h 14.09682 z"
       id="path2739"
       sodipodi:nodetypes="cccscccsssssssscscccccccscscccscsssscsscccccccccccccsscccccssccsccssssscsccccccscscsccsccssccsccccsssccccsccccccccsccccccscccccccsccccccsccccccccsscccccccsscccccccsccccscccsccscccsccccsssccsccscccsccscccscsccsssscsccccccsccsccccccscccsccccccscccscccsscccccscscccccccccccccccsccccccscccccccssccccccsccccccssscccsssccssscsscssscscssssscsccssscssssssscssssssssccsscscsccscscscsccssscsccssccsccsccsssccccssssccccssscccccsscscsccccssssccccssscccccsccccccccscccscsssssssssssssccscsccccccccccccssccccscccsccsccsccscssccsssccccsssccccssccccccccccccccccscccccssssccsssscssscc"
       inkscape:label="submarine"
       inkscape:export-filename=".\path2739.svg"
       inkscape:export-xdpi="96"
       inkscape:export-ydpi="96" /></g></svg>
