<?xml version="1.0" encoding="UTF-8" standalone="no"?>
<!-- Created with Inkscape (http://www.inkscape.org/) -->

<svg
   width="103.34854mm"
   height="58.727348mm"
   viewBox="0 0 103.34854 58.727348"
   version="1.1"
   id="svg5"
   xml:space="preserve"
   inkscape:version="1.2.2 (732a01da63, 2022-12-09)"
   sodipodi:docname="logo_design.svg"
   inkscape:export-filename="logo_design.svg"
   inkscape:export-xdpi="96"
   inkscape:export-ydpi="96"
   xmlns:inkscape="http://www.inkscape.org/namespaces/inkscape"
   xmlns:sodipodi="http://sodipodi.sourceforge.net/DTD/sodipodi-0.dtd"
   xmlns="http://www.w3.org/2000/svg"
   xmlns:svg="http://www.w3.org/2000/svg"><sodipodi:namedview
     id="namedview7"
     pagecolor="#ffffff"
     bordercolor="#000000"
     borderopacity="0.25"
     inkscape:showpageshadow="2"
     inkscape:pageopacity="0.0"
     inkscape:pagecheckerboard="0"
     inkscape:deskcolor="#d1d1d1"
     inkscape:document-units="mm"
     showgrid="false"
     inkscape:zoom="1"
     inkscape:cx="621"
     inkscape:cy="570.5"
     inkscape:window-width="1920"
     inkscape:window-height="991"
     inkscape:window-x="-9"
     inkscape:window-y="-9"
     inkscape:window-maximized="1"
     inkscape:current-layer="layer14" /><defs
     id="defs2"><filter
       inkscape:collect="always"
       style="color-interpolation-filters:sRGB"
       id="filter5674"
       x="-0.02353261"
       y="-0.042948596"
       width="1.0470653"
       height="1.0858972"><feGaussianBlur
         inkscape:collect="always"
         stdDeviation="0.96780861"
         id="feGaussianBlur5676" /></filter><filter
       inkscape:collect="always"
       style="color-interpolation-filters:sRGB"
       id="filter7207"
       x="-0.0313701"
       y="-0.064716637"
       width="1.0627402"
       height="1.1294333"><feGaussianBlur
         inkscape:collect="always"
         stdDeviation="0.83624847"
         id="feGaussianBlur7209" /></filter></defs><style
     type="text/css"
     id="style2665">
	.st0{fill:#C43124;stroke:#010202;stroke-width:5;stroke-miterlimit:10;}
	.st1{fill:#E8A627;stroke:#010202;stroke-width:5;stroke-miterlimit:10;}
	.st2{fill:#F9DE59;stroke:#010202;stroke-width:5;stroke-miterlimit:10;}
</style><g
     inkscape:groupmode="layer"
     id="layer14"
     inkscape:label="arrow"
     style="display:inline"
     transform="translate(-59.266744,-111.73026)"><path
       id="path667"
       style="fill:#000000;fill-opacity:0.5;stroke:none;stroke-width:0.3;stroke-dasharray:none;stroke-opacity:1;filter:url(#filter5674)"
       inkscape:label="sticker_shadow"
       d="m 110.54312,114.05299 9.04545,19.6143 c 0,0 -20.648531,-9.87114 -50.993791,-0.2868 l -6.344315,11.25048 c 3.284302,0.83792 6.65964,1.69996 7.153568,1.82469 1.35566,0.34235 -8.78563,22.4271 -7.738545,21.65966 37.387154,-27.40227 59.295603,-18.80247 59.295603,-18.80247 l -5.96501,9.21856 4.64106,5.86114 40.6554,-15.65383 z" /><path
       id="path5672"
       style="fill:#1e96fc;fill-opacity:1;stroke:#000000;stroke-width:0.3;stroke-dasharray:none;stroke-opacity:1"
       inkscape:label="sticker"
       d="m 110.54312,114.05299 9.04545,19.6143 c 0,0 -20.648531,-9.87114 -50.993791,-0.2868 l -6.344315,11.25048 c 3.284302,0.83792 6.65964,1.69996 7.153568,1.82469 1.35566,0.34235 -8.78563,22.4271 -7.738545,21.65966 37.387154,-27.40227 59.295603,-18.80247 59.295603,-18.80247 l -5.96501,9.21856 4.64106,5.86114 40.6554,-15.65383 z" /><path
       id="path7202"
       style="mix-blend-mode:multiply;fill:#000000;fill-opacity:0.5;stroke:none;stroke-width:0.3;stroke-dasharray:none;stroke-opacity:1;filter:url(#filter7207)"
       d="m 68.594779,133.38049 -6.344315,11.25048 c 5.93241,-1.87371 12.232646,-4.48624 18.824691,-8.0667 0,0 -6.750429,-1.72188 -12.480376,-3.18378 z m 57.633691,20.82612 -11.23239,4.3248 4.64106,5.86114 z"
       inkscape:label="crease_shadow" /><path
       id="path7205"
       style="fill:#f2f2f2;fill-opacity:1;stroke:#000000;stroke-width:0.3;stroke-dasharray:none;stroke-opacity:1"
       d="m 68.594779,133.38049 -6.344315,11.25048 c 5.93241,-1.87371 12.232646,-4.48624 18.824691,-8.0667 0,0 -6.750429,-1.72188 -12.480376,-3.18378 z m 57.633691,20.82612 -11.23239,4.3248 4.64106,5.86114 z"
       inkscape:label="crease" /></g></svg>
