<?xml version="1.0" encoding="UTF-8" standalone="no"?>
<!-- Created with Inkscape (http://www.inkscape.org/) -->

<svg
   width="207.91182mm"
   height="59.024826mm"
   viewBox="0 0 207.91182 59.024826"
   version="1.1"
   id="svg5"
   xml:space="preserve"
   inkscape:version="1.2.2 (732a01da63, 2022-12-09)"
   sodipodi:docname="logo_design.svg"
   inkscape:export-filename="logo_design.svg"
   inkscape:export-xdpi="96"
   inkscape:export-ydpi="96"
   xmlns:inkscape="http://www.inkscape.org/namespaces/inkscape"
   xmlns:sodipodi="http://sodipodi.sourceforge.net/DTD/sodipodi-0.dtd"
   xmlns="http://www.w3.org/2000/svg"
   xmlns:svg="http://www.w3.org/2000/svg"><sodipodi:namedview
     id="namedview7"
     pagecolor="#ffffff"
     bordercolor="#000000"
     borderopacity="0.25"
     inkscape:showpageshadow="2"
     inkscape:pageopacity="0.0"
     inkscape:pagecheckerboard="0"
     inkscape:deskcolor="#d1d1d1"
     inkscape:document-units="mm"
     showgrid="false"
     inkscape:zoom="1.4142136"
     inkscape:cx="289.91378"
     inkscape:cy="563.21055"
     inkscape:window-width="1920"
     inkscape:window-height="991"
     inkscape:window-x="-9"
     inkscape:window-y="-9"
     inkscape:window-maximized="1"
     inkscape:current-layer="layer5" /><defs
     id="defs2"><filter
       inkscape:collect="always"
       style="color-interpolation-filters:sRGB"
       id="filter11572"
       x="-0.013000983"
       y="-0.049009744"
       width="1.026002"
       height="1.0980195"><feGaussianBlur
         inkscape:collect="always"
         stdDeviation="0.8859199"
         id="feGaussianBlur11574" /></filter><filter
       inkscape:collect="always"
       style="color-interpolation-filters:sRGB"
       id="filter11578"
       x="-0.079120837"
       y="-0.15759251"
       width="1.1582417"
       height="1.315185"><feGaussianBlur
         inkscape:collect="always"
         stdDeviation="0.74444661"
         id="feGaussianBlur11580" /></filter></defs><style
     type="text/css"
     id="style2665">
	.st0{fill:#C43124;stroke:#010202;stroke-width:5;stroke-miterlimit:10;}
	.st1{fill:#E8A627;stroke:#010202;stroke-width:5;stroke-miterlimit:10;}
	.st2{fill:#F9DE59;stroke:#010202;stroke-width:5;stroke-miterlimit:10;}
</style><g
     inkscape:groupmode="layer"
     id="layer5"
     inkscape:label="battleship"
     style="display:inline"
     transform="translate(-1.8968769,-131.94484)"><g
       id="g11269"
       inkscape:label="sticker"
       transform="matrix(1.2390859,0,0,1.2390859,-33.65339,-42.598484)"><path
         id="path11271"
         style="fill:#000000;fill-opacity:0.5;stroke:none;stroke-width:0.3;stroke-dasharray:none;stroke-opacity:1;filter:url(#filter11572)"
         inkscape:label="battleship_sticker_shadow"
         d="m 129.51505,142.99079 c -2.17354,0 -2.85628,0.11057 -3.48197,0.56469 -0.5869,0.4259 -0.96536,0.99498 -1.09477,1.64527 -0.0911,0.4578 -0.16279,0.59673 -0.44124,0.85329 -0.53827,0.49594 -0.79236,0.93547 -0.95046,1.64611 -0.1166,0.52396 -0.12802,0.74256 -0.0567,1.07516 l 0.0897,0.41747 -0.70607,1.44133 c -0.38825,0.79268 -0.85689,1.75747 -1.04138,2.14407 l -0.33531,0.70274 -1.93012,8.3e-4 -1.9297,8.3e-4 -0.05,-0.23438 c -0.0703,-0.33057 -0.62583,-1.02707 -1.11269,-1.39504 -0.99237,-0.75001 -3.32531,-0.76329 -4.34319,-0.0246 -0.45502,0.33021 -0.96393,0.97672 -1.06682,1.35542 -0.0694,0.25541 -0.0712,0.2561 -0.87498,0.3153 -1.2737,0.0938 -1.82082,0.29409 -2.49314,0.91209 -0.6053,0.55639 -1.03854,1.73697 -0.94254,2.56863 0.0383,0.33189 -0.0243,0.54556 -0.46293,1.57813 -0.27904,0.6568 -0.53473,1.2803 -0.56803,1.38586 -0.0602,0.19116 -0.068,0.19185 -1.88132,0.19185 h -1.82044 l -0.0546,-0.31988 c -0.13548,-0.79333 -1.06822,-1.62541 -2.067751,-1.84504 -0.866201,-0.19033 -3.27847,-0.19033 -4.144671,0 -1.109418,0.24378 -1.913108,1.02872 -2.120714,2.07192 -0.09016,0.45307 -0.163844,0.59797 -0.431233,0.84536 -0.468385,0.43337 -0.802995,1.00931 -0.925857,1.59356 -0.131452,0.62509 -0.202375,0.77099 -0.894161,1.84046 l -0.547591,0.84661 H 90.16236 89.490071 l 0.15848,-0.66103 c 0.08701,-0.36359 0.158025,-0.79543 0.158063,-0.95963 1.24e-4,-0.54684 -0.329428,-1.70286 -0.595968,-2.09027 -0.140633,-0.2044 -0.255654,-0.39525 -0.255654,-0.42415 0,-0.0289 -0.194522,-0.34028 -0.432067,-0.6923 -0.288571,-0.42765 -0.607045,-0.76929 -0.959638,-1.02887 -0.724783,-0.53359 -0.832408,-0.58103 -1.82836,-0.80533 l -0.874143,-0.19685 -0.87456,0.19435 c -0.5634,0.12511 -1.036464,0.2905 -1.330398,0.46501 -0.626017,0.37165 -1.474979,1.29105 -1.75621,1.90218 -0.126793,0.27553 -0.320441,0.67387 -0.430398,0.88498 -0.109958,0.21112 -0.248947,0.62248 -0.309037,0.91418 l -0.109268,0.53008 -0.474189,-0.45084 c -0.943055,-0.89743 -1.747992,-1.16381 -3.518675,-1.16441 -1.022648,-3.6e-4 -1.05935,-0.007 -1.43341,-0.25565 -0.211117,-0.14035 -0.443225,-0.25549 -0.515895,-0.25566 -0.143868,-3.9e-4 -0.479114,-0.21194 -1.503892,-0.94921 -0.533277,-0.38366 -0.790323,-0.5079 -1.282021,-0.6189 -0.567128,-0.12807 -0.663997,-0.12812 -1.243234,-8.4e-4 -1.12768,0.24779 -1.891755,1.00662 -2.136562,2.12072 -0.121176,0.55159 -0.121291,0.66096 0.0013,1.20027 0.18655,0.821 0.6567,1.44992 1.605236,2.14824 l 0.255654,0.18851 -1.836701,0.003 -1.837118,0.003 -0.155561,-0.26358 c -0.263988,-0.4469 -0.656068,-0.84398 -1.194856,-1.20987 -0.711573,-0.48322 -1.477513,-0.65767 -2.893096,-0.65852 -1.061289,-6.5e-4 -1.104037,-0.008 -1.450093,-0.24356 -0.196111,-0.13365 -0.466276,-0.26967 -0.600139,-0.30237 -0.133864,-0.0327 -0.64568,-0.35968 -1.137303,-0.7265 -0.800788,-0.5975 -0.961295,-0.68148 -1.54393,-0.8095 -0.605129,-0.1331 -0.695645,-0.13364 -1.298702,-0.003 -0.757836,0.16374 -1.294923,0.51017 -1.737025,1.11937 -0.357621,0.4928 -0.593522,1.44098 -0.481696,1.93679 l 0.07382,0.32739 -0.782391,-0.0546 c -0.430215,-0.0299 -1.645672,-0.0917 -2.701252,-0.13763 -2.387501,-0.10388 -5.103063,-0.22488 -7.549073,-0.33656 -1.032122,-0.0471 -2.7786,-0.12608 -3.881094,-0.17558 -1.102494,-0.0495 -2.734063,-0.12407 -3.625441,-0.16557 -1.356983,-0.0632 -1.71753,-0.0539 -2.21747,0.0576 -1.113632,0.2483 -1.792817,0.93491 -2.04064,2.06275 -0.131001,0.59636 -0.131326,0.68834 -0.0013,1.29036 0.09695,0.4487 0.222935,0.7567 0.408712,0.99967 0.530651,0.69403 7.470664,8.36374 7.814319,8.63592 0.513875,0.40699 1.218254,1.50717 1.659871,2.59281 0.196735,0.48365 0.168295,0.72087 -0.162234,1.34333 -0.169588,0.31938 -0.391863,0.95298 -0.518396,1.47804 -0.219829,0.91219 -0.220305,0.9237 -0.07882,1.57062 0.210781,0.96377 0.783017,1.75207 1.661538,2.28837 0.270194,0.16495 1.547741,0.48089 2.302966,0.56969 0.164201,0.0196 1.526952,0.0247 3.028221,0.0117 2.534467,-0.0219 2.802634,-0.0388 3.753059,-0.23772 1.572813,-0.32916 2.532335,-0.60639 5.032577,-1.45468 l 2.303383,-0.78156 44.86738,-0.0425 44.86738,-0.043 0.76612,-0.23981 c 0.94868,-0.2971 1.57842,-0.43194 3.37104,-0.7215 l 1.40755,-0.2273 13.73314,-0.0221 c 13.53578,-0.0218 14.3555,-0.038 14.674,-0.28818 0.0531,-0.0417 0.12958,0.0246 0.19268,0.16724 0.15278,0.34515 0.66306,0.91396 1.07058,1.1936 0.52066,0.35727 1.31757,0.49324 2.78591,0.47544 0.68026,-0.008 1.46083,-0.0654 1.73452,-0.1272 0.64652,-0.14604 1.29308,-0.60152 1.69574,-1.19402 0.27132,-0.39924 0.35207,-0.63775 0.5601,-1.65779 l 0.24273,-1.1911 0.35199,-0.0884 c 0.47592,-0.11913 1.05907,-0.54702 1.41631,-1.03929 0.23161,-0.31915 0.37113,-0.69141 0.64935,-1.73202 0.34849,-1.30345 1.24464,-4.05406 1.37836,-4.231 0.0375,-0.0497 0.1697,-0.60439 0.29402,-1.23281 0.22475,-1.1359 0.22538,-1.14647 0.0817,-1.83086 -0.10347,-0.49306 -0.22487,-0.79941 -0.42832,-1.07975 -0.37241,-0.51318 -1.78879,-1.5037 -2.37636,-1.66196 -0.35289,-0.0951 -1.52696,-0.11961 -5.95051,-0.12261 -5.85893,-0.004 -6.04588,0.008 -6.6545,0.40746 -0.2631,0.17254 -0.39584,0.19895 -0.89208,0.17725 l -0.58262,-0.0254 -0.0892,-0.357 c -0.049,-0.19648 -0.21174,-0.53071 -0.36158,-0.74236 -0.28603,-0.40406 -1.00211,-0.98383 -1.2203,-0.98883 -0.0704,-0.001 -0.22356,-0.14636 -0.34073,-0.32196 -0.30926,-0.46348 -1.0138,-1.19873 -1.40797,-1.4697 -0.54988,-0.37801 -1.31784,-0.50281 -3.1988,-0.51881 -1.93133,-0.0165 -2.50855,0.0881 -3.18837,0.57595 -0.3275,0.23509 -0.43282,0.27444 -0.49212,0.18434 -0.32765,-0.49772 -0.57518,-1.04706 -0.66728,-1.47971 -0.0599,-0.28149 -0.21636,-0.66765 -0.34741,-0.85829 -0.13107,-0.19063 -0.26289,-0.4788 -0.29319,-0.64018 -0.0744,-0.39643 -0.55493,-1.03888 -1.04054,-1.39129 -0.73107,-0.53054 -2.34106,-0.71881 -3.63545,-0.42539 -0.61644,0.13975 -1.11584,0.41617 -1.50306,0.83244 -0.18278,0.19653 -0.27204,0.22162 -0.7678,0.22062 l -0.56093,-0.002 -0.26483,-0.44583 c -0.14558,-0.24538 -0.69762,-1.13737 -1.22697,-1.98183 -0.52934,-0.84446 -1.24516,-1.9861 -1.59064,-2.53735 -0.34547,-0.55125 -0.9116,-1.45353 -1.25825,-2.00478 -0.69108,-1.09893 -1.0312,-1.6511 -1.37586,-2.21246 l -18.22437,-6.97646 c -0.0287,0.0823 -0.0576,0.1649 -0.0842,0.25273 -0.1282,0.42287 -0.2358,0.69186 -0.2398,0.59806 -0.0105,-0.25773 -0.55033,-0.9433 -0.99926,-1.26909 -0.62569,-0.45406 -1.30803,-0.56469 -3.48156,-0.56469 z" /><path
         id="path11570"
         style="fill:#f2f2f2;stroke:#010202;stroke-width:0.242114;stroke-dasharray:none;stroke-opacity:1"
         inkscape:label="battleship_sticker"
         d="m 129.51505,142.99079 c -2.17354,0 -2.85628,0.11057 -3.48197,0.56469 -0.5869,0.4259 -0.96536,0.99498 -1.09477,1.64527 -0.0911,0.4578 -0.16279,0.59673 -0.44124,0.85329 -0.53827,0.49594 -0.79236,0.93547 -0.95046,1.64611 -0.1166,0.52396 -0.12802,0.74256 -0.0567,1.07516 l 0.0897,0.41747 -0.70607,1.44133 c -0.38825,0.79268 -0.85689,1.75747 -1.04138,2.14407 l -0.33531,0.70274 -1.93012,8.3e-4 -1.9297,8.3e-4 -0.05,-0.23438 c -0.0703,-0.33057 -0.62583,-1.02707 -1.11269,-1.39504 -0.99237,-0.75001 -3.32531,-0.76329 -4.34319,-0.0246 -0.45502,0.33021 -0.96393,0.97672 -1.06682,1.35542 -0.0694,0.25541 -0.0712,0.2561 -0.87498,0.3153 -1.2737,0.0938 -1.82082,0.29409 -2.49314,0.91209 -0.6053,0.55639 -1.03854,1.73697 -0.94254,2.56863 0.0383,0.33189 -0.0243,0.54556 -0.46293,1.57813 -0.27904,0.6568 -0.53473,1.2803 -0.56803,1.38586 -0.0602,0.19116 -0.068,0.19185 -1.88132,0.19185 h -1.82044 l -0.0546,-0.31988 c -0.13548,-0.79333 -1.06822,-1.62541 -2.067751,-1.84504 -0.866201,-0.19033 -3.27847,-0.19033 -4.144671,0 -1.109418,0.24378 -1.913108,1.02872 -2.120714,2.07192 -0.09016,0.45307 -0.163844,0.59797 -0.431233,0.84536 -0.468385,0.43337 -0.802995,1.00931 -0.925857,1.59356 -0.131452,0.62509 -0.202375,0.77099 -0.894161,1.84046 l -0.547591,0.84661 H 90.16236 89.490071 l 0.15848,-0.66103 c 0.08701,-0.36359 0.158025,-0.79543 0.158063,-0.95963 1.24e-4,-0.54684 -0.329428,-1.70286 -0.595968,-2.09027 -0.140633,-0.2044 -0.255654,-0.39525 -0.255654,-0.42415 0,-0.0289 -0.194522,-0.34028 -0.432067,-0.6923 -0.288571,-0.42765 -0.607045,-0.76929 -0.959638,-1.02887 -0.724783,-0.53359 -0.832408,-0.58103 -1.82836,-0.80533 l -0.874143,-0.19685 -0.87456,0.19435 c -0.5634,0.12511 -1.036464,0.2905 -1.330398,0.46501 -0.626017,0.37165 -1.474979,1.29105 -1.75621,1.90218 -0.126793,0.27553 -0.320441,0.67387 -0.430398,0.88498 -0.109958,0.21112 -0.248947,0.62248 -0.309037,0.91418 l -0.109268,0.53008 -0.474189,-0.45084 c -0.943055,-0.89743 -1.747992,-1.16381 -3.518675,-1.16441 -1.022648,-3.6e-4 -1.05935,-0.007 -1.43341,-0.25565 -0.211117,-0.14035 -0.443225,-0.25549 -0.515895,-0.25566 -0.143868,-3.9e-4 -0.479114,-0.21194 -1.503892,-0.94921 -0.533277,-0.38366 -0.790323,-0.5079 -1.282021,-0.6189 -0.567128,-0.12807 -0.663997,-0.12812 -1.243234,-8.4e-4 -1.12768,0.24779 -1.891755,1.00662 -2.136562,2.12072 -0.121176,0.55159 -0.121291,0.66096 0.0013,1.20027 0.18655,0.821 0.6567,1.44992 1.605236,2.14824 l 0.255654,0.18851 -1.836701,0.003 -1.837118,0.003 -0.155561,-0.26358 c -0.263988,-0.4469 -0.656068,-0.84398 -1.194856,-1.20987 -0.711573,-0.48322 -1.477513,-0.65767 -2.893096,-0.65852 -1.061289,-6.5e-4 -1.104037,-0.008 -1.450093,-0.24356 -0.196111,-0.13365 -0.466276,-0.26967 -0.600139,-0.30237 -0.133864,-0.0327 -0.64568,-0.35968 -1.137303,-0.7265 -0.800788,-0.5975 -0.961295,-0.68148 -1.54393,-0.8095 -0.605129,-0.1331 -0.695645,-0.13364 -1.298702,-0.003 -0.757836,0.16374 -1.294923,0.51017 -1.737025,1.11937 -0.357621,0.4928 -0.593522,1.44098 -0.481696,1.93679 l 0.07382,0.32739 -0.782391,-0.0546 c -0.430215,-0.0299 -1.645672,-0.0917 -2.701252,-0.13763 -2.387501,-0.10388 -5.103063,-0.22488 -7.549073,-0.33656 -1.032122,-0.0471 -2.7786,-0.12608 -3.881094,-0.17558 -1.102494,-0.0495 -2.734063,-0.12407 -3.625441,-0.16557 -1.356983,-0.0632 -1.71753,-0.0539 -2.21747,0.0576 -1.113632,0.2483 -1.792817,0.93491 -2.04064,2.06275 -0.131001,0.59636 -0.131326,0.68834 -0.0013,1.29036 0.09695,0.4487 0.222935,0.7567 0.408712,0.99967 0.530651,0.69403 7.470664,8.36374 7.814319,8.63592 0.513875,0.40699 1.218254,1.50717 1.659871,2.59281 0.196735,0.48365 0.168295,0.72087 -0.162234,1.34333 -0.169588,0.31938 -0.391863,0.95298 -0.518396,1.47804 -0.219829,0.91219 -0.220305,0.9237 -0.07882,1.57062 0.210781,0.96377 0.783017,1.75207 1.661538,2.28837 0.270194,0.16495 1.547741,0.48089 2.302966,0.56969 0.164201,0.0196 1.526952,0.0247 3.028221,0.0117 2.534467,-0.0219 2.802634,-0.0388 3.753059,-0.23772 1.572813,-0.32916 2.532335,-0.60639 5.032577,-1.45468 l 2.303383,-0.78156 44.86738,-0.0425 44.86738,-0.043 0.76612,-0.23981 c 0.94868,-0.2971 1.57842,-0.43194 3.37104,-0.7215 l 1.40755,-0.2273 13.73314,-0.0221 c 13.53578,-0.0218 14.3555,-0.038 14.674,-0.28818 0.0531,-0.0417 0.12958,0.0246 0.19268,0.16724 0.15278,0.34515 0.66306,0.91396 1.07058,1.1936 0.52066,0.35727 1.31757,0.49324 2.78591,0.47544 0.68026,-0.008 1.46083,-0.0654 1.73452,-0.1272 0.64652,-0.14604 1.29308,-0.60152 1.69574,-1.19402 0.27132,-0.39924 0.35207,-0.63775 0.5601,-1.65779 l 0.24273,-1.1911 0.35199,-0.0884 c 0.47592,-0.11913 1.05907,-0.54702 1.41631,-1.03929 0.23161,-0.31915 0.37113,-0.69141 0.64935,-1.73202 0.34849,-1.30345 1.24464,-4.05406 1.37836,-4.231 0.0375,-0.0497 0.1697,-0.60439 0.29402,-1.23281 0.22475,-1.1359 0.22538,-1.14647 0.0817,-1.83086 -0.10347,-0.49306 -0.22487,-0.79941 -0.42832,-1.07975 -0.37241,-0.51318 -1.78879,-1.5037 -2.37636,-1.66196 -0.35289,-0.0951 -1.52696,-0.11961 -5.95051,-0.12261 -5.85893,-0.004 -6.04588,0.008 -6.6545,0.40746 -0.2631,0.17254 -0.39584,0.19895 -0.89208,0.17725 l -0.58262,-0.0254 -0.0892,-0.357 c -0.049,-0.19648 -0.21174,-0.53071 -0.36158,-0.74236 -0.28603,-0.40406 -1.00211,-0.98383 -1.2203,-0.98883 -0.0704,-0.001 -0.22356,-0.14636 -0.34073,-0.32196 -0.30926,-0.46348 -1.0138,-1.19873 -1.40797,-1.4697 -0.54988,-0.37801 -1.31784,-0.50281 -3.1988,-0.51881 -1.93133,-0.0165 -2.50855,0.0881 -3.18837,0.57595 -0.3275,0.23509 -0.43282,0.27444 -0.49212,0.18434 -0.32765,-0.49772 -0.57518,-1.04706 -0.66728,-1.47971 -0.0599,-0.28149 -0.21636,-0.66765 -0.34741,-0.85829 -0.13107,-0.19063 -0.26289,-0.4788 -0.29319,-0.64018 -0.0744,-0.39643 -0.55493,-1.03888 -1.04054,-1.39129 -0.73107,-0.53054 -2.34106,-0.71881 -3.63545,-0.42539 -0.61644,0.13975 -1.11584,0.41617 -1.50306,0.83244 -0.18278,0.19653 -0.27204,0.22162 -0.7678,0.22062 l -0.56093,-0.002 -0.26483,-0.44583 c -0.14558,-0.24538 -0.69762,-1.13737 -1.22697,-1.98183 -0.52934,-0.84446 -1.24516,-1.9861 -1.59064,-2.53735 -0.34547,-0.55125 -0.9116,-1.45353 -1.25825,-2.00478 -0.69108,-1.09893 -1.0312,-1.6511 -1.37586,-2.21246 l -18.22437,-6.97646 c -0.0287,0.0823 -0.0576,0.1649 -0.0842,0.25273 -0.1282,0.42287 -0.2358,0.69186 -0.2398,0.59806 -0.0105,-0.25773 -0.55033,-0.9433 -0.99926,-1.26909 -0.62569,-0.45406 -1.30803,-0.56469 -3.48156,-0.56469 z" /></g><path
       id="path11386"
       style="fill:#545863;fill-opacity:1;stroke-width:0.104634"
       inkscape:label="battleship"
       d="m 136.17773,137.84068 -0.0703,0.2403 c -0.14019,0.47782 -0.38021,1.33964 -0.5333,1.91513 -0.153,0.57548 -0.32198,1.15259 -0.37568,1.28209 l -0.0977,0.23513 h -3.18224 c -3.39601,0 -3.29718,0.0161 -3.27008,-0.52349 0.0111,-0.22222 0.0702,-0.2657 0.39739,-0.293 0.54754,-0.0456 0.62348,-0.19195 0.58808,-1.13533 l -0.031,-0.82062 h -2.40657 -2.40657 l -0.0305,0.82062 c -0.0187,0.49796 0.0152,0.87641 0.0863,0.96221 0.0646,0.0778 0.31385,0.15472 0.55397,0.17312 0.42364,0.0308 0.43667,0.043 0.43667,0.39791 v 0.36638 l -1.24902,0.0295 c -0.70132,0.0166 -1.30948,0.0798 -1.38648,0.14366 -0.31127,0.25831 0.006,0.82062 0.46302,0.82062 0.13963,0 0.23809,0.0354 0.21859,0.0786 -0.0196,0.0432 -0.60391,1.23229 -1.29811,2.64221 -0.69422,1.40995 -1.67972,3.42285 -2.19005,4.47312 l -0.92759,1.90944 h -4.67103 -4.67104 l -0.28525,-1.07229 c -0.38048,-1.43135 -0.46815,-1.59576 -0.85318,-1.59576 H 108.676 l -0.0294,1.33428 c -0.0162,0.74234 -0.0729,1.33377 -0.12764,1.33377 -0.0547,0 -0.11114,-0.59143 -0.12764,-1.33377 -0.0288,-1.31351 -0.0328,-1.33502 -0.27647,-1.36942 -0.13612,-0.0191 -0.29172,0.01 -0.34572,0.0636 -0.054,0.054 -0.25276,0.6579 -0.44131,1.34255 l -0.34262,1.24489 -2.06706,0.0522 c -1.89133,0.0479 -2.07907,0.0699 -2.21485,0.2558 -0.20014,0.27411 -0.19016,0.32417 0.11317,0.56276 0.3232,0.25486 0.32278,0.27247 -0.015,1.02577 -0.26808,0.5979 -0.49436,1.13407 -1.58854,3.76411 -0.28965,0.69626 -0.6555,1.55544 -0.81338,1.90945 l -0.28732,0.64389 h -5.26635 -5.266345 v -0.56844 c 0,-0.56536 0.0021,-0.56943 0.340031,-0.60203 l 0.340031,-0.0326 v -0.78497 -0.78444 h -1.935799 -1.935799 v 0.78444 0.78497 l 0.365352,0.0346 c 0.451737,0.0429 0.484086,0.0937 0.436666,0.68988 l -0.03824,0.47853 h -1.136881 c -1.051962,0 -1.145609,0.017 -1.255738,0.22272 -0.09088,0.16992 -0.08694,0.28215 0.01705,0.47646 0.113459,0.21202 0.110875,0.29383 -0.0155,0.49299 -0.08335,0.13134 -0.519803,0.82356 -0.969967,1.53789 -0.450165,0.71432 -1.116863,1.76959 -1.481563,2.34508 l -0.663009,1.04593 h -3.017387 -3.017387 l -0.183968,-0.36587 c -0.101111,-0.20141 -0.451444,-0.99854 -0.778247,-1.77095 l -0.594279,-1.40405 0.383956,-0.33176 c 0.609483,-0.52681 0.849579,-1.32046 0.59893,-1.97973 -0.05612,-0.14754 -0.171819,-0.26871 -0.257349,-0.26871 -0.09366,0 -0.201828,-0.17162 -0.271818,-0.4315 -0.58126,-2.15864 -3.29041,-2.32728 -4.066418,-0.25322 -0.114107,0.30498 -0.304387,0.71335 -0.422713,0.90744 -0.247343,0.40568 -0.257394,0.51214 -0.100253,1.08521 0.07328,0.26725 0.281219,0.57462 0.574642,0.84956 l 0.459404,0.43046 -0.681612,1.60972 c -0.374795,0.88537 -0.720646,1.68042 -0.768946,1.76682 -0.120292,0.21491 -4.182187,0.29222 -4.239017,0.0806 -0.69477,-2.58648 -1.175895,-3.57158 -1.984892,-4.06487 -0.284776,-0.17352 -0.535534,-0.20102 -1.866036,-0.20102 -0.912358,-1.9e-4 -1.56358,0.0424 -1.60197,0.10438 -0.125389,0.20288 -0.370222,0.0986 -1.105875,-0.46974 -0.603421,-0.46659 -0.780139,-0.55497 -0.937411,-0.47077 -0.119315,0.0632 -0.216928,0.0656 -0.254248,0.005 -0.142556,-0.23064 -2.472762,-1.8968 -2.569352,-1.8371 -0.165591,0.10233 -0.07094,0.19312 1.262455,1.2144 0.687814,0.52681 1.251537,1.03426 1.252637,1.12706 0.0012,0.0928 0.30717,0.39445 0.680062,0.67024 0.372893,0.27577 0.677995,0.54202 0.677995,0.59222 0,0.0501 -0.166226,0.34241 -0.369487,0.64957 -0.496359,0.75009 -0.719557,1.53922 -0.636137,2.24896 l 0.06511,0.55707 -4.578532,0.0274 -4.578532,0.0274 -0.03204,0.44441 -0.03204,0.44494 H 48.142257 47.62911 l -0.149862,-0.49713 c -0.434786,-1.44215 -1.024093,-2.50498 -1.579748,-2.8484 -0.304233,-0.18805 -0.519102,-0.21239 -1.881539,-0.21239 -0.880783,0 -1.626195,0.0477 -1.744596,0.1111 -0.174041,0.0931 -0.330093,0.0172 -0.988054,-0.47801 -0.5939,-0.44706 -0.834917,-0.57119 -1.003039,-0.5178 -0.12167,0.0387 -0.250308,0.0274 -0.286288,-0.0253 -0.114167,-0.16735 -2.299634,-1.81022 -2.408121,-1.81022 -0.304378,0 -0.160124,0.24793 0.377754,0.64854 0.332436,0.24762 0.65591,0.4975 0.718819,0.555 0.06291,0.0576 0.378468,0.29278 0.70125,0.52297 0.32278,0.23021 0.589412,0.49703 0.592212,0.59273 0.0044,0.15271 0.820939,0.88999 1.254703,1.13274 0.176906,0.099 0.07224,0.36539 -0.342614,0.87075 l -0.227377,0.27647 -3.086633,-0.15038 c -3.118634,-0.15197 -5.995612,-0.28616 -10.201961,-0.47594 -1.266077,-0.0571 -3.31384,-0.15042 -4.551144,-0.20722 -5.242175,-0.24038 -6.885428,-0.31333 -9.31261,-0.41445 -1.409949,-0.0589 -2.905048,-0.12993 -3.322277,-0.15813 -0.8193396,-0.0552 -0.906601,0.009 -0.537952,0.39533 0.1212758,0.12708 2.128657,2.3615 4.461226,4.96559 v 5.1e-4 l 4.241085,4.7346 h 91.738076 c 73.26297,0 91.7589,-0.0263 91.844,-0.13074 0.0587,-0.0719 0.3306,-0.78955 0.60462,-1.59525 0.27402,-0.80568 0.54353,-1.52367 0.59893,-1.59577 0.13505,-0.17505 -0.1084,-0.46689 -0.33176,-0.39739 -0.25781,0.0801 -0.4521,-0.0955 -0.4129,-0.37311 0.0299,-0.21137 0.10797,-0.258 0.50643,-0.3023 0.42057,-0.0467 0.47415,-0.083 0.50385,-0.34004 0.0323,-0.28073 0.0195,-0.28783 -0.49713,-0.28783 h -0.5302 v -0.36587 c 0,-0.20151 -0.0354,-0.36742 -0.0786,-0.36742 -0.0432,-0.001 -2.95062,-0.003 -6.4611,-0.005 l -6.38256,-0.004 -0.0522,0.34469 -0.0527,0.34468 -3.31918,0.0274 -3.31918,0.0279 -0.0289,-1.44022 -0.0294,-1.44022 -0.4439,-0.0326 c -0.43165,-0.0312 -0.46464,-0.0604 -1.16841,-1.04593 -1.13962,-1.59588 -0.88199,-1.47503 -3.19877,-1.48983 -2.40802,-0.0145 -2.28144,-0.0953 -2.23294,1.41697 l 0.0336,1.04644 -1.59732,0.0289 -1.59731,0.0289 -0.70435,-1.11208 c -0.38756,-0.61175 -1.14401,-1.79875 -1.68052,-2.63756 -0.90252,-1.41106 -0.96543,-1.54362 -0.84181,-1.77457 0.19618,-0.36656 0.008,-0.59154 -0.54674,-0.65474 -0.33613,-0.0383 -0.46846,-0.10341 -0.49506,-0.24288 -0.0236,-0.12429 0.0415,-0.21036 0.18759,-0.24856 0.1902,-0.0497 0.21842,-0.1237 0.19172,-0.4899 l -0.031,-0.43098 -0.92604,-0.0305 c -0.56859,-0.0186 -0.97977,0.0145 -1.06557,0.0858 -0.2113,0.17541 -0.13105,0.61429 0.15141,0.82734 0.1616,0.12182 0.22752,0.25006 0.18552,0.35966 -0.0584,0.15201 -0.39653,0.17054 -3.14244,0.17054 h -3.07682 l -0.52555,-0.81132 c -0.28906,-0.44601 -0.75747,-1.18759 -1.04128,-1.64796 -0.74557,-1.20939 -2.62914,-4.22698 -2.90628,-4.65605 -0.1301,-0.20143 -0.48565,-0.76657 -0.78961,-1.25574 -0.30399,-0.48917 -0.70197,-1.12458 -0.88471,-1.41232 -0.18264,-0.28774 -1.24088,-1.98319 -2.35179,-3.76721 -0.86553,-1.38997 -1.34453,-2.13351 -1.68465,-2.65565 l -5.77174,-2.29133 -0.0269,0.23874 -2.38177,0.0279 -2.38177,0.0284 -0.0982,-0.23719 c -0.054,-0.13055 -0.27167,-0.87312 -0.48318,-1.65003 -0.068,-0.24981 -0.0988,-0.36315 -0.16485,-0.60565 l -1.51618,-0.60203 -0.0129,0.97203 c -0.0173,1.29367 -0.068,2.11874 -0.13074,2.11874 -0.0564,0 -0.10394,-0.0821 -0.10594,-0.18294 -0.002,-0.10071 -0.0135,-1.05407 -0.0264,-2.11873 l -0.0109,-0.90279 z m -10.92594,6.19187 c 0.33852,-9.3e-4 0.33277,0.0451 0.28732,0.22273 -0.0338,0.13203 -0.21644,0.79347 -0.40566,1.46968 l -0.34417,1.22938 h -0.81287 c -0.79125,0 -0.81144,-0.007 -0.75344,-0.23565 0.0328,-0.1295 0.21499,-0.77687 0.40514,-1.43867 l 0.34572,-1.20303 0.81339,-0.031 c 0.20064,-0.008 0.35172,-0.0131 0.46457,-0.0134 z m 11.97704,0.12196 c 5.70193,-0.0195 7.8748,0.006 7.97833,0.0915 0.104,0.0863 0.14262,0.42263 0.14262,1.24746 0,0.6213 -0.0285,1.20453 -0.0636,1.29553 -0.0571,0.14884 -0.86034,0.16537 -8.00778,0.16537 h -7.9437 l 0.0289,-1.38648 0.0295,-1.38648 z m 12.51552,0.38705 v 1.10175 1.10174 h -1.41284 c -0.7769,0 -1.41348,-0.0116 -1.41748,-0.0264 -0.003,-0.0144 -0.0137,-0.4968 -0.0248,-1.07228 l -0.0196,-1.04645 1.43764,-0.0289 z m -25.66148,3.16157 c 0.14509,0.004 0.23512,0.0145 0.23512,0.0295 0,0.10112 -0.63722,2.30584 -0.75034,2.59623 -0.10823,0.27876 -0.13887,0.28784 -0.88418,0.28784 -0.42463,0 -0.7715,-0.0354 -0.7705,-0.0786 9.2e-4,-0.0432 0.18246,-0.69054 0.40308,-1.43867 l 0.40101,-1.36064 0.80047,-0.0305 c 0.22013,-0.008 0.42024,-0.01 0.56534,-0.005 z m 25.66871,0.18707 -0.03,1.12758 -0.0295,1.12758 -1.38647,0.0294 c -0.76253,0.016 -1.38765,-0.007 -1.39165,-0.0522 -0.003,-0.0448 -0.0137,-0.55263 -0.0248,-1.1281 l -0.0196,-1.04644 1.44074,-0.0289 z m -8.20776,0.22996 c 3.23989,1.8e-4 3.58417,0.0373 3.67522,0.16123 0.18077,0.2463 0.18592,4.00922 0.006,4.19612 -0.18928,0.19044 -15.76396,0.18269 -15.83676,-0.007 -0.0279,-0.0736 -0.0381,-1.07429 -0.0233,-2.22364 l 0.0284,-2.0898 7.84758,-0.0269 c 1.8212,-0.006 3.22313,-0.0104 4.3031,-0.0103 z m 6.68331,2.86236 h 0.73225 0.73277 l 0.0522,0.78496 0.0522,0.78497 2.53731,0.0279 2.53732,0.0279 v 0.88728 h 10e-4 v 0.8878 h -3.8716 c -2.12931,0 -3.87483,-0.0235 -3.87883,-0.0522 -0.005,-0.0288 -0.0125,-0.41751 -0.0165,-0.86351 l -0.009,-0.81081 0.51315,-0.0522 0.51366,-0.0522 0.0522,-0.78497 z m -40.86572,2.89336 c 0.88646,-1.9e-4 2.02753,0.004 3.49642,0.01 6.42329,0.0266 6.50193,0.0294 6.50193,0.23616 0,0.2067 -0.0785,0.20956 -6.50658,0.23616 -3.86584,0.016 -6.53132,-0.0123 -6.56652,-0.0693 -0.0324,-0.0528 -0.03,-0.17113 0.005,-0.26303 0.0435,-0.11347 0.41018,-0.14931 3.06958,-0.14986 z m 23.44404,0.19017 2.9037,0.0279 2.9037,0.0279 0.0315,0.54932 0.0315,0.54932 h -2.93523 -2.93522 v -0.57723 z m 10.09861,1.72961 h 2.30064 v 0.31419 0.31368 l -2.27842,0.0284 c -2.42049,0.03 -2.45333,0.0236 -2.35903,-0.46664 0.0338,-0.17633 0.20073,-0.18965 2.33681,-0.18965 z m -11.1187,1.43764 c 3.70595,-0.0216 4.68529,6.4e-4 4.69429,0.1049 0.007,0.0726 0.0189,0.20247 0.0279,0.28887 0.009,0.0863 -0.0258,0.21574 -0.077,0.28784 -0.0719,0.1013 -1.1314,0.13074 -4.68756,0.13074 -4.95585,0 -4.75475,0.0235 -4.67466,-0.54157 l 0.0346,-0.24339 z m -55.202832,2.64996 c 0.01906,-0.002 0.03867,0.008 0.05943,0.0289 0.188876,0.18888 -0.107415,0.96467 -0.515214,1.34927 -0.199127,0.1878 -0.457327,0.34159 -0.573609,0.34159 -0.172406,0 -0.123668,-0.0851 0.262516,-0.46044 0.312087,-0.30332 0.514219,-0.61068 0.592729,-0.90227 0.06475,-0.24065 0.116972,-0.35176 0.17415,-0.35709 z m -4.243152,0.35347 c 0.02764,-0.0498 0.105532,0.047 0.286804,0.3328 0.164832,0.25991 0.423986,0.57051 0.575675,0.68988 0.151684,0.11935 0.275953,0.24528 0.275953,0.28008 0,0.11126 -0.155338,0.0688 -0.42168,-0.11523 -0.500032,-0.34564 -0.729155,-0.68869 -0.729155,-1.09038 0,-0.0477 0.0032,-0.0805 0.0124,-0.0971 z m 83.289494,7.3241 -0.0326,0.39533 -0.0326,0.39584 -0.68006,0.0279 c -0.37407,0.0153 -0.77472,0.0731 -0.88987,0.12868 -0.11509,0.0554 -0.46794,0.11439 -0.78445,0.12919 l -0.57567,0.0284 -0.0295,1.28158 -0.0294,1.28157 h -4.55166 c -3.54622,0 -4.5622,-0.0289 -4.5992,-0.13074 -0.0262,-0.0719 -0.0601,-0.64853 -0.0749,-1.28158 l -0.0279,-1.15083 -0.57516,-0.0527 c -0.31652,-0.0288 -0.57567,-0.0991 -0.57567,-0.15658 0,-0.0679 1.86344,-0.11337 5.3268,-0.13177 3.80792,-0.0194 5.36781,-0.0613 5.47099,-0.14676 0.0794,-0.0658 0.1307,-0.21885 0.1142,-0.33952 -0.0289,-0.21133 0.0183,-0.22026 1.25832,-0.24856 z m 1.4521,0 1.28158,0.0295 1.28209,0.0294 0.0129,0.26097 c 0.007,0.14348 -0.01,0.31982 -0.0377,0.39222 -0.0369,0.0946 -0.37916,0.13126 -1.22474,0.13126 -0.64606,0 -1.20596,-0.0314 -1.24436,-0.0698 -0.0385,-0.0384 -0.0698,-0.2281 -0.0698,-0.42168 z m 14.64872,0 v 0.42168 0.42168 h -1.25884 c -1.34408,0 -1.41245,-0.0268 -1.33945,-0.54157 0.0336,-0.23721 0.0646,-0.24363 1.3162,-0.27233 z m -6.59236,0.006 h 1.25935 c 1.36293,0 1.44866,0.0382 1.31362,0.5762 -0.0651,0.25934 -0.0743,0.26096 -1.24954,0.26096 -0.65113,0 -1.21537,-0.0314 -1.25367,-0.0698 -0.0385,-0.0384 -0.0698,-0.22675 -0.0698,-0.41858 z m 8.05687,0 h 1.25936 c 1.36293,0 1.44865,0.0382 1.31361,0.5762 -0.0654,0.26035 -0.0697,0.26096 -1.3193,0.26096 h -1.25367 v -0.41858 z m -10.82931,0.0527 h 1.25522 v 0.36587 0.36639 l -1.23145,0.0294 c -1.32321,0.0317 -1.38833,0.006 -1.31413,-0.51883 0.0338,-0.23902 0.0562,-0.24288 1.29036,-0.24288 z m -28.25151,0.68006 c 5.0989,0 5.91179,0.0209 5.91179,0.15193 0,0.11331 -0.16601,0.15974 -0.65371,0.18294 l -0.65422,0.031 -0.0522,1.25574 -0.0527,1.25574 -4.5806,0.0274 c -3.60959,0.0215 -4.59095,-0.001 -4.62865,-0.10491 -0.0263,-0.0725 -0.0607,-0.64956 -0.0755,-1.28261 l -0.0274,-1.15135 -0.54932,-0.0315 c -0.39514,-0.0227 -0.54932,-0.074 -0.54932,-0.18293 0,-0.13043 0.82143,-0.15142 5.91178,-0.15142 z m 50.64291,1.20303 h 3.29592 3.29644 l 0.0351,0.25012 c 0.0194,0.13738 -0.0274,0.28968 -0.10439,0.33848 l -5.1e-4,-0.001 c -0.13201,0.0843 -4.33065,0.0946 -5.8751,0.015 -0.70512,-0.0364 -0.71236,-0.0395 -0.68006,-0.31936 z m -72.23022,4.97179 c -45.566323,-0.005 -91.137597,0.015 -91.188232,0.0656 -0.03683,0.0368 0.0657,0.23665 0.227893,0.44442 0.790348,1.01245 1.635907,2.57284 2.019515,3.72639 0.189942,0.57116 0.243396,0.96279 0.243396,1.7787 0,1.04004 -0.0028,1.05196 -0.486792,1.99161 -1.013688,1.96806 -0.889002,2.43995 0.701249,2.65462 v 5.1e-4 c 0.400112,0.0542 2.163898,0.0856 3.919141,0.0708 4.068143,-0.0351 4.582155,-0.12985 9.102803,-1.67432 1.294851,-0.4424 2.801918,-0.93063 3.348633,-1.0852 l 0.993738,-0.2806 54.985791,-0.0538 c 52.058535,-0.0507 55.009465,-0.0633 55.443125,-0.23668 0.55295,-0.22112 2.48523,-0.62036 4.82606,-0.99683 l 1.72651,-0.27751 16.72611,-0.0305 c 9.19941,-0.0168 16.76857,-0.0566 16.82017,-0.0884 0.13842,-0.0855 0.11386,-0.64816 -0.032,-0.73846 -0.0692,-0.0434 -0.58172,-0.0654 -1.13947,-0.0506 -0.75298,0.0203 -1.03672,-0.009 -1.10122,-0.11162 -0.12837,-0.20503 -0.12416,-1.23015 0.005,-1.33015 0.12569,-0.0971 3.60733,-0.35144 5.02916,-0.36794 l 0.93069,-0.0109 0.0796,0.36638 c 0.044,0.20143 0.24967,1.19018 0.45682,2.19729 0.20712,1.00711 0.41982,1.87433 0.47232,1.92753 0.0988,0.0995 3.00187,0.12403 3.10007,0.0258 0.0488,-0.0488 0.7574,-3.31259 0.95808,-4.41265 l 0.0765,-0.41858 1.09451,-0.0522 1.09502,-0.0522 0.38964,-1.40302 c 0.21424,-0.77169 0.36477,-1.44288 0.33487,-1.49138 -0.0313,-0.0507 -45.59246,-0.081 -91.15878,-0.0863 z m 74.91636,3.87005 c 0.16364,0 0.19172,0.089 0.19172,0.6165 0,0.46575 -0.0408,0.63216 -0.16588,0.68006 -0.26143,0.1004 -16.03398,0.074 -16.09618,-0.0269 -0.0572,-0.0925 0.49084,-0.14864 3.22048,-0.32918 0.85546,-0.0566 2.19755,-0.15124 2.98224,-0.21084 6.01537,-0.45668 9.7055,-0.72967 9.86762,-0.72967 z" /><path
       id="path11559"
       style="mix-blend-mode:multiply;fill:#000000;fill-opacity:0.5;stroke:none;stroke-width:0.371726;stroke-dasharray:none;stroke-opacity:1;filter:url(#filter11578)"
       inkscape:label="battleship_sticker_crease_shadow"
       d="m 150.98274,147.17189 c 2.57434,0 3.76522,-0.70579 4.45709,-2.69286 l -22.58156,-8.64443 c 0.70088,1.14153 1.09537,1.81569 1.07073,1.87999 -0.024,0.0625 -0.10062,0.38738 -0.17001,0.72192 -0.18222,0.87773 0.084,2.07327 0.61908,2.78122 0.50424,0.66714 1.32421,1.27938 1.82676,1.36426 0.36349,0.0614 0.41076,0.10856 0.51212,0.50798 0.31837,1.25403 1.25409,2.12766 2.60759,2.43448 1.08139,0.24519 5.00909,0.24526 6.08748,0 0.41787,-0.095 0.86166,-0.2399 0.98599,-0.32143 0.21203,-0.13893 0.24959,-0.11514 0.60668,0.38188 0.82341,1.14615 1.9285,1.58699 3.97805,1.58699 z" /><path
       id="path11576"
       style="fill:#f2f2f2;stroke:#010202;stroke-width:0.3;stroke-dasharray:none;stroke-opacity:1"
       inkscape:label="battleship_sticker_crease"
       d="m 150.98274,147.17189 c 2.57434,0 3.76522,-0.70579 4.45709,-2.69286 l -22.58156,-8.64443 c 0.70088,1.14153 1.09537,1.81569 1.07073,1.87999 -0.024,0.0625 -0.10062,0.38738 -0.17001,0.72192 -0.18222,0.87773 0.084,2.07327 0.61908,2.78122 0.50424,0.66714 1.32421,1.27938 1.82676,1.36426 0.36349,0.0614 0.41076,0.10856 0.51212,0.50798 0.31837,1.25403 1.25409,2.12766 2.60759,2.43448 1.08139,0.24519 5.00909,0.24526 6.08748,0 0.41787,-0.095 0.86166,-0.2399 0.98599,-0.32143 0.21203,-0.13893 0.24959,-0.11514 0.60668,0.38188 0.82341,1.14615 1.9285,1.58699 3.97805,1.58699 z"
       inkscape:export-filename="final\path11576.svg"
       inkscape:export-xdpi="96"
       inkscape:export-ydpi="96" /></g></svg>
