<?xml version="1.0" encoding="UTF-8" standalone="no"?>
<!-- Created with Inkscape (http://www.inkscape.org/) -->

<svg
   width="155.64037mm"
   height="155.34502mm"
   viewBox="0 0 155.64037 155.34502"
   version="1.1"
   id="svg5"
   xml:space="preserve"
   inkscape:version="1.2.2 (732a01da63, 2022-12-09)"
   sodipodi:docname="logo_design.svg"
   inkscape:export-filename="logo_design.svg"
   inkscape:export-xdpi="96"
   inkscape:export-ydpi="96"
   xmlns:inkscape="http://www.inkscape.org/namespaces/inkscape"
   xmlns:sodipodi="http://sodipodi.sourceforge.net/DTD/sodipodi-0.dtd"
   xmlns="http://www.w3.org/2000/svg"
   xmlns:svg="http://www.w3.org/2000/svg"><sodipodi:namedview
     id="namedview7"
     pagecolor="#ffffff"
     bordercolor="#000000"
     borderopacity="0.25"
     inkscape:showpageshadow="2"
     inkscape:pageopacity="0.0"
     inkscape:pagecheckerboard="0"
     inkscape:deskcolor="#d1d1d1"
     inkscape:document-units="mm"
     showgrid="false"
     inkscape:zoom="0.69041105"
     inkscape:cx="137.59919"
     inkscape:cy="522.15271"
     inkscape:window-width="1920"
     inkscape:window-height="991"
     inkscape:window-x="-9"
     inkscape:window-y="-9"
     inkscape:window-maximized="1"
     inkscape:current-layer="layer18" /><defs
     id="defs2" /><style
     type="text/css"
     id="style2665">
	.st0{fill:#C43124;stroke:#010202;stroke-width:5;stroke-miterlimit:10;}
	.st1{fill:#E8A627;stroke:#010202;stroke-width:5;stroke-miterlimit:10;}
	.st2{fill:#F9DE59;stroke:#010202;stroke-width:5;stroke-miterlimit:10;}
</style><g
     inkscape:groupmode="layer"
     id="layer18"
     inkscape:label="hathcing"
     transform="translate(-30.380143,-68.855635)"><path
       id="rect871"
       style="fill:#000000;fill-opacity:1;stroke:none;stroke-width:0.397999"
       d="m 0.46940643,96.374884 c -1.18572268,-1.193677 -2.82870903,-1.932591 -4.65192803,-1.938686 0,0 -11.0830744,2.147302 -17.1699504,2.222102 -7.128779,0.0876 -23.523076,-0.623717 -23.523076,-0.623717 -2.138796,-0.0012 -4.410511,2.58342 -4.839739,4.864227 -0.429228,2.2808 1.037953,3.78368 3.290078,3.36961 0,0 7.774453,4.44834 24.101007,5.55062 9.733301,0.65714 18.0974692,-2.219 18.0974692,-2.219 3.57529426,-0.71689 6.5922002,-2.91339 6.6043899,-6.55982 0.00609,-1.823224 -0.722528,-3.471658 -1.90825067,-4.665336 z M 71.397695,175.05742 c -0.665544,-0.69621 -1.728439,-0.99666 -3.033717,-0.73847 0,0 -61.1892609,4.63437 -92.828687,4.89199 -31.718638,0.25826 -91.720951,-8.64707 -91.720951,-8.64707 -6.23274,-0.22911 -11.1718,4.58352 -11.07374,10.79084 0.0981,6.20732 5.19503,11.38834 11.42776,11.61752 0,0 60.679668,0.81592 93.120745,0.52195 30.916393,-0.28016 89.014523,-9.60748 89.014523,-9.60748 2.610562,-0.51641 5.17173,-3.06574 5.742392,-5.71601 0.28533,-1.32514 0.01722,-2.41707 -0.648325,-3.11327 z M 31.452393,136.21793 c -0.906794,-0.90949 -2.194697,-1.43673 -3.65181,-1.36928 0,0 -30.6326055,4.59243 -46.732145,4.70762 -19.631833,0.14046 -56.207708,-8.72703 -56.207708,-8.72703 -5.171315,0.0626 -9.385387,4.27892 -9.447973,9.45408 -0.06258,5.17515 4.050401,9.29101 9.221715,9.22842 0,0 36.038092,3.1816 55.289554,3.07393 16.4799155,-0.0922 47.38938,-7.18669 47.38938,-7.18669 2.914227,-0.1349 5.368929,-2.59637 5.503829,-5.51887 0.06745,-1.46125 -0.458049,-2.75269 -1.364842,-3.66218 z m -2.214616,86.53141 c -1.830371,-1.84387 -4.291854,-3.06687 -6.957274,-3.23862 0,0 -25.3473304,7.30063 -46.214064,6.4369 -20.240991,-0.83783 -50.98715,-3.33972 -50.98715,-3.33972 -2.822803,0.0438 -5.158003,2.35524 -5.235872,5.18252 -0.07787,2.82727 2.13211,5.06813 4.954913,5.02438 0,0 32.379542,8.80035 53.061311,9.62149 20.4238401,0.81094 45.428771,-3.7634 45.428771,-3.7634 5.330841,0.34347 9.39762,-3.6535 9.118357,-8.96148 -0.139628,-2.654 -1.338618,-5.1182 -3.168992,-6.96207 z"
       sodipodi:nodetypes="ssssssssssscscssscssscscscscssscscssscss"
       transform="rotate(-44.122006)"
       inkscape:label="line hatch"
       inkscape:export-filename="..\..\Users\D\Desktop\line_hatch.svg"
       inkscape:export-xdpi="96"
       inkscape:export-ydpi="96" /><path
       id="path3358"
       style="display:inline;fill:#000000;fill-opacity:1;stroke:none;stroke-width:0.397999"
       d="m 184.32317,121.36573 c -2.4481,-0.81041 0.0171,-2.88583 -1.47145,-4.57217 0,0 -11.69093,-9.94493 -16.77549,-15.5615 -5.95487,-6.577974 -18.54531,-21.833467 -18.54531,-21.833467 -1.75335,-1.977393 -6.74392,-3.715327 -9.85526,-3.792531 -3.11132,-0.0772 -3.72563,1.489739 -1.37654,3.513862 0,0 1.95543,8.193699 14.01733,23.441356 7.19085,9.0901 16.57465,16.03616 16.57465,16.03616 3.80065,3.20475 8.9331,5.68597 13.35431,5.18625 2.21061,-0.24985 6.52628,-1.60742 4.07817,-2.41783 z m -0.30232,96.44148 c 0.009,-0.96311 -0.54234,-1.92008 -1.65737,-2.64611 0,0 -50.85179,-49.41087 -73.69174,-71.30736 -22.897129,-21.95132 -59.6558,-70.204633 -59.6558,-70.204633 -4.303993,-4.513887 -11.200059,-4.514028 -15.461887,9.1e-5 -4.261799,4.514146 -4.227186,11.781915 0.07675,16.295845 0,0 42.889352,42.932407 66.328811,65.362327 22.337846,21.37575 74.250956,65.26825 74.250956,65.26825 2.23009,1.45204 5.84356,1.41364 8.10188,-0.0862 1.12916,-0.74994 1.7084,-1.71905 1.7084,-2.68219 z M 87.513209,83.628043 c 0.06662,1.282585 0.672242,2.53555 1.801178,3.459253 0,0 19.351463,29.793814 31.403863,40.468454 14.69674,13.0167 42.48004,31.32248 42.48004,31.32248 3.88845,3.40975 9.84105,3.09003 13.34649,-0.71761 3.50543,-3.80764 3.19693,-9.61812 -0.69151,-13.02788 0,0 -31.18352,-13.71697 -45.5754,-26.50384 C 117.9579,107.68292 96.728213,79.565194 96.728213,79.565194 c -2.257872,-1.847417 -5.728926,-1.65712 -7.782555,0.426579 -1.02682,1.041855 -1.499078,2.353695 -1.432449,3.63627 z M 50.541234,165.37398 c -0.07081,-2.12423 0.876371,4.22295 2.361511,5.80172 0,0 14.90916,17.76148 26.79693,29.83152 11.531285,11.70809 32.444685,22.10372 32.444685,22.10372 1.69537,1.53604 4.3332,1.43622 5.91438,-0.22374 1.58117,-1.65997 1.48915,-4.23304 -0.2062,-5.76911 0,0 -18.460903,-15.09375 -30.262267,-27.03576 -11.654162,-11.79309 -24.880328,-31.00731 -24.880328,-31.00731 -2.970296,-3.15752 -7.548687,-3.0008 -10.265265,0.3512 -1.358297,1.67599 -1.986222,3.824 -1.903444,5.94782 z"
       sodipodi:nodetypes="ssssssssssscscssscssscccscscssscscssscssscs"
       inkscape:label="line hatch" /></g><style
     type="text/css"
     id="style6963">.st0{fill:#EF4136;stroke:#BE1E2D;stroke-width:6;stroke-miterlimit:10;} .st1{fill:#BE1E2D;} .st2{fill:none;}</style></svg>
