<?xml version="1.0" encoding="UTF-8" standalone="no"?>
<!-- Created with Inkscape (http://www.inkscape.org/) -->

<svg
   width="175.3287mm"
   height="180.82352mm"
   viewBox="0 0 175.3287 180.82352"
   version="1.1"
   id="svg5"
   xml:space="preserve"
   xmlns="http://www.w3.org/2000/svg"
   xmlns:svg="http://www.w3.org/2000/svg"><defs
     id="defs2" /><style
     type="text/css"
     id="style2665">
	.st0{fill:#C43124;stroke:#010202;stroke-width:5;stroke-miterlimit:10;}
	.st1{fill:#E8A627;stroke:#010202;stroke-width:5;stroke-miterlimit:10;}
	.st2{fill:#F9DE59;stroke:#010202;stroke-width:5;stroke-miterlimit:10;}
</style><g
     id="layer9"
     transform="translate(-18.383576,-64.134474)"><path
       style="color:#000000;fill:#f96e46;fill-opacity:1;stroke:none;stroke-width:0.921348;stroke-linecap:round;-inkscape-stroke:none"
       d="M 102.83351,71.8542 C 91.68921,77.815104 78.754289,84.972615 78.754289,84.972615 l -0.116968,0.06478 -56.95381,42.333295 c -1.212934,0.84033 -1.515052,2.50479 -0.674816,3.71778 0.84032,1.21294 5.329837,-3.52075 6.542833,-4.36099 L 81.451752,89.588352 c 0.0492,-0.02722 6.575989,-3.569198 10.043056,-5.472305 C 83.487639,90.2143 73.97074,95.128889 65.312057,101.8306 45.092781,117.48006 25.394606,132.09434 25.394606,132.09434 l -0.05758,0.045 -0.05398,0.0468 c 0,0 -3.809822,3.175 -5.810612,6.10573 -0.500198,0.73268 -1.143885,1.88248 -1.085104,2.9188 0.05423,0.95615 0.483442,1.97126 1.299246,2.5625 0.815803,0.59125 1.580872,0.65682 2.1936,0.65682 2.450914,0 6.871482,0.49448 11.587695,-1.79751 9.952066,-4.83652 26.759602,-18.26343 43.852219,-31.07751 8.54631,-6.40705 17.0904,-12.636987 24.61008,-17.460629 4.50251,-2.888217 8.59826,-5.160135 12.0819,-6.766151 -0.88022,0.777126 -0.99857,1.053505 -2.08023,1.938071 -7.32798,5.992721 -19.022852,14.465629 -31.302454,23.046309 -24.548708,17.15399 -51.478904,34.7928 -51.501929,34.80788 -10e-6,1e-5 -0.0144,0.009 -0.0144,0.009 l 2.913403,4.47898 0.0144,-0.009 0.01799,-0.0126 62.300779,-40.25141 -65.269968,51.65668 c -0.0016,9.2e-4 -0.170943,0.13676 -0.170953,0.13677 h -0.0018 l 3.318294,4.18926 0.0018,-0.002 c 0,0 0.04488,-0.0359 0.04499,-0.036 0.07153,-0.0567 23.673612,-18.76349 48.763077,-37.51615 12.563752,-9.39054 25.491261,-18.78358 35.957771,-25.80674 5.23327,-3.51159 9.85742,-6.432008 13.46032,-8.441498 1.50173,-0.837578 2.69672,-1.4083 3.78798,-1.900281 -0.33616,0.264761 -0.31005,0.327737 -0.67302,0.584841 -4.44272,3.146933 -10.50373,6.447638 -10.50373,6.447638 l -0.25193,0.13676 -85.307498,73.39295 -0.06119,0.0522 3.422666,4.10287 c 0,0 24.581999,-19.88946 51.01966,-39.91669 13.218832,-10.01361 26.904272,-20.06238 38.165772,-27.64765 5.63075,-3.79263 10.66083,-6.97027 14.67499,-9.20088 0.94127,-0.52305 1.6232,-0.79224 2.45993,-1.20027 -1.91207,1.92248 -4.21512,4.1171 -7.20343,6.75355 -9.519,8.39818 -23.71713,19.8008 -38.38171,31.23767 -29.290772,22.84379 -60.423273,45.81825 -60.504875,45.87846 l -0.04858,0.036 -0.0018,0.002 3.170735,4.30083 h 0.0018 l 0.142162,-0.10617 42.493589,-31.30065 -56.112269,47.2065 3.363281,4.15147 c 0,0 0.07713,-0.061 0.07737,-0.0612 0.123434,-0.0963 30.914473,-24.10671 63.097961,-48.14764 16.124016,-12.04457 32.579766,-24.08291 45.631936,-33.07136 5.64617,-3.88827 10.25141,-6.85355 14.29529,-9.34125 -2.27039,2.14681 -3.9084,3.843 -7.04687,6.5988 -11.13844,9.78028 -27.0588,22.86517 -43.31237,35.94338 -32.47657,26.1318 -66.262699,52.22481 -66.32628,52.27391 l -0.03959,0.0306 3.226518,4.25943 0.03959,-0.0306 64.944252,-48.26102 -76.531287,64.92627 -0.04858,0.0396 3.408269,4.11548 0.04858,-0.0396 67.321408,-54.45852 -60.537261,56.85186 3.566625,3.97692 61.210276,-52.3441 -38.091992,37.02129 3.563026,3.97691 78.607926,-64.81469 -63.411077,63.62521 3.532434,3.99671 85.262513,-66.31541 c 0.0458,-0.0309 1.63827,-1.06864 3.53963,-2.2314 -0.75088,0.97805 -1.25093,1.7166 -2.33576,3.00699 -7.79066,9.26677 -28.55857,27.17773 -47.16331,42.47019 -18.60476,15.29247 -35.169603,28.15691 -35.169603,28.15691 l 3.203125,4.27743 45.306228,-32.72226 -30.20835,27.01242 3.43347,4.09028 c 0,0 23.73738,-18.69544 44.37227,-34.3814 1.43567,-1.09135 2.10976,-1.5197 3.50724,-2.5751 -15.89367,14.93955 -29.25281,27.18158 -29.25281,27.18158 l 3.26072,4.21624 13.29296,-8.81219 -7.91963,6.99469 3.13834,4.29723 c 0,0 11.32815,-6.76144 22.54064,-13.32537 0.11805,-0.0691 0.2041,-0.11628 0.32211,-0.18535 -2.47426,1.97069 -23.0487,12.98618 -14.87186,16.11568 10.31318,3.12488 34.95462,-15.43798 34.95462,-15.43798 1.37152,-0.54461 2.07231,-0.55914 3.15789,-1.82398 -2.38814,-1.02011 -1.5707,-0.66222 -2.91916,-0.065 l -29.05834,12.86924 c 11.22089,-7.23652 20.40221,-14.19878 29.24765,-22.41899 0.46032,-0.42858 0.84021,-0.79257 1.14989,-1.1067 0.30967,-0.31414 0.44434,-0.28119 0.91595,-1.13009 0.10759,-0.19368 0.25731,-0.46055 0.3257,-0.98073 0.0684,-0.52019 -0.0663,-1.43691 -0.60283,-2.08023 -1.07306,-1.28666 -2.00746,-0.9925 -2.36096,-0.95914 -0.707,0.0667 -0.80877,0.1781 -1.04011,0.26992 -0.46269,0.18364 -0.92521,0.41257 -1.53678,0.72521 -1.22314,0.62526 -2.93649,1.56234 -5.01523,2.72985 -3.73735,2.09905 -8.78105,5.02941 -13.81483,7.97002 l 15.89326,-14.03617 -3.24451,-4.23063 -17.98249,11.91994 c 7.56575,-7.06276 15.18589,-14.1282 24.07922,-22.77278 1.56976,-1.52584 2.67559,-2.66522 3.43886,-3.55583 0.38164,-0.4453 0.67401,-0.80354 0.95554,-1.28125 0.14077,-0.23885 0.29706,-0.49113 0.41928,-1.00773 0.12223,-0.5166 0.17849,-1.70875 -0.69641,-2.61828 -0.87488,-0.90954 -1.83466,-0.88525 -2.29797,-0.84757 -0.4633,0.0377 -0.72192,0.13074 -0.96633,0.21774 -0.48884,0.17402 -0.88018,0.37702 -1.34244,0.63163 -0.92451,0.50922 -2.05924,1.23004 -3.45145,2.16301 -3.02692,2.02845 -8.97158,6.56159 -13.83822,10.16182 l 15.80148,-14.12974 -3.34528,-4.15866 -19.00281,13.72305 c 7.76882,-6.9596 14.49059,-13.37205 18.47555,-18.11205 2.0846,-2.47958 3.59138,-4.43417 4.66073,-6.01396 1.06935,-1.57978 1.73425,-2.69122 2.04964,-4.04169 0.15769,-0.67524 0.26404,-1.54554 -0.21415,-2.53551 -0.47818,-0.98998 -1.60048,-1.64121 -2.38254,-1.78691 -1.56412,-0.29142 -2.41046,0.15138 -3.40468,0.53985 -3.97686,1.55387 -9.1127,5.27616 -9.1127,5.27616 l -0.0558,0.0378 -51.9518,40.40616 72.15129,-72.39422 -3.59183,-3.94812 -70.36076,58.01435 51.34177,-49.90037 -3.59902,-3.94632 -37.69611,32.23639 29.54073,-27.74122 -2.43833,-2.79824 18.54034,-15.7277 -3.32189,-4.18205 -19.3951,14.41226 c 0.30056,-0.2627 0.74407,-0.6216 1.03831,-0.87996 5.62968,-4.94324 10.0722,-9.05885 12.88808,-12.0801 1.40794,-1.51064 2.3992,-2.65131 3.06816,-3.93193 0.33448,-0.6403 0.83792,-1.38688 0.42648,-2.85042 -0.20571,-0.73177 -0.83786,-1.50359 -1.4774,-1.8535 -0.63953,-0.34991 -1.18888,-0.40311 -1.63394,-0.41028 -1.69391,-0.0274 -2.81705,0.54443 -4.44479,1.30465 -1.62774,0.7602 -3.56131,1.82297 -5.81061,3.16173 -4.49861,2.67751 -10.24031,6.45664 -16.82001,10.9878 -7.77095,5.35151 -16.78907,11.85026 -26.12706,18.67709 l 39.8825,-33.55183 -2.85762,-3.62781 c 1.32068,-1.31892 2.59768,-2.61083 3.46946,-3.6692 1.09834,-1.333417 1.96082,-2.206937 2.23678,-4.043488 0.13798,-0.918278 -0.30774,-2.54593 -1.36582,-3.269707 -1.05809,-0.723776 -1.95737,-0.675642 -2.72806,-0.613632 -2.92912,0.235676 -6.0237,1.792388 -10.26259,4.147866 -4.2389,2.355474 -9.35818,5.597231 -15.06369,9.440221 -4.25767,2.86778 -9.05383,6.30961 -13.81303,9.71915 l 12.62716,-10.86364 c 0.42278,-0.22938 6.08662,-3.30814 10.77545,-6.629387 2.43273,-1.723178 4.52293,-3.123307 5.75123,-5.441712 0.30708,-0.579602 0.5957,-1.308851 0.52726,-2.26918 -0.0685,-0.960329 -0.67913,-2.013743 -1.39822,-2.5643 -1.43819,-1.101112 -2.77039,-1.088662 -4.48077,-1.063509 -1.43294,0.02107 -2.63777,0.460975 -4.12088,1.081504 -0.69485,0.290723 -1.59546,0.799744 -2.38255,1.191275 l 10.78625,-8.536868 -3.10955,-4.340413 -15.91661,10.284236 c 0.29539,-0.344348 0.74753,-0.739213 0.98614,-1.068908 0.38079,-0.526157 0.71466,-1.03507 0.94654,-1.781514 0.23188,-0.746443 0.29926,-2.103326 -0.53265,-3.127545 -0.83192,-1.024219 -1.88347,-1.203783 -2.61649,-1.250658 -0.73303,-0.04688 -1.3788,0.04327 -2.10723,0.188948 -5.5159,1.10318 -12.22293,4.774979 -19.952942,9.733541 -7.730011,4.958562 -16.347073,11.24717 -24.930394,17.68196 -17.166644,12.86959 -34.491143,26.41975 -42.983057,30.54666 -0.186119,0.0905 -0.257291,0.0984 -0.43728,0.18355 0.02683,-0.0248 0.234584,-0.22223 0.237534,-0.22494 0.07985,-0.0627 19.733712,-13.7114 39.892068,-29.31371 20.202345,-15.636348 34.942191,-26.054619 46.780411,-33.692831 6.67562,-4.511628 9.44312,-7.916524 3.67904,-10.643733 -8.972,0.706506 -6.68637,2.161954 -18.45036,7.719894 z"
       id="path13507" /></g></svg>
