<?xml version="1.0" encoding="UTF-8" standalone="no"?>
<!-- Created with Inkscape (http://www.inkscape.org/) -->

<svg
   width="183.55257mm"
   height="82.726639mm"
   viewBox="0 0 183.55257 82.726639"
   version="1.1"
   id="svg5"
   xml:space="preserve"
   inkscape:version="1.2.2 (732a01da63, 2022-12-09)"
   sodipodi:docname="logo_design.svg"
   inkscape:export-filename="logo_design.svg"
   inkscape:export-xdpi="96"
   inkscape:export-ydpi="96"
   xmlns:inkscape="http://www.inkscape.org/namespaces/inkscape"
   xmlns:sodipodi="http://sodipodi.sourceforge.net/DTD/sodipodi-0.dtd"
   xmlns="http://www.w3.org/2000/svg"
   xmlns:svg="http://www.w3.org/2000/svg"><sodipodi:namedview
     id="namedview7"
     pagecolor="#ffffff"
     bordercolor="#000000"
     borderopacity="0.25"
     inkscape:showpageshadow="2"
     inkscape:pageopacity="0.0"
     inkscape:pagecheckerboard="0"
     inkscape:deskcolor="#d1d1d1"
     inkscape:document-units="mm"
     showgrid="false"
     inkscape:zoom="1.4142136"
     inkscape:cx="330.92597"
     inkscape:cy="632.50702"
     inkscape:window-width="1920"
     inkscape:window-height="991"
     inkscape:window-x="-9"
     inkscape:window-y="-9"
     inkscape:window-maximized="1"
     inkscape:current-layer="layer8" /><defs
     id="defs2"><filter
       inkscape:collect="always"
       style="color-interpolation-filters:sRGB"
       id="filter4876"
       x="-0.017018996"
       y="-0.03939582"
       width="1.0340379"
       height="1.0787916"><feGaussianBlur
         inkscape:collect="always"
         stdDeviation="1.2587709"
         id="feGaussianBlur4878" /></filter><filter
       inkscape:collect="always"
       style="color-interpolation-filters:sRGB"
       id="filter4883"
       x="-0.066199824"
       y="-0.078205757"
       width="1.1323997"
       height="1.1564115"><feGaussianBlur
         inkscape:collect="always"
         stdDeviation="0.82004961"
         id="feGaussianBlur4885" /></filter></defs><style
     type="text/css"
     id="style2665">
	.st0{fill:#C43124;stroke:#010202;stroke-width:5;stroke-miterlimit:10;}
	.st1{fill:#E8A627;stroke:#010202;stroke-width:5;stroke-miterlimit:10;}
	.st2{fill:#F9DE59;stroke:#010202;stroke-width:5;stroke-miterlimit:10;}
</style><g
     inkscape:groupmode="layer"
     id="layer8"
     inkscape:label="destroyer"
     style="display:inline"
     transform="translate(-11.77489,-114.47035)"><g
       id="g4603"
       inkscape:label="sticker"><path
         id="path4461"
         style="mix-blend-mode:normal;fill:#000000;fill-opacity:0.5;stroke:none;stroke-width:0.3;stroke-dasharray:none;stroke-opacity:1;filter:url(#filter4876)"
         inkscape:label="sticker_shadow"
         d="m 132.56503,117.49154 c -0.40471,-0.004 -0.80308,0.0747 -1.46761,0.23357 -0.92761,0.22179 -1.14647,0.31702 -1.86138,0.81184 -1.36654,0.94587 -2.06505,1.98603 -2.38849,3.55741 -0.17348,0.84274 -0.18087,0.85628 -0.60409,1.10432 -1.06847,0.62617 -1.66685,1.44083 -1.96009,2.66857 l -0.19689,0.82372 0.20257,0.8816 c 0.20035,0.87244 0.46578,1.41448 0.94258,1.9265 l 0.24598,0.26407 -0.22066,2.22467 c -0.1213,1.22352 -0.24081,2.25862 -0.26561,2.30012 -0.0248,0.0416 -6.4501,0.0712 -14.27872,0.0682 -12.836626,-0.007 -14.29462,0.008 -14.852838,0.15141 -1.568664,0.40203 -2.749685,1.59422 -3.122807,3.1533 -0.155378,0.64901 -0.179156,1.18597 -0.179834,4.04265 l -5.17e-4,3.29437 -1.195792,5.1e-4 c -1.94024,0.001 -3.03056,0.35515 -4.073653,1.32137 -0.427766,0.39625 -0.480208,0.41576 -1.801441,0.66456 -1.209468,0.22767 -1.385042,0.2403 -1.576648,0.11472 -0.118588,-0.0777 -0.62635,-0.22686 -1.128096,-0.33176 -0.501746,-0.10483 -1.166736,-0.32325 -1.477946,-0.48524 -0.311211,-0.162 -0.878456,-0.36579 -1.260388,-0.45269 -0.64197,-0.14624 -0.750602,-0.14581 -1.440223,0.003 -1.299198,0.28072 -2.08565,1.05409 -2.377116,2.33681 -0.141708,0.62366 -0.142147,0.74152 -5.16e-4,1.36633 0.08842,0.39007 0.279086,0.86438 0.443383,1.1038 0.301728,0.43968 1.094884,1.08348 1.345655,1.09348 0.08052,0.003 0.219338,0.0614 0.308508,0.12919 0.145489,0.11071 0.132322,0.13593 -0.12454,0.2496 -0.438224,0.19397 -1.349043,1.07105 -1.740462,1.67535 l -0.350883,0.54156 -0.1726,-0.88315 c -0.301581,-1.54556 -1.09904,-2.42329 -2.476334,-2.72593 -0.656805,-0.14428 -0.772566,-0.14428 -1.42937,0 -1.295829,0.28474 -2.160716,1.15081 -2.445846,2.44843 -0.0867,0.39461 -0.157613,0.89474 -0.157613,1.11156 0,0.35366 -0.02105,0.38751 -0.201538,0.33021 -0.33719,-0.10701 -1.66142,0.24234 -2.123385,0.56018 -0.232003,0.15962 -0.576764,0.50576 -0.765844,0.76894 -0.356118,0.49577 -0.418067,0.53795 -0.574126,0.39119 -0.051,-0.0479 -0.419844,-0.16029 -0.819588,-0.24959 -0.678027,-0.15173 -0.776227,-0.15173 -1.458309,0 -0.402133,0.0895 -0.898635,0.27376 -1.103292,0.40927 l -0.37207,0.24598 -0.36897,-0.24443 c -0.482508,-0.31932 -1.652996,-0.58433 -2.247924,-0.50953 -0.428929,0.054 -0.493434,0.0301 -1.029912,-0.37568 -0.446043,-0.33735 -0.730947,-0.46775 -1.292944,-0.59118 -0.663617,-0.14545 -0.777756,-0.14565 -1.435571,-0.001 -1.652296,0.36306 -2.506307,1.63462 -2.506307,3.73156 v 0.67903 l -1.049549,0.0636 c -0.57708,0.0351 -1.16049,0.0851 -1.296561,0.11059 -0.205025,0.0384 -0.29937,-0.0277 -0.550871,-0.38448 -0.403204,-0.57203 -1.032232,-0.99034 -1.781287,-1.18442 -0.526804,-0.13649 -1.291736,-0.15858 -5.43636,-0.15658 -4.492645,0.002 -4.987086,0.0245 -5.809982,0.262 -0.123587,0.0357 -0.176512,-0.0403 -0.224792,-0.32298 -0.155433,-0.91028 -1.22085,-1.86348 -2.36368,-2.1146 -0.656805,-0.14428 -0.772566,-0.14428 -1.42937,0 -1.220062,0.26808 -2.166691,1.16319 -2.403988,2.27377 -0.06402,0.29959 -0.138208,0.62171 -0.164848,0.71571 -0.04305,0.1518 -0.19477,0.17054 -1.364774,0.17054 -2.185157,0 -3.144598,0.33259 -3.897437,1.3503 -0.185346,0.25056 -0.384657,0.63644 -0.442867,0.85783 l -0.105937,0.40256 -1.577164,0.11886 c -2.526009,0.18996 -5.204734,0.81383 -6.164999,1.43608 -1.264985,0.81968 -1.887116,1.62869 -2.145605,2.79053 -0.158047,0.71075 -0.15818,0.79853 -0.0026,1.51102 0.194182,0.88918 0.493157,1.44649 1.148767,2.14044 1.277414,1.35209 3.879985,2.62692 8.837704,4.32893 l 1.787487,0.6134 -0.480074,0.49713 c -0.901862,0.93406 -1.808868,2.385 -2.2071,3.53105 -0.984445,2.83313 -0.985055,5.63977 -0.0015,8.47028 0.897337,2.58254 3.63948,5.41566 6.19497,6.40116 0.678415,0.26162 2.244923,0.68406 3.021521,0.81494 l 10e-4,-5.2e-4 c 0.134204,0.0227 36.72087,0.0452 81.303563,0.0522 29.41675,0.004 45.83388,0.003 57.81921,-0.005 l 19.57555,-25.16591 -0.48369,-0.68471 v -2.70526 c -1.6e-4,-2.50135 -0.0174,-2.77629 -0.22841,-3.64836 -0.25746,-1.06401 -0.57511,-1.63185 -1.32809,-2.37194 l -0.49299,-0.48421 0.003,-3.02927 0.003,-3.02928 0.63821,-0.39067 c 1.65026,-1.00929 2.28003,-2.35155 2.28203,-4.86069 8.7e-4,-1.43121 -0.18051,-2.42681 -0.56379,-3.09386 -0.33861,-0.58936 -1.10627,-1.38867 -1.69964,-1.76941 -0.55234,-0.35444 -1.72646,-0.66872 -2.50217,-0.66972 l -0.5209,-10e-4 0.0248,-2.51302 c 0.021,-2.1404 -9.6e-4,-2.60687 -0.14624,-3.14348 -0.20783,-0.76762 -0.3045,-0.95996 -0.87075,-1.72909 -0.26757,-0.36346 -0.68733,-0.76815 -1.05833,-1.02009 -1.06649,-0.72426 -1.06003,-0.7234 -8.39122,-1.31724 -2.01009,-0.16281 -2.01847,-0.16279 -2.93316,0.0486 -1.02158,0.23607 -1.61777,0.575 -2.28306,1.29759 -0.59364,0.64478 -0.88721,1.20923 -1.10846,2.13217 -0.19207,0.80035 -0.19798,1.11827 -0.19895,9.62371 l -0.001,8.79584 -0.5612,-0.13436 c -0.49093,-0.11747 -0.65225,-0.11422 -1.28726,0.0238 -0.39925,0.0868 -0.88259,0.2599 -1.07384,0.38499 l -0.34727,0.22738 -0.82372,-0.1974 -0.82372,-0.19689 -0.88418,0.2036 c -0.48651,0.11201 -1.11783,0.20309 -1.4025,0.20309 -1.26078,-0.002 -2.39103,0.45719 -3.02669,1.22835 -0.27517,0.3338 -0.30104,0.34382 -0.51987,0.20516 -0.12668,-0.0803 -0.55958,-0.22138 -0.96221,-0.31368 -0.62853,-0.14424 -1.22334,-0.16584 -4.20853,-0.14934 l -3.47679,0.0186 -0.15658,-1.05627 c -0.0861,-0.58082 -0.26957,-1.97845 -0.40773,-3.10575 -0.13812,-1.12733 -0.35724,-2.51057 -0.48679,-3.07423 -0.12957,-0.56366 -0.41398,-2.16685 -0.632,-3.56257 -0.73529,-4.70711 -0.79378,-5.07224 -1.03043,-6.3929 -0.62415,-3.48314 -1.60984,-10.15784 -1.52394,-10.32081 0.0498,-0.0945 0.16587,-0.51209 0.25787,-0.92811 0.15737,-0.71201 0.1576,-0.80108 0.002,-1.51309 -0.25662,-1.17504 -0.84753,-2.04422 -1.8092,-2.66133 -0.83997,-0.53897 -1.32891,-0.61426 -4.03283,-0.62426 l -2.42517,-0.008 -0.23151,-0.91415 c -0.25692,-1.01483 -0.59808,-1.62741 -1.35806,-2.44068 -0.83175,-0.89007 -1.47453,-1.26016 -2.75228,-1.58285 -0.68854,-0.17387 -1.09959,-0.26165 -1.50431,-0.26613 z M 75.991227,154.5022 c 0.01026,-0.0102 0.0237,0.003 0.03927,0.0424 h 5.17e-4 c 0.0281,0.0704 0.02468,0.15467 -0.0078,0.18707 -0.03243,0.0324 -0.05598,-0.0252 -0.05168,-0.12816 0.0023,-0.0568 0.0094,-0.091 0.01964,-0.10128 z" /><path
         id="path4874"
         style="fill:#f2f2f2;stroke:#000000;stroke-width:0.3;stroke-dasharray:none;stroke-opacity:1"
         inkscape:label="sticker"
         d="m 132.56503,117.49154 c -0.40471,-0.004 -0.80308,0.0747 -1.46761,0.23357 -0.92761,0.22179 -1.14647,0.31702 -1.86138,0.81184 -1.36654,0.94587 -2.06505,1.98603 -2.38849,3.55741 -0.17348,0.84274 -0.18087,0.85628 -0.60409,1.10432 -1.06847,0.62617 -1.66685,1.44083 -1.96009,2.66857 l -0.19689,0.82372 0.20257,0.8816 c 0.20035,0.87244 0.46578,1.41448 0.94258,1.9265 l 0.24598,0.26407 -0.22066,2.22467 c -0.1213,1.22352 -0.24081,2.25862 -0.26561,2.30012 -0.0248,0.0416 -6.4501,0.0712 -14.27872,0.0682 -12.836626,-0.007 -14.29462,0.008 -14.852838,0.15141 -1.568664,0.40203 -2.749685,1.59422 -3.122807,3.1533 -0.155378,0.64901 -0.179156,1.18597 -0.179834,4.04265 l -5.17e-4,3.29437 -1.195792,5.1e-4 c -1.94024,0.001 -3.03056,0.35515 -4.073653,1.32137 -0.427766,0.39625 -0.480208,0.41576 -1.801441,0.66456 -1.209468,0.22767 -1.385042,0.2403 -1.576648,0.11472 -0.118588,-0.0777 -0.62635,-0.22686 -1.128096,-0.33176 -0.501746,-0.10483 -1.166736,-0.32325 -1.477946,-0.48524 -0.311211,-0.162 -0.878456,-0.36579 -1.260388,-0.45269 -0.64197,-0.14624 -0.750602,-0.14581 -1.440223,0.003 -1.299198,0.28072 -2.08565,1.05409 -2.377116,2.33681 -0.141708,0.62366 -0.142147,0.74152 -5.16e-4,1.36633 0.08842,0.39007 0.279086,0.86438 0.443383,1.1038 0.301728,0.43968 1.094884,1.08348 1.345655,1.09348 0.08052,0.003 0.219338,0.0614 0.308508,0.12919 0.145489,0.11071 0.132322,0.13593 -0.12454,0.2496 -0.438224,0.19397 -1.349043,1.07105 -1.740462,1.67535 l -0.350883,0.54156 -0.1726,-0.88315 c -0.301581,-1.54556 -1.09904,-2.42329 -2.476334,-2.72593 -0.656805,-0.14428 -0.772566,-0.14428 -1.42937,0 -1.295829,0.28474 -2.160716,1.15081 -2.445846,2.44843 -0.0867,0.39461 -0.157613,0.89474 -0.157613,1.11156 0,0.35366 -0.02105,0.38751 -0.201538,0.33021 -0.33719,-0.10701 -1.66142,0.24234 -2.123385,0.56018 -0.232003,0.15962 -0.576764,0.50576 -0.765844,0.76894 -0.356118,0.49577 -0.418067,0.53795 -0.574126,0.39119 -0.051,-0.0479 -0.419844,-0.16029 -0.819588,-0.24959 -0.678027,-0.15173 -0.776227,-0.15173 -1.458309,0 -0.402133,0.0895 -0.898635,0.27376 -1.103292,0.40927 l -0.37207,0.24598 -0.36897,-0.24443 c -0.482508,-0.31932 -1.652996,-0.58433 -2.247924,-0.50953 -0.428929,0.054 -0.493434,0.0301 -1.029912,-0.37568 -0.446043,-0.33735 -0.730947,-0.46775 -1.292944,-0.59118 -0.663617,-0.14545 -0.777756,-0.14565 -1.435571,-0.001 -1.652296,0.36306 -2.506307,1.63462 -2.506307,3.73156 v 0.67903 l -1.049549,0.0636 c -0.57708,0.0351 -1.16049,0.0851 -1.296561,0.11059 -0.205025,0.0384 -0.29937,-0.0277 -0.550871,-0.38448 -0.403204,-0.57203 -1.032232,-0.99034 -1.781287,-1.18442 -0.526804,-0.13649 -1.291736,-0.15858 -5.43636,-0.15658 -4.492645,0.002 -4.987086,0.0245 -5.809982,0.262 -0.123587,0.0357 -0.176512,-0.0403 -0.224792,-0.32298 -0.155433,-0.91028 -1.22085,-1.86348 -2.36368,-2.1146 -0.656805,-0.14428 -0.772566,-0.14428 -1.42937,0 -1.220062,0.26808 -2.166691,1.16319 -2.403988,2.27377 -0.06402,0.29959 -0.138208,0.62171 -0.164848,0.71571 -0.04305,0.1518 -0.19477,0.17054 -1.364774,0.17054 -2.185157,0 -3.144598,0.33259 -3.897437,1.3503 -0.185346,0.25056 -0.384657,0.63644 -0.442867,0.85783 l -0.105937,0.40256 -1.577164,0.11886 c -2.526009,0.18996 -5.204734,0.81383 -6.164999,1.43608 -1.264985,0.81968 -1.887116,1.62869 -2.145605,2.79053 -0.158047,0.71075 -0.15818,0.79853 -0.0026,1.51102 0.194182,0.88918 0.493157,1.44649 1.148767,2.14044 1.277414,1.35209 3.879985,2.62692 8.837704,4.32893 l 1.787487,0.6134 -0.480074,0.49713 c -0.901862,0.93406 -1.808868,2.385 -2.2071,3.53105 -0.984445,2.83313 -0.985055,5.63977 -0.0015,8.47028 0.897337,2.58254 3.63948,5.41566 6.19497,6.40116 0.678415,0.26162 2.244923,0.68406 3.021521,0.81494 l 10e-4,-5.2e-4 c 0.134204,0.0227 36.72087,0.0452 81.303563,0.0522 29.41675,0.004 45.83388,0.003 57.81921,-0.005 l 19.57555,-25.16591 -0.48369,-0.68471 v -2.70526 c -1.6e-4,-2.50135 -0.0174,-2.77629 -0.22841,-3.64836 -0.25746,-1.06401 -0.57511,-1.63185 -1.32809,-2.37194 l -0.49299,-0.48421 0.003,-3.02927 0.003,-3.02928 0.63821,-0.39067 c 1.65026,-1.00929 2.28003,-2.35155 2.28203,-4.86069 8.7e-4,-1.43121 -0.18051,-2.42681 -0.56379,-3.09386 -0.33861,-0.58936 -1.10627,-1.38867 -1.69964,-1.76941 -0.55234,-0.35444 -1.72646,-0.66872 -2.50217,-0.66972 l -0.5209,-10e-4 0.0248,-2.51302 c 0.021,-2.1404 -9.6e-4,-2.60687 -0.14624,-3.14348 -0.20783,-0.76762 -0.3045,-0.95996 -0.87075,-1.72909 -0.26757,-0.36346 -0.68733,-0.76815 -1.05833,-1.02009 -1.06649,-0.72426 -1.06003,-0.7234 -8.39122,-1.31724 -2.01009,-0.16281 -2.01847,-0.16279 -2.93316,0.0486 -1.02158,0.23607 -1.61777,0.575 -2.28306,1.29759 -0.59364,0.64478 -0.88721,1.20923 -1.10846,2.13217 -0.19207,0.80035 -0.19798,1.11827 -0.19895,9.62371 l -0.001,8.79584 -0.5612,-0.13436 c -0.49093,-0.11747 -0.65225,-0.11422 -1.28726,0.0238 -0.39925,0.0868 -0.88259,0.2599 -1.07384,0.38499 l -0.34727,0.22738 -0.82372,-0.1974 -0.82372,-0.19689 -0.88418,0.2036 c -0.48651,0.11201 -1.11783,0.20309 -1.4025,0.20309 -1.26078,-0.002 -2.39103,0.45719 -3.02669,1.22835 -0.27517,0.3338 -0.30104,0.34382 -0.51987,0.20516 -0.12668,-0.0803 -0.55958,-0.22138 -0.96221,-0.31368 -0.62853,-0.14424 -1.22334,-0.16584 -4.20853,-0.14934 l -3.47679,0.0186 -0.15658,-1.05627 c -0.0861,-0.58082 -0.26957,-1.97845 -0.40773,-3.10575 -0.13812,-1.12733 -0.35724,-2.51057 -0.48679,-3.07423 -0.12957,-0.56366 -0.41398,-2.16685 -0.632,-3.56257 -0.73529,-4.70711 -0.79378,-5.07224 -1.03043,-6.3929 -0.62415,-3.48314 -1.60984,-10.15784 -1.52394,-10.32081 0.0498,-0.0945 0.16587,-0.51209 0.25787,-0.92811 0.15737,-0.71201 0.1576,-0.80108 0.002,-1.51309 -0.25662,-1.17504 -0.84753,-2.04422 -1.8092,-2.66133 -0.83997,-0.53897 -1.32891,-0.61426 -4.03283,-0.62426 l -2.42517,-0.008 -0.23151,-0.91415 c -0.25692,-1.01483 -0.59808,-1.62741 -1.35806,-2.44068 -0.83175,-0.89007 -1.47453,-1.26016 -2.75228,-1.58285 -0.68854,-0.17387 -1.09959,-0.26165 -1.50431,-0.26613 z M 75.991227,154.5022 c 0.01026,-0.0102 0.0237,0.003 0.03927,0.0424 h 5.17e-4 c 0.0281,0.0704 0.02468,0.15467 -0.0078,0.18707 -0.03243,0.0324 -0.05598,-0.0252 -0.05168,-0.12816 0.0023,-0.0568 0.0094,-0.091 0.01964,-0.10128 z" /></g><path
       id="path4600"
       style="fill:#545863;fill-opacity:1;stroke-width:0.0965786"
       inkscape:label="destroyer"
       d="m 133.10195,121.55072 c -0.0836,7.9e-4 -0.16419,0.006 -0.24236,0.017 -2.16861,0.29724 -3.17214,2.83556 -1.76423,4.46226 0.21409,0.24735 0.37273,0.49936 0.35243,0.55966 -0.0252,0.0748 -0.48154,0.11279 -1.42937,0.11679 -1.53905,0.008 -1.76724,0.0712 -1.96784,0.54828 -0.26434,0.62864 0.21837,1.32809 0.91623,1.32809 0.26983,0 0.40497,0.0513 0.47387,0.18035 0.0536,0.0993 0.0808,0.19674 0.061,0.21704 -0.0197,0.0202 -0.0846,0.51486 -0.14418,1.09916 -0.0594,0.58431 -0.19316,1.86677 -0.29714,2.84944 -0.10398,0.98269 -0.25885,2.5037 -0.34365,3.38015 -0.13302,1.37406 -0.18114,1.61704 -0.35192,1.76424 -0.18764,0.16155 -1.00162,0.16936 -15.44298,0.16536 -16.868904,-0.006 -15.620407,-0.053 -16.024862,0.6103 -0.180285,0.29542 -0.188749,0.51798 -0.189136,4.99814 -2.86e-4,3.51773 -0.02931,4.71788 -0.116272,4.80488 -0.08439,0.0844 -0.8208,0.11575 -2.708878,0.11575 -2.196538,0 -2.640334,0.0238 -2.902149,0.15607 -0.650937,0.32889 -0.911576,0.69433 -1.02371,1.43608 -0.06629,0.43867 -0.299078,0.55394 -0.589111,0.29146 -0.267607,-0.24214 -0.865803,-0.28289 -1.65778,-0.11266 -0.389768,0.0838 -0.961338,0.19634 -1.270207,0.25064 -0.30887,0.0542 -0.684774,0.18661 -0.835608,0.29403 -0.150835,0.10735 -0.333156,0.19323 -0.404626,0.19224 -0.07148,-0.002 -0.494942,-0.19442 -0.941545,-0.42891 -0.774142,-0.4066 -0.825051,-0.42005 -1.086755,-0.28474 -0.480973,0.24872 -0.306774,0.47954 0.720369,0.9555 0.414238,0.19196 0.77848,0.41614 0.80977,0.49764 0.0313,0.0815 -0.02993,0.32934 -0.136426,0.55087 -0.309579,0.64394 -0.44275,1.28247 -0.39119,1.87792 0.02638,0.30414 0.02867,0.60746 0.0052,0.67386 -0.03134,0.0885 -0.391552,0.12041 -1.351339,0.12041 -1.513966,0 -1.956187,0.10323 -2.345593,0.54674 -0.446282,0.5083 -0.496329,0.88058 -0.474389,3.55223 0.01103,1.34257 -0.01058,2.49067 -0.04806,2.55127 -0.04847,0.0785 -0.859069,0.11059 -2.808097,0.11059 -2.361335,0 -2.760581,-0.0212 -2.891296,-0.15193 -0.132554,-0.1326 -0.151361,-0.60314 -0.146761,-3.74241 0.0029,-1.97492 0.003,-3.64845 0,-3.71915 -0.0029,-0.0709 -0.0597,-0.11108 -0.126091,-0.0889 -0.09276,0.0309 -0.131882,0.92248 -0.168982,3.84731 l -0.04806,3.80648 -1.532723,0.0269 c -1.089676,0.0189 -1.572866,-0.007 -1.672766,-0.0899 -0.115184,-0.0955 -0.136245,-0.43229 -0.117305,-1.86191 0.0209,-1.57845 0.0073,-1.74773 -0.141594,-1.77663 -0.150852,-0.0292 -0.163402,0.12044 -0.152962,1.77508 0.0088,1.39038 -0.01837,1.83595 -0.117306,1.93115 -0.08656,0.0834 -0.767198,0.16256 -2.082043,0.24236 -1.625252,0.0986 -1.979651,0.0968 -2.109949,-0.0114 -0.132719,-0.11016 -0.15147,-0.31474 -0.12299,-1.34049 0.03037,-1.09383 0.01713,-1.21322 -0.136425,-1.24282 -0.156319,-0.0302 -0.16736,0.0656 -0.13746,1.19838 0.02746,1.04029 0.008,1.25547 -0.125574,1.38906 -0.124125,0.12412 -0.537045,0.18457 -1.92443,0.28267 -1.006455,0.071 -1.802493,0.0889 -1.850533,0.0408 -0.04638,-0.0464 -0.09628,-0.71148 -0.111104,-1.47794 l -0.02687,-1.39371 -0.846977,-0.0129 c -0.582549,-0.008 -0.879383,0.0263 -0.949813,0.1111 -0.06494,0.0783 -0.09057,0.6206 -0.07028,1.48415 0.03732,1.58863 0.05354,1.56 -0.885735,1.5229 l -0.627868,-0.0248 -0.04806,-2.06861 c -0.03581,-1.53376 -0.07948,-2.0787 -0.168982,-2.1084 -0.09408,-0.0313 -0.120923,0.4173 -0.120923,2.03244 0,1.58536 -0.0293,2.09732 -0.125574,2.17712 -0.07089,0.0588 -1.410158,0.19189 -3.066479,0.30489 -1.617282,0.11032 -3.375041,0.23757 -3.906222,0.28267 -1.314838,0.11169 -1.339372,0.0952 -1.283642,-0.86764 0.02417,-0.41759 0.01515,-0.8059 -0.02015,-0.863 -0.06691,-0.1083 -9.150935,-0.1534 -9.25835,-0.046 -0.02959,0.0295 -0.04096,0.57031 -0.02584,1.20148 0.03261,1.3616 0.08575,1.29973 -1.201994,1.39733 -1.120932,0.085 -1.135112,0.0704 -1.106392,-1.12913 0.01174,-0.49105 0.02787,-1.00156 0.03617,-1.1343 0.01127,-0.18095 -0.0327,-0.24133 -0.175183,-0.24133 -0.180724,0 -0.188307,0.0605 -0.160197,1.22318 0.03404,1.4074 0.05707,1.36899 -0.881083,1.46089 -0.887829,0.0871 -0.862165,0.16841 -0.836125,-2.67373 0.01864,-2.03289 -3.8e-5,-2.42466 -0.114205,-2.42466 -0.113448,0 -0.137177,0.41625 -0.144177,2.49545 -0.0068,2.01144 -0.03464,2.51174 -0.14211,2.57814 -0.163388,0.10102 -1.220847,0.22047 -1.545125,0.17467 -0.229079,-0.0323 -0.236513,-0.0589 -0.243913,-0.86248 -0.0042,-0.45598 -0.0353,-0.90101 -0.06925,-0.98961 -0.05467,-0.14234 -0.276603,-0.16123 -1.941484,-0.16123 -2.18201,0 -2.002688,-0.10903 -1.945618,1.18184 0.05616,1.2698 0.252496,1.17859 -3.03754,1.42007 -3.216726,0.2361 -3.804998,0.31845 -4.973857,0.69815 -0.949863,0.30855 -1.49395,0.63074 -1.69292,1.00252 -0.318112,0.59439 0.527928,1.38988 2.465483,2.31872 1.942254,0.93111 3.60377,1.55191 8.900232,3.3259 2.693743,0.90225 4.93239,1.69516 4.97489,1.76216 0.04249,0.067 0.07829,0.21283 0.07906,0.32453 0.002,0.27555 0.375771,0.81137 0.735355,1.05368 0.301745,0.20334 2.253268,0.88122 4.578015,1.59009 0.717097,0.21867 1.499365,0.45732 1.738396,0.53072 1.938638,0.59527 6.851133,1.81921 10.067602,2.50837 12.144857,2.60219 27.002139,4.19794 42.664063,4.58215 l 5.16e-4,0.001 c 1.673237,0.0411 24.946204,0.0707 51.717774,0.0667 15.29622,-0.002 24.6227,-0.008 31.85128,-0.016 l 4.22455,-5.43068 c -0.003,-0.32161 -0.004,-0.68305 -0.004,-1.17874 0,-2.37565 0.009,-2.50763 0.18655,-2.60243 0.10274,-0.0549 0.60564,-0.10025 1.11724,-0.10025 0.51161,0 1.01455,0.0453 1.11725,0.10025 0.0898,0.0482 0.13589,0.11319 0.1602,0.46768 l 1.47484,-1.89601 c -4.98604,0.0641 -21.25474,0.0804 -70.5714,0.0997 l -72.606421,0.0284 -1.399914,0.2067 c -1.751702,0.25859 -3.061646,0.48792 -3.486609,0.60978 -0.45807,0.13135 -0.722105,0.10407 -1.416451,-0.14831 -0.632253,-0.2298 -1.085205,-0.48371 -1.085205,-0.60771 0,-0.73272 3.042129,-1.70944 7.344771,-2.35852 1.395135,-0.21043 1.405612,-0.21064 21.701518,-0.24184 11.168098,-0.0172 20.305737,-0.0683 20.305737,-0.11369 0,-0.0453 -0.06814,-0.24512 -0.151412,-0.44442 -0.166754,-0.3991 -0.09785,-0.69695 0.269751,-1.16427 0.429288,-0.5457 0.215109,-0.52968 7.028512,-0.52968 6.761033,0 6.544243,-0.0154 7.014553,0.50229 0.35995,0.39629 0.46662,0.84978 0.29611,1.25781 -0.0814,0.19437 -0.12237,0.37838 -0.0915,0.40928 0.0309,0.0309 7.00772,0.0563 15.50397,0.0563 h 15.44763 l -0.0672,-0.26561 c -0.18611,-0.7342 -0.16955,-0.93372 0.10956,-1.30018 0.52656,-0.69122 0.19108,-0.66101 7.12256,-0.66198 6.82452,-0.002 6.47346,-0.0307 7.05538,0.58136 0.30446,0.32031 0.3783,0.81112 0.20671,1.3808 l -0.0801,0.26561 20.992,0.001 c 11.54568,8e-4 21.03682,0.0333 21.09122,0.0723 0.0543,0.039 0.30182,0.3534 0.55035,0.69867 0.0337,0.0468 0.0664,0.0902 0.10284,0.14056 l 0.71778,-0.92294 c -0.59097,-0.8094 -0.8014,-1.0143 -0.9896,-1.03508 -0.15751,-0.0174 -0.32237,-0.066 -0.36587,-0.108 -0.0435,-0.0421 -0.0752,-1.64769 -0.0692,-3.56826 0.006,-2.25092 -0.0276,-3.6311 -0.0956,-3.88349 -0.058,-0.21537 -0.2507,-0.55026 -0.42839,-0.74414 -0.28389,-0.30969 -0.39173,-0.35907 -0.88781,-0.40307 l -0.5643,-0.0501 v -5.50509 -5.50457 l 0.87901,-0.0558 c 1.03522,-0.0656 1.48154,-0.28316 1.77974,-0.86765 0.15995,-0.31372 0.19017,-0.57004 0.19017,-1.61799 0,-1.13515 -0.0194,-1.27385 -0.21962,-1.57096 -0.12077,-0.17921 -0.36596,-0.42447 -0.54519,-0.54519 -0.31239,-0.21061 -0.40722,-0.21962 -2.28823,-0.21962 -1.88002,0 -1.96641,-0.009 -2.06809,-0.19844 -0.0733,-0.1361 -0.1006,-1.36939 -0.0863,-3.93723 0.0218,-4.07424 0.0294,-4.0101 -0.53847,-4.57801 -0.33323,-0.3332 -0.67123,-0.43138 -1.73891,-0.50488 -0.47806,-0.0329 -2.21202,-0.17049 -3.853,-0.30593 -1.64098,-0.13561 -3.12795,-0.21923 -3.30471,-0.18603 -0.44355,0.0832 -0.86335,0.46368 -1.04696,0.94878 -0.13923,0.36584 -0.15206,1.45973 -0.12816,10.65258 l 0.0269,10.24485 0.27027,0.3545 c 0.34378,0.45069 0.72058,0.64534 1.24592,0.64234 0.22839,-10e-4 2.00075,-0.17188 3.93878,-0.37931 2.4917,-0.26679 3.55989,-0.34755 3.64629,-0.27595 0.16831,0.13989 0.17366,3.17445 0.006,3.34243 -0.14282,0.14278 -12.88564,0.16645 -13.11031,0.0243 -0.11436,-0.0723 -0.14069,-0.44727 -0.14469,-2.05104 -0.004,-1.6205 -0.0288,-1.96215 -0.14108,-1.96215 -0.1129,0 -0.13199,0.32226 -0.11369,1.91358 0.0159,1.36868 -0.0111,1.95287 -0.0935,2.05207 -0.0908,0.10933 -0.42098,0.13901 -1.55805,0.13901 -0.84363,0 -1.52383,-0.0433 -1.63711,-0.10387 -0.18485,-0.0987 -0.19273,-0.18835 -0.17053,-1.85932 0.0208,-1.5735 0.006,-1.75845 -0.13798,-1.78645 -0.14604,-0.0283 -0.16123,0.14282 -0.16123,1.80919 v 1.8402 l -0.23357,0.0584 c -0.58049,0.14567 -0.58302,0.13987 -0.63562,-1.64951 l -0.0481,-1.64073 h -0.91778 -0.91725 l -0.0486,1.64176 -0.0481,1.64176 -1.53272,0.0269 c -1.04797,0.0183 -1.57465,-0.008 -1.66605,-0.0842 -0.0805,-0.0669 -0.13332,-0.29901 -0.13332,-0.58498 0,-0.2608 -0.0591,-0.61474 -0.13075,-0.78651 -0.17714,-0.42391 -0.77756,-0.93503 -1.1038,-0.94103 -0.14423,-0.002 -2.27024,-0.0128 -4.72426,-0.0243 -3.3558,-0.0152 -4.49097,-0.0489 -4.57957,-0.13746 -0.13559,-0.13554 -0.70795,-3.73114 -1.0883,-6.83627 -0.14312,-1.16858 -0.34272,-2.40702 -0.44339,-2.75229 -0.1007,-0.34525 -0.24974,-1.08453 -0.33124,-1.64228 -0.0815,-0.55774 -0.30232,-1.99171 -0.49041,-3.18688 -0.18808,-1.19515 -0.42882,-2.73819 -0.53537,-3.42873 -0.10655,-0.69053 -0.25843,-1.58133 -0.33693,-1.97973 -0.0786,-0.39838 -0.46791,-2.81019 -0.86558,-5.35988 -0.39771,-2.54967 -0.77156,-4.84229 -0.83096,-5.09478 -0.10427,-0.44363 -0.0978,-0.47087 0.19017,-0.79891 0.16392,-0.18672 0.32393,-0.44228 0.35553,-0.56844 0.0709,-0.28263 -0.17497,-0.78417 -0.4594,-0.93638 -0.15167,-0.0807 -1.39283,-0.10644 -4.49016,-0.0935 -4.2402,0.0184 -4.28036,0.0171 -4.28036,-0.17673 0,-0.10763 0.12989,-0.32829 0.28835,-0.49041 0.43419,-0.44415 0.60527,-0.85088 0.65577,-1.55753 0.0655,-0.91543 -0.16147,-1.53759 -0.79064,-2.16679 -0.41095,-0.41094 -0.60085,-0.52196 -1.14102,-0.66818 -0.33254,-0.0899 -0.6121,-0.1326 -0.863,-0.13022 z m -33.536451,17.84801 c 1.248921,0 1.476101,0.0224 1.526001,0.15244 0.0894,0.23287 0.067,2.38857 -0.0263,2.53576 -0.0614,0.0968 -0.42555,0.13372 -1.447975,0.14522 -1.434712,0.0163 -1.56234,0.004 -1.6769,-0.16795 -0.12342,-0.18487 -0.08672,-2.42114 0.04186,-2.54972 0.07997,-0.08 0.570879,-0.11575 1.583366,-0.11575 z m 4.305161,0 c 1.90663,0 2.10963,0.0157 2.18333,0.16898 0.0893,0.18705 0.0869,2.49941 -0.003,2.59157 -0.0319,0.0313 -1.00222,0.0639 -2.15749,0.0729 -1.62948,0.0122 -2.13042,-0.0131 -2.22932,-0.11214 -0.17095,-0.1712 -0.18099,-2.43592 -0.0114,-2.60553 0.083,-0.083 0.71182,-0.11575 2.21795,-0.11575 z m 4.11758,0.0129 c 0.38472,-1.8e-4 0.87882,0.003 1.51567,0.009 l 2.80086,0.0258 0.0274,1.29604 c 0.0149,0.71284 -0.0126,1.3355 -0.061,1.3839 h -5.1e-4 c -0.0844,0.0849 -5.295,0.16166 -5.54333,0.0822 -0.22776,-0.0729 -0.26309,-0.25324 -0.26407,-1.36736 -0.001,-0.74288 0.039,-1.17188 0.11937,-1.28157 0.0823,-0.11301 0.25143,-0.14778 1.4056,-0.14831 z m 7.83001,0.009 c 2.08439,-0.0182 2.97248,0.006 3.06648,0.0842 0.099,0.0821 0.13172,0.40557 0.13074,1.28106 -6e-4,0.64419 -0.0372,1.22819 -0.0811,1.29759 -0.10133,0.1598 -5.75752,0.22245 -5.97121,0.0661 -0.10516,-0.0763 -0.12704,-0.38025 -0.10594,-1.40043 l 0.0269,-1.30276 z m 13.3687,0.38705 c 6.68293,0.0286 6.04944,-0.0823 5.95984,1.04749 l -0.0491,0.61908 -5.95313,0.0248 c -5.36591,0.0225 -5.95893,0.0102 -6.01203,-0.12815 -0.12412,-0.32343 -0.0618,-1.28024 0.0935,-1.43558 0.13616,-0.13658 0.7757,-0.14984 5.96088,-0.12764 z m -3.99718,3.3569 h 4.06022 l 0.15503,0.23668 c 0.16087,0.24547 0.11624,0.61545 -0.091,0.75189 -0.0592,0.0391 -1.95714,0.0716 -4.21731,0.0724 -3.06914,0.001 -4.13898,-0.0276 -4.22558,-0.1142 -0.18875,-0.18873 -0.14284,-0.7319 0.0713,-0.84646 0.12027,-0.0644 1.63303,-0.10026 4.24728,-0.10026 z m -15.382,1.63866 c 0.95776,-0.004 1.93088,0.0296 2.06861,0.10336 0.15652,0.0837 0.18706,0.20633 0.18706,0.75344 0,0.37937 -0.0485,0.70155 -0.11575,0.76895 -0.0824,0.0824 -0.67616,0.11575 -2.05724,0.11575 -1.38108,0 -1.97484,-0.0334 -2.05724,-0.11575 -0.0666,-0.0667 -0.11575,-0.38645 -0.11575,-0.75345 0,-0.36699 0.049,-0.68622 0.11575,-0.75292 0.0746,-0.0745 1.0168,-0.11562 1.97456,-0.11938 z m 6.81767,0.40256 c 0.84582,6.9e-4 0.96249,0.0366 1.02474,0.154 0.1291,0.24355 0.11086,1.14899 -0.0269,1.33739 -0.10011,0.13694 -0.37194,0.16058 -1.97249,0.17208 -1.02091,0.007 -1.92735,-0.0115 -2.01435,-0.0419 -0.228,-0.0799 -0.27577,-0.29252 -0.22117,-0.97927 l 0.0486,-0.6072 2.04793,-0.0258 c 0.46904,-0.006 0.83169,-0.01 1.11363,-0.009 z m 5.26531,2.49804 h 15.44764 l 0.31832,0.21756 c 0.36583,0.2497 0.67593,0.77465 0.67593,1.14412 0,0.1396 -0.13004,0.41804 -0.28939,0.61856 -0.15944,0.20052 -0.2899,0.40172 -0.2899,0.44752 0,0.0458 1.25872,0.0832 2.79724,0.0832 2.56848,0 2.80433,0.0138 2.87993,0.16898 0.13556,0.27862 0.069,1.57694 -0.0858,1.67484 -0.18754,0.11873 -30.7079,0.11215 -30.89476,-0.007 -0.10968,-0.0697 -0.14521,-0.28638 -0.14521,-0.89194 v -0.79995 l -3.05924,-0.0486 c -2.88397,-0.0455 -3.07467,-0.0594 -3.32228,-0.24443 -0.62446,-0.46656 -0.7553,-1.1884 -0.32194,-1.77457 0.46691,-0.63154 -0.71976,-0.5886 16.28944,-0.5886 z m -41.319957,1.75028 c -0.03355,-10e-4 -0.0716,0.005 -0.106454,0.0186 v -5.2e-4 c -0.07703,0.0309 -0.05463,0.0544 0.05788,0.0584 0.101817,0.004 0.159214,-0.0185 0.127124,-0.0506 -0.01605,-0.0157 -0.045,-0.0245 -0.07855,-0.0258 z m 0.560689,0.28267 c -0.04616,0 -0.05947,0.0309 -0.0217,0.092 0.03283,0.0532 0.133422,0.0959 0.223242,0.0951 0.140739,-0.001 0.143452,-0.0144 0.0186,-0.0951 -0.09457,-0.0611 -0.17398,-0.092 -0.220142,-0.092 z m 28.848368,9.84643 h 6.30814 c 5.47556,0 6.35575,0.0196 6.66626,0.14935 0.45533,0.19027 0.76553,0.48023 0.99787,0.93327 0.17086,0.33358 0.18346,0.61042 0.18346,4.01268 v 3.65455 l -0.2496,0.38551 c -0.13747,0.21198 -0.40626,0.4921 -0.59686,0.6227 l 0.001,5.2e-4 -0.34623,0.23719 -6.58151,0.0264 -6.581,0.0258 -0.41961,-0.28164 c -0.23067,-0.15492 -0.52053,-0.44901 -0.6444,-0.65371 l -0.22531,-0.37258 -10e-4,-3.73466 -0.001,-3.73517 0.31522,-0.41755 c 0.1734,-0.22988 0.50841,-0.51604 0.74466,-0.63562 z m -75.694087,15.32723 c -0.128411,0.006 -0.268555,0.0362 -0.423747,0.0889 -2.101769,0.71328 -3.680636,2.0129 -4.740279,3.90157 -0.695575,1.23978 -0.982369,2.42329 -0.982369,4.05402 0,1.63063 0.286212,2.81205 0.982885,4.0566 1.174353,2.09793 3.193361,3.59659 5.533513,4.10776 0.475611,0.10397 14.981431,0.12437 80.933044,0.11007 l 59.04497,-0.0124 3.90984,-5.02657 h -32.38768 c -54.871289,0 -52.066093,0.0247 -61.134773,-0.5364 -17.654423,-1.09225 -32.79914,-3.66396 -45.29491,-7.69152 -1.248278,-0.40233 -2.534977,-0.85044 -2.859257,-0.9958 -0.702107,-0.31474 -1.307198,-0.83703 -1.653129,-1.42731 -0.263135,-0.44908 -0.542877,-0.64705 -0.928108,-0.6289 z m 50.458935,0.60823 c 0.530879,0 1.049648,0.0448 1.152385,0.0997 0.177308,0.0949 0.186551,0.22716 0.186551,2.58847 0,1.8066 -0.0316,2.51998 -0.115755,2.60398 -0.186557,0.18662 -2.147544,0.15669 -2.339909,-0.0357 -0.129826,-0.12983 -0.151928,-0.49866 -0.151928,-2.5523 0,-2.05368 0.0221,-2.42295 0.151928,-2.55282 0.117722,-0.11778 0.368012,-0.15141 1.116728,-0.15141 z m 96.807012,0 c 0.44459,0 0.91997,0.0421 1.05627,0.094 l 0.24753,0.0946 v 2.50993 c 0,2.38276 -0.009,2.51476 -0.18656,2.60966 -0.24005,0.12887 -2.02993,0.12515 -2.25206,-0.004 -0.1542,-0.0898 -0.16898,-0.31979 -0.16898,-2.60707 v -2.50838 l 0.24753,-0.0946 c 0.13625,-0.052 0.61167,-0.094 1.05627,-0.094 z m -93.072356,0.0382 c 0.566079,0.004 1.118128,0.0574 1.179773,0.15503 0.05107,0.0809 0.09214,1.19625 0.09302,2.52801 0.0013,2.03931 -0.02051,2.40538 -0.150378,2.53525 -0.11933,0.11891 -0.362606,0.15017 -1.134298,0.14418 -1.014317,-0.008 -1.221275,-0.0425 -1.345137,-0.22428 -0.03981,-0.0584 -0.06921,-1.17965 -0.06511,-2.49132 0.0065,-2.04749 0.02947,-2.40269 0.160197,-2.51096 0.116125,-0.0962 0.69586,-0.14025 1.261939,-0.13591 z" /><path
       id="path4739"
       style="mix-blend-mode:multiply;fill:#000000;fill-opacity:0.5;stroke:none;stroke-width:0.3;stroke-dasharray:none;stroke-opacity:1;filter:url(#filter4883)"
       inkscape:label="sticker_crease_shadow"
       d="m 172.26466,194.24535 19.57555,-25.16591 c -20.71167,0.0139 -23.56753,0.0548 -24.11843,0.17518 -1.04243,0.22774 -1.46124,0.39778 -2.24482,0.91054 -1.08885,0.71254 -2.09151,1.82581 -2.67167,2.96675 -0.3461,0.68066 -0.69603,2.31361 -0.69505,3.24683 8.4e-4,1.27544 0.40994,2.86214 0.93224,3.61631 0.20291,0.29297 0.36475,0.70832 0.47594,1.22008 0.11377,0.52378 0.2826,0.95068 0.51883,1.3131 0.42832,0.65712 2.42169,3.497 7.86412,11.20294 z" /><path
       id="path4881"
       style="fill:#f2f2f2;stroke:#000000;stroke-width:0.3;stroke-dasharray:none;stroke-opacity:1"
       inkscape:label="sticker_crease"
       d="m 172.26466,194.24535 19.57555,-25.16591 c -20.71167,0.0139 -23.56753,0.0548 -24.11843,0.17518 -1.04243,0.22774 -1.46124,0.39778 -2.24482,0.91054 -1.08885,0.71254 -2.09151,1.82581 -2.67167,2.96675 -0.3461,0.68066 -0.69603,2.31361 -0.69505,3.24683 8.4e-4,1.27544 0.40994,2.86214 0.93224,3.61631 0.20291,0.29297 0.36475,0.70832 0.47594,1.22008 0.11377,0.52378 0.2826,0.95068 0.51883,1.3131 0.42832,0.65712 2.42169,3.497 7.86412,11.20294 z"
       inkscape:export-filename=".\path4881.svg"
       inkscape:export-xdpi="96"
       inkscape:export-ydpi="96" /></g></svg>
