<?xml version="1.0" encoding="UTF-8" standalone="no"?>
<!-- Created with Inkscape (http://www.inkscape.org/) -->

<svg
   width="172.70831mm"
   height="172.70831mm"
   viewBox="0 0 172.70831 172.70832"
   version="1.1"
   id="svg5"
   xml:space="preserve"
   xmlns="http://www.w3.org/2000/svg"
   xmlns:svg="http://www.w3.org/2000/svg"><defs
     id="defs2" /><style
     type="text/css"
     id="style2665">
	.st0{fill:#C43124;stroke:#010202;stroke-width:5;stroke-miterlimit:10;}
	.st1{fill:#E8A627;stroke:#010202;stroke-width:5;stroke-miterlimit:10;}
	.st2{fill:#F9DE59;stroke:#010202;stroke-width:5;stroke-miterlimit:10;}
</style><path
     id="rect341"
     style="fill:#000000;fill-opacity:1;stroke-width:0.286537"
     d="M 81.94952,2.2443466e-8 V 24.804171 A 61.704325,61.704325 0 0 0 24.537004,81.949004 H -1.0716441e-8 v 8.810314 H 24.537004 A 61.704325,61.704325 0 0 0 81.94952,147.90415 v 24.80417 h 8.809798 V 147.87987 A 61.704325,61.704325 0 0 0 147.61993,90.759318 h 25.08839 V 81.949004 H 147.61631 A 61.704325,61.704325 0 0 0 90.759318,24.830526 V 2.2443466e-8 Z M 81.94952,31.245638 V 81.949004 H 30.984672 A 55.270698,55.270698 0 0 1 81.94952,31.245638 Z m 8.809798,0.04909 A 55.270698,55.270698 0 0 1 141.16916,81.949004 H 90.759318 Z M 30.984672,90.759318 H 81.94952 V 141.46269 A 55.270698,55.270698 0 0 1 30.984672,90.759318 Z m 59.774646,0 H 141.17123 A 55.270698,55.270698 0 0 1 90.759318,141.42393 Z" /></svg>
