<?xml version="1.0" encoding="UTF-8" standalone="no"?>
<!-- Created with Inkscape (http://www.inkscape.org/) -->

<svg
   width="105.7423mm"
   height="105.8629mm"
   viewBox="0 0 105.7423 105.8629"
   version="1.1"
   id="svg5"
   xml:space="preserve"
   xmlns="http://www.w3.org/2000/svg"
   xmlns:svg="http://www.w3.org/2000/svg"><defs
     id="defs2"><filter
       style="color-interpolation-filters:sRGB"
       id="filter4313"
       x="-0.028516231"
       y="-0.028480919"
       width="1.0570669"
       height="1.0569618"><feGaussianBlur
         stdDeviation="1.1260766"
         id="feGaussianBlur4315" /></filter><filter
       style="color-interpolation-filters:sRGB"
       id="filter4319"
       x="-0.044490322"
       y="-0.03469488"
       width="1.0889806"
       height="1.0693898"><feGaussianBlur
         stdDeviation="0.75925904"
         id="feGaussianBlur4321" /></filter></defs><style
     type="text/css"
     id="style2665">
	.st0{fill:#C43124;stroke:#010202;stroke-width:5;stroke-miterlimit:10;}
	.st1{fill:#E8A627;stroke:#010202;stroke-width:5;stroke-miterlimit:10;}
	.st2{fill:#F9DE59;stroke:#010202;stroke-width:5;stroke-miterlimit:10;}
</style><g
     id="layer11"
     style="display:inline"
     transform="translate(-56.296262,-87.16776)"><path
       id="path3756"
       style="mix-blend-mode:normal;fill:#000000;fill-opacity:0.5;stroke:#000000;stroke-width:0.3;paint-order:stroke fill markers;filter:url(#filter4313)"
       d="M 109.22744,90.020345 A 50.078861,50.078861 0 0 0 59.148844,140.09894 50.078861,50.078861 0 0 0 109.22744,190.17806 50.078861,50.078861 0 0 0 159.18253,143.4145 L 118.34885,90.89316 a 50.078861,50.078861 0 0 0 -9.12141,-0.872815 z" /><path
       id="path4310"
       style="fill:#d30c7b;stroke:#000000;stroke-width:0.3;paint-order:normal"
       d="M 109.22744,90.020345 A 50.078861,50.078861 0 0 0 59.148844,140.09894 50.078861,50.078861 0 0 0 109.22744,190.17806 50.078861,50.078861 0 0 0 159.18253,143.4145 L 118.34885,90.89316 a 50.078861,50.078861 0 0 0 -9.12141,-0.872815 z" /><path
       d="m 151.30774,139.27868 h -12.339 c -0.20523,-7.64198 -3.26925,-14.79708 -8.69591,-20.22419 -5.42805,-5.4276 -12.58408,-8.49208 -20.227,-8.69638 V 98.0191 c 0,-0.447975 -0.36319,-0.811173 -0.81116,-0.811173 -0.44843,0 -0.81163,0.363198 -0.81163,0.811173 v 12.34179 c -15.763923,0.42296 -28.502263,13.1576 -28.931233,28.92012 h -12.34412 c -0.44797,0 -0.81117,0.3632 -0.81117,0.81117 0,0.44843 0.3632,0.81164 0.81117,0.81164 h 12.34272 c 0.20198,7.64707 3.26647,14.80772 8.69637,20.23855 5.42991,5.42992 12.590113,8.49347 20.235793,8.69593 v 12.34086 c 0,0.44797 0.36319,0.81116 0.81164,0.81116 0.44797,0 0.81117,-0.36319 0.81117,-0.81116 V 169.8383 c 7.64291,-0.2043 14.79893,-3.26879 20.22698,-8.69593 5.42992,-5.43083 8.49439,-12.59148 8.69592,-20.23855 h 12.339 c 0.44798,0 0.81117,-0.36321 0.81117,-0.81164 0.009,-0.44937 -0.35671,-0.81071 -0.80145,-0.81071 z m -22.18565,-19.07716 c 5.1209,5.12092 8.0163,11.86879 8.22105,19.07716 H 124.489 c -0.19737,-3.77512 -1.76087,-7.29684 -4.45382,-9.9898 -2.69387,-2.6934 -6.21652,-4.25692 -9.99211,-4.45427 v -12.85323 c 7.20837,0.2043 13.9581,3.10155 19.07716,8.22061 z M 108.4235,139.27868 H 95.594827 c 0.19595,-3.3415 1.58853,-6.45603 3.97525,-8.8423 2.388583,-2.3895 5.507733,-3.78207 8.853423,-3.97617 z m 0,1.62143 v 12.83192 c -3.34615,-0.19365 -6.46484,-1.58668 -8.853423,-3.97572 -2.39044,-2.38998 -3.783,-5.51006 -3.97665,-8.8562 h 12.827763 z m 1.62142,0 h 12.82127 c -0.40258,6.88965 -5.93302,12.42333 -12.82127,12.83145 v -12.83238 z m 0,-1.62143 v -12.81755 c 3.34243,0.19549 6.45742,1.58806 8.84461,3.97525 2.38673,2.38674 3.77931,5.50126 3.97525,8.8423 H 110.04631 Z M 89.332427,120.20152 c 5.12368,-5.12323 11.876223,-8.01908 19.088283,-8.22153 v 12.85324 c -7.78327,0.40674 -14.042883,6.66311 -14.456123,14.44545 h -12.85368 c 0.20846,-7.20837 3.10386,-13.95348 8.2229,-19.07716 z m 0,39.78966 c -5.12415,-5.12416 -8.02001,-11.87715 -8.22152,-19.09061 h 12.85323 c 0.19456,3.78023 1.75854,7.30659 4.4552,10.0037 2.695723,2.69573 6.222093,4.25971 10.001373,4.4552 v 12.85323 c -7.21299,-0.20384 -13.967363,-3.09923 -19.091063,-8.22293 z m 20.712493,8.2229 v -12.8523 c 3.7756,-0.1978 7.29823,-1.76085 9.99212,-4.45472 2.69665,-2.69666 4.26016,-6.22348 4.4552,-10.00371 h 12.8523 c -0.42157,14.86611 -12.42935,26.88314 -27.30009,27.30935 z"
       id="path3371"
       style="fill:#f2f2f2;stroke:#000000;stroke-width:1.463;stroke-linecap:butt;stroke-dasharray:none;stroke-opacity:1;paint-order:stroke fill markers" /><path
       id="path4141"
       style="fill:#000000;fill-opacity:0.5;stroke:none;stroke-width:0.3;paint-order:stroke fill markers;filter:url(#filter4319)"
       d="M 159.18253,143.4145 118.34885,90.89316 a 50.078861,50.078861 0 0 0 -0.12403,3.31556 50.078861,50.078861 0 0 0 40.95771,49.20578 z" /><path
       id="path4317"
       style="fill:#f2f2f2;stroke:#000000;stroke-width:0.3;paint-order:normal"
       d="M 159.18253,143.4145 118.34885,90.89316 a 50.078861,50.078861 0 0 0 -0.12403,3.31556 50.078861,50.078861 0 0 0 40.95771,49.20578 z" /></g></svg>
