<?xml version="1.0" encoding="UTF-8" standalone="no"?>
<!-- Created with Inkscape (http://www.inkscape.org/) -->

<svg
   width="192.60838mm"
   height="83.005127mm"
   viewBox="0 0 192.60838 83.005127"
   version="1.1"
   id="svg5"
   xml:space="preserve"
   inkscape:version="1.2.2 (732a01da63, 2022-12-09)"
   sodipodi:docname="logo_design.svg"
   inkscape:export-filename="logo_design.svg"
   inkscape:export-xdpi="96"
   inkscape:export-ydpi="96"
   xmlns:inkscape="http://www.inkscape.org/namespaces/inkscape"
   xmlns:sodipodi="http://sodipodi.sourceforge.net/DTD/sodipodi-0.dtd"
   xmlns="http://www.w3.org/2000/svg"
   xmlns:svg="http://www.w3.org/2000/svg"><sodipodi:namedview
     id="namedview7"
     pagecolor="#ffffff"
     bordercolor="#000000"
     borderopacity="0.25"
     inkscape:showpageshadow="2"
     inkscape:pageopacity="0.0"
     inkscape:pagecheckerboard="0"
     inkscape:deskcolor="#d1d1d1"
     inkscape:document-units="mm"
     showgrid="false"
     inkscape:zoom="1.4142136"
     inkscape:cx="348.60364"
     inkscape:cy="680.59028"
     inkscape:window-width="1920"
     inkscape:window-height="991"
     inkscape:window-x="-9"
     inkscape:window-y="-9"
     inkscape:window-maximized="1"
     inkscape:current-layer="layer1" /><defs
     id="defs2"><filter
       inkscape:collect="always"
       style="color-interpolation-filters:sRGB"
       id="filter865"
       x="-0.018306172"
       y="-0.060639367"
       width="1.0366123"
       height="1.1212786"><feGaussianBlur
         inkscape:collect="always"
         stdDeviation="1.4172456"
         id="feGaussianBlur867" /></filter><filter
       style="color-interpolation-filters:sRGB"
       inkscape:label="Drop Shadow"
       id="filter3180"
       x="-0.01013613"
       y="-0.0082145501"
       width="1.0115542"
       height="1.0143998"><feFlood
         flood-opacity="1"
         flood-color="rgb(0,0,0)"
         result="flood"
         id="feFlood3170" /><feComposite
         in="flood"
         in2="SourceGraphic"
         operator="out"
         result="composite1"
         id="feComposite3172" /><feGaussianBlur
         in="composite1"
         stdDeviation="0"
         result="blur"
         id="feGaussianBlur3174" /><feOffset
         dx="-1.5"
         dy="-0.1"
         result="offset"
         id="feOffset3176" /><feComposite
         in="offset"
         in2="SourceGraphic"
         operator="atop"
         result="composite2"
         id="feComposite3178" /></filter><filter
       inkscape:collect="always"
       style="color-interpolation-filters:sRGB"
       id="filter3423"
       x="-0.035236903"
       y="-0.081452094"
       width="1.0704738"
       height="1.1629041"><feGaussianBlur
         inkscape:collect="always"
         stdDeviation="1.1032422"
         id="feGaussianBlur3425" /></filter><filter
       inkscape:collect="always"
       style="color-interpolation-filters:sRGB"
       id="filter14087"
       x="-0.13588123"
       y="-0.13231599"
       width="1.2717625"
       height="1.264632"><feGaussianBlur
         inkscape:collect="always"
         stdDeviation="1.0189672"
         id="feGaussianBlur14089" /></filter><filter
       style="color-interpolation-filters:sRGB"
       inkscape:label="Drop Shadow"
       id="filter3534"
       x="-0.0066227764"
       y="0"
       width="1.0066228"
       height="1.0240941"><feFlood
         flood-opacity="1"
         flood-color="rgb(212,159,17)"
         result="flood"
         id="feFlood3524" /><feComposite
         in="flood"
         in2="SourceGraphic"
         operator="out"
         result="composite1"
         id="feComposite3526" /><feGaussianBlur
         in="composite1"
         stdDeviation="0"
         result="blur"
         id="feGaussianBlur3528" /><feOffset
         dx="-0.5"
         dy="0.5"
         result="offset"
         id="feOffset3530" /><feComposite
         in="offset"
         in2="SourceGraphic"
         operator="atop"
         result="composite2"
         id="feComposite3532" /></filter></defs><g
     inkscape:label="Logo"
     inkscape:groupmode="layer"
     id="layer1"
     style="display:inline"
     transform="translate(-10.819109,-144.9405)"><g
       id="g873"
       inkscape:label="battleship_sticker"><path
         style="fill:#000000;fill-opacity:0.5;stroke:none;stroke-width:0;stroke-dasharray:none;stroke-opacity:1;filter:url(#filter865)"
         d="m 25.3151,204.24368 c -0.481154,-0.10467 -1.28306,-0.27836 -1.782013,-0.38596 -0.498952,-0.10761 -1.050067,-0.23544 -1.224701,-0.28405 -0.523891,-0.14584 -1.515809,-0.92681 -1.970067,-1.55109 -0.671292,-0.92256 -0.959577,-2.33347 -1.085844,-5.31427 l -0.04673,-1.10323 -0.693963,-0.712 c -0.451726,-0.46348 -0.899796,-0.8204 -1.283634,-1.02251 -0.942558,-0.4963 -1.617123,-1.03592 -2.066701,-1.65326 -0.358002,-0.49159 -0.455222,-0.72513 -0.672745,-1.61601 -0.357604,-1.46459 -0.357604,-2.80296 0,-4.26755 0.217523,-0.89089 0.314743,-1.12442 0.672745,-1.61601 0.233824,-0.32108 0.672033,-0.75929 0.993112,-0.99312 0.485692,-0.3537 0.736116,-0.4593 1.6179,-0.68226 l 1.043264,-0.2638 20.466095,-0.0474 20.466094,-0.0474 0.212318,-0.89939 c 0.303522,-1.28574 0.786909,-1.93587 2.215973,-2.98038 0.455828,-0.33317 0.706216,-0.43587 1.585684,-0.65041 0.587889,-0.14341 1.297281,-0.25476 1.622971,-0.25476 0.458412,0 0.568475,-0.0264 0.529897,-0.12689 -0.02678,-0.0698 -0.09692,-0.372 -0.155853,-0.67158 -0.102003,-0.51847 -0.08858,-0.61931 0.278895,-2.09558 0.351269,-1.41116 0.422644,-1.60119 0.792164,-2.10901 l 0.406112,-0.55812 -0.147067,-0.6693 c -0.194669,-0.88593 -0.189459,-0.99325 0.107202,-2.20824 0.218294,-0.89404 0.314648,-1.1248 0.681046,-1.63105 0.392231,-0.54194 1.576492,-1.54137 1.82802,-1.54272 0.38974,-0.002 0.799304,-0.22201 1.011994,-0.54341 0.215971,-0.32635 0.226286,-0.38677 0.137064,-0.80279 -0.245365,-1.1441 -0.230743,-1.80896 0.06666,-3.03104 0.318594,-1.30916 0.477196,-1.66312 1.14807,-2.56223 0.527265,-0.70663 0.764758,-0.93995 1.499096,-1.47275 0.772652,-0.5606 1.310243,-0.79497 2.445644,-1.0662 0.868742,-0.20753 1.168464,-0.2406 1.791692,-0.19765 0.411636,0.0284 0.746974,0.0229 0.745197,-0.0121 -0.0018,-0.035 -0.06237,-0.30856 -0.134661,-0.60794 -0.07229,-0.29937 -0.132067,-0.70473 -0.132846,-0.90081 -0.0023,-0.58429 0.448032,-2.33172 0.695263,-2.6977 0.123592,-0.18295 0.297121,-0.61414 0.385622,-0.9582 0.207177,-0.80543 0.789804,-1.6185 1.563572,-2.18199 0.491594,-0.35801 0.725127,-0.45523 1.616008,-0.67275 1.293541,-0.31584 1.522519,-0.31584 2.81606,0 0.893729,0.21822 1.123677,0.31421 1.621889,0.67702 0.319284,0.23252 0.712576,0.60851 0.873984,0.83553 0.248448,0.34945 0.719185,0.73761 1.523395,1.25618 0.09109,0.0587 0.374692,0.39256 0.630224,0.74183 0.410676,0.56132 0.494118,0.7559 0.718886,1.6764 0.139856,0.57275 0.254283,1.16554 0.254283,1.31731 0,0.15176 -0.114427,0.74456 -0.254283,1.31731 -0.225251,0.92248 -0.3075,1.11387 -0.720396,1.6764 -0.256363,0.34927 -0.611405,0.73215 -0.788981,0.85084 -0.278062,0.18587 -0.322867,0.26498 -0.322867,0.57013 v 0.35432 l 1.655614,-0.0555 c 1.615702,-0.0541 1.680764,-0.0492 2.698878,0.20648 0.898804,0.22569 1.129411,0.32401 1.6654,0.71005 0.40675,0.29296 0.785987,0.67502 1.095417,1.10355 0.426793,0.59107 0.497813,0.76068 0.723011,1.72667 l 0.249729,1.07121 -0.242815,1.08561 c -0.133547,0.59708 -0.291896,1.22849 -0.351884,1.40312 -0.194518,0.56627 -1.005986,1.56129 -1.621491,1.98827 l -0.577605,0.4007 0.255868,1.04891 c 0.271804,1.11424 0.304704,1.54765 0.163813,2.15804 -0.100623,0.43593 -0.01896,0.91003 0.497169,2.88627 0.203032,0.77741 0.320528,1.41927 0.302904,1.65472 -0.02311,0.30875 -0.0018,0.37639 0.107867,0.34279 0.432305,-0.13244 1.711247,-0.40876 1.894404,-0.4093 0.11854,-3.6e-4 0.676329,0.10789 1.239531,0.24053 0.89381,0.2105 1.09866,0.29598 1.611197,0.67235 0.3444,0.25289 0.75562,0.66894 0.99452,1.00621 0.34486,0.48684 0.44518,0.73469 0.65412,1.61594 0.19133,0.80703 0.32125,1.14813 0.57822,1.51817 l 0.33143,0.47727 41.59448,0.0433 c 22.87696,0.0238 44.00306,0.078 46.94688,0.12054 5.33652,0.077 5.35482,0.078 6.17353,0.30687 0.63717,0.17815 0.96237,0.33243 1.4515,0.68864 0.3467,0.25247 0.72221,0.58376 0.83448,0.73618 l 0.20411,0.27713 v 4.6536 c 0,2.55948 -0.0372,4.78327 -0.0826,4.94174 -0.0454,0.15847 -0.31689,0.60489 -0.6032,0.99204 -0.38843,0.52524 -0.55977,0.85634 -0.67505,1.3045 -0.20038,0.77899 -0.79394,1.60122 -1.55715,2.15703 -0.49159,0.35799 -0.72513,0.45522 -1.61601,0.67274 -0.78659,0.19206 -1.26304,0.25427 -1.94741,0.25427 -0.56871,0 -1.04229,0.0495 -1.27196,0.13288 -0.20125,0.0731 -0.5394,0.17673 -0.75146,0.2303 -0.26843,0.0678 -0.38555,0.14532 -0.38555,0.25516 0,0.29049 -0.87266,1.37876 -1.43194,1.78572 -0.30022,0.21846 -0.60755,0.48527 -0.68296,0.59293 -0.0754,0.10764 -0.40527,0.3888 -0.73305,0.62478 -0.52478,0.37781 -0.72347,0.45829 -1.6636,0.6738 l -1.06764,0.24474 -79.68329,0.0205 -79.683288,0.0205 z"
         id="path863"
         inkscape:label="ship_sticker_shadow" /><path
         style="fill:#f2f2f2;stroke:#000000;stroke-width:0.291;stroke-dasharray:none;stroke-opacity:1"
         d="m 25.3151,204.24368 c -0.481154,-0.10467 -1.28306,-0.27836 -1.782013,-0.38596 -0.498952,-0.10761 -1.050067,-0.23544 -1.224701,-0.28405 -0.523891,-0.14584 -1.515809,-0.92681 -1.970067,-1.55109 -0.671292,-0.92256 -0.959577,-2.33347 -1.085844,-5.31427 l -0.04673,-1.10323 -0.693963,-0.712 c -0.451726,-0.46348 -0.899796,-0.8204 -1.283634,-1.02251 -0.942558,-0.4963 -1.617123,-1.03592 -2.066701,-1.65326 -0.358002,-0.49159 -0.455222,-0.72513 -0.672745,-1.61601 -0.357604,-1.46459 -0.357604,-2.80296 0,-4.26755 0.217523,-0.89089 0.314743,-1.12442 0.672745,-1.61601 0.233824,-0.32108 0.672033,-0.75929 0.993112,-0.99312 0.485692,-0.3537 0.736116,-0.4593 1.6179,-0.68226 l 1.043264,-0.2638 20.466095,-0.0474 20.466094,-0.0474 0.212318,-0.89939 c 0.303522,-1.28574 0.786909,-1.93587 2.215973,-2.98038 0.455828,-0.33317 0.706216,-0.43587 1.585684,-0.65041 0.587889,-0.14341 1.297281,-0.25476 1.622971,-0.25476 0.458412,0 0.568475,-0.0264 0.529897,-0.12689 -0.02678,-0.0698 -0.09692,-0.372 -0.155853,-0.67158 -0.102003,-0.51847 -0.08858,-0.61931 0.278895,-2.09558 0.351269,-1.41116 0.422644,-1.60119 0.792164,-2.10901 l 0.406112,-0.55812 -0.147067,-0.6693 c -0.194669,-0.88593 -0.189459,-0.99325 0.107202,-2.20824 0.218294,-0.89404 0.314648,-1.1248 0.681046,-1.63105 0.392231,-0.54194 1.576492,-1.54137 1.82802,-1.54272 0.38974,-0.002 0.799304,-0.22201 1.011994,-0.54341 0.215971,-0.32635 0.226286,-0.38677 0.137064,-0.80279 -0.245365,-1.1441 -0.230743,-1.80896 0.06666,-3.03104 0.318594,-1.30916 0.477196,-1.66312 1.14807,-2.56223 0.527265,-0.70663 0.764758,-0.93995 1.499096,-1.47275 0.772652,-0.5606 1.310243,-0.79497 2.445644,-1.0662 0.868742,-0.20753 1.168464,-0.2406 1.791692,-0.19765 0.411636,0.0284 0.746974,0.0229 0.745197,-0.0121 -0.0018,-0.035 -0.06237,-0.30856 -0.134661,-0.60794 -0.07229,-0.29937 -0.132067,-0.70473 -0.132846,-0.90081 -0.0023,-0.58429 0.448032,-2.33172 0.695263,-2.6977 0.123592,-0.18295 0.297121,-0.61414 0.385622,-0.9582 0.207177,-0.80543 0.789804,-1.6185 1.563572,-2.18199 0.491594,-0.35801 0.725127,-0.45523 1.616008,-0.67275 1.293541,-0.31584 1.522519,-0.31584 2.81606,0 0.893729,0.21822 1.123677,0.31421 1.621889,0.67702 0.319284,0.23252 0.712576,0.60851 0.873984,0.83553 0.248448,0.34945 0.719185,0.73761 1.523395,1.25618 0.09109,0.0587 0.374692,0.39256 0.630224,0.74183 0.410676,0.56132 0.494118,0.7559 0.718886,1.6764 0.139856,0.57275 0.254283,1.16554 0.254283,1.31731 0,0.15176 -0.114427,0.74456 -0.254283,1.31731 -0.225251,0.92248 -0.3075,1.11387 -0.720396,1.6764 -0.256363,0.34927 -0.611405,0.73215 -0.788981,0.85084 -0.278062,0.18587 -0.322867,0.26498 -0.322867,0.57013 v 0.35432 l 1.655614,-0.0555 c 1.615702,-0.0541 1.680764,-0.0492 2.698878,0.20648 0.898804,0.22569 1.129411,0.32401 1.6654,0.71005 0.40675,0.29296 0.785987,0.67502 1.095417,1.10355 0.426793,0.59107 0.497813,0.76068 0.723011,1.72667 l 0.249729,1.07121 -0.242815,1.08561 c -0.133547,0.59708 -0.291896,1.22849 -0.351884,1.40312 -0.194518,0.56627 -1.005986,1.56129 -1.621491,1.98827 l -0.577605,0.4007 0.255868,1.04891 c 0.271804,1.11424 0.304704,1.54765 0.163813,2.15804 -0.100623,0.43593 -0.01896,0.91003 0.497169,2.88627 0.203032,0.77741 0.320528,1.41927 0.302904,1.65472 -0.02311,0.30875 -0.0018,0.37639 0.107867,0.34279 0.432305,-0.13244 1.711247,-0.40876 1.894404,-0.4093 0.11854,-3.6e-4 0.676329,0.10789 1.239531,0.24053 0.89381,0.2105 1.09866,0.29598 1.611197,0.67235 0.3444,0.25289 0.75562,0.66894 0.99452,1.00621 0.34486,0.48684 0.44518,0.73469 0.65412,1.61594 0.19133,0.80703 0.32125,1.14813 0.57822,1.51817 l 0.33143,0.47727 41.59448,0.0433 c 22.87696,0.0238 44.00306,0.078 46.94688,0.12054 5.33652,0.077 5.35482,0.078 6.17353,0.30687 0.63717,0.17815 0.96237,0.33243 1.4515,0.68864 0.3467,0.25247 0.72221,0.58376 0.83448,0.73618 l 0.20411,0.27713 v 4.6536 c 0,2.55948 -0.0372,4.78327 -0.0826,4.94174 -0.0454,0.15847 -0.31689,0.60489 -0.6032,0.99204 -0.38843,0.52524 -0.55977,0.85634 -0.67505,1.3045 -0.20038,0.77899 -0.79394,1.60122 -1.55715,2.15703 -0.49159,0.35799 -0.72513,0.45522 -1.61601,0.67274 -0.78659,0.19206 -1.26304,0.25427 -1.94741,0.25427 -0.56871,0 -1.04229,0.0495 -1.27196,0.13288 -0.20125,0.0731 -0.5394,0.17673 -0.75146,0.2303 -0.26843,0.0678 -0.38555,0.14532 -0.38555,0.25516 0,0.29049 -0.87266,1.37876 -1.43194,1.78572 -0.30022,0.21846 -0.60755,0.48527 -0.68296,0.59293 -0.0754,0.10764 -0.40527,0.3888 -0.73305,0.62478 -0.52478,0.37781 -0.72347,0.45829 -1.6636,0.6738 l -1.06764,0.24474 -79.68329,0.0205 -79.683288,0.0205 z"
         id="path307"
         inkscape:label="ship_sticker" /><path
         style="fill:#545863;fill-opacity:1;stroke:#000000;stroke-width:0.488;stroke-dasharray:none;stroke-opacity:1;filter:url(#filter3180)"
         d="m 28.667896,199.64355 c -0.154722,-0.0467 -0.743289,-0.18066 -1.307927,-0.29777 -0.564637,-0.11711 -1.056047,-0.24493 -1.092021,-0.28404 -0.03598,-0.0391 -0.111083,-1.23306 -0.166906,-2.65326 l -0.101497,-2.58216 -0.69029,-0.79952 c -1.49039,-1.72623 -2.809184,-2.85412 -3.826208,-3.27237 l -0.394499,-0.16223 4.34e-4,-0.57093 c 2.37e-4,-0.31401 0.02543,-0.77902 0.05597,-1.03334 l 0.05554,-0.46241 11.516085,0.0232 11.516086,0.0232 0.498482,0.23368 c 0.638567,0.29935 1.20333,0.82183 1.522791,1.40878 0.326338,0.59959 0.407465,1.65306 0.180032,2.33779 -0.297636,0.8961 -1.009845,1.566 -2.029844,1.90926 l -0.556488,0.18727 0.452584,0.10448 c 0.816083,0.18837 1.598889,0.81759 2.011214,1.61662 0.23623,0.45777 0.324443,1.62633 0.161439,2.13855 -0.279155,0.87719 -1.000436,1.62738 -1.875468,1.95064 -0.427737,0.15802 -0.869618,0.17 -8.05039,0.21827 -4.78793,0.0322 -7.701848,0.0197 -7.879123,-0.0338 z m 10.832042,-1.98127 c 0.16526,-0.0784 0.388628,-0.26617 0.496373,-0.41722 0.170227,-0.23864 0.195901,-0.38603 0.195901,-1.1246 0,-0.72146 -0.02738,-0.88663 -0.181099,-1.09252 -0.366707,-0.49116 -0.579393,-0.58146 -1.480712,-0.6286 l -0.841514,-0.044 v 1.72476 1.72477 h 0.75529 c 0.514906,0 0.850921,-0.0454 1.055761,-0.14258 z m 0.288614,-5.52925 c 0.345162,-0.29043 0.478091,-0.78593 0.426922,-1.59136 -0.07082,-1.1147 -0.450238,-1.43173 -1.714104,-1.43224 l -0.812483,-3.2e-4 v 1.62496 1.62496 h 0.915538 c 0.855353,0 0.933196,-0.0148 1.184127,-0.226 z m 8.123078,7.36268 c 0.02508,-0.0845 0.583484,-2.74268 1.240885,-5.90697 0.657403,-3.16429 1.21542,-5.8227 1.240041,-5.90757 0.04223,-0.14555 0.389563,-0.15303 6.121296,-0.13175 l 6.076532,0.0226 1.245654,5.92892 c 0.685111,3.26091 1.248359,5.97834 1.251663,6.03872 0.0047,0.086 -0.705826,0.1098 -3.276392,0.1098 h -3.282398 l -0.187383,-0.90032 c -0.103061,-0.49517 -0.212148,-1.02967 -0.242415,-1.18776 l -0.05503,-0.28745 -1.541251,0.0239 -1.541252,0.0239 -0.201273,0.96619 c -0.110699,0.53141 -0.223056,1.05513 -0.249683,1.16383 l -0.04841,0.19763 h -3.298095 c -3.09986,0 -3.295352,-0.009 -3.252485,-0.15371 z m 9.258987,-6.32419 c -0.18985,-0.90581 -0.414638,-1.9829 -0.499529,-2.39353 -0.102563,-0.49613 -0.172868,-0.68767 -0.209555,-0.57094 -0.06931,0.22054 -0.941945,4.4158 -0.941945,4.52847 0,0.0471 0.430696,0.0829 0.998106,0.0829 h 0.998105 z m 13.456758,1.64846 v -4.82945 l -2.173941,-0.0235 -2.17394,-0.0235 -0.02465,-1.12961 c -0.01457,-0.66751 0.01152,-1.17321 0.06379,-1.23619 0.05198,-0.0626 0.05613,-0.14011 0.01006,-0.18792 -0.07468,-0.0775 -0.311413,-0.86446 -0.843587,-2.80427 -0.132536,-0.48309 -0.277315,-0.92494 -0.321734,-0.98188 -0.05479,-0.0702 0.02696,-0.20365 0.254177,-0.41485 l 0.334936,-0.31131 7.861319,-0.002 7.86132,-0.002 v 3.53497 3.53497 l -2.130023,0.0235 -2.130022,0.0235 v 4.82942 4.82941 h -3.293849 -3.293848 v -4.82944 z m 16.337489,-0.002 v -4.83097 h -2.146797 c -1.180738,0 -2.168197,-0.0346 -2.194352,-0.077 -0.02616,-0.0423 -0.02207,-1.64313 0.0091,-3.55735 l 0.05662,-3.48041 h 5.168067 5.168067 v 0.39526 c 0,0.29449 -0.03392,0.39526 -0.133045,0.39526 -0.133898,0 -0.480867,0.48407 -0.481478,0.67173 -2.64e-4,0.068 0.392144,0.12048 1.207416,0.16136 1.066129,0.0535 2.610944,0.19629 4.170929,0.38561 0.277077,0.0336 0.547213,0.10458 0.600301,0.15767 0.05309,0.0531 0.118213,0.33572 0.144723,0.62808 l 0.0482,0.53155 -0.384992,0.0276 -0.384993,0.0276 v 1.84455 1.84456 l -2.130022,0.0235 -2.130022,0.0235 v 4.82942 4.82941 h -3.293849 -3.293849 z m 11.945692,-1.2297 v -6.06068 h 3.293104 3.29311 l 0.0227,4.85294 0.0227,4.85293 4.32592,0.0228 4.32592,0.0228 v 1.18496 1.18496 h -7.64172 -7.641734 z m 16.183174,0.022 0.0226,-6.03872 7.62226,-0.0225 7.62224,-0.0224 -0.0244,1.20823 -0.0245,1.20823 -4.282,0.0228 -4.282,0.0228 v 1.18411 1.18412 l 4.282,0.0228 4.282,0.0228 0.0244,1.20774 0.0244,1.20774 h -4.30644 -4.30644 v 1.22971 1.2297 h 4.30396 4.30396 v 1.18579 1.18578 h -7.64233 -7.64234 z m 16.40397,4.81306 v -1.22868 l 4.09118,-0.0245 4.09118,-0.0245 0.29531,-0.32231 c 0.54569,-0.59557 0.45573,-1.36173 -0.21212,-1.80655 -0.29693,-0.19778 -0.31559,-0.1988 -3.64519,-0.19929 -1.92536,0 -3.47896,-0.0372 -3.65806,-0.087 -0.17123,-0.0476 -0.44792,-0.22736 -0.61486,-0.39953 l -0.30352,-0.31305 -0.0254,-2.78791 c -0.0254,-2.78609 -0.0252,-2.78811 0.17743,-3.09146 0.43072,-0.64464 -0.009,-0.61068 7.90692,-0.61083 l 7.09275,-1.8e-4 v 1.18578 1.18579 l -3.88674,0.002 c -3.64278,0.002 -3.91006,0.0125 -4.25823,0.17056 -0.92629,0.42049 -0.96428,1.62207 -0.0677,2.14127 0.12163,0.0704 1.27493,0.11524 3.74871,0.14565 3.45209,0.0424 3.58141,0.0501 3.82086,0.22766 0.1363,0.10106 0.33834,0.31677 0.44898,0.47936 0.20036,0.29444 0.20105,0.30623 0.17568,2.99402 -0.0243,2.56719 -0.0343,2.71022 -0.20659,2.94083 -0.0996,0.13332 -0.29023,0.32389 -0.42362,0.42349 -0.23969,0.17898 -0.3265,0.18138 -7.39475,0.20457 l -7.15223,0.0235 v -1.22869 z m 16.51316,-4.83502 v -6.06068 h 3.29385 3.29385 v 2.41549 2.41549 h 2.02023 2.02022 v -2.41549 -2.41549 h 3.29385 3.29385 v 6.06068 6.06068 h -3.29385 -3.29385 v -2.41549 -2.41549 h -2.02022 -2.02023 v 2.41549 2.41549 h -3.29385 -3.29385 z m 18.44555,0 v -6.06068 h 3.29385 3.29385 v 6.06068 6.06068 h -3.29385 -3.29385 z m 7.83876,0.022 0.0226,-6.03872 9.1379,0.01 c 8.33742,0.009 9.16264,0.0227 9.4204,0.15597 0.22849,0.11816 0.28252,0.19964 0.28252,0.42608 0,0.23262 -0.10031,0.37332 -0.59289,0.83167 -0.3261,0.30343 -0.62254,0.55192 -0.65877,0.5522 -0.0362,2.7e-4 -0.0659,0.16504 -0.0659,0.36613 0,0.2575 0.079,0.48867 0.26706,0.78178 0.25322,0.39462 0.26573,0.45642 0.24154,1.19348 l -0.0255,0.7773 -0.24908,-0.0265 c -0.137,-0.0146 -0.29862,0.0146 -0.35916,0.0649 -0.0606,0.0503 -0.22454,0.60564 -0.36445,1.23421 l -0.25437,1.14285 h -0.84646 c -0.85327,0 -0.97093,0.0233 -3.30236,0.65289 -0.59296,0.16013 -1.05706,0.22195 -1.74138,0.23197 -0.70433,0.0103 -0.94443,0.0435 -0.97967,0.13534 -0.0346,0.0903 -0.23678,0.12167 -0.7839,0.12167 -0.40546,0 -0.73721,0.0175 -0.73721,0.0389 0,0.0214 0.083,0.17951 0.18435,0.35135 0.16684,0.28279 0.22104,0.31245 0.57093,0.31245 h 0.38659 v 0.7499 0.74991 l -0.81249,-0.0253 -0.81248,-0.0252 0.0294,-0.37263 c 0.0262,-0.33126 0.005,-0.38208 -0.19449,-0.45777 -0.12317,-0.0468 -0.36851,-0.30288 -0.54519,-0.56897 -0.27502,-0.4142 -0.34499,-0.47113 -0.48623,-0.39555 -0.15147,0.0811 -0.16499,0.21038 -0.16499,1.57842 v 1.49012 h -3.29445 -3.29446 z m 8.40915,-0.79066 c 0.16812,-0.0845 0.39539,-0.28788 0.50506,-0.45203 0.17991,-0.26932 0.19934,-0.40223 0.19905,-1.36146 -8.8e-4,-1.61335 -0.21817,-1.86192 -1.67084,-1.90799 l -0.83216,-0.0264 -0.0236,1.95086 -0.0236,1.95086 h 0.77025 c 0.55798,0 0.85448,-0.0425 1.07592,-0.15371 z M 73.047812,181.4119 c -0.03191,-0.12712 -0.210105,-0.45511 -0.395996,-0.72884 -0.300997,-0.44324 -0.333056,-0.54141 -0.292966,-0.89708 0.0364,-0.32296 -0.01786,-0.55749 -0.283544,-1.22551 -0.481521,-1.21072 -0.541061,-1.30922 -0.791417,-1.30922 -0.253068,0 -0.266869,-0.10251 -0.100522,-0.74661 0.108641,-0.42066 0.128016,-0.44103 0.459445,-0.48309 0.326583,-0.0414 0.347541,-0.0623 0.373107,-0.37039 l 0.02709,-0.32646 0.927689,-0.0249 0.92769,-0.0249 0.01142,-1.40538 0.01142,-1.40537 0.702688,-0.0439 0.702688,-0.0439 0.02726,-0.32939 0.02726,-0.32938 H 73.83869 72.296258 v -0.21736 -0.21736 l 1.374795,-0.0242 1.374797,-0.0242 0.0086,-1.01011 0.0086,-1.01012 h 0.614852 0.614851 v 1.08958 c 0,0.99119 -0.01461,1.09172 -0.161761,1.11332 -0.233334,0.0342 -0.254359,0.0735 -0.301302,0.562 -0.03888,0.40463 -0.02693,0.44111 0.144462,0.44111 0.176135,0 0.186847,0.0435 0.186847,0.75784 v 0.75783 l 0.329385,-0.0497 c 0.181162,-0.0273 0.877135,-0.0978 1.546607,-0.15657 l 1.217222,-0.10685 -0.05824,-1.50158 c -0.100465,-2.59043 -0.224693,-4.82518 -0.27079,-4.87128 -0.02438,-0.0244 -0.587072,-0.0798 -1.250421,-0.12319 -0.663349,-0.0434 -1.220115,-0.0929 -1.237257,-0.11003 -0.102992,-0.10299 -0.415056,-1.44964 -0.350817,-1.51388 0.04413,-0.0441 0.01393,-0.20348 -0.07073,-0.37319 -0.08642,-0.17323 -0.147748,-0.50359 -0.147748,-0.79583 0,-1.61938 1.836528,-2.57159 3.20788,-1.66324 0.562431,0.37253 0.862012,0.95711 0.861312,1.68067 -3.51e-4,0.32405 -0.0557,0.6648 -0.131754,0.81064 -0.07217,0.13837 -0.131213,0.26753 -0.131213,0.28702 0,0.0195 0.95851,0.0249 2.130022,0.0119 l 2.130022,-0.0235 0.02277,-4.41375 0.02277,-4.41376 h -0.40164 c -0.40022,0 -0.401542,-0.001 -0.374115,-0.28547 0.02592,-0.26881 0.04803,-0.28579 0.378868,-0.29099 l 0.351344,-0.006 0.02499,-0.94425 0.02499,-0.94426 0.228792,0.0275 0.228794,0.0275 -0.01719,0.8974 -0.01719,0.89739 0.993114,0.0249 0.993115,0.0249 0.0273,0.28254 0.02731,0.28254 -0.993502,0.0249 -0.993502,0.0249 v 4.3918 4.3918 l 3.864783,6e-5 3.864782,6e-5 -0.03011,0.30737 c -0.01656,0.16905 -0.066,0.35097 -0.109855,0.40427 -0.0439,0.0533 -0.541339,0.1245 -1.106616,0.1583 -1.200279,0.0718 -2.763832,0.36117 -5.121528,0.94799 -0.42772,0.10646 -1.196799,0.20808 -1.800637,0.23792 l -1.054032,0.0521 -0.09804,2.28374 c -0.05392,1.25605 -0.113214,2.67899 -0.131754,3.16209 l -0.03371,0.87836 0.908279,0.0251 0.908279,0.0251 -0.05818,0.85324 c -0.032,0.46928 -0.09265,1.24743 -0.134783,1.72921 -0.04213,0.48179 -0.06417,0.88842 -0.04896,0.90362 0.0152,0.0152 0.614314,0.0305 1.331353,0.034 0.872942,0.004 1.314318,-0.0255 1.335817,-0.09 0.0574,-0.1722 -0.250799,-3.91076 -0.347505,-4.21538 -0.238746,-0.75202 0.174405,-1.71167 0.893872,-2.07625 0.905867,-0.45904 1.920953,-0.13855 2.366543,0.74717 0.237187,0.47147 0.278449,0.75091 0.171466,1.16124 -0.167904,0.64398 -0.04353,1.64838 0.427239,3.45015 0.266449,1.01978 0.26621,1.01255 0.112589,3.40364 l -0.117097,1.8226 H 81.77978 73.105826 Z m 17.493494,-4.0187 c 0.07968,-0.0797 -2.10717,-2.87832 -2.309114,-2.95509 -0.111649,-0.0425 -0.311011,-0.0889 -0.443028,-0.10327 l -0.240031,-0.0261 -0.213679,1.47129 c -0.117524,0.80921 -0.194731,1.52068 -0.17157,1.58105 0.03195,0.0833 0.439309,0.10542 1.688882,0.0918 0.905725,-0.01 1.665568,-0.0367 1.68854,-0.0597 z"
         id="path896"
         inkscape:label="battleship_text" /></g><g
       id="g3413"
       inkscape:label="Classic_sticker"
       transform="matrix(0.66921209,-0.08798069,0.08798069,0.66921209,-8.8038906,73.304434)"
       inkscape:export-filename="..\..\Users\D\Desktop\logo.svg"
       inkscape:export-xdpi="96"
       inkscape:export-ydpi="96"><path
         id="rect3356"
         style="fill:#000000;fill-opacity:0.5;stroke:none;stroke-width:0.3;stroke-linecap:round;stroke-dasharray:none;stroke-opacity:1;filter:url(#filter3423)"
         inkscape:label="classic_shadow"
         d="m 136.59683,207.83555 c -4.6046,0 -8.31148,3.70677 -8.31148,8.31137 v 15.88448 c 0,4.60461 3.70688,8.31137 8.31148,8.31137 h 58.51895 c 4.60461,0 8.31185,-3.70676 8.31185,-8.31137 v -5.73988 L 190.7019,207.83555 Z"
         transform="matrix(1.4393451,0,0,0.99816694,-90.499659,0.41076849)" /><path
         id="rect3421"
         style="fill:#1e96fc;fill-opacity:1;stroke:#000000;stroke-width:0.359588;stroke-linecap:round;stroke-dasharray:none;stroke-opacity:1"
         inkscape:label="classic_sticker"
         d="m 102.44336,207.86535 c -4.596163,0 -8.296135,3.69997 -8.296135,8.29613 v 15.85537 c 0,4.59616 3.699972,8.29613 8.296135,8.29613 h 91.56289 c 4.59616,0 8.29665,-3.69997 8.29665,-8.29613 v -5.72937 l -18.31671,-18.42213 z" /><text
         xml:space="preserve"
         style="font-size:28.2201px;font-family:'Bell MT';-inkscape-font-specification:'Bell MT';fill:#ffffff;fill-opacity:1;stroke:none;stroke-width:1.48155;stroke-linecap:round;stroke-dasharray:none;stroke-opacity:1;paint-order:stroke markers fill;filter:url(#filter3534)"
         x="109.42773"
         y="233.31392"
         id="text3252"
         inkscape:label="Classic_text"><tspan
           sodipodi:role="line"
           id="tspan3250"
           style="font-style:normal;font-variant:normal;font-weight:normal;font-stretch:normal;font-family:'Goudy Old Style';-inkscape-font-specification:'Goudy Old Style';fill:#ffe665;fill-opacity:1;stroke:none;stroke-width:1.48155;stroke-dasharray:none;stroke-opacity:1;paint-order:stroke markers fill"
           x="109.42773"
           y="233.31392">Classic</tspan></text><path
         id="rect3427"
         style="mix-blend-mode:multiply;fill:#000000;fill-opacity:0.5;stroke:none;stroke-width:0.26232;stroke-linecap:round;filter:url(#filter14087)"
         inkscape:label="classic_sticker_crease_shadow"
         d="m 202.30271,225.98173 c 0,0 -17.72607,3.16443 -17.8483,-6.35688 l -0.14919,-11.62103 z"
         sodipodi:nodetypes="cscc" /><path
         id="path14085"
         style="fill:#ffffff;stroke:#000000;stroke-width:0.26232;stroke-linecap:round"
         inkscape:label="classic_sticker_crease"
         d="m 202.30271,225.98173 c 0,0 -17.72607,3.16443 -17.8483,-6.35688 l -0.14919,-11.62103 z"
         sodipodi:nodetypes="cscc" /></g></g><style
     type="text/css"
     id="style2665">
	.st0{fill:#C43124;stroke:#010202;stroke-width:5;stroke-miterlimit:10;}
	.st1{fill:#E8A627;stroke:#010202;stroke-width:5;stroke-miterlimit:10;}
	.st2{fill:#F9DE59;stroke:#010202;stroke-width:5;stroke-miterlimit:10;}
</style></svg>
