<?xml version="1.0" encoding="UTF-8" standalone="no"?>
<!-- Created with Inkscape (http://www.inkscape.org/) -->

<svg
   width="154.28802mm"
   height="153.33418mm"
   viewBox="0 0 154.28802 153.33418"
   version="1.1"
   id="svg5"
   xml:space="preserve"
   inkscape:version="1.2.2 (732a01da63, 2022-12-09)"
   sodipodi:docname="logo_design.svg"
   inkscape:export-filename="logo_design.svg"
   inkscape:export-xdpi="96"
   inkscape:export-ydpi="96"
   xmlns:inkscape="http://www.inkscape.org/namespaces/inkscape"
   xmlns:sodipodi="http://sodipodi.sourceforge.net/DTD/sodipodi-0.dtd"
   xmlns="http://www.w3.org/2000/svg"
   xmlns:svg="http://www.w3.org/2000/svg"><sodipodi:namedview
     id="namedview7"
     pagecolor="#ffffff"
     bordercolor="#000000"
     borderopacity="0.25"
     inkscape:showpageshadow="2"
     inkscape:pageopacity="0.0"
     inkscape:pagecheckerboard="0"
     inkscape:deskcolor="#d1d1d1"
     inkscape:document-units="mm"
     showgrid="false"
     inkscape:zoom="0.69041105"
     inkscape:cx="137.59919"
     inkscape:cy="522.15271"
     inkscape:window-width="1920"
     inkscape:window-height="991"
     inkscape:window-x="-9"
     inkscape:window-y="-9"
     inkscape:window-maximized="1"
     inkscape:current-layer="layer18" /><defs
     id="defs2" /><style
     type="text/css"
     id="style2665">
	.st0{fill:#C43124;stroke:#010202;stroke-width:5;stroke-miterlimit:10;}
	.st1{fill:#E8A627;stroke:#010202;stroke-width:5;stroke-miterlimit:10;}
	.st2{fill:#F9DE59;stroke:#010202;stroke-width:5;stroke-miterlimit:10;}
</style><g
     inkscape:groupmode="layer"
     id="layer18"
     inkscape:label="hathcing"
     transform="translate(-31.732493,-68.855635)"><path
       id="rect871"
       style="fill:#000000;fill-opacity:1;stroke:none;stroke-width:0.397999"
       d="m 0.46940643,96.374884 c -1.18572268,-1.193677 -2.82870903,-1.932591 -4.65192803,-1.938686 0,0 -11.0830744,2.147302 -17.1699504,2.222102 -7.128779,0.0876 -23.523076,-0.623717 -23.523076,-0.623717 -2.138796,-0.0012 -4.410511,2.58342 -4.839739,4.864227 -0.429228,2.2808 1.037953,3.78368 3.290078,3.36961 0,0 7.774453,4.44834 24.101007,5.55062 9.733301,0.65714 18.0974692,-2.219 18.0974692,-2.219 3.57529426,-0.71689 6.5922002,-2.91339 6.6043899,-6.55982 0.00609,-1.823224 -0.722528,-3.471658 -1.90825067,-4.665336 z M 71.397695,175.05742 c -0.665544,-0.69621 -1.728439,-0.99666 -3.033717,-0.73847 0,0 -61.1892609,4.63437 -92.828687,4.89199 -31.718638,0.25826 -91.720951,-8.64707 -91.720951,-8.64707 -6.23274,-0.22911 -11.1718,4.58352 -11.07374,10.79084 0.0981,6.20732 5.19503,11.38834 11.42776,11.61752 0,0 60.679668,0.81592 93.120745,0.52195 30.916393,-0.28016 89.014523,-9.60748 89.014523,-9.60748 2.610562,-0.51641 5.17173,-3.06574 5.742392,-5.71601 0.28533,-1.32514 0.01722,-2.41707 -0.648325,-3.11327 z M 31.452393,136.21793 c -0.906794,-0.90949 -2.194697,-1.43673 -3.65181,-1.36928 0,0 -30.6326055,4.59243 -46.732145,4.70762 -19.631833,0.14046 -56.207708,-8.72703 -56.207708,-8.72703 -5.171315,0.0626 -9.385387,4.27892 -9.447973,9.45408 -0.06258,5.17515 4.050401,9.29101 9.221715,9.22842 0,0 36.038092,3.1816 55.289554,3.07393 16.4799155,-0.0922 47.38938,-7.18669 47.38938,-7.18669 2.914227,-0.1349 5.368929,-2.59637 5.503829,-5.51887 0.06745,-1.46125 -0.458049,-2.75269 -1.364842,-3.66218 z m -2.214616,86.53141 c -1.830371,-1.84387 -4.291854,-3.06687 -6.957274,-3.23862 0,0 -25.3473304,7.30063 -46.214064,6.4369 -20.240991,-0.83783 -50.98715,-3.33972 -50.98715,-3.33972 -2.822803,0.0438 -5.158003,2.35524 -5.235872,5.18252 -0.07787,2.82727 2.13211,5.06813 4.954913,5.02438 0,0 32.379542,8.80035 53.061311,9.62149 20.4238401,0.81094 45.428771,-3.7634 45.428771,-3.7634 5.330841,0.34347 9.39762,-3.6535 9.118357,-8.96148 -0.139628,-2.654 -1.338618,-5.1182 -3.168992,-6.96207 z"
       sodipodi:nodetypes="ssssssssssscscssscssscscscscssscscssscss"
       transform="rotate(-44.122006)"
       inkscape:label="line hatch" /></g><style
     type="text/css"
     id="style6963">.st0{fill:#EF4136;stroke:#BE1E2D;stroke-width:6;stroke-miterlimit:10;} .st1{fill:#BE1E2D;} .st2{fill:none;}</style></svg>
