<?xml version="1.0" encoding="UTF-8" standalone="no"?>
<!-- Created with Inkscape (http://www.inkscape.org/) -->

<svg
   width="93.046173mm"
   height="92.949821mm"
   viewBox="0 0 93.046173 92.949821"
   version="1.1"
   id="svg5"
   xml:space="preserve"
   inkscape:version="1.2.2 (732a01da63, 2022-12-09)"
   sodipodi:docname="logo_design.svg"
   inkscape:export-filename="logo_design.svg"
   inkscape:export-xdpi="96"
   inkscape:export-ydpi="96"
   xmlns:inkscape="http://www.inkscape.org/namespaces/inkscape"
   xmlns:sodipodi="http://sodipodi.sourceforge.net/DTD/sodipodi-0.dtd"
   xmlns="http://www.w3.org/2000/svg"
   xmlns:svg="http://www.w3.org/2000/svg"><sodipodi:namedview
     id="namedview7"
     pagecolor="#ffffff"
     bordercolor="#000000"
     borderopacity="0.25"
     inkscape:showpageshadow="2"
     inkscape:pageopacity="0.0"
     inkscape:pagecheckerboard="0"
     inkscape:deskcolor="#d1d1d1"
     inkscape:document-units="mm"
     showgrid="false"
     inkscape:zoom="5.6568542"
     inkscape:cx="447.42182"
     inkscape:cy="520.07704"
     inkscape:window-width="1920"
     inkscape:window-height="991"
     inkscape:window-x="-9"
     inkscape:window-y="-9"
     inkscape:window-maximized="1"
     inkscape:current-layer="g7843" /><defs
     id="defs2"><filter
       inkscape:collect="always"
       style="color-interpolation-filters:sRGB"
       id="filter4313"
       x="-0.028516231"
       y="-0.028480919"
       width="1.0570669"
       height="1.0569618"><feGaussianBlur
         inkscape:collect="always"
         stdDeviation="1.1260766"
         id="feGaussianBlur4315" /></filter><filter
       inkscape:collect="always"
       style="color-interpolation-filters:sRGB"
       id="filter4319"
       x="-0.044490322"
       y="-0.03469488"
       width="1.0889806"
       height="1.0693898"><feGaussianBlur
         inkscape:collect="always"
         stdDeviation="0.75925904"
         id="feGaussianBlur4321" /></filter></defs><style
     type="text/css"
     id="style2665">
	.st0{fill:#C43124;stroke:#010202;stroke-width:5;stroke-miterlimit:10;}
	.st1{fill:#E8A627;stroke:#010202;stroke-width:5;stroke-miterlimit:10;}
	.st2{fill:#F9DE59;stroke:#010202;stroke-width:5;stroke-miterlimit:10;}
</style><g
     inkscape:groupmode="layer"
     id="g7843"
     inkscape:label="randomize"
     style="display:inline"
     transform="translate(-62.644323,-93.624288)"><path
       id="path7833"
       style="display:inline;mix-blend-mode:normal;fill:#000000;fill-opacity:0.5;stroke:#000000;stroke-width:0.3;paint-order:stroke fill markers;filter:url(#filter4313)"
       inkscape:label="sticker_shadow"
       d="M 109.22744,90.020345 A 50.078861,50.078861 0 0 0 59.148844,140.09894 50.078861,50.078861 0 0 0 109.22744,190.17806 50.078861,50.078861 0 0 0 159.18253,143.4145 L 118.34885,90.89316 a 50.078861,50.078861 0 0 0 -9.12141,-0.872815 z"
       transform="matrix(-0.03988846,-0.83908811,0.83908811,-0.03988846,-4.0336421,237.28862)" /><path
       id="path7835"
       style="display:inline;fill:#f96e46;fill-opacity:1;stroke:#000000;stroke-width:0.252011;paint-order:normal"
       inkscape:label="sticker"
       d="m 67.144442,142.0464 a 42.068029,42.068029 0 0 0 44.017908,40.02279 42.068029,42.068029 0 0 0 40.02324,-44.01792 42.068029,42.068029 0 0 0 -41.23138,-40.051403 L 67.51297,134.35792 a 42.068029,42.068029 0 0 0 -0.368528,7.68848 z" /><path
       style="display:inline;fill:#f2f2f2;fill-opacity:1;stroke:#000000;stroke-width:0.3;stroke-dasharray:none;stroke-opacity:1"
       d="m 130.39231,111.42818 -15.4996,7.3027 3.95303,2.17887 -6.00883,10.40666 -3.74929,-6.4942 H 82.501003 v 10.18634 h 20.705467 l 3.74929,6.4942 -3.74929,6.4942 H 82.501003 v 10.18679 h 26.586617 l 3.74929,-6.49466 5.82122,10.08217 -3.91799,2.25308 14.90499,7.43821 1.79259,-17.04007 -3.94933,2.27105 -8.76987,-15.19077 9.04965,-15.6743 3.99268,2.20099 z"
       id="rect8052" /><path
       id="path7839"
       style="display:inline;mix-blend-mode:normal;fill:#000000;fill-opacity:0.5;stroke:none;stroke-width:0.3;paint-order:stroke fill markers;filter:url(#filter4319)"
       inkscape:label="crease_shadow"
       d="M 159.18253,143.4145 118.34885,90.89316 a 50.078861,50.078861 0 0 0 -0.12403,3.31556 50.078861,50.078861 0 0 0 40.95771,49.20578 z"
       transform="matrix(-0.03988846,-0.83908811,0.83908811,-0.03988846,-4.0336421,237.28862)" /><path
       id="path7841"
       style="display:inline;fill:#f2f2f2;stroke:#000000;stroke-width:0.252011;paint-order:normal"
       inkscape:label="crease"
       d="M 109.95421,97.999867 67.51297,134.35792 a 42.068029,42.068029 0 0 0 2.786991,-0.0282 42.068029,42.068029 0 0 0 39.654249,-36.329873 z"
       inkscape:export-filename="..\..\Users\D\Desktop\randomize.svg"
       inkscape:export-xdpi="96"
       inkscape:export-ydpi="96" /><path
       style="fill:#f2f2f2;fill-opacity:1;stroke:#000000;stroke-width:0.3;stroke-dasharray:none;stroke-opacity:1"
       d="m 106.95576,141.50275 5.88115,-10.18634"
       id="path9730" /><path
       style="fill:#f2f2f2;fill-opacity:1;stroke:#000000;stroke-width:0.3;stroke-dasharray:none;stroke-opacity:1"
       d="m 112.83691,151.68908 5.88161,-10.18633"
       id="path9732" /></g></svg>
