<?xml version="1.0" encoding="UTF-8" standalone="no"?>
<!-- Created with Inkscape (http://www.inkscape.org/) -->

<svg
   width="105.70019mm"
   height="105.77761mm"
   viewBox="0 0 105.70019 105.77761"
   version="1.1"
   id="svg5"
   xml:space="preserve"
   inkscape:version="1.2.2 (732a01da63, 2022-12-09)"
   sodipodi:docname="logo_design.svg"
   inkscape:export-filename="logo_design.svg"
   inkscape:export-xdpi="96"
   inkscape:export-ydpi="96"
   xmlns:inkscape="http://www.inkscape.org/namespaces/inkscape"
   xmlns:sodipodi="http://sodipodi.sourceforge.net/DTD/sodipodi-0.dtd"
   xmlns="http://www.w3.org/2000/svg"
   xmlns:svg="http://www.w3.org/2000/svg"><sodipodi:namedview
     id="namedview7"
     pagecolor="#ffffff"
     bordercolor="#000000"
     borderopacity="0.25"
     inkscape:showpageshadow="2"
     inkscape:pageopacity="0.0"
     inkscape:pagecheckerboard="0"
     inkscape:deskcolor="#d1d1d1"
     inkscape:document-units="mm"
     showgrid="false"
     inkscape:zoom="1.4142136"
     inkscape:cx="306.88434"
     inkscape:cy="479.77195"
     inkscape:window-width="1920"
     inkscape:window-height="991"
     inkscape:window-x="-9"
     inkscape:window-y="-9"
     inkscape:window-maximized="1"
     inkscape:current-layer="g1952" /><defs
     id="defs2"><filter
       inkscape:collect="always"
       style="color-interpolation-filters:sRGB"
       id="filter4313"
       x="-0.028516231"
       y="-0.028480919"
       width="1.0570669"
       height="1.0569618"><feGaussianBlur
         inkscape:collect="always"
         stdDeviation="1.1260766"
         id="feGaussianBlur4315" /></filter><filter
       inkscape:collect="always"
       style="color-interpolation-filters:sRGB"
       id="filter4319"
       x="-0.044490322"
       y="-0.03469488"
       width="1.0889806"
       height="1.0693898"><feGaussianBlur
         inkscape:collect="always"
         stdDeviation="0.75925904"
         id="feGaussianBlur4321" /></filter></defs><style
     type="text/css"
     id="style2665">
	.st0{fill:#C43124;stroke:#010202;stroke-width:5;stroke-miterlimit:10;}
	.st1{fill:#E8A627;stroke:#010202;stroke-width:5;stroke-miterlimit:10;}
	.st2{fill:#F9DE59;stroke:#010202;stroke-width:5;stroke-miterlimit:10;}
</style><g
     inkscape:groupmode="layer"
     id="g1952"
     inkscape:label="rotate"
     style="display:inline"
     transform="translate(-56.317319,-87.210393)"><path
       id="path3274"
       style="display:inline;mix-blend-mode:normal;fill:#000000;fill-opacity:0.5;stroke:#000000;stroke-width:0.3;paint-order:stroke fill markers;filter:url(#filter4313)"
       inkscape:label="sticker_shadow"
       d="M 109.22744,90.020345 A 50.078861,50.078861 0 0 0 59.148844,140.09894 50.078861,50.078861 0 0 0 109.22744,190.17806 50.078861,50.078861 0 0 0 159.18253,143.4145 L 118.34885,90.89316 a 50.078861,50.078861 0 0 0 -9.12141,-0.872815 z"
       transform="matrix(-0.82083895,-0.17855915,0.17855915,-0.82083895,173.76028,274.59092)" /><path
       id="path3276"
       style="display:inline;fill:#1e96fc;fill-opacity:1;stroke:#000000;stroke-width:0.252011;paint-order:normal"
       inkscape:label="sticker"
       d="M 100.1761,181.19516 A 42.068029,42.068029 0 0 0 150.22455,149.03069 42.068029,42.068029 0 0 0 118.06018,98.981808 42.068029,42.068029 0 0 0 68.705031,128.44722 l 24.139712,50.40279 a 42.068029,42.068029 0 0 0 7.331357,2.34515 z" /><path
       id="path2006"
       style="fill:#ffffff;stroke:#000000;stroke-width:0.3;stroke-dasharray:none;stroke-opacity:1"
       d="m 109.1607,110.21081 c -16.01892,0.006 -29.056962,12.8884 -29.255747,28.90608 l 5.348416,-7.14617 3.588153,7.14617 c 0.198,-11.08259 9.234811,-19.96533 20.319178,-19.97272 11.23121,9e-5 20.33585,9.10482 20.33582,20.33603 -0.65374,18.5113 -18.92678,20.96452 -18.92678,20.96452 l 0.88214,-8.03698 -17.470547,11.91132 15.601527,13.2416 c 0,0 0.1596,-8.81554 0.44893,-8.82399 15.76196,-0.46077 28.39803,-13.38295 28.39809,-29.25647 6e-5,-16.16498 -13.10421,-29.26933 -29.26918,-29.26939 z"
       sodipodi:nodetypes="cccccccccccsc"
       inkscape:export-filename="..\..\Users\D\Desktop\rotate.svg"
       inkscape:export-xdpi="96"
       inkscape:export-ydpi="96"
       inkscape:label="rotate" /><path
       id="path3278"
       style="display:inline;mix-blend-mode:normal;fill:#000000;fill-opacity:0.5;stroke:none;stroke-width:0.3;paint-order:stroke fill markers;filter:url(#filter4319)"
       inkscape:label="crease_shadow"
       d="M 159.18253,143.4145 118.34885,90.89316 a 50.078861,50.078861 0 0 0 -0.12403,3.31556 50.078861,50.078861 0 0 0 40.95771,49.20578 z"
       transform="matrix(-0.82083895,-0.17855915,0.17855915,-0.82083895,173.76028,274.59092)" /><path
       id="path3280"
       style="display:inline;fill:#f2f2f2;stroke:#000000;stroke-width:0.252011;paint-order:normal"
       inkscape:label="crease"
       d="m 68.705031,128.44722 24.139712,50.40279 a 42.068029,42.068029 0 0 0 0.693832,-2.69939 42.068029,42.068029 0 0 0 -24.833544,-47.7034 z"
       inkscape:export-filename="final\fire_button.svg"
       inkscape:export-xdpi="96"
       inkscape:export-ydpi="96" /></g></svg>
