<?xml version="1.0" encoding="UTF-8" standalone="no"?>
<!-- Created with Inkscape (http://www.inkscape.org/) -->

<svg
   width="121.23347mm"
   height="121.23347mm"
   viewBox="0 0 121.23347 121.23347"
   version="1.1"
   id="svg5"
   xml:space="preserve"
   inkscape:version="1.2.2 (732a01da63, 2022-12-09)"
   sodipodi:docname="ship.svg"
   inkscape:export-filename="logo_design.svg"
   inkscape:export-xdpi="96"
   inkscape:export-ydpi="96"
   xmlns:inkscape="http://www.inkscape.org/namespaces/inkscape"
   xmlns:sodipodi="http://sodipodi.sourceforge.net/DTD/sodipodi-0.dtd"
   xmlns="http://www.w3.org/2000/svg"
   xmlns:svg="http://www.w3.org/2000/svg"><sodipodi:namedview
     id="namedview7"
     pagecolor="#ffffff"
     bordercolor="#000000"
     borderopacity="0.25"
     inkscape:showpageshadow="2"
     inkscape:pageopacity="0.0"
     inkscape:pagecheckerboard="0"
     inkscape:deskcolor="#d1d1d1"
     inkscape:document-units="mm"
     showgrid="false"
     inkscape:zoom="1.4142136"
     inkscape:cx="240.4163"
     inkscape:cy="225.92061"
     inkscape:window-width="1920"
     inkscape:window-height="991"
     inkscape:window-x="-9"
     inkscape:window-y="-9"
     inkscape:window-maximized="1"
     inkscape:current-layer="layer13" /><defs
     id="defs2" /><style
     type="text/css"
     id="style2665">
	.st0{fill:#C43124;stroke:#010202;stroke-width:5;stroke-miterlimit:10;}
	.st1{fill:#E8A627;stroke:#010202;stroke-width:5;stroke-miterlimit:10;}
	.st2{fill:#F9DE59;stroke:#010202;stroke-width:5;stroke-miterlimit:10;}
</style><g
     inkscape:groupmode="layer"
     id="layer13"
     inkscape:label="ship_dot"
     transform="translate(-43.404569,-72.96459)"><path
       id="path409"
       style="fill:#545863;fill-opacity:1;fill-rule:evenodd;stroke:none;stroke-width:0.0741952"
       d="m 142.20358,135.14945 c 5.6727,-14.49008 0.64939,-26.41893 -18.59995,-34.33601 -15.78271,-6.491303 -32.593363,-2.975113 -42.402136,10.07623 -8.743397,11.63378 -5.788111,28.15721 7.554136,35.98333 11.74221,6.88759 28.36372,4.48675 36.13593,-6.21772 6.73188,-9.27164 6.00215,-26.3794 -4.70584,-32.38941 -9.08639,-5.09986 -22.628418,-4.55225 -33.185045,8.30763 -5.359453,6.52879 -0.05153,20.04692 8.029354,24.22891 6.421561,3.32326 19.592921,1.13842 23.252501,-4.89083 2.74568,-4.52359 -0.8974,-16.81271 -6.36915,-19.13048 -3.72851,-1.57935 -12.443242,0.31442 -14.630371,3.75966 -2.732037,4.3036 -2.115196,11.9884 3.312131,13.04514 5.96733,1.16189 11.96321,-5.93281 9.34451,-9.41045 -1.29829,-1.72416 -6.59599,-0.9866 -6.60802,2.04249 -0.003,0.80905 3.59648,2.11442 0.0403,3.04944 -5.963555,1.56798 -2.67382,-3.40779 -1.97878,-5.1292 1.24326,-3.07918 6.5912,-4.07576 9.17317,-2.08731 2.97428,2.29058 2.51148,6.52738 0.5565,9.94023 -2.89159,5.04792 -10.08405,4.37858 -12.978752,2.42455 -6.158256,-4.15703 -5.478266,-8.64252 -1.731222,-14.43699 4.682674,-7.24134 11.864694,-7.49013 19.377604,-3.27341 8.8537,4.96926 8.17563,14.624 4.37938,19.55038 -8.48814,11.01504 -17.94041,10.70359 -27.649231,5.00871 -11.031785,-6.47087 -10.036386,-19.11015 -6.023085,-27.56932 4.320802,-9.10731 29.223516,-14.149013 37.261126,-5.71502 10.32442,10.83357 0.62057,32.77983 -17.07619,38.91711 -8.80914,3.05502 28.07481,7.27285 35.52113,-11.74766 z"
       sodipodi:nodetypes="ssssssssssssassssssssssssss" /><path
       id="path703"
       style="fill:#545863;fill-opacity:1;fill-rule:evenodd;stroke:none;stroke-width:0.0727377"
       d="m 83.525204,145.37289 c 11.356921,11.16927 28.115276,20.02297 43.225236,7.67817 12.38881,-10.1216 16.17514,-25.98574 8.46136,-40.60306 -6.87593,-13.029663 -23.00533,-18.594914 -35.588129,-11.17812 -11.073848,6.52734 -15.788081,21.68869 -9.348473,33.44796 5.577616,10.18523 21.312952,17.90863 31.167012,11.82415 8.36179,-5.16307 13.47316,-16.82905 6.24165,-31.98257 -3.67132,-7.69323 -18.06339,-9.81347 -25.18092,-5.04945 -5.656047,3.78577 -9.137025,15.93765 -5.212706,21.95655 2.944316,4.51583 15.538536,7.43847 19.894356,3.96217 2.96808,-2.36877 4.86693,-10.62741 2.66423,-14.14753 -2.75152,-4.3971 -9.93946,-7.62316 -13.13927,-3.56969 -3.5182,4.45679 0.40023,12.96157 4.62142,12.45212 2.09279,-0.25257 3.62031,-5.07138 0.89265,-6.55779 -0.72855,-0.39697 -3.39611,1.99688 -2.76764,-1.45224 1.05396,-5.78404 4.18102,-0.5899 5.44622,0.83411 2.26319,2.54719 0.94857,7.53456 -1.914,8.73886 -3.29752,1.38726 -6.92806,-1.06715 -9.19763,-4.37606 -3.35694,-4.89416 0.22403,-10.62226 3.185,-12.10658 6.2992,-3.15779 10.06419,-0.39934 13.74049,5.57876 4.59429,7.47082 1.84591,13.6376 -5.06778,17.90661 -8.14766,5.03082 -16.576729,-0.24528 -19.449555,-5.84174 -6.423414,-12.51325 -2.229912,-20.31796 6.926265,-25.71499 10.40387,-6.13243 21.39399,0.86535 27.36397,8.36624 6.42741,8.07562 0.66773,31.49479 -10.2677,34.15011 -14.04674,3.4108 -23.951179,-2.42665 -31.143085,-14.86631 -4.42663,-7.65673 -14.863557,1.39351 -5.552892,10.55033 z"
       sodipodi:nodetypes="ssssssssssssassssssssssssss" /></g></svg>
