<?xml version="1.0" encoding="UTF-8" standalone="no"?>
<!-- Created with Inkscape (http://www.inkscape.org/) -->

<svg
   width="119.35039mm"
   height="220.36969mm"
   viewBox="0 0 119.35039 220.36969"
   version="1.1"
   id="svg5"
   xml:space="preserve"
   inkscape:version="1.2.2 (732a01da63, 2022-12-09)"
   sodipodi:docname="logo_design.svg"
   inkscape:export-filename="logo_design.svg"
   inkscape:export-xdpi="96"
   inkscape:export-ydpi="96"
   xmlns:inkscape="http://www.inkscape.org/namespaces/inkscape"
   xmlns:sodipodi="http://sodipodi.sourceforge.net/DTD/sodipodi-0.dtd"
   xmlns="http://www.w3.org/2000/svg"
   xmlns:svg="http://www.w3.org/2000/svg"><sodipodi:namedview
     id="namedview7"
     pagecolor="#ffffff"
     bordercolor="#000000"
     borderopacity="0.25"
     inkscape:showpageshadow="2"
     inkscape:pageopacity="0.0"
     inkscape:pagecheckerboard="0"
     inkscape:deskcolor="#d1d1d1"
     inkscape:document-units="mm"
     showgrid="false"
     inkscape:zoom="0.69041105"
     inkscape:cx="418.59121"
     inkscape:cy="523.60112"
     inkscape:window-width="1920"
     inkscape:window-height="991"
     inkscape:window-x="-9"
     inkscape:window-y="-9"
     inkscape:window-maximized="1"
     inkscape:current-layer="layer10" /><defs
     id="defs2"><filter
       inkscape:collect="always"
       style="color-interpolation-filters:sRGB"
       id="filter2541"
       x="-0.039325278"
       y="-0.020557053"
       width="1.0786506"
       height="1.0411141"><feGaussianBlur
         inkscape:collect="always"
         stdDeviation="1.8130222"
         id="feGaussianBlur2543" /></filter><filter
       inkscape:collect="always"
       style="color-interpolation-filters:sRGB"
       id="filter2547"
       x="-0.039216992"
       y="-0.020586753"
       width="1.078434"
       height="1.0411735"><feGaussianBlur
         inkscape:collect="always"
         stdDeviation="1.634938"
         id="feGaussianBlur2549" /></filter></defs><style
     type="text/css"
     id="style2665">
	.st0{fill:#C43124;stroke:#010202;stroke-width:5;stroke-miterlimit:10;}
	.st1{fill:#E8A627;stroke:#010202;stroke-width:5;stroke-miterlimit:10;}
	.st2{fill:#F9DE59;stroke:#010202;stroke-width:5;stroke-miterlimit:10;}
</style><g
     inkscape:groupmode="layer"
     id="layer10"
     inkscape:label="missile"
     transform="translate(-41.116258,-38.315394)"><path
       id="path380"
       style="fill:#000000;fill-opacity:0.5;stroke:none;stroke-width:0.3;stroke-dasharray:none;stroke-opacity:1;filter:url(#filter2541)"
       inkscape:label="sticker_shadow"
       d="m 105.36618,42.666646 c -0.0405,8.54e-4 -0.0805,0.0092 -0.12092,0.01085 -0.0846,0.0035 -0.16922,0.0048 -0.25322,0.01137 -0.0439,0.0032 -0.0882,0.0067 -0.13229,0.01085 -0.19961,0.01897 -0.40204,0.05023 -0.60513,0.08837 -0.0946,0.01778 -0.19139,0.04407 -0.28681,0.06615 -0.0553,0.01289 -0.1098,0.01892 -0.16484,0.03307 -0.0406,0.0104 -0.0807,0.02137 -0.12144,0.03256 -0.0491,0.01355 -0.0942,0.02991 -0.14315,0.04444 -0.0851,0.02524 -0.16748,0.04821 -0.25321,0.077 -0.0367,0.01225 -0.0734,0.03115 -0.11007,0.04393 -0.23242,0.08194 -0.46754,0.166645 -0.70487,0.275436 -8.788601,5.6075 -16.147535,10.91575 -22.284427,16.079638 l -26.273331,66.28122 c 1.319268,10.61274 3.877808,22.47554 6.880716,36.27013 2.416966,11.10482 5.486371,20.91455 8.875944,30.44827 L 45.467509,217.287 v 37.04683 h 26.696562 l 15.753043,-11.3099 h 12.461256 l -0.14004,9.07438 h 7.99124 l 0.14986,-9.07438 h 13.68185 c 0.001,-0.004 0.002,-0.008 0.004,-0.0124 l 9.60613,6.89674 22.40122,-43.36066 -15.54479,-15.95975 c 3.05012,-9.98695 6.00137,-20.12353 8.90385,-31.11748 12.3481,-46.773 20.13103,-78.441081 -38.9046,-116.107125 -0.34943,-0.160184 -0.6961,-0.283364 -1.03508,-0.386023 -0.0361,-0.01093 -0.0741,-0.02278 -0.11007,-0.03307 -0.0544,-0.01556 -0.11075,-0.02961 -0.16537,-0.04393 -0.0657,-0.01717 -0.13307,-0.0288 -0.19844,-0.04393 -0.0956,-0.02228 -0.18992,-0.04782 -0.28628,-0.06615 -0.20149,-0.03769 -0.39621,-0.06954 -0.59428,-0.08837 -0.12829,-0.0122 -0.25863,-0.01759 -0.38551,-0.02222 -0.0847,-0.0036 -0.16793,-0.01059 -0.25321,-0.01085 -0.0432,7.9e-5 -0.0893,-0.0011 -0.13229,0 z" /><path
       id="path2538"
       style="fill:#d30c7b;fill-opacity:1;stroke:#000000;stroke-width:0.3;stroke-dasharray:none;stroke-opacity:1"
       inkscape:label="sticker"
       d="m 105.36618,42.666646 c -0.0405,8.54e-4 -0.0805,0.0092 -0.12092,0.01085 -0.0846,0.0035 -0.16922,0.0048 -0.25322,0.01137 -0.0439,0.0032 -0.0882,0.0067 -0.13229,0.01085 -0.19961,0.01897 -0.40204,0.05023 -0.60513,0.08837 -0.0946,0.01778 -0.19139,0.04407 -0.28681,0.06615 -0.0553,0.01289 -0.1098,0.01892 -0.16484,0.03307 -0.0406,0.0104 -0.0807,0.02137 -0.12144,0.03256 -0.0491,0.01355 -0.0942,0.02991 -0.14315,0.04444 -0.0851,0.02524 -0.16748,0.04821 -0.25321,0.077 -0.0367,0.01225 -0.0734,0.03115 -0.11007,0.04393 -0.23242,0.08194 -0.46754,0.166645 -0.70487,0.275436 -8.788601,5.6075 -16.147535,10.91575 -22.284427,16.079638 l -26.273331,66.28122 c 1.319268,10.61274 3.877808,22.47554 6.880716,36.27013 2.416966,11.10482 5.486371,20.91455 8.875944,30.44827 L 45.467509,217.287 v 37.04683 h 26.696562 l 15.753043,-11.3099 h 12.461256 l -0.14004,9.07438 h 7.99124 l 0.14986,-9.07438 h 13.68185 c 0.001,-0.004 0.002,-0.008 0.004,-0.0124 l 9.60613,6.89674 22.40122,-43.36066 -15.54479,-15.95975 c 3.05012,-9.98695 6.00137,-20.12353 8.90385,-31.11748 12.3481,-46.773 20.13103,-78.441081 -38.9046,-116.107125 -0.34943,-0.160184 -0.6961,-0.283364 -1.03508,-0.386023 -0.0361,-0.01093 -0.0741,-0.02278 -0.11007,-0.03307 -0.0544,-0.01556 -0.11075,-0.02961 -0.16537,-0.04393 -0.0657,-0.01717 -0.13307,-0.0288 -0.19844,-0.04393 -0.0956,-0.02228 -0.18992,-0.04782 -0.28628,-0.06615 -0.20149,-0.03769 -0.39621,-0.06954 -0.59428,-0.08837 -0.12829,-0.0122 -0.25863,-0.01759 -0.38551,-0.02222 -0.0847,-0.0036 -0.16793,-0.01059 -0.25321,-0.01085 -0.0432,7.9e-5 -0.0893,-0.0011 -0.13229,0 z" /><path
       id="path2380"
       style="fill:#000000;fill-opacity:0.5;stroke:none;stroke-width:0.3;stroke-dasharray:none;stroke-opacity:1;filter:url(#filter2547)"
       d="M 80.139811,59.428931 53.866479,125.71016 C 78.926871,104.62309 83.437803,85.959362 80.139811,59.428931 Z M 121.06031,202.24347 v 37.04683 l 10.45983,10.7394 22.40121,-43.36066 -6.16448,-4.42557 z"
       inkscape:label="crease_shadow" /><path
       id="path2545"
       style="fill:#f2f2f2;fill-opacity:1;stroke:#000000;stroke-width:0.3;stroke-dasharray:none;stroke-opacity:1"
       d="M 80.139811,59.428931 53.866479,125.71016 C 78.926871,104.62309 83.437803,85.959362 80.139811,59.428931 Z M 121.06031,202.24347 v 37.04683 l 10.45983,10.7394 22.40121,-43.36066 -6.16448,-4.42557 z"
       inkscape:label="crease" /></g></svg>
