<?xml version="1.0" encoding="UTF-8" standalone="no"?>
<!-- Created with Inkscape (http://www.inkscape.org/) -->

<svg
   width="110.76733mm"
   height="61.001282mm"
   viewBox="0 0 110.76733 61.001282"
   version="1.1"
   id="svg5"
   xml:space="preserve"
   inkscape:version="1.2.2 (732a01da63, 2022-12-09)"
   sodipodi:docname="shots_mob.svg"
   inkscape:export-filename="logo_design.svg"
   inkscape:export-xdpi="96"
   inkscape:export-ydpi="96"
   xmlns:inkscape="http://www.inkscape.org/namespaces/inkscape"
   xmlns:sodipodi="http://sodipodi.sourceforge.net/DTD/sodipodi-0.dtd"
   xmlns="http://www.w3.org/2000/svg"
   xmlns:svg="http://www.w3.org/2000/svg"><sodipodi:namedview
     id="namedview7"
     pagecolor="#ffffff"
     bordercolor="#000000"
     borderopacity="0.25"
     inkscape:showpageshadow="2"
     inkscape:pageopacity="0.0"
     inkscape:pagecheckerboard="0"
     inkscape:deskcolor="#d1d1d1"
     inkscape:document-units="mm"
     showgrid="false"
     inkscape:zoom="0.69041105"
     inkscape:cx="418.59121"
     inkscape:cy="523.60112"
     inkscape:window-width="1920"
     inkscape:window-height="991"
     inkscape:window-x="-9"
     inkscape:window-y="-9"
     inkscape:window-maximized="1"
     inkscape:current-layer="layer10" /><defs
     id="defs2"><filter
       inkscape:collect="always"
       style="color-interpolation-filters:sRGB"
       id="filter2541"
       x="-0.039325278"
       y="-0.020557053"
       width="1.0786506"
       height="1.0411141"><feGaussianBlur
         inkscape:collect="always"
         stdDeviation="1.8130222"
         id="feGaussianBlur2543" /></filter><filter
       inkscape:collect="always"
       style="color-interpolation-filters:sRGB"
       id="filter2547"
       x="-0.039216992"
       y="-0.020586753"
       width="1.078434"
       height="1.0411735"><feGaussianBlur
         inkscape:collect="always"
         stdDeviation="1.634938"
         id="feGaussianBlur2549" /></filter></defs><style
     type="text/css"
     id="style2665">
	.st0{fill:#C43124;stroke:#010202;stroke-width:5;stroke-miterlimit:10;}
	.st1{fill:#E8A627;stroke:#010202;stroke-width:5;stroke-miterlimit:10;}
	.st2{fill:#F9DE59;stroke:#010202;stroke-width:5;stroke-miterlimit:10;}
</style><g
     inkscape:groupmode="layer"
     id="layer10"
     inkscape:label="missile"
     transform="translate(-45.407728,-117.9996)"><path
       id="path380"
       style="fill:#000000;fill-opacity:0.5;stroke:none;stroke-width:0.3;stroke-dasharray:none;stroke-opacity:1;filter:url(#filter2541)"
       inkscape:label="sticker_shadow"
       d="m 105.36618,42.666646 c -0.0405,8.54e-4 -0.0805,0.0092 -0.12092,0.01085 -0.0846,0.0035 -0.16922,0.0048 -0.25322,0.01137 -0.0439,0.0032 -0.0882,0.0067 -0.13229,0.01085 -0.19961,0.01897 -0.40204,0.05023 -0.60513,0.08837 -0.0946,0.01778 -0.19139,0.04407 -0.28681,0.06615 -0.0553,0.01289 -0.1098,0.01892 -0.16484,0.03307 -0.0406,0.0104 -0.0807,0.02137 -0.12144,0.03256 -0.0491,0.01355 -0.0942,0.02991 -0.14315,0.04444 -0.0851,0.02524 -0.16748,0.04821 -0.25321,0.077 -0.0367,0.01225 -0.0734,0.03115 -0.11007,0.04393 -0.23242,0.08194 -0.46754,0.166645 -0.70487,0.275436 -8.788601,5.6075 -16.147535,10.91575 -22.284427,16.079638 l -26.273331,66.28122 c 1.319268,10.61274 3.877808,22.47554 6.880716,36.27013 2.416966,11.10482 5.486371,20.91455 8.875944,30.44827 L 45.467509,217.287 v 37.04683 h 26.696562 l 15.753043,-11.3099 h 12.461256 l -0.14004,9.07438 h 7.99124 l 0.14986,-9.07438 h 13.68185 c 0.001,-0.004 0.002,-0.008 0.004,-0.0124 l 9.60613,6.89674 22.40122,-43.36066 -15.54479,-15.95975 c 3.05012,-9.98695 6.00137,-20.12353 8.90385,-31.11748 12.3481,-46.773 20.13103,-78.441081 -38.9046,-116.107125 -0.34943,-0.160184 -0.6961,-0.283364 -1.03508,-0.386023 -0.0361,-0.01093 -0.0741,-0.02278 -0.11007,-0.03307 -0.0544,-0.01556 -0.11075,-0.02961 -0.16537,-0.04393 -0.0657,-0.01717 -0.13307,-0.0288 -0.19844,-0.04393 -0.0956,-0.02228 -0.18992,-0.04782 -0.28628,-0.06615 -0.20149,-0.03769 -0.39621,-0.06954 -0.59428,-0.08837 -0.12829,-0.0122 -0.25863,-0.01759 -0.38551,-0.02222 -0.0847,-0.0036 -0.16793,-0.01059 -0.25321,-0.01085 -0.0432,7.9e-5 -0.0893,-0.0011 -0.13229,0 z"
       transform="matrix(-0.00649002,0.49912825,-0.49912825,-0.00649002,175.56619,99.156186)" /><path
       id="path2538"
       style="fill:#d30c7b;fill-opacity:1;stroke:#000000;stroke-width:0.149751;stroke-dasharray:none;stroke-opacity:1"
       inkscape:label="sticker"
       d="m 153.58623,151.47051 c -1e-4,-0.0202 -0.004,-0.0402 -0.004,-0.0604 -0.001,-0.0422 -0.001,-0.0845 -0.004,-0.12647 -0.001,-0.022 -0.002,-0.0441 -0.004,-0.0661 -0.008,-0.0998 -0.0225,-0.201 -0.0402,-0.30261 -0.008,-0.0473 -0.0207,-0.0958 -0.0311,-0.14358 -0.006,-0.0277 -0.009,-0.0549 -0.0154,-0.0825 -0.005,-0.0204 -0.0101,-0.0404 -0.0155,-0.0608 -0.006,-0.0246 -0.0143,-0.0473 -0.0213,-0.0717 -0.012,-0.0426 -0.023,-0.0839 -0.0367,-0.12688 -0.006,-0.0184 -0.0151,-0.0368 -0.0213,-0.0552 -0.0394,-0.11654 -0.0802,-0.23444 -0.1329,-0.35361 -2.74183,-4.42303 -5.34357,-8.13053 -7.88118,-11.22714 l -32.91233,-13.54393 c -5.30568,0.58961 -11.24334,1.78966 -18.148104,3.19897 -5.558415,1.1343 -10.474649,2.60266 -15.255196,4.23262 L 66.817019,120.4401 48.3259,120.19967 l -0.173262,13.32501 5.542853,7.93619 -0.08087,6.21976 -4.528371,-0.12879 -0.05186,3.98865 4.528306,0.1337 -0.0888,6.82899 c 0.002,4.7e-4 0.004,0.001 0.0062,0.002 l -3.504702,4.74993 21.497147,11.46249 8.066847,-7.65526 c 4.964974,1.58722 10.005274,3.12605 15.473828,4.64611 23.265594,6.46685 39.021514,10.55705 58.204844,-18.66484 0.0822,-0.17337 0.14595,-0.34561 0.19938,-0.51413 0.006,-0.018 0.0118,-0.0368 0.0173,-0.0547 0.008,-0.0271 0.0155,-0.0551 0.023,-0.0823 0.009,-0.0327 0.0152,-0.0662 0.0232,-0.0988 0.0117,-0.0476 0.0251,-0.0945 0.0349,-0.14246 0.0201,-0.10032 0.0373,-0.1973 0.048,-0.29605 0.007,-0.0639 0.0106,-0.12895 0.0136,-0.19227 0.002,-0.0422 0.006,-0.0838 0.007,-0.12633 2e-5,-0.0216 0.001,-0.0445 0.001,-0.066 z" /><path
       id="path2380"
       style="fill:#000000;fill-opacity:0.5;stroke:none;stroke-width:0.3;stroke-dasharray:none;stroke-opacity:1;filter:url(#filter2547)"
       d="M 80.139811,59.428931 53.866479,125.71016 C 78.926871,104.62309 83.437803,85.959362 80.139811,59.428931 Z M 121.06031,202.24347 v 37.04683 l 10.45983,10.7394 22.40121,-43.36066 -6.16448,-4.42557 z"
       inkscape:label="crease_shadow"
       transform="matrix(-0.00649002,0.49912825,-0.49912825,-0.00649002,175.56619,99.156186)" /><path
       id="path2545"
       style="fill:#f2f2f2;fill-opacity:1;stroke:#000000;stroke-width:0.149751;stroke-dasharray:none;stroke-opacity:1"
       d="M 145.38342,138.77053 112.47109,125.2266 c 10.36252,12.6452 19.64883,15.01787 32.91233,13.54393 z m -71.548349,19.4977 -18.491119,-0.24043 -5.428223,5.1511 21.497146,11.46249 2.248935,-3.04814 z"
       inkscape:label="crease" /></g></svg>
