<?xml version="1.0" encoding="UTF-8" standalone="no"?>
<!-- Created with Inkscape (http://www.inkscape.org/) -->

<svg
   width="192.60184mm"
   height="193.64595mm"
   viewBox="0 0 192.60184 193.64595"
   version="1.1"
   id="svg5"
   xml:space="preserve"
   inkscape:version="1.2.2 (732a01da63, 2022-12-09)"
   sodipodi:docname="logo_design.svg"
   inkscape:export-filename="logo_design.svg"
   inkscape:export-xdpi="96"
   inkscape:export-ydpi="96"
   xmlns:inkscape="http://www.inkscape.org/namespaces/inkscape"
   xmlns:sodipodi="http://sodipodi.sourceforge.net/DTD/sodipodi-0.dtd"
   xmlns="http://www.w3.org/2000/svg"
   xmlns:svg="http://www.w3.org/2000/svg"><sodipodi:namedview
     id="namedview7"
     pagecolor="#ffffff"
     bordercolor="#000000"
     borderopacity="0.25"
     inkscape:showpageshadow="2"
     inkscape:pageopacity="0.0"
     inkscape:pagecheckerboard="0"
     inkscape:deskcolor="#d1d1d1"
     inkscape:document-units="mm"
     showgrid="false"
     inkscape:zoom="0.97638868"
     inkscape:cx="251.94885"
     inkscape:cy="701.05278"
     inkscape:window-width="1920"
     inkscape:window-height="991"
     inkscape:window-x="-9"
     inkscape:window-y="-9"
     inkscape:window-maximized="1"
     inkscape:current-layer="layer1" /><defs
     id="defs2" /><style
     type="text/css"
     id="style2665">
	.st0{fill:#C43124;stroke:#010202;stroke-width:5;stroke-miterlimit:10;}
	.st1{fill:#E8A627;stroke:#010202;stroke-width:5;stroke-miterlimit:10;}
	.st2{fill:#F9DE59;stroke:#010202;stroke-width:5;stroke-miterlimit:10;}
</style><g
     inkscape:groupmode="layer"
     id="layer9"
     inkscape:label="square"
     style="display:inline"
     transform="translate(-11.040427,-58.10507)"><path
       id="path11771"
       style="fill:#4d4d4d;fill-opacity:1;stroke:none;stroke-width:6.0652;stroke-linecap:round;stroke-dasharray:none;stroke-opacity:1"
       d="M 185.50132,58.108219 C 170.68254,57.958061 98.168396,63.216436 83.08253,65.646681 66.990941,68.238944 51.095135,63.054422 51.095135,63.054422 c 0,0 -5.771887,-0.489114 -0.978649,5.184517 4.793241,5.673629 6.260976,0.244257 6.260976,0.244257 l 45.236708,0.03621 c 0,0 66.68002,-7.262859 85.21759,-4.703568 18.53757,2.559292 9.2688,17.50004 9.2688,17.50004 l -5.87946,87.085172 c 0,0 -2.43755,59.26988 1.27964,71.98664 3.71721,12.71676 6.27719,4.71221 6.27719,4.71221 l -1.58875,-52.74275 c 0,0 3.83857,-60.43677 2.27343,-76.47946 -1.56514,-16.042666 7.97278,-30.862506 4.35339,-44.166191 -3.61938,-13.303686 -8.09886,-12.530059 -15.1542,-13.49844 -0.44096,-0.06052 -1.17256,-0.09483 -2.16048,-0.104836 z M 21.089354,69.843361 c -0.13266,-0.0025 -0.271439,5.56e-4 -0.416642,0.0097 -4.646508,0.293464 -2.494447,5.282327 -2.494447,5.282327 l 1.124554,34.531012 c 0,0 -2.053883,57.32327 -3.42338,65.93156 -1.369497,8.60825 -3.473096,43.0411 -3.473096,43.0411 0,0 1.027205,7.43421 -0.782487,14.62408 -1.8096924,7.18985 -0.195474,21.27617 16.287401,17.26551 16.482874,-4.01068 17.441423,-2.8691 33.650721,-4.4015 25.910286,-2.4495 60.404612,-2.2504 66.322792,-0.19615 5.91818,2.05423 56.73354,5.82001 56.73354,5.82001 0,0 7.6087,-5.67195 -3.32016,-7.74706 -10.92887,-2.07508 -66.74897,-4.98891 -72.35194,-4.28854 -8.85377,1.10672 -78.992273,5.11859 -78.992273,5.11858 0,0 -14.52572,3.32015 -11.067218,-14.52571 3.458502,-17.84588 5.256928,-87.29269 5.256928,-87.29269 l 0.27668,-39.70365 c 0,0 -2.294447,-18.276149 -1.008911,-27.883119 0,0 1.790422,-5.508028 -2.322062,-5.585487 z"
       inkscape:label="simplified_square" /></g></svg>
