<?xml version="1.0" encoding="UTF-8" standalone="no"?>
<!-- Created with Inkscape (http://www.inkscape.org/) -->

<svg
   width="175.3287mm"
   height="180.82352mm"
   viewBox="0 0 175.3287 180.82352"
   version="1.1"
   id="svg5"
   xml:space="preserve"
   sodipodi:docname="sunk.svg"
   inkscape:version="1.2.2 (732a01da63, 2022-12-09)"
   xmlns:inkscape="http://www.inkscape.org/namespaces/inkscape"
   xmlns:sodipodi="http://sodipodi.sourceforge.net/DTD/sodipodi-0.dtd"
   xmlns="http://www.w3.org/2000/svg"
   xmlns:svg="http://www.w3.org/2000/svg"><sodipodi:namedview
     id="namedview6844"
     pagecolor="#ffffff"
     bordercolor="#000000"
     borderopacity="0.25"
     inkscape:showpageshadow="2"
     inkscape:pageopacity="0.0"
     inkscape:pagecheckerboard="0"
     inkscape:deskcolor="#d1d1d1"
     inkscape:document-units="mm"
     showgrid="false"
     inkscape:zoom="0.58821165"
     inkscape:cx="9.3503758"
     inkscape:cy="291.56172"
     inkscape:window-width="1920"
     inkscape:window-height="991"
     inkscape:window-x="-9"
     inkscape:window-y="-9"
     inkscape:window-maximized="1"
     inkscape:current-layer="svg5" /><defs
     id="defs2" /><style
     type="text/css"
     id="style2665">
	.st0{fill:#C43124;stroke:#010202;stroke-width:5;stroke-miterlimit:10;}
	.st1{fill:#E8A627;stroke:#010202;stroke-width:5;stroke-miterlimit:10;}
	.st2{fill:#F9DE59;stroke:#010202;stroke-width:5;stroke-miterlimit:10;}
</style><path
     id="path8296"
     style="fill:#000000;stroke-width:1;stroke-linecap:round;paint-order:stroke markers fill"
     d="M 16.023311 3.2690511 C 14.016071 3.1404591 13.488129 7.0371887 15.903422 18.129643 C 15.903422 18.129643 40.737168 55.411819 70.795162 92.878052 C 29.620447 156.40051 12.086601 173.66278 12.086601 173.66278 C 12.086601 173.66278 42.473586 171.71139 52.480518 149.80791 C 60.921008 131.3331 69.425175 115.3359 77.754944 101.4491 C 100.45334 128.97193 125.18964 155.05154 144.08268 164.75687 C 190.51991 188.61161 165.0752 159.34996 165.0752 159.34996 C 165.0752 159.34996 129.76917 138.54335 89.69375 97.963529 C 87.625646 95.869396 85.647405 93.823479 83.719954 91.806283 C 133.99653 13.112172 175.56867 10.810035 153.62473 9.2237264 C 153.62473 9.2237264 125.31691 7.3157517 78.561613 80.78835 C 77.851826 81.903731 77.168136 82.967339 76.470785 84.057918 C 46.164964 50.928826 35.940959 30.216243 35.940959 30.216243 C 35.940959 30.216243 21.152925 3.5976751 16.023311 3.2690511 z " /></svg>
