<?xml version="1.0" encoding="UTF-8" standalone="no"?>
<!-- Created with Inkscape (http://www.inkscape.org/) -->

<svg
   width="179.26643mm"
   height="179.26643mm"
   viewBox="0 0 179.26643 179.26643"
   version="1.1"
   id="svg5"
   xml:space="preserve"
   inkscape:version="1.2.2 (732a01da63, 2022-12-09)"
   sodipodi:docname="logo_design.svg"
   inkscape:export-filename="logo_design.svg"
   inkscape:export-xdpi="96"
   inkscape:export-ydpi="96"
   xmlns:inkscape="http://www.inkscape.org/namespaces/inkscape"
   xmlns:sodipodi="http://sodipodi.sourceforge.net/DTD/sodipodi-0.dtd"
   xmlns="http://www.w3.org/2000/svg"
   xmlns:svg="http://www.w3.org/2000/svg"><sodipodi:namedview
     id="namedview7"
     pagecolor="#ffffff"
     bordercolor="#000000"
     borderopacity="0.25"
     inkscape:showpageshadow="2"
     inkscape:pageopacity="0.0"
     inkscape:pagecheckerboard="0"
     inkscape:deskcolor="#d1d1d1"
     inkscape:document-units="mm"
     showgrid="false"
     inkscape:zoom="0.80343866"
     inkscape:cx="87.125507"
     inkscape:cy="626.68132"
     inkscape:window-width="1920"
     inkscape:window-height="991"
     inkscape:window-x="-9"
     inkscape:window-y="-9"
     inkscape:window-maximized="1"
     inkscape:current-layer="g42431" /><defs
     id="defs2"><filter
       inkscape:collect="always"
       style="color-interpolation-filters:sRGB"
       id="filter2541-0"
       x="-0.039325278"
       y="-0.020557053"
       width="1.0786506"
       height="1.0411141"><feGaussianBlur
         inkscape:collect="always"
         stdDeviation="1.8130222"
         id="feGaussianBlur2543-9" /></filter><filter
       inkscape:collect="always"
       style="color-interpolation-filters:sRGB"
       id="filter2547-7"
       x="-0.039216992"
       y="-0.020586753"
       width="1.078434"
       height="1.0411735"><feGaussianBlur
         inkscape:collect="always"
         stdDeviation="1.634938"
         id="feGaussianBlur2549-7" /></filter></defs><style
     type="text/css"
     id="style2665">
	.st0{fill:#C43124;stroke:#010202;stroke-width:5;stroke-miterlimit:10;}
	.st1{fill:#E8A627;stroke:#010202;stroke-width:5;stroke-miterlimit:10;}
	.st2{fill:#F9DE59;stroke:#010202;stroke-width:5;stroke-miterlimit:10;}
</style><style
     type="text/css"
     id="style6963">.st0{fill:#EF4136;stroke:#BE1E2D;stroke-width:6;stroke-miterlimit:10;} .st1{fill:#BE1E2D;} .st2{fill:none;}</style><style
     type="text/css"
     id="style2665-4">
	.st0{fill:#C43124;stroke:#010202;stroke-width:5;stroke-miterlimit:10;}
	.st1{fill:#E8A627;stroke:#010202;stroke-width:5;stroke-miterlimit:10;}
	.st2{fill:#F9DE59;stroke:#010202;stroke-width:5;stroke-miterlimit:10;}
</style><style
     type="text/css"
     id="style6963-4">.st0{fill:#EF4136;stroke:#BE1E2D;stroke-width:6;stroke-miterlimit:10;} .st1{fill:#BE1E2D;} .st2{fill:none;}</style><style
     type="text/css"
     id="style2665-8">
	.st0{fill:#C43124;stroke:#010202;stroke-width:5;stroke-miterlimit:10;}
	.st1{fill:#E8A627;stroke:#010202;stroke-width:5;stroke-miterlimit:10;}
	.st2{fill:#F9DE59;stroke:#010202;stroke-width:5;stroke-miterlimit:10;}
</style><style
     type="text/css"
     id="style2665-2">
	.st0{fill:#C43124;stroke:#010202;stroke-width:5;stroke-miterlimit:10;}
	.st1{fill:#E8A627;stroke:#010202;stroke-width:5;stroke-miterlimit:10;}
	.st2{fill:#F9DE59;stroke:#010202;stroke-width:5;stroke-miterlimit:10;}
</style><style
     type="text/css"
     id="style2665-1">
	.st0{fill:#C43124;stroke:#010202;stroke-width:5;stroke-miterlimit:10;}
	.st1{fill:#E8A627;stroke:#010202;stroke-width:5;stroke-miterlimit:10;}
	.st2{fill:#F9DE59;stroke:#010202;stroke-width:5;stroke-miterlimit:10;}
</style><style
     type="text/css"
     id="style2665-46">
	.st0{fill:#C43124;stroke:#010202;stroke-width:5;stroke-miterlimit:10;}
	.st1{fill:#E8A627;stroke:#010202;stroke-width:5;stroke-miterlimit:10;}
	.st2{fill:#F9DE59;stroke:#010202;stroke-width:5;stroke-miterlimit:10;}
</style><style
     type="text/css"
     id="style2665-5">
	.st0{fill:#C43124;stroke:#010202;stroke-width:5;stroke-miterlimit:10;}
	.st1{fill:#E8A627;stroke:#010202;stroke-width:5;stroke-miterlimit:10;}
	.st2{fill:#F9DE59;stroke:#010202;stroke-width:5;stroke-miterlimit:10;}
</style><style
     type="text/css"
     id="style2665-0">
	.st0{fill:#C43124;stroke:#010202;stroke-width:5;stroke-miterlimit:10;}
	.st1{fill:#E8A627;stroke:#010202;stroke-width:5;stroke-miterlimit:10;}
	.st2{fill:#F9DE59;stroke:#010202;stroke-width:5;stroke-miterlimit:10;}
</style><style
     type="text/css"
     id="style2665-7">
	.st0{fill:#C43124;stroke:#010202;stroke-width:5;stroke-miterlimit:10;}
	.st1{fill:#E8A627;stroke:#010202;stroke-width:5;stroke-miterlimit:10;}
	.st2{fill:#F9DE59;stroke:#010202;stroke-width:5;stroke-miterlimit:10;}
</style><style
     type="text/css"
     id="style2665-469">
	.st0{fill:#C43124;stroke:#010202;stroke-width:5;stroke-miterlimit:10;}
	.st1{fill:#E8A627;stroke:#010202;stroke-width:5;stroke-miterlimit:10;}
	.st2{fill:#F9DE59;stroke:#010202;stroke-width:5;stroke-miterlimit:10;}
</style><style
     type="text/css"
     id="style2665-72">
	.st0{fill:#C43124;stroke:#010202;stroke-width:5;stroke-miterlimit:10;}
	.st1{fill:#E8A627;stroke:#010202;stroke-width:5;stroke-miterlimit:10;}
	.st2{fill:#F9DE59;stroke:#010202;stroke-width:5;stroke-miterlimit:10;}
</style><style
     type="text/css"
     id="style2665-14">
	.st0{fill:#C43124;stroke:#010202;stroke-width:5;stroke-miterlimit:10;}
	.st1{fill:#E8A627;stroke:#010202;stroke-width:5;stroke-miterlimit:10;}
	.st2{fill:#F9DE59;stroke:#010202;stroke-width:5;stroke-miterlimit:10;}
</style><style
     type="text/css"
     id="style2665-3">
	.st0{fill:#C43124;stroke:#010202;stroke-width:5;stroke-miterlimit:10;}
	.st1{fill:#E8A627;stroke:#010202;stroke-width:5;stroke-miterlimit:10;}
	.st2{fill:#F9DE59;stroke:#010202;stroke-width:5;stroke-miterlimit:10;}
</style><style
     type="text/css"
     id="style2665-09">
	.st0{fill:#C43124;stroke:#010202;stroke-width:5;stroke-miterlimit:10;}
	.st1{fill:#E8A627;stroke:#010202;stroke-width:5;stroke-miterlimit:10;}
	.st2{fill:#F9DE59;stroke:#010202;stroke-width:5;stroke-miterlimit:10;}
</style><style
     type="text/css"
     id="style2665-58">
	.st0{fill:#C43124;stroke:#010202;stroke-width:5;stroke-miterlimit:10;}
	.st1{fill:#E8A627;stroke:#010202;stroke-width:5;stroke-miterlimit:10;}
	.st2{fill:#F9DE59;stroke:#010202;stroke-width:5;stroke-miterlimit:10;}
</style><style
     type="text/css"
     id="style2665-40">
	.st0{fill:#C43124;stroke:#010202;stroke-width:5;stroke-miterlimit:10;}
	.st1{fill:#E8A627;stroke:#010202;stroke-width:5;stroke-miterlimit:10;}
	.st2{fill:#F9DE59;stroke:#010202;stroke-width:5;stroke-miterlimit:10;}
</style><style
     type="text/css"
     id="style2665-6">
	.st0{fill:#C43124;stroke:#010202;stroke-width:5;stroke-miterlimit:10;}
	.st1{fill:#E8A627;stroke:#010202;stroke-width:5;stroke-miterlimit:10;}
	.st2{fill:#F9DE59;stroke:#010202;stroke-width:5;stroke-miterlimit:10;}
</style><style
     type="text/css"
     id="style2665-04">
	.st0{fill:#C43124;stroke:#010202;stroke-width:5;stroke-miterlimit:10;}
	.st1{fill:#E8A627;stroke:#010202;stroke-width:5;stroke-miterlimit:10;}
	.st2{fill:#F9DE59;stroke:#010202;stroke-width:5;stroke-miterlimit:10;}
</style><style
     type="text/css"
     id="style2665-12">
	.st0{fill:#C43124;stroke:#010202;stroke-width:5;stroke-miterlimit:10;}
	.st1{fill:#E8A627;stroke:#010202;stroke-width:5;stroke-miterlimit:10;}
	.st2{fill:#F9DE59;stroke:#010202;stroke-width:5;stroke-miterlimit:10;}
</style><style
     type="text/css"
     id="style2665-52">
	.st0{fill:#C43124;stroke:#010202;stroke-width:5;stroke-miterlimit:10;}
	.st1{fill:#E8A627;stroke:#010202;stroke-width:5;stroke-miterlimit:10;}
	.st2{fill:#F9DE59;stroke:#010202;stroke-width:5;stroke-miterlimit:10;}
</style><style
     type="text/css"
     id="style2665-61">
	.st0{fill:#C43124;stroke:#010202;stroke-width:5;stroke-miterlimit:10;}
	.st1{fill:#E8A627;stroke:#010202;stroke-width:5;stroke-miterlimit:10;}
	.st2{fill:#F9DE59;stroke:#010202;stroke-width:5;stroke-miterlimit:10;}
</style><style
     type="text/css"
     id="style2665-36">
	.st0{fill:#C43124;stroke:#010202;stroke-width:5;stroke-miterlimit:10;}
	.st1{fill:#E8A627;stroke:#010202;stroke-width:5;stroke-miterlimit:10;}
	.st2{fill:#F9DE59;stroke:#010202;stroke-width:5;stroke-miterlimit:10;}
</style><style
     type="text/css"
     id="style6963-6">.st0{fill:#EF4136;stroke:#BE1E2D;stroke-width:6;stroke-miterlimit:10;} .st1{fill:#BE1E2D;} .st2{fill:none;}</style><g
     inkscape:groupmode="layer"
     id="g42431"
     inkscape:label="Tutorial_7"
     style="display:inline"
     transform="translate(-15.366778,-58.866778)"><rect
       style="display:inline;fill:#a3aabf;fill-opacity:1;stroke:#000000;stroke-width:0.3;stroke-linecap:square;stroke-dasharray:none;stroke-opacity:1"
       id="rect42355"
       width="178.96645"
       height="178.96645"
       x="15.516777"
       y="59.016777"
       inkscape:label="Container" /><g
       id="layer10-2"
       inkscape:label="missile"
       transform="matrix(0.45136854,-0.05308299,0.05308299,0.45136854,3.5943698,60.168031)"><path
         id="path380-8"
         style="fill:#000000;fill-opacity:0.5;stroke:none;stroke-width:0.3;stroke-dasharray:none;stroke-opacity:1;filter:url(#filter2541-0)"
         inkscape:label="sticker_shadow"
         d="m 105.36618,42.666646 c -0.0405,8.54e-4 -0.0805,0.0092 -0.12092,0.01085 -0.0846,0.0035 -0.16922,0.0048 -0.25322,0.01137 -0.0439,0.0032 -0.0882,0.0067 -0.13229,0.01085 -0.19961,0.01897 -0.40204,0.05023 -0.60513,0.08837 -0.0946,0.01778 -0.19139,0.04407 -0.28681,0.06615 -0.0553,0.01289 -0.1098,0.01892 -0.16484,0.03307 -0.0406,0.0104 -0.0807,0.02137 -0.12144,0.03256 -0.0491,0.01355 -0.0942,0.02991 -0.14315,0.04444 -0.0851,0.02524 -0.16748,0.04821 -0.25321,0.077 -0.0367,0.01225 -0.0734,0.03115 -0.11007,0.04393 -0.23242,0.08194 -0.46754,0.166645 -0.70487,0.275436 -8.788601,5.6075 -16.147535,10.91575 -22.284427,16.079638 l -26.273331,66.28122 c 1.319268,10.61274 3.877808,22.47554 6.880716,36.27013 2.416966,11.10482 5.486371,20.91455 8.875944,30.44827 L 45.467509,217.287 v 37.04683 h 26.696562 l 15.753043,-11.3099 h 12.461256 l -0.14004,9.07438 h 7.99124 l 0.14986,-9.07438 h 13.68185 c 0.001,-0.004 0.002,-0.008 0.004,-0.0124 l 9.60613,6.89674 22.40122,-43.36066 -15.54479,-15.95975 c 3.05012,-9.98695 6.00137,-20.12353 8.90385,-31.11748 12.3481,-46.773 20.13103,-78.441081 -38.9046,-116.107125 -0.34943,-0.160184 -0.6961,-0.283364 -1.03508,-0.386023 -0.0361,-0.01093 -0.0741,-0.02278 -0.11007,-0.03307 -0.0544,-0.01556 -0.11075,-0.02961 -0.16537,-0.04393 -0.0657,-0.01717 -0.13307,-0.0288 -0.19844,-0.04393 -0.0956,-0.02228 -0.18992,-0.04782 -0.28628,-0.06615 -0.20149,-0.03769 -0.39621,-0.06954 -0.59428,-0.08837 -0.12829,-0.0122 -0.25863,-0.01759 -0.38551,-0.02222 -0.0847,-0.0036 -0.16793,-0.01059 -0.25321,-0.01085 -0.0432,7.9e-5 -0.0893,-0.0011 -0.13229,0 z" /><path
         id="path2538-0"
         style="fill:#d30c7b;fill-opacity:1;stroke:#000000;stroke-width:0.3;stroke-dasharray:none;stroke-opacity:1"
         inkscape:label="sticker"
         d="m 105.36618,42.666646 c -0.0405,8.54e-4 -0.0805,0.0092 -0.12092,0.01085 -0.0846,0.0035 -0.16922,0.0048 -0.25322,0.01137 -0.0439,0.0032 -0.0882,0.0067 -0.13229,0.01085 -0.19961,0.01897 -0.40204,0.05023 -0.60513,0.08837 -0.0946,0.01778 -0.19139,0.04407 -0.28681,0.06615 -0.0553,0.01289 -0.1098,0.01892 -0.16484,0.03307 -0.0406,0.0104 -0.0807,0.02137 -0.12144,0.03256 -0.0491,0.01355 -0.0942,0.02991 -0.14315,0.04444 -0.0851,0.02524 -0.16748,0.04821 -0.25321,0.077 -0.0367,0.01225 -0.0734,0.03115 -0.11007,0.04393 -0.23242,0.08194 -0.46754,0.166645 -0.70487,0.275436 -8.788601,5.6075 -16.147535,10.91575 -22.284427,16.079638 l -26.273331,66.28122 c 1.319268,10.61274 3.877808,22.47554 6.880716,36.27013 2.416966,11.10482 5.486371,20.91455 8.875944,30.44827 L 45.467509,217.287 v 37.04683 h 26.696562 l 15.753043,-11.3099 h 12.461256 l -0.14004,9.07438 h 7.99124 l 0.14986,-9.07438 h 13.68185 c 0.001,-0.004 0.002,-0.008 0.004,-0.0124 l 9.60613,6.89674 22.40122,-43.36066 -15.54479,-15.95975 c 3.05012,-9.98695 6.00137,-20.12353 8.90385,-31.11748 12.3481,-46.773 20.13103,-78.441081 -38.9046,-116.107125 -0.34943,-0.160184 -0.6961,-0.283364 -1.03508,-0.386023 -0.0361,-0.01093 -0.0741,-0.02278 -0.11007,-0.03307 -0.0544,-0.01556 -0.11075,-0.02961 -0.16537,-0.04393 -0.0657,-0.01717 -0.13307,-0.0288 -0.19844,-0.04393 -0.0956,-0.02228 -0.18992,-0.04782 -0.28628,-0.06615 -0.20149,-0.03769 -0.39621,-0.06954 -0.59428,-0.08837 -0.12829,-0.0122 -0.25863,-0.01759 -0.38551,-0.02222 -0.0847,-0.0036 -0.16793,-0.01059 -0.25321,-0.01085 -0.0432,7.9e-5 -0.0893,-0.0011 -0.13229,0 z" /><path
         id="path2380-6"
         style="fill:#000000;fill-opacity:0.5;stroke:none;stroke-width:0.3;stroke-dasharray:none;stroke-opacity:1;filter:url(#filter2547-7)"
         d="M 80.139811,59.428931 53.866479,125.71016 C 78.926871,104.62309 83.437803,85.959362 80.139811,59.428931 Z M 121.06031,202.24347 v 37.04683 l 10.45983,10.7394 22.40121,-43.36066 -6.16448,-4.42557 z"
         inkscape:label="crease_shadow" /><path
         id="path2545-6"
         style="fill:#f2f2f2;fill-opacity:1;stroke:#000000;stroke-width:0.3;stroke-dasharray:none;stroke-opacity:1"
         d="M 80.139811,59.428931 53.866479,125.71016 C 78.926871,104.62309 83.437803,85.959362 80.139811,59.428931 Z M 121.06031,202.24347 v 37.04683 l 10.45983,10.7394 22.40121,-43.36066 -6.16448,-4.42557 z"
         inkscape:label="crease" /></g><text
       xml:space="preserve"
       style="font-style:normal;font-variant:normal;font-weight:normal;font-stretch:normal;font-size:23.5419px;font-family:'Namesake NF';-inkscape-font-specification:'Namesake NF';text-align:center;text-anchor:middle;fill:#d30c7b;fill-opacity:1;stroke:none;stroke-width:1.19166;stroke-linecap:square;stroke-dasharray:none;stroke-opacity:1"
       x="57.050365"
       y="122.71529"
       id="text44405"><tspan
         sodipodi:role="line"
         id="tspan44403"
         style="font-style:normal;font-variant:normal;font-weight:normal;font-stretch:normal;font-family:Janitor;-inkscape-font-specification:Janitor;fill:#ffffff;stroke-width:1.19166"
         x="57.050365"
         y="122.71529">6</tspan></text><path
       id="path45137"
       style="display:inline;fill:#545863;fill-opacity:1;stroke:#545863;stroke-width:1;stroke-linecap:round;stroke-dasharray:none;stroke-opacity:1;paint-order:stroke markers fill"
       d="m 92.103455,69.874505 c -0.131478,-0.008 -0.166073,0.24698 -0.0079,0.973556 0,0 1.626866,2.441907 3.595715,4.896007 -2.697013,4.16083 -3.84574,5.29157 -3.84574,5.29157 0,0 1.990729,-0.12763 2.646201,-1.56234 0.552865,-1.21013 1.109609,-2.25821 1.655223,-3.16782 1.486783,1.8028 3.10702,3.51105 4.344546,4.14677 3.04172,1.56252 1.37534,-0.3541 1.37534,-0.3541 0,0 -2.312877,-1.36308 -4.937885,-4.02113 -0.135464,-0.13717 -0.264749,-0.27089 -0.391001,-0.40302 3.293199,-5.154583 6.016176,-5.305423 4.578816,-5.409323 0,0 -1.854194,-0.12513 -4.916743,4.687443 -0.0465,0.073 -0.09157,0.14293 -0.137244,0.21436 -1.985081,-2.17001 -2.654493,-3.526877 -2.654493,-3.526877 0,0 -0.968859,-1.743566 -1.304856,-1.765096 z m 20.953575,0 c -0.13147,-0.008 -0.16607,0.24698 -0.008,0.973556 0,0 1.62645,2.441907 3.5953,4.896007 -2.69701,4.16083 -3.84532,5.29157 -3.84532,5.29157 0,0 1.99031,-0.12763 2.64578,-1.56234 0.55287,-1.21013 1.11003,-2.25821 1.65564,-3.16782 1.48679,1.8028 3.10702,3.51105 4.34455,4.14677 3.04171,1.56252 1.37493,-0.3541 1.37493,-0.3541 0,0 -2.31247,-1.36308 -4.93748,-4.02113 -0.13546,-0.13717 -0.26516,-0.27089 -0.39141,-0.40302 3.2932,-5.154583 6.01618,-5.305423 4.57881,-5.409323 0,0 -1.85419,-0.12513 -4.91674,4.687443 -0.0465,0.073 -0.0911,0.14293 -0.13683,0.21436 -1.98508,-2.17001 -2.65491,-3.526877 -2.65491,-3.526877 0,0 -0.96844,-1.743566 -1.30444,-1.765096 z m 20.95317,0 c -0.13148,-0.008 -0.16607,0.24698 -0.008,0.973556 0,0 1.62686,2.441907 3.59571,4.896007 -2.69701,4.16083 -3.84574,5.29157 -3.84574,5.29157 0,0 1.99073,-0.12763 2.6462,-1.56234 0.55287,-1.21013 1.10961,-2.25821 1.65523,-3.16782 1.48678,1.8028 3.10702,3.51105 4.34454,4.14677 3.04172,1.56252 1.37535,-0.3541 1.37535,-0.3541 0,0 -2.31288,-1.36308 -4.93789,-4.02113 -0.13547,-0.13717 -0.26475,-0.27089 -0.391,-0.40302 3.2932,-5.154583 6.01618,-5.305423 4.57881,-5.409323 0,0 -1.85419,-0.12513 -4.91674,4.687443 -0.0465,0.073 -0.0916,0.14293 -0.13724,0.21436 -1.98509,-2.17001 -2.6545,-3.526877 -2.6545,-3.526877 0,0 -0.96885,-1.743566 -1.30485,-1.765096 z m 20.95316,0 c -0.13113,-0.008 -0.16574,0.24778 -0.008,0.973556 0,0 1.62686,2.441907 3.59572,4.896007 -2.69703,4.16083 -3.84574,5.29157 -3.84574,5.29157 0,0 1.99073,-0.12763 2.6462,-1.56234 0.55286,-1.21013 1.10961,-2.25821 1.65522,-3.16782 1.48678,1.8028 3.10702,3.51105 4.34455,4.14677 3.04171,1.56252 1.37533,-0.3541 1.37533,-0.3541 0,0 -2.31288,-1.36308 -4.93788,-4.02113 -0.13546,-0.13717 -0.26475,-0.27089 -0.391,-0.40302 3.29319,-5.154583 6.01617,-5.305423 4.57881,-5.409323 0,0 -1.85419,-0.12513 -4.91674,4.687443 -0.0464,0.073 -0.0916,0.14293 -0.13724,0.21436 -1.98508,-2.17001 -2.6545,-3.526877 -2.6545,-3.526877 0,0 -0.96808,-1.742236 -1.30444,-1.765096 z m 20.95358,0 c -0.13148,-0.008 -0.16591,0.24698 -0.008,0.973556 0,0 1.62645,2.441907 3.59529,4.896007 -2.697,4.16083 -3.84532,5.29157 -3.84532,5.29157 0,0 1.99031,-0.12763 2.64578,-1.56234 0.55287,-1.21013 1.11002,-2.25821 1.65564,-3.16782 1.48678,1.8028 3.10702,3.51105 4.34455,4.14677 3.04172,1.56252 1.37493,-0.3541 1.37493,-0.3541 0,0 -2.31247,-1.36308 -4.93748,-4.02113 -0.13546,-0.13717 -0.26515,-0.27089 -0.39141,-0.40302 3.2932,-5.154583 6.01617,-5.305423 4.57881,-5.409323 0,0 -1.85419,-0.12513 -4.91674,4.687443 -0.0465,0.073 -0.0911,0.14293 -0.13683,0.21436 -1.98508,-2.17001 -2.6549,-3.526877 -2.6549,-3.526877 0,0 -0.96845,-1.743566 -1.30445,-1.765096 z"
       inkscape:label="carrier_strokes" /><path
       id="path45139"
       style="display:inline;fill:#545863;fill-opacity:1;stroke:#545863;stroke-width:1;stroke-linecap:round;stroke-dasharray:none;stroke-opacity:1;paint-order:stroke markers fill"
       d="m 106.05751,113.24797 c -0.13148,-0.008 -0.16591,0.24701 -0.008,0.97359 0,0 1.62628,2.44223 3.59513,4.89634 -2.69702,4.16082 -3.84525,5.29115 -3.84525,5.29115 0,0 1.99036,-0.12746 2.64584,-1.56218 0.55286,-1.21013 1.11009,-2.25816 1.65571,-3.16777 1.48678,1.8028 3.10691,3.51132 4.34444,4.14704 3.04171,1.56252 1.37511,-0.3545 1.37511,-0.3545 0,0 -2.31268,-1.3629 -4.93769,-4.02095 -0.13546,-0.13716 -0.26494,-0.27094 -0.39119,-0.40307 3.2932,-5.15459 6.0159,-5.30558 4.57853,-5.40949 0,0 -1.85394,-0.12501 -4.91649,4.68757 -0.0465,0.073 -0.0913,0.14302 -0.13694,0.21445 -1.98509,-2.17 -2.65462,-3.52691 -2.65462,-3.52691 0,0 -0.96883,-1.74375 -1.30483,-1.76527 z m 19.58588,0 c -0.13148,-0.008 -0.16591,0.24701 -0.008,0.97359 0,0 1.62628,2.44223 3.59513,4.89634 -2.69701,4.16082 -3.84524,5.29115 -3.84524,5.29115 0,0 1.99036,-0.12746 2.64583,-1.56218 0.55287,-1.21013 1.10958,-2.25816 1.6552,-3.16777 1.48678,1.8028 3.10743,3.51132 4.34495,4.14704 3.04172,1.56252 1.37511,-0.3545 1.37511,-0.3545 0,0 -2.31267,-1.3629 -4.93768,-4.02095 -0.13547,-0.13716 -0.26494,-0.27094 -0.39119,-0.40307 3.2932,-5.15459 6.01589,-5.30558 4.57853,-5.40949 0,0 -1.85395,-0.12501 -4.9165,4.68757 -0.0465,0.073 -0.0913,0.14302 -0.13694,0.21445 -1.98508,-2.17 -2.65513,-3.52691 -2.65513,-3.52691 0,0 -0.96832,-1.74375 -1.30432,-1.76527 z m 19.58589,0 c -0.13148,-0.008 -0.16643,0.24701 -0.008,0.97359 0,0 1.6268,2.44223 3.59564,4.89634 -2.69701,4.16082 -3.84524,5.29115 -3.84524,5.29115 0,0 1.99036,-0.12746 2.64583,-1.56218 0.55287,-1.21013 1.10959,-2.25816 1.6552,-3.16777 1.48678,1.8028 3.10743,3.51132 4.34496,4.14704 3.04171,1.56252 1.37459,-0.3545 1.37459,-0.3545 0,0 -2.31216,-1.3629 -4.93717,-4.02095 -0.13546,-0.13716 -0.26545,-0.27094 -0.39171,-0.40307 3.2932,-5.15459 6.01642,-5.30558 4.57905,-5.40949 0,0 -1.85394,-0.12501 -4.91649,4.68757 -0.0465,0.073 -0.0913,0.14302 -0.13695,0.21445 -1.98508,-2.17 -2.65513,-3.52691 -2.65513,-3.52691 0,0 -0.96831,-1.74375 -1.30431,-1.76527 z m 19.58537,0 c -0.13104,-0.007 -0.1656,0.24799 -0.008,0.97359 0,0 1.6268,2.44223 3.59565,4.89634 -2.69702,4.16082 -3.84576,5.29115 -3.84576,5.29115 0,0 1.99035,-0.12746 2.64583,-1.56218 0.55286,-1.21013 1.1101,-2.25816 1.65572,-3.16777 1.48677,1.8028 3.1069,3.51132 4.34443,4.14704 3.04172,1.56252 1.37511,-0.3545 1.37511,-0.3545 0,0 -2.31267,-1.3629 -4.93768,-4.02095 -0.13547,-0.13716 -0.26493,-0.27094 -0.39119,-0.40307 3.29321,-5.15459 6.01641,-5.30558 4.57905,-5.40949 0,0 -1.85447,-0.12501 -4.91701,4.68757 -0.0465,0.073 -0.0913,0.14302 -0.13695,0.21445 -1.98507,-2.17 -2.65462,-3.52691 -2.65462,-3.52691 0,0 -0.96787,-1.74212 -1.30431,-1.76527 z" /><path
       id="path45141"
       style="display:inline;fill:#545863;fill-opacity:1;stroke:#545863;stroke-width:1;stroke-linecap:round;stroke-dasharray:none;stroke-opacity:1;paint-order:stroke markers fill"
       d="m 116.999,197.51544 c -0.13147,-0.008 -0.16591,0.247 -0.008,0.97358 0,0 1.6268,2.44172 3.59565,4.89583 -2.69701,4.16082 -3.84576,5.29166 -3.84576,5.29166 0,0 1.99036,-0.12797 2.64583,-1.56269 0.55287,-1.21013 1.1101,-2.25764 1.65572,-3.16725 1.48678,1.8028 3.10691,3.5108 4.34443,4.14652 3.04172,1.56251 1.37511,-0.35399 1.37511,-0.35399 0,0 -2.31267,-1.36289 -4.93768,-4.02094 -0.13546,-0.13716 -0.26494,-0.27146 -0.39119,-0.40359 3.2932,-5.15459 6.01641,-5.30507 4.57905,-5.40898 0,0 -1.85447,-0.125 -4.91701,4.68757 -0.0465,0.073 -0.0913,0.14251 -0.13695,0.21394 -1.98508,-2.17 -2.65461,-3.5264 -2.65461,-3.5264 0,0 -0.96884,-1.74374 -1.30483,-1.76526 z m 19.58589,0 c -0.13148,-0.008 -0.16591,0.247 -0.008,0.97358 0,0 1.62628,2.44172 3.59513,4.89583 -2.69701,4.16082 -3.84524,5.29166 -3.84524,5.29166 0,0 1.99036,-0.12797 2.64583,-1.56269 0.55286,-1.21013 1.1101,-2.25764 1.65571,-3.16725 1.48679,1.8028 3.10691,3.5108 4.34444,4.14652 3.04172,1.56251 1.37511,-0.35399 1.37511,-0.35399 0,0 -2.31268,-1.36289 -4.93768,-4.02094 -0.13547,-0.13716 -0.26494,-0.27146 -0.39119,-0.40359 3.29319,-5.15459 6.01589,-5.30507 4.57853,-5.40898 0,0 -1.85395,-0.125 -4.9165,4.68757 -0.0465,0.073 -0.0913,0.14251 -0.13694,0.21394 -1.98508,-2.17 -2.65462,-3.5264 -2.65462,-3.5264 0,0 -0.96883,-1.74374 -1.30483,-1.76526 z m 19.58588,0 c -0.13148,-0.008 -0.16591,0.247 -0.008,0.97358 0,0 1.62628,2.44172 3.59513,4.89583 -2.69701,4.16082 -3.84524,5.29166 -3.84524,5.29166 0,0 1.99036,-0.12797 2.64583,-1.56269 0.55287,-1.21013 1.1101,-2.25764 1.65572,-3.16725 1.48678,1.8028 3.10691,3.5108 4.34443,4.14652 3.04172,1.56251 1.37511,-0.35399 1.37511,-0.35399 0,0 -2.31267,-1.36289 -4.93768,-4.02094 -0.13546,-0.13716 -0.26494,-0.27146 -0.39119,-0.40359 3.2932,-5.15459 6.0159,-5.30507 4.57853,-5.40898 0,0 -1.85395,-0.125 -4.91649,4.68757 -0.0465,0.073 -0.0913,0.14251 -0.13695,0.21394 -1.98508,-2.17 -2.65513,-3.5264 -2.65513,-3.5264 0,0 -0.96832,-1.74374 -1.30432,-1.76526 z" /><path
       id="path45143"
       style="display:inline;fill:#545863;fill-opacity:1;stroke:#545863;stroke-width:1;stroke-linecap:round;stroke-dasharray:none;stroke-opacity:1;paint-order:stroke markers fill"
       d="m 116.52292,157.46353 c -0.13148,-0.008 -0.16591,0.247 -0.008,0.97358 0,0 1.6268,2.44172 3.59565,4.89583 -2.69702,4.16082 -3.84576,5.29166 -3.84576,5.29166 0,0 1.99036,-0.12797 2.64583,-1.56269 0.55286,-1.21013 1.1101,-2.25764 1.65571,-3.16725 1.48678,1.8028 3.10691,3.5108 4.34444,4.14652 3.04172,1.56251 1.37511,-0.35399 1.37511,-0.35399 0,0 -2.31268,-1.36289 -4.93768,-4.02094 -0.13547,-0.13716 -0.26494,-0.27146 -0.39119,-0.40359 3.29319,-5.15459 6.01641,-5.30507 4.57904,-5.40898 0,0 -1.85446,-0.125 -4.91701,4.68757 -0.0465,0.073 -0.0913,0.14251 -0.13694,0.21394 -1.98508,-2.17 -2.65462,-3.5264 -2.65462,-3.5264 0,0 -0.96883,-1.74374 -1.30483,-1.76526 z m 19.58588,0 c -0.13147,-0.008 -0.16591,0.247 -0.008,0.97358 0,0 1.62629,2.44172 3.59513,4.89583 -2.69701,4.16082 -3.84524,5.29166 -3.84524,5.29166 0,0 1.99036,-0.12797 2.64583,-1.56269 0.55287,-1.21013 1.1101,-2.25764 1.65572,-3.16725 1.48678,1.8028 3.10691,3.5108 4.34443,4.14652 3.04172,1.56251 1.37511,-0.35399 1.37511,-0.35399 0,0 -2.31267,-1.36289 -4.93768,-4.02094 -0.13546,-0.13716 -0.26494,-0.27146 -0.39119,-0.40359 3.2932,-5.15459 6.0159,-5.30507 4.57853,-5.40898 0,0 -1.85395,-0.125 -4.91649,4.68757 -0.0465,0.073 -0.0913,0.14251 -0.13695,0.21394 -1.98508,-2.17 -2.65461,-3.5264 -2.65461,-3.5264 0,0 -0.96884,-1.74374 -1.30483,-1.76526 z m 19.58589,0 c -0.13148,-0.008 -0.16591,0.247 -0.008,0.97358 0,0 1.62628,2.44172 3.59513,4.89583 -2.69702,4.16082 -3.84525,5.29166 -3.84525,5.29166 0,0 1.99037,-0.12797 2.64584,-1.56269 0.55286,-1.21013 1.1101,-2.25764 1.65571,-3.16725 1.48678,1.8028 3.10691,3.5108 4.34444,4.14652 3.04172,1.56251 1.37511,-0.35399 1.37511,-0.35399 0,0 -2.31268,-1.36289 -4.93768,-4.02094 -0.13547,-0.13716 -0.26494,-0.27146 -0.3912,-0.40359 3.2932,-5.15459 6.0159,-5.30507 4.57854,-5.40898 0,0 -1.85395,-0.125 -4.9165,4.68757 -0.0465,0.073 -0.0913,0.14251 -0.13694,0.21394 -1.98508,-2.17 -2.65514,-3.5264 -2.65514,-3.5264 0,0 -0.96831,-1.74374 -1.30431,-1.76526 z" /><path
       id="path45145"
       style="display:inline;fill:#545863;fill-opacity:1;stroke:#545863;stroke-width:1;stroke-linecap:round;stroke-dasharray:none;stroke-opacity:1;paint-order:stroke markers fill"
       d="m 49.963659,198.05292 c -0.131479,-0.008 -0.16591,0.247 -0.0078,0.97358 0,0 1.626797,2.44172 3.595646,4.89583 -2.697014,4.16082 -3.84576,5.29166 -3.84576,5.29166 0,0 1.990361,-0.12797 2.645833,-1.56269 0.552865,-1.21013 1.110099,-2.25764 1.655713,-3.16725 1.486783,1.8028 3.106913,3.5108 4.344438,4.14652 3.041713,1.56251 1.375113,-0.35399 1.375113,-0.35399 0,0 -2.312679,-1.36289 -4.937687,-4.02094 -0.135465,-0.13716 -0.264938,-0.27146 -0.39119,-0.40359 3.293198,-5.15459 6.016417,-5.30507 4.579048,-5.40898 0,0 -1.854464,-0.125 -4.917012,4.68757 -0.0465,0.073 -0.09127,0.14251 -0.136943,0.21394 -1.985081,-2.17 -2.654618,-3.5264 -2.654618,-3.5264 0,0 -0.968831,-1.74374 -1.30483,-1.76526 z m 19.585883,0 c -0.13148,-0.008 -0.16591,0.247 -0.008,0.97358 0,0 1.62628,2.44172 3.59513,4.89583 -2.69701,4.16082 -3.84524,5.29166 -3.84524,5.29166 0,0 1.99036,-0.12797 2.64583,-1.56269 0.55287,-1.21013 1.1101,-2.25764 1.65571,-3.16725 1.48679,1.8028 3.10692,3.5108 4.34444,4.14652 3.04172,1.56251 1.37511,-0.35399 1.37511,-0.35399 0,0 -2.31267,-1.36289 -4.93768,-4.02094 -0.13547,-0.13716 -0.26494,-0.27146 -0.39119,-0.40359 3.2932,-5.15459 6.01589,-5.30507 4.57853,-5.40898 0,0 -1.85395,-0.125 -4.9165,4.68757 -0.0465,0.073 -0.0913,0.14251 -0.13694,0.21394 -1.98508,-2.17 -2.65462,-3.5264 -2.65462,-3.5264 0,0 -0.96883,-1.74374 -1.30483,-1.76526 z" /><text
       xml:space="preserve"
       style="font-style:normal;font-variant:normal;font-weight:normal;font-stretch:normal;font-size:18.0018px;font-family:Janitor;-inkscape-font-specification:Janitor;text-align:center;text-anchor:middle;fill:#ffffff;fill-opacity:1;stroke:none;stroke-width:0.911223;stroke-linecap:square;stroke-dasharray:none;stroke-opacity:1"
       x="137.42352"
       y="102.97689"
       id="text45154"><tspan
         sodipodi:role="line"
         id="tspan45152"
         style="stroke-width:0.911223"
         x="137.42352"
         y="102.97689">-2</tspan></text><text
       xml:space="preserve"
       style="font-style:normal;font-variant:normal;font-weight:normal;font-stretch:normal;font-size:18.0018px;font-family:Janitor;-inkscape-font-specification:Janitor;text-align:center;text-anchor:middle;fill:#ffffff;fill-opacity:1;stroke:none;stroke-width:0.911223;stroke-linecap:square;stroke-dasharray:none;stroke-opacity:1"
       x="139.0701"
       y="149.41013"
       id="text45158"><tspan
         sodipodi:role="line"
         id="tspan45156"
         style="stroke-width:0.911223"
         x="139.0701"
         y="149.41013">-1</tspan></text><text
       xml:space="preserve"
       style="font-style:normal;font-variant:normal;font-weight:normal;font-stretch:normal;font-size:18.0018px;font-family:Janitor;-inkscape-font-specification:Janitor;text-align:center;text-anchor:middle;fill:#ffffff;fill-opacity:1;stroke:none;stroke-width:0.911223;stroke-linecap:square;stroke-dasharray:none;stroke-opacity:1"
       x="139.0701"
       y="191.79063"
       id="text45212"><tspan
         sodipodi:role="line"
         id="tspan45210"
         style="stroke-width:0.911223"
         x="139.0701"
         y="191.79063">-1</tspan></text><text
       xml:space="preserve"
       style="font-style:normal;font-variant:normal;font-weight:normal;font-stretch:normal;font-size:18.0018px;font-family:Janitor;-inkscape-font-specification:Janitor;text-align:center;text-anchor:middle;fill:#ffffff;fill-opacity:1;stroke:none;stroke-width:0.911223;stroke-linecap:square;stroke-dasharray:none;stroke-opacity:1"
       x="139.53581"
       y="231.37682"
       id="text45216"><tspan
         sodipodi:role="line"
         id="tspan45214"
         style="stroke-width:0.911223"
         x="139.53581"
         y="231.37682">-1</tspan></text><text
       xml:space="preserve"
       style="font-style:normal;font-variant:normal;font-weight:normal;font-stretch:normal;font-size:18.0018px;font-family:Janitor;-inkscape-font-specification:Janitor;text-align:center;text-anchor:middle;fill:#ffffff;fill-opacity:1;stroke:none;stroke-width:0.911223;stroke-linecap:square;stroke-dasharray:none;stroke-opacity:1"
       x="61.993454"
       y="232.30826"
       id="text45220"><tspan
         sodipodi:role="line"
         id="tspan45218"
         style="stroke-width:0.911223"
         x="61.993454"
         y="232.30826">-1</tspan></text></g><style
     type="text/css"
     id="style2665-21">
	.st0{fill:#C43124;stroke:#010202;stroke-width:5;stroke-miterlimit:10;}
	.st1{fill:#E8A627;stroke:#010202;stroke-width:5;stroke-miterlimit:10;}
	.st2{fill:#F9DE59;stroke:#010202;stroke-width:5;stroke-miterlimit:10;}
</style></svg>
