<?xml version="1.0" encoding="UTF-8" standalone="no"?>
<!-- Created with Inkscape (http://www.inkscape.org/) -->

<svg
   width="172.5423mm"
   height="69.309853mm"
   viewBox="0 0 172.5423 69.309853"
   version="1.1"
   id="svg5"
   xml:space="preserve"
   inkscape:version="1.2.2 (732a01da63, 2022-12-09)"
   sodipodi:docname="logo_design.svg"
   inkscape:export-filename="logo_design.svg"
   inkscape:export-xdpi="96"
   inkscape:export-ydpi="96"
   xmlns:inkscape="http://www.inkscape.org/namespaces/inkscape"
   xmlns:sodipodi="http://sodipodi.sourceforge.net/DTD/sodipodi-0.dtd"
   xmlns="http://www.w3.org/2000/svg"
   xmlns:svg="http://www.w3.org/2000/svg"><sodipodi:namedview
     id="namedview7"
     pagecolor="#ffffff"
     bordercolor="#000000"
     borderopacity="0.25"
     inkscape:showpageshadow="2"
     inkscape:pageopacity="0.0"
     inkscape:pagecheckerboard="0"
     inkscape:deskcolor="#d1d1d1"
     inkscape:document-units="mm"
     showgrid="false"
     inkscape:zoom="1.3808221"
     inkscape:cx="418.59121"
     inkscape:cy="658.66558"
     inkscape:window-width="1920"
     inkscape:window-height="991"
     inkscape:window-x="-9"
     inkscape:window-y="-9"
     inkscape:window-maximized="1"
     inkscape:current-layer="layer20" /><defs
     id="defs2"><filter
       inkscape:collect="always"
       style="color-interpolation-filters:sRGB"
       id="filter2404"
       x="-0.011217917"
       y="-0.028891735"
       width="1.0224358"
       height="1.0577835"><feGaussianBlur
         inkscape:collect="always"
         stdDeviation="0.78878829"
         id="feGaussianBlur2406" /></filter><filter
       inkscape:collect="always"
       style="color-interpolation-filters:sRGB"
       id="filter2410"
       x="-0.093759447"
       y="-0.15258333"
       width="1.187519"
       height="1.3051667"><feGaussianBlur
         inkscape:collect="always"
         stdDeviation="0.63713776"
         id="feGaussianBlur2412" /></filter></defs><style
     type="text/css"
     id="style2665">
	.st0{fill:#C43124;stroke:#010202;stroke-width:5;stroke-miterlimit:10;}
	.st1{fill:#E8A627;stroke:#010202;stroke-width:5;stroke-miterlimit:10;}
	.st2{fill:#F9DE59;stroke:#010202;stroke-width:5;stroke-miterlimit:10;}
</style><style
     type="text/css"
     id="style6963">.st0{fill:#EF4136;stroke:#BE1E2D;stroke-width:6;stroke-miterlimit:10;} .st1{fill:#BE1E2D;} .st2{fill:none;}</style><g
     inkscape:groupmode="layer"
     id="layer20"
     inkscape:label="gameOver"
     transform="translate(-20.631115,-78.655996)"><g
       id="g2022"
       inkscape:label="wiiner_sticker"><path
         id="path2024"
         style="mix-blend-mode:multiply;fill:#000000;fill-opacity:0.5;stroke:none;stroke-width:0.3;stroke-linecap:round;stroke-linejoin:round;filter:url(#filter2404)"
         inkscape:label="sticker_shadow"
         d="m 127.83561,80.549089 c 0,0 -2.86319,15.941768 -4.17701,22.046201 H 38.833289 L 22.524207,112.6169 v 29.07264 c 0,2.42826 1.954943,4.3832 4.383195,4.3832 H 186.89712 c 2.42825,0 4.38319,-1.95494 4.38319,-4.3832 v -34.71106 c 0,-2.42824 -1.95494,-4.38319 -4.38319,-4.38319 h -26.1922 l 2.08721,-12.561509 -6.97735,3.590478 -3.5233,-10.432954 -7.38405,7.790738 -6.09678,-10.365258 -5.96191,6.910172 z" /><path
         id="path2401"
         style="fill:#f2f2f2;stroke:#000000;stroke-width:0.3;stroke-linecap:round;stroke-linejoin:round"
         inkscape:label="sticker"
         d="m 127.83561,80.549089 c 0,0 -2.86319,15.941768 -4.17701,22.046201 H 38.833289 L 22.524207,112.6169 v 29.07264 c 0,2.42826 1.954943,4.3832 4.383195,4.3832 H 186.89712 c 2.42825,0 4.38319,-1.95494 4.38319,-4.3832 v -34.71106 c 0,-2.42824 -1.95494,-4.38319 -4.38319,-4.38319 h -26.1922 l 2.08721,-12.561509 -6.97735,3.590478 -3.5233,-10.432954 -7.38405,7.790738 -6.09678,-10.365258 -5.96191,6.910172 z" /><g
         id="layer19-4"
         inkscape:label="crown"
         transform="matrix(0.4860858,0,0,0.4860858,92.093232,46.10845)"
         style="display:inline"><path
           id="path648-4"
           style="display:inline;fill:#d48d00;fill-opacity:1;stroke:#000000;stroke-width:0.5;stroke-linecap:round;stroke-linejoin:round;stroke-dasharray:none;stroke-opacity:1"
           d="m 96.06287,79.803914 -13.278259,15.310694 -1.219047,8.400522 18.562176,14.904 8.40038,-15.03986 z m 25.04548,5.423664 c 0,0 -9.36437,12.316094 -9.77084,13.80649 0,0 6.26826,17.216812 6.94571,19.926632 0.67746,2.7098 11.38122,-8.8067 11.38122,-8.8067 z"
           sodipodi:nodetypes="ccccccccscc" /><path
           style="display:inline;fill:#ffd42a;stroke:#000000;stroke-width:0.5;stroke-linecap:round;stroke-linejoin:round;stroke-dasharray:none;stroke-opacity:1"
           d="m 75.400621,83.259084 c 0,0 0.680409,7.658308 -1.238834,18.303396 -1.769283,9.81334 -4.655016,19.56628 -4.655016,19.56628 0,0 15.309932,13.88945 28.408604,16.04258 25.522055,4.19525 36.085015,-1.68055 36.085015,-1.68055 l 6.50355,-37.937427 -17.34282,12.600647 -10.43279,-17.749295 -7.99396,15.581435 -8.823333,-20.045824 -7.928206,14.969734 z"
           id="path646-0"
           sodipodi:nodetypes="cscscccccccc" /><path
           id="path2045-1"
           style="mix-blend-mode:multiply;fill:#d4aa00;stroke:none;stroke-width:0.5;stroke-linecap:round;stroke-linejoin:round;stroke-dasharray:none;stroke-opacity:1"
           d="m 140.23278,97.82452 c 0,0 -8.30898,19.36563 -16.10961,25.87594 -15.41703,12.8669 -36.528517,9.55497 -36.528517,9.55497 0,0 5.048882,5.24532 29.341357,5.10305 4.83021,-0.0283 8.46567,-0.44008 11.11612,-0.93534 4.06871,-0.89268 5.94848,-1.93219 5.94848,-1.93219 l 0.81132,-4.73304 c 1.22778,-7.34798 5.42085,-32.461983 5.42085,-32.93339 z" /><path
           style="mix-blend-mode:screen;fill:#8e8e8e;fill-opacity:1;stroke:none;stroke-width:0.499999;stroke-linecap:round;stroke-linejoin:round;stroke-dasharray:none;stroke-opacity:1"
           d="m 75.66219,83.585069 c 0,0 0.404869,10.251695 -1.796713,20.820061 -2.233999,10.72398 -4.046526,16.67027 -4.046526,16.67027 l 6.105667,4.96832 c 0,0 3.263001,-13.38604 3.047862,-19.95639 -0.312809,-9.553183 -3.31029,-22.502261 -3.31029,-22.502261 z"
           id="path2965-8"
           sodipodi:nodetypes="csccsc" /></g><path
         id="rect2083"
         style="mix-blend-mode:multiply;fill:#000000;fill-opacity:0.5;stroke:none;stroke-width:0.3;stroke-linecap:round;stroke-linejoin:round;stroke-dasharray:none;stroke-opacity:1;filter:url(#filter2410)"
         d="m 34.450056,112.61688 c 2.428249,0 4.383195,-1.95494 4.383193,-4.38319 l 2e-6,-5.63842 -16.309084,10.02161 z"
         inkscape:label="crease_shadow" /><path
         id="path2408"
         style="fill:#f2f2f2;stroke:#000000;stroke-width:0.3;stroke-linecap:round;stroke-linejoin:round;stroke-dasharray:none;stroke-opacity:1"
         d="m 34.450056,112.61688 c 2.428249,0 4.383195,-1.95494 4.383193,-4.38319 l 2e-6,-5.63842 -16.309084,10.02161 z"
         inkscape:label="crease" /></g></g><style
     type="text/css"
     id="style2665-4">
	.st0{fill:#C43124;stroke:#010202;stroke-width:5;stroke-miterlimit:10;}
	.st1{fill:#E8A627;stroke:#010202;stroke-width:5;stroke-miterlimit:10;}
	.st2{fill:#F9DE59;stroke:#010202;stroke-width:5;stroke-miterlimit:10;}
</style><style
     type="text/css"
     id="style6963-4">.st0{fill:#EF4136;stroke:#BE1E2D;stroke-width:6;stroke-miterlimit:10;} .st1{fill:#BE1E2D;} .st2{fill:none;}</style></svg>
