<?xml version="1.0" encoding="UTF-8" standalone="no"?>
<!-- Created with Inkscape (http://www.inkscape.org/) -->

<svg
   width="172.7941mm"
   height="72.169418mm"
   viewBox="0 0 172.7941 72.169418"
   version="1.1"
   id="svg5"
   xml:space="preserve"
   inkscape:version="1.2.2 (732a01da63, 2022-12-09)"
   sodipodi:docname="logo_design.svg"
   inkscape:export-filename="logo_design.svg"
   inkscape:export-xdpi="96"
   inkscape:export-ydpi="96"
   xmlns:inkscape="http://www.inkscape.org/namespaces/inkscape"
   xmlns:sodipodi="http://sodipodi.sourceforge.net/DTD/sodipodi-0.dtd"
   xmlns="http://www.w3.org/2000/svg"
   xmlns:svg="http://www.w3.org/2000/svg"><sodipodi:namedview
     id="namedview7"
     pagecolor="#ffffff"
     bordercolor="#000000"
     borderopacity="0.25"
     inkscape:showpageshadow="2"
     inkscape:pageopacity="0.0"
     inkscape:pagecheckerboard="0"
     inkscape:deskcolor="#d1d1d1"
     inkscape:document-units="mm"
     showgrid="false"
     inkscape:zoom="0.80343866"
     inkscape:cx="93.348757"
     inkscape:cy="632.90457"
     inkscape:window-width="1920"
     inkscape:window-height="991"
     inkscape:window-x="-9"
     inkscape:window-y="-9"
     inkscape:window-maximized="1"
     inkscape:current-layer="g935" /><defs
     id="defs2"><filter
       inkscape:collect="always"
       style="color-interpolation-filters:sRGB"
       id="filter3437"
       x="-0.011965623"
       y="-0.046444535"
       width="1.0239311"
       height="1.0928891"><feGaussianBlur
         inkscape:collect="always"
         stdDeviation="0.84136076"
         id="feGaussianBlur3439" /></filter><filter
       inkscape:collect="always"
       style="color-interpolation-filters:sRGB"
       id="filter3443"
       x="-0.081259184"
       y="-0.10985425"
       width="1.1625184"
       height="1.2197084"><feGaussianBlur
         inkscape:collect="always"
         stdDeviation="0.58135967"
         id="feGaussianBlur3445" /></filter></defs><style
     type="text/css"
     id="style2665">
	.st0{fill:#C43124;stroke:#010202;stroke-width:5;stroke-miterlimit:10;}
	.st1{fill:#E8A627;stroke:#010202;stroke-width:5;stroke-miterlimit:10;}
	.st2{fill:#F9DE59;stroke:#010202;stroke-width:5;stroke-miterlimit:10;}
</style><style
     type="text/css"
     id="style6963">.st0{fill:#EF4136;stroke:#BE1E2D;stroke-width:6;stroke-miterlimit:10;} .st1{fill:#BE1E2D;} .st2{fill:none;}</style><style
     type="text/css"
     id="style2665-4">
	.st0{fill:#C43124;stroke:#010202;stroke-width:5;stroke-miterlimit:10;}
	.st1{fill:#E8A627;stroke:#010202;stroke-width:5;stroke-miterlimit:10;}
	.st2{fill:#F9DE59;stroke:#010202;stroke-width:5;stroke-miterlimit:10;}
</style><style
     type="text/css"
     id="style6963-4">.st0{fill:#EF4136;stroke:#BE1E2D;stroke-width:6;stroke-miterlimit:10;} .st1{fill:#BE1E2D;} .st2{fill:none;}</style><style
     type="text/css"
     id="style2665-8">
	.st0{fill:#C43124;stroke:#010202;stroke-width:5;stroke-miterlimit:10;}
	.st1{fill:#E8A627;stroke:#010202;stroke-width:5;stroke-miterlimit:10;}
	.st2{fill:#F9DE59;stroke:#010202;stroke-width:5;stroke-miterlimit:10;}
</style><style
     type="text/css"
     id="style2665-2">
	.st0{fill:#C43124;stroke:#010202;stroke-width:5;stroke-miterlimit:10;}
	.st1{fill:#E8A627;stroke:#010202;stroke-width:5;stroke-miterlimit:10;}
	.st2{fill:#F9DE59;stroke:#010202;stroke-width:5;stroke-miterlimit:10;}
</style><style
     type="text/css"
     id="style2665-1">
	.st0{fill:#C43124;stroke:#010202;stroke-width:5;stroke-miterlimit:10;}
	.st1{fill:#E8A627;stroke:#010202;stroke-width:5;stroke-miterlimit:10;}
	.st2{fill:#F9DE59;stroke:#010202;stroke-width:5;stroke-miterlimit:10;}
</style><style
     type="text/css"
     id="style2665-46">
	.st0{fill:#C43124;stroke:#010202;stroke-width:5;stroke-miterlimit:10;}
	.st1{fill:#E8A627;stroke:#010202;stroke-width:5;stroke-miterlimit:10;}
	.st2{fill:#F9DE59;stroke:#010202;stroke-width:5;stroke-miterlimit:10;}
</style><style
     type="text/css"
     id="style2665-5">
	.st0{fill:#C43124;stroke:#010202;stroke-width:5;stroke-miterlimit:10;}
	.st1{fill:#E8A627;stroke:#010202;stroke-width:5;stroke-miterlimit:10;}
	.st2{fill:#F9DE59;stroke:#010202;stroke-width:5;stroke-miterlimit:10;}
</style><style
     type="text/css"
     id="style2665-0">
	.st0{fill:#C43124;stroke:#010202;stroke-width:5;stroke-miterlimit:10;}
	.st1{fill:#E8A627;stroke:#010202;stroke-width:5;stroke-miterlimit:10;}
	.st2{fill:#F9DE59;stroke:#010202;stroke-width:5;stroke-miterlimit:10;}
</style><style
     type="text/css"
     id="style2665-7">
	.st0{fill:#C43124;stroke:#010202;stroke-width:5;stroke-miterlimit:10;}
	.st1{fill:#E8A627;stroke:#010202;stroke-width:5;stroke-miterlimit:10;}
	.st2{fill:#F9DE59;stroke:#010202;stroke-width:5;stroke-miterlimit:10;}
</style><style
     type="text/css"
     id="style2665-469">
	.st0{fill:#C43124;stroke:#010202;stroke-width:5;stroke-miterlimit:10;}
	.st1{fill:#E8A627;stroke:#010202;stroke-width:5;stroke-miterlimit:10;}
	.st2{fill:#F9DE59;stroke:#010202;stroke-width:5;stroke-miterlimit:10;}
</style><style
     type="text/css"
     id="style2665-72">
	.st0{fill:#C43124;stroke:#010202;stroke-width:5;stroke-miterlimit:10;}
	.st1{fill:#E8A627;stroke:#010202;stroke-width:5;stroke-miterlimit:10;}
	.st2{fill:#F9DE59;stroke:#010202;stroke-width:5;stroke-miterlimit:10;}
</style><style
     type="text/css"
     id="style2665-14">
	.st0{fill:#C43124;stroke:#010202;stroke-width:5;stroke-miterlimit:10;}
	.st1{fill:#E8A627;stroke:#010202;stroke-width:5;stroke-miterlimit:10;}
	.st2{fill:#F9DE59;stroke:#010202;stroke-width:5;stroke-miterlimit:10;}
</style><style
     type="text/css"
     id="style2665-3">
	.st0{fill:#C43124;stroke:#010202;stroke-width:5;stroke-miterlimit:10;}
	.st1{fill:#E8A627;stroke:#010202;stroke-width:5;stroke-miterlimit:10;}
	.st2{fill:#F9DE59;stroke:#010202;stroke-width:5;stroke-miterlimit:10;}
</style><style
     type="text/css"
     id="style2665-09">
	.st0{fill:#C43124;stroke:#010202;stroke-width:5;stroke-miterlimit:10;}
	.st1{fill:#E8A627;stroke:#010202;stroke-width:5;stroke-miterlimit:10;}
	.st2{fill:#F9DE59;stroke:#010202;stroke-width:5;stroke-miterlimit:10;}
</style><style
     type="text/css"
     id="style2665-58">
	.st0{fill:#C43124;stroke:#010202;stroke-width:5;stroke-miterlimit:10;}
	.st1{fill:#E8A627;stroke:#010202;stroke-width:5;stroke-miterlimit:10;}
	.st2{fill:#F9DE59;stroke:#010202;stroke-width:5;stroke-miterlimit:10;}
</style><style
     type="text/css"
     id="style2665-40">
	.st0{fill:#C43124;stroke:#010202;stroke-width:5;stroke-miterlimit:10;}
	.st1{fill:#E8A627;stroke:#010202;stroke-width:5;stroke-miterlimit:10;}
	.st2{fill:#F9DE59;stroke:#010202;stroke-width:5;stroke-miterlimit:10;}
</style><style
     type="text/css"
     id="style2665-6">
	.st0{fill:#C43124;stroke:#010202;stroke-width:5;stroke-miterlimit:10;}
	.st1{fill:#E8A627;stroke:#010202;stroke-width:5;stroke-miterlimit:10;}
	.st2{fill:#F9DE59;stroke:#010202;stroke-width:5;stroke-miterlimit:10;}
</style><style
     type="text/css"
     id="style2665-04">
	.st0{fill:#C43124;stroke:#010202;stroke-width:5;stroke-miterlimit:10;}
	.st1{fill:#E8A627;stroke:#010202;stroke-width:5;stroke-miterlimit:10;}
	.st2{fill:#F9DE59;stroke:#010202;stroke-width:5;stroke-miterlimit:10;}
</style><style
     type="text/css"
     id="style2665-12">
	.st0{fill:#C43124;stroke:#010202;stroke-width:5;stroke-miterlimit:10;}
	.st1{fill:#E8A627;stroke:#010202;stroke-width:5;stroke-miterlimit:10;}
	.st2{fill:#F9DE59;stroke:#010202;stroke-width:5;stroke-miterlimit:10;}
</style><style
     type="text/css"
     id="style2665-52">
	.st0{fill:#C43124;stroke:#010202;stroke-width:5;stroke-miterlimit:10;}
	.st1{fill:#E8A627;stroke:#010202;stroke-width:5;stroke-miterlimit:10;}
	.st2{fill:#F9DE59;stroke:#010202;stroke-width:5;stroke-miterlimit:10;}
</style><style
     type="text/css"
     id="style2665-61">
	.st0{fill:#C43124;stroke:#010202;stroke-width:5;stroke-miterlimit:10;}
	.st1{fill:#E8A627;stroke:#010202;stroke-width:5;stroke-miterlimit:10;}
	.st2{fill:#F9DE59;stroke:#010202;stroke-width:5;stroke-miterlimit:10;}
</style><style
     type="text/css"
     id="style2665-36">
	.st0{fill:#C43124;stroke:#010202;stroke-width:5;stroke-miterlimit:10;}
	.st1{fill:#E8A627;stroke:#010202;stroke-width:5;stroke-miterlimit:10;}
	.st2{fill:#F9DE59;stroke:#010202;stroke-width:5;stroke-miterlimit:10;}
</style><style
     type="text/css"
     id="style6963-6">.st0{fill:#EF4136;stroke:#BE1E2D;stroke-width:6;stroke-miterlimit:10;} .st1{fill:#BE1E2D;} .st2{fill:none;}</style><style
     type="text/css"
     id="style2665-21">
	.st0{fill:#C43124;stroke:#010202;stroke-width:5;stroke-miterlimit:10;}
	.st1{fill:#E8A627;stroke:#010202;stroke-width:5;stroke-miterlimit:10;}
	.st2{fill:#F9DE59;stroke:#010202;stroke-width:5;stroke-miterlimit:10;}
</style><style
     type="text/css"
     id="style2665-62">
	.st0{fill:#C43124;stroke:#010202;stroke-width:5;stroke-miterlimit:10;}
	.st1{fill:#E8A627;stroke:#010202;stroke-width:5;stroke-miterlimit:10;}
	.st2{fill:#F9DE59;stroke:#010202;stroke-width:5;stroke-miterlimit:10;}
</style><style
     type="text/css"
     id="style2665-74">
	.st0{fill:#C43124;stroke:#010202;stroke-width:5;stroke-miterlimit:10;}
	.st1{fill:#E8A627;stroke:#010202;stroke-width:5;stroke-miterlimit:10;}
	.st2{fill:#F9DE59;stroke:#010202;stroke-width:5;stroke-miterlimit:10;}
</style><style
     type="text/css"
     id="style2665-67">
	.st0{fill:#C43124;stroke:#010202;stroke-width:5;stroke-miterlimit:10;}
	.st1{fill:#E8A627;stroke:#010202;stroke-width:5;stroke-miterlimit:10;}
	.st2{fill:#F9DE59;stroke:#010202;stroke-width:5;stroke-miterlimit:10;}
</style><style
     type="text/css"
     id="style6963-69">.st0{fill:#EF4136;stroke:#BE1E2D;stroke-width:6;stroke-miterlimit:10;} .st1{fill:#BE1E2D;} .st2{fill:none;}</style><g
     inkscape:groupmode="layer"
     id="g957"
     inkscape:label="gameOver_2"
     style="display:inline"
     transform="translate(-20.631121,-145.4017)"><g
       id="g935"
       inkscape:label="loser_sticker"
       inkscape:export-filename="..\..\Users\D\Desktop\loser_sticker.svg"
       inkscape:export-xdpi="96"
       inkscape:export-ydpi="96"
       transform="matrix(1,0,0,0.99504567,-0.03350061,-0.53583061)"
       style="display:inline"><path
         id="path927"
         style="mix-blend-mode:multiply;fill:#000000;fill-opacity:0.5;stroke:none;stroke-width:0.3;stroke-linecap:round;stroke-linejoin:round;filter:url(#filter3437)"
         inkscape:label="sticker_shadow"
         d="m 27.067082,149.74642 c -2.428254,0 -4.383195,1.95442 -4.383195,4.38267 v 57.59836 c 0,2.42826 1.954941,4.3832 4.383195,4.3832 H 174.26895 l 17.17053,-12.70104 v -49.28052 c 0,-2.42825 -1.95495,-4.38267 -4.3832,-4.38267 z"
         sodipodi:nodetypes="ssssccsss"
         transform="matrix(-1,0,0,1,214.12335,0)" /><path
         id="path929"
         style="fill:#f2f2f2;stroke:#000000;stroke-width:0.3;stroke-linecap:round;stroke-linejoin:round"
         inkscape:label="sticker"
         d="m 187.05627,149.74642 c 2.42825,0 4.38319,1.95442 4.38319,4.38267 v 57.59836 c 0,2.42826 -1.95494,4.3832 -4.38319,4.3832 H 39.8544 L 22.68387,203.40961 v -49.28052 c 0,-2.42825 1.95495,-4.38267 4.3832,-4.38267 z"
         sodipodi:nodetypes="ssssccsss" /><path
         d="m 46.645442,188.19033 c -0.0031,-10e-4 -0.0062,-0.002 -0.0095,-0.003 -0.0065,-0.003 -0.01285,-0.005 -0.01935,-0.008 -0.0034,-0.001 -0.0069,-0.003 -0.01029,-0.004 -0.01578,-0.005 -0.03178,-0.01 -0.04824,-0.0142 -0.0079,-0.001 -0.016,-0.003 -0.02357,-0.005 -0.0045,-10e-4 -0.009,-0.002 -0.01359,-0.003 -0.0033,-8.9e-4 -0.0068,-9e-4 -0.01035,-0.001 -0.004,-8.2e-4 -0.0078,-0.001 -0.01238,-0.001 -0.0072,-0.001 -0.0142,-0.002 -0.02146,-0.003 -0.0031,-4.1e-4 -0.0068,2.1e-4 -0.0099,-1.2e-4 -0.0199,-0.002 -0.0407,-0.003 -0.06221,-0.003 -5.705274,0.81547 -6.154232,2.8026 -7.157715,7.47381 -0.196482,0.91447 -0.300023,1.75405 -0.370182,2.58384 l -2.658789,1.03922 -1.259808,2.77657 2.000823,0.90783 1.565247,-0.31195 0.933962,0.42376 -0.319079,0.67534 0.598918,0.27174 0.319818,-0.675 1.025418,0.46527 c 2.12e-4,-2.7e-4 3.81e-4,-4.5e-4 6.75e-4,-7e-4 l 0.79693,1.38486 2.000826,0.90784 1.259809,-2.77657 -1.041085,-2.88533 c 0.568215,-0.64478 1.134101,-1.30414 1.725489,-2.02941 2.516007,-3.08561 4.176226,-5.19435 1.032529,-10.02487 -0.02074,-0.0239 -0.04259,-0.0448 -0.06444,-0.0641 -0.0024,-0.002 -0.0047,-0.004 -0.007,-0.007 -0.0037,-0.003 -0.0075,-0.006 -0.01074,-0.009 -0.0042,-0.004 -0.0092,-0.006 -0.01322,-0.0104 -0.0064,-0.005 -0.01258,-0.0101 -0.01939,-0.0143 -0.01344,-0.0105 -0.02763,-0.018 -0.04165,-0.0266 -0.0092,-0.005 -0.01855,-0.0106 -0.02806,-0.0149 -0.0063,-0.003 -0.01222,-0.007 -0.0186,-0.009 -0.0032,-0.001 -0.0067,-0.003 -0.0099,-0.005 l 5.1e-5,-2.2e-4 z"
         id="path7580"
         style="display:inline;fill:#d30b7a;fill-opacity:1;stroke-width:0.0217755"
         inkscape:label="Shots"
         transform="matrix(1,0,0,1.004979,0.03350061,0.53849851)" /><path
         id="path931"
         style="mix-blend-mode:multiply;fill:#000000;fill-opacity:0.5;stroke:none;stroke-width:0.3;stroke-linecap:round;stroke-linejoin:round;filter:url(#filter3443)"
         inkscape:label="crease_shadow"
         d="m 174.26895,216.11065 17.17053,-12.70104 h -12.78733 c -2.42825,0 -4.3832,1.95494 -4.3832,4.3832 z"
         transform="matrix(-1,0,0,1,214.12335,0)" /><path
         id="path933"
         style="fill:#f2f2f2;stroke:#000000;stroke-width:0.3;stroke-linecap:round;stroke-linejoin:round"
         inkscape:label="crease"
         d="M 39.8544,216.11065 22.68387,203.40961 H 35.4712 c 2.42825,0 4.3832,1.95494 4.3832,4.3832 z" /><path
         id="path7578"
         style="display:inline;fill:#545863;fill-opacity:1;stroke-width:0.0256804"
         inkscape:label="ships"
         d="m 139.17864,189.89145 -0.0173,0.059 c -0.0344,0.11727 -0.0933,0.32878 -0.13088,0.47003 -0.0376,0.14124 -0.0791,0.28288 -0.0922,0.31466 l -0.024,0.0578 h -0.78101 c -0.8335,0 -0.80924,0.004 -0.80258,-0.12848 0.003,-0.0546 0.0172,-0.0652 0.0975,-0.072 0.13438,-0.0112 0.15301,-0.0471 0.14433,-0.27864 l -0.007,-0.20141 h -0.59065 -0.59065 l -0.007,0.20141 c -0.005,0.12221 0.004,0.21509 0.0212,0.23615 0.0159,0.0191 0.077,0.0379 0.13596,0.0425 0.10397,0.007 0.10718,0.0106 0.10718,0.0977 v 0.0899 l -0.30655,0.007 c -0.17213,0.004 -0.32139,0.0196 -0.34029,0.0352 -0.0764,0.0634 0.002,0.2014 0.11364,0.2014 0.0343,0 0.0584,0.008 0.0536,0.0192 -0.005,0.0106 -0.14821,0.30244 -0.31859,0.64848 -0.17039,0.34605 -0.41226,0.84007 -0.53751,1.09785 l -0.22766,0.46862 h -1.14641 -1.14642 l -0.07,-0.26317 c -0.0933,-0.35129 -0.11489,-0.39164 -0.2094,-0.39164 h -0.0761 l -0.007,0.32747 c -0.004,0.18219 -0.0179,0.32734 -0.0313,0.32734 -0.0134,0 -0.0273,-0.14515 -0.0313,-0.32734 -0.007,-0.32238 -0.008,-0.32766 -0.0678,-0.3361 -0.0335,-0.005 -0.0716,0.003 -0.0849,0.0156 -0.0133,0.0133 -0.062,0.16147 -0.10831,0.3295 l -0.0841,0.30554 -0.50733,0.0128 c -0.46419,0.0118 -0.51026,0.0171 -0.54359,0.0628 -0.0491,0.0673 -0.0466,0.0795 0.0277,0.13812 0.0793,0.0625 0.0793,0.0669 -0.004,0.25175 -0.0658,0.14674 -0.12134,0.27834 -0.38988,0.92383 -0.0711,0.17088 -0.16088,0.38175 -0.19963,0.46864 l -0.0705,0.15803 h -1.29253 -1.29252 v -0.13951 c 0,-0.13876 5.1e-4,-0.13976 0.0834,-0.14776 l 0.0834,-0.008 v -0.19266 -0.19252 h -0.4751 -0.47511 v 0.19252 0.19266 l 0.0897,0.008 c 0.11088,0.0106 0.11881,0.023 0.10718,0.16931 l -0.009,0.11745 h -0.27902 c -0.25818,0 -0.28117,0.004 -0.3082,0.0547 -0.0223,0.0417 -0.0213,0.0692 0.004,0.11694 0.0279,0.052 0.0272,0.0721 -0.004,0.12099 -0.0205,0.0322 -0.12756,0.20213 -0.23805,0.37745 -0.11048,0.17532 -0.27411,0.43431 -0.36362,0.57555 l -0.16272,0.2567 h -0.74056 -0.74056 l -0.0451,-0.0898 c -0.0249,-0.0494 -0.11079,-0.24507 -0.191,-0.43464 l -0.14586,-0.34461 0.0942,-0.0814 c 0.14958,-0.1293 0.20851,-0.32408 0.14699,-0.48589 -0.0137,-0.0362 -0.0421,-0.066 -0.0632,-0.066 -0.023,0 -0.0495,-0.0422 -0.0667,-0.10591 -0.14266,-0.52979 -0.80757,-0.57118 -0.99803,-0.0621 -0.028,0.0749 -0.0747,0.17507 -0.10374,0.22271 -0.0607,0.0996 -0.0632,0.12569 -0.0246,0.26634 0.0179,0.0656 0.0691,0.14104 0.14104,0.20852 l 0.11275,0.10564 -0.16729,0.39508 c -0.0919,0.21729 -0.17687,0.41242 -0.18873,0.43363 -0.0295,0.0527 -1.02643,0.0717 -1.04037,0.0198 -0.17052,-0.6348 -0.2886,-0.87658 -0.48716,-0.99764 -0.0699,-0.0426 -0.13144,-0.0494 -0.45798,-0.0494 -0.22392,-4e-5 -0.38375,0.0104 -0.39318,0.0256 -0.0307,0.0498 -0.0908,0.0242 -0.27141,-0.11529 -0.1481,-0.11452 -0.19147,-0.13621 -0.23007,-0.11554 -0.0292,0.0155 -0.0533,0.0161 -0.0624,9.3e-4 -0.035,-0.0566 -0.60688,-0.46553 -0.63059,-0.45088 -0.0406,0.0251 -0.0174,0.0474 0.30985,0.29806 0.1688,0.12928 0.30716,0.25383 0.30743,0.27661 3e-4,0.0228 0.0754,0.0968 0.16691,0.1645 0.0915,0.0677 0.1664,0.13302 0.1664,0.14535 0,0.0123 -0.0408,0.084 -0.0906,0.15942 -0.12182,0.1841 -0.1766,0.37777 -0.15612,0.55196 l 0.016,0.13672 -1.12372,0.007 -1.12371,0.007 -0.007,0.10907 -0.007,0.10921 h -0.12594 -0.12594 l -0.0368,-0.12202 c -0.10671,-0.35395 -0.25135,-0.61479 -0.38772,-0.69908 -0.0747,-0.0462 -0.12741,-0.0521 -0.46179,-0.0521 -0.21617,0 -0.39912,0.0117 -0.42817,0.0273 -0.0427,0.0229 -0.081,0.005 -0.2425,-0.11732 -0.14576,-0.10972 -0.20492,-0.14019 -0.24618,-0.12708 -0.0298,0.01 -0.0614,0.007 -0.0703,-0.007 -0.028,-0.041 -0.5644,-0.44429 -0.59103,-0.44429 -0.0747,0 -0.0393,0.0608 0.0927,0.15918 0.0816,0.0607 0.16098,0.1221 0.17642,0.13622 0.0154,0.0141 0.0929,0.0719 0.17211,0.12835 0.0793,0.0565 0.14466,0.12198 0.14534,0.14547 9.4e-4,0.0375 0.20149,0.21843 0.30795,0.27801 0.0435,0.0243 0.0178,0.0897 -0.0841,0.21371 l -0.0558,0.0678 -0.75755,-0.0369 c -0.76541,-0.0373 -1.47151,-0.0703 -2.50387,-0.11681 -0.31074,-0.014 -0.81332,-0.0369 -1.11699,-0.0508 -1.28659,-0.059 -1.6899,-0.0769 -2.2856,-0.10171 -0.34605,-0.0145 -0.71299,-0.0319 -0.81539,-0.0388 -0.20109,-0.0135 -0.22251,0.002 -0.13203,0.097 0.0298,0.0312 0.52244,0.57958 1.09492,1.21871 v 1.2e-4 l 1.0409,1.16201 h 22.5146 c 17.98097,0 22.52043,-0.007 22.54132,-0.032 0.0144,-0.0177 0.0811,-0.19378 0.1484,-0.39152 0.0673,-0.19774 0.13339,-0.37396 0.14699,-0.39166 0.0332,-0.043 -0.0266,-0.11459 -0.0814,-0.0975 -0.0633,0.0196 -0.11097,-0.0235 -0.10135,-0.0916 0.007,-0.0519 0.0265,-0.0634 0.1243,-0.0742 0.10322,-0.0115 0.11637,-0.0204 0.12366,-0.0834 0.007,-0.0689 0.005,-0.0707 -0.12202,-0.0707 h -0.13012 v -0.0898 c 0,-0.0494 -0.008,-0.0902 -0.0192,-0.0902 -0.0106,-2.4e-4 -0.72417,-7.4e-4 -1.58574,-9.4e-4 l -1.56648,-9.3e-4 -0.0128,0.0846 -0.0129,0.0846 -0.81463,0.007 -0.81463,0.007 -0.007,-0.35348 -0.007,-0.35347 -0.10895,-0.008 c -0.10594,-0.007 -0.11403,-0.0149 -0.28676,-0.25669 -0.2797,-0.39169 -0.21647,-0.36202 -0.78508,-0.36566 -0.591,-0.004 -0.55993,-0.0234 -0.54803,0.34777 l 0.008,0.25683 -0.39204,0.007 -0.39203,0.007 -0.17286,-0.27294 c -0.0951,-0.15014 -0.28078,-0.44146 -0.41246,-0.64734 -0.2215,-0.34631 -0.23694,-0.37884 -0.2066,-0.43553 0.0481,-0.09 0.002,-0.14518 -0.13419,-0.16069 -0.0825,-0.009 -0.11497,-0.0254 -0.1215,-0.0596 -0.006,-0.0305 0.0102,-0.0516 0.0461,-0.061 0.0466,-0.0122 0.0536,-0.0304 0.0471,-0.12023 l -0.007,-0.10577 -0.22727,-0.007 c -0.13955,-0.005 -0.24047,0.004 -0.26153,0.021 -0.0519,0.0431 -0.0321,0.15076 0.0372,0.20305 0.0396,0.0299 0.0559,0.0614 0.0455,0.0883 -0.0143,0.0373 -0.0973,0.0419 -0.77124,0.0419 h -0.75516 l -0.12897,-0.19912 c -0.0709,-0.10947 -0.18591,-0.29148 -0.25557,-0.40447 -0.18298,-0.29681 -0.64528,-1.03743 -0.71329,-1.14273 -0.032,-0.0494 -0.11919,-0.18814 -0.19379,-0.3082 -0.0746,-0.12005 -0.17229,-0.27601 -0.21714,-0.34663 -0.0449,-0.0707 -0.30455,-0.48673 -0.5772,-0.92459 -0.21243,-0.34113 -0.32999,-0.52362 -0.41346,-0.65178 l -1.41656,-0.56235 -0.007,0.0586 -0.58457,0.007 -0.58455,0.007 -0.0241,-0.0582 c -0.0133,-0.032 -0.0667,-0.21429 -0.11859,-0.40496 -0.0167,-0.0613 -0.0242,-0.0892 -0.0405,-0.14865 l -0.37211,-0.14775 -0.003,0.23857 c -0.005,0.3175 -0.0167,0.51999 -0.032,0.51999 -0.0138,0 -0.0255,-0.0202 -0.026,-0.0448 -4.9e-4,-0.0247 -0.004,-0.25871 -0.007,-0.52001 l -0.003,-0.22157 z m -2.68156,1.51968 c 0.0831,-2.3e-4 0.0817,0.011 0.0705,0.0547 -0.008,0.0324 -0.0531,0.19474 -0.0996,0.36071 l -0.0845,0.30172 h -0.1995 c -0.1942,0 -0.19915,-0.002 -0.18492,-0.0578 0.008,-0.0318 0.0528,-0.19066 0.0994,-0.35309 l 0.0848,-0.29526 0.19964,-0.007 c 0.0493,-0.002 0.0863,-0.003 0.11402,-0.004 z m 2.93953,0.0299 c 1.39943,-0.005 1.93272,0.002 1.95813,0.0224 0.0255,0.0212 0.0349,0.10372 0.0349,0.30616 0,0.15248 -0.007,0.29563 -0.0156,0.31796 -0.014,0.0365 -0.21115,0.0406 -1.96535,0.0406 h -1.94962 l 0.007,-0.34028 0.007,-0.34029 z m 3.07169,0.095 v 0.2704 0.27041 h -0.34675 c -0.19068,0 -0.34692,-0.003 -0.3479,-0.007 -7.3e-4,-0.004 -0.004,-0.12193 -0.007,-0.26317 l -0.005,-0.25683 0.35284,-0.007 z m -6.29811,0.77594 c 0.0356,9.4e-4 0.0577,0.004 0.0577,0.007 0,0.0249 -0.1564,0.56593 -0.18416,0.63719 -0.0265,0.0684 -0.0341,0.0707 -0.217,0.0707 -0.10422,0 -0.18935,-0.008 -0.1891,-0.0192 2.2e-4,-0.0106 0.0448,-0.16948 0.0989,-0.3531 l 0.0984,-0.33394 0.19646,-0.007 c 0.054,-0.002 0.10314,-0.003 0.13876,-9.4e-4 z m 6.29988,0.0459 -0.007,0.27675 -0.007,0.27674 -0.34027,0.007 c -0.18716,0.004 -0.34058,-0.002 -0.34156,-0.0128 -7.4e-4,-0.011 -0.004,-0.13563 -0.007,-0.27687 l -0.005,-0.25683 0.3536,-0.007 z m -2.01443,0.0564 c 0.79517,5e-5 0.87966,0.009 0.90202,0.0395 0.0444,0.0605 0.0456,0.98399 0.002,1.02986 -0.0464,0.0467 -3.86895,0.0448 -3.88682,-0.002 -0.007,-0.018 -0.009,-0.26367 -0.006,-0.54575 l 0.007,-0.51291 1.92603,-0.007 c 0.44698,-0.002 0.79106,-0.003 1.05612,-0.003 z m 1.64029,0.70252 h 0.17971 0.17985 l 0.0128,0.19265 0.0128,0.19265 0.62274,0.007 0.62273,0.007 v 0.21776 h 2.5e-4 v 0.2179 h -0.95021 c -0.5226,0 -0.951,-0.006 -0.95199,-0.0128 -9.3e-4,-0.007 -0.003,-0.10246 -0.004,-0.21193 l -0.002,-0.199 0.12595,-0.0128 0.12606,-0.0128 0.0128,-0.19267 z m -10.0297,0.71012 c 0.21757,-5e-5 0.49762,9.3e-4 0.85813,0.003 1.57647,0.007 1.59577,0.007 1.59577,0.0579 0,0.0507 -0.0192,0.0514 -1.59692,0.0579 -0.94878,0.004 -1.60298,-0.003 -1.61162,-0.017 -0.008,-0.013 -0.007,-0.0421 9.4e-4,-0.0646 0.0106,-0.0278 0.10066,-0.0366 0.75336,-0.0368 z m 5.75389,0.0466 0.71265,0.007 0.71266,0.007 0.007,0.13482 0.007,0.13482 h -0.7204 -0.72039 v -0.14167 z m 2.4785,0.4245 h 0.56465 v 0.0771 0.077 l -0.55919,0.007 c -0.59406,0.007 -0.60213,0.006 -0.57898,-0.11453 0.008,-0.0433 0.0493,-0.0465 0.57352,-0.0465 z m -2.72886,0.35283 c 0.90955,-0.006 1.14991,1.6e-4 1.15211,0.0257 0.002,0.0178 0.005,0.0497 0.007,0.0709 0.002,0.0212 -0.007,0.053 -0.0189,0.0707 -0.0177,0.0249 -0.27768,0.032 -1.15047,0.032 -1.21632,0 -1.16697,0.006 -1.1473,-0.13292 l 0.008,-0.0597 z m -13.54847,0.65039 c 0.005,-4.9e-4 0.01,0.002 0.0146,0.007 0.0463,0.0464 -0.0264,0.23675 -0.12645,0.33114 -0.0489,0.0461 -0.11224,0.0838 -0.14078,0.0838 -0.0423,0 -0.0304,-0.0208 0.0645,-0.11301 0.0766,-0.0745 0.12621,-0.14988 0.14548,-0.22145 0.0159,-0.0591 0.0287,-0.0863 0.0427,-0.0877 z m -1.04139,0.0867 c 0.007,-0.0122 0.0259,0.0115 0.0704,0.0817 0.0405,0.0638 0.10406,0.14001 0.14129,0.16931 0.0372,0.0293 0.0678,0.0602 0.0678,0.0688 0,0.0273 -0.0381,0.0169 -0.10349,-0.0283 -0.12272,-0.0849 -0.17896,-0.16903 -0.17896,-0.26761 0,-0.0117 7.9e-4,-0.0198 0.003,-0.0238 z m 20.44178,1.79756 -0.008,0.097 -0.008,0.0971 -0.16691,0.007 c -0.0918,0.004 -0.19015,0.0179 -0.2184,0.0316 -0.0282,0.0136 -0.11485,0.028 -0.19253,0.0317 l -0.14128,0.007 -0.007,0.31454 -0.007,0.31453 h -1.11712 c -0.87034,0 -1.1197,-0.007 -1.12878,-0.032 -0.007,-0.0177 -0.0148,-0.15917 -0.0184,-0.31454 l -0.007,-0.28245 -0.14116,-0.0129 c -0.0777,-0.007 -0.14129,-0.0243 -0.14129,-0.0384 0,-0.0166 0.45734,-0.0278 1.30737,-0.0323 0.93457,-0.005 1.31741,-0.0151 1.34274,-0.0361 0.0194,-0.0162 0.032,-0.0537 0.028,-0.0834 -0.007,-0.0519 0.005,-0.054 0.30883,-0.061 z m 0.35639,0 0.31454,0.007 0.31466,0.007 0.003,0.064 c 0.002,0.0352 -0.003,0.0785 -0.009,0.0963 -0.009,0.0232 -0.0931,0.0322 -0.30059,0.0322 -0.15855,0 -0.29597,-0.007 -0.3054,-0.0171 -0.009,-0.009 -0.0171,-0.056 -0.0171,-0.1035 z m 3.59524,0 v 0.1035 0.10348 h -0.30896 c -0.32987,0 -0.34666,-0.007 -0.32873,-0.13291 0.008,-0.0582 0.0159,-0.0598 0.32303,-0.0668 z m -1.61797,0.002 h 0.30909 c 0.33451,0 0.35554,0.009 0.32241,0.14142 -0.016,0.0636 -0.0182,0.064 -0.30669,0.064 -0.1598,0 -0.29828,-0.007 -0.30769,-0.0171 -0.009,-0.009 -0.0171,-0.0557 -0.0171,-0.10273 z m 1.97741,0 h 0.30908 c 0.33451,0 0.35555,0.009 0.32241,0.14142 -0.0161,0.0639 -0.0171,0.064 -0.3238,0.064 h -0.30769 v -0.10273 z m -2.65785,0.0129 h 0.30808 v 0.0898 0.0899 l -0.30224,0.007 c -0.32476,0.007 -0.34074,0.002 -0.32253,-0.12734 0.008,-0.0587 0.0138,-0.0596 0.31669,-0.0596 z m -6.93377,0.16691 c 1.25142,0 1.45092,0.005 1.45092,0.0373 0,0.0279 -0.0407,0.0392 -0.16044,0.0449 l -0.16056,0.007 -0.0128,0.3082 -0.0129,0.3082 -1.12422,0.007 c -0.8859,0.006 -1.12676,-2.5e-4 -1.13601,-0.0257 -0.007,-0.0178 -0.0149,-0.15943 -0.0185,-0.3148 l -0.007,-0.28257 -0.13482,-0.007 c -0.097,-0.006 -0.13482,-0.0181 -0.13482,-0.0449 0,-0.032 0.20161,-0.0372 1.45093,-0.0372 z m 12.42931,0.29526 h 0.80892 0.80904 l 0.008,0.0614 c 0.005,0.0337 -0.007,0.0711 -0.0256,0.0831 l -1.3e-4,-2.4e-4 c -0.0324,0.0207 -1.06287,0.0232 -1.44193,0.004 -0.17306,-0.009 -0.17484,-0.01 -0.16691,-0.0784 z m -17.72751,1.22023 c -11.18336,-9.3e-4 -22.36794,0.004 -22.38037,0.0161 -0.009,0.009 0.0162,0.058 0.0559,0.10908 0.19398,0.24848 0.4015,0.63145 0.49565,0.91457 0.0466,0.14018 0.0597,0.23629 0.0597,0.43654 0,0.25526 -6.8e-4,0.25818 -0.11947,0.48881 -0.24879,0.48302 -0.21819,0.59883 0.17211,0.65152 v 1.3e-4 c 0.0982,0.0133 0.53108,0.021 0.96187,0.0174 0.99845,-0.008 1.12461,-0.0319 2.23411,-0.41093 0.31779,-0.10857 0.68768,-0.2284 0.82186,-0.26634 l 0.24389,-0.0689 13.49519,-0.0132 c 12.77676,-0.0124 13.50101,-0.0155 13.60744,-0.0581 0.13571,-0.0543 0.60995,-0.15226 1.18446,-0.24465 l 0.42374,-0.0681 4.1051,-0.007 c 2.25782,-0.004 4.11552,-0.0139 4.12819,-0.0217 0.0339,-0.021 0.0279,-0.15908 -0.007,-0.18124 -0.017,-0.0107 -0.14277,-0.0161 -0.27966,-0.0124 -0.1848,0.005 -0.25444,-0.002 -0.27027,-0.0274 -0.0315,-0.0503 -0.0305,-0.30192 9.4e-4,-0.32646 0.0308,-0.0238 0.88534,-0.0862 1.23431,-0.0903 l 0.22842,-0.003 0.0195,0.0899 c 0.0108,0.0494 0.0613,0.29211 0.11212,0.53928 0.0508,0.24718 0.10304,0.46002 0.11592,0.47308 0.0242,0.0244 0.73676,0.0305 0.76086,0.007 0.012,-0.012 0.18588,-0.81302 0.23513,-1.083 l 0.0188,-0.10273 0.26862,-0.0128 0.26875,-0.0128 0.0956,-0.34435 c 0.0526,-0.18939 0.0895,-0.35412 0.0821,-0.36603 -0.007,-0.0124 -11.18979,-0.0199 -22.37315,-0.0212 z m 18.38677,0.94983 c 0.0402,0 0.047,0.0219 0.047,0.15131 0,0.11431 -0.01,0.15514 -0.0407,0.1669 -0.0642,0.0247 -3.93523,0.0181 -3.9505,-0.007 -0.014,-0.0227 0.12047,-0.0365 0.7904,-0.0808 0.20997,-0.0139 0.53936,-0.0371 0.73194,-0.0518 1.47635,-0.11208 2.38202,-0.17908 2.42181,-0.17908 z"
         transform="matrix(1,0,0,1.004979,0.03350061,0.53849851)" /></g></g></svg>
