<?xml version="1.0" encoding="UTF-8" standalone="no"?>
<!-- Created with Inkscape (http://www.inkscape.org/) -->

<svg
   width="179.26643mm"
   height="179.26643mm"
   viewBox="0 0 179.26643 179.26643"
   version="1.1"
   id="svg5"
   xml:space="preserve"
   inkscape:version="1.2.2 (732a01da63, 2022-12-09)"
   sodipodi:docname="logo_design.svg"
   inkscape:export-filename="logo_design.svg"
   inkscape:export-xdpi="96"
   inkscape:export-ydpi="96"
   xmlns:inkscape="http://www.inkscape.org/namespaces/inkscape"
   xmlns:sodipodi="http://sodipodi.sourceforge.net/DTD/sodipodi-0.dtd"
   xmlns="http://www.w3.org/2000/svg"
   xmlns:svg="http://www.w3.org/2000/svg"><sodipodi:namedview
     id="namedview7"
     pagecolor="#ffffff"
     bordercolor="#000000"
     borderopacity="0.25"
     inkscape:showpageshadow="2"
     inkscape:pageopacity="0.0"
     inkscape:pagecheckerboard="0"
     inkscape:deskcolor="#d1d1d1"
     inkscape:document-units="mm"
     showgrid="false"
     inkscape:zoom="0.80343866"
     inkscape:cx="419.44708"
     inkscape:cy="524.62002"
     inkscape:window-width="1920"
     inkscape:window-height="991"
     inkscape:window-x="-9"
     inkscape:window-y="-9"
     inkscape:window-maximized="1"
     inkscape:current-layer="g34167" /><defs
     id="defs2"><filter
       style="color-interpolation-filters:sRGB"
       id="filter4313-5"
       x="-0.028516231"
       y="-0.028480919"
       width="1.0570669"
       height="1.0569618"><feGaussianBlur
         stdDeviation="1.1260766"
         id="feGaussianBlur4315-1" /></filter><filter
       style="color-interpolation-filters:sRGB"
       id="filter4319-5"
       x="-0.044490322"
       y="-0.03469488"
       width="1.0889806"
       height="1.0693898"><feGaussianBlur
         stdDeviation="0.75925904"
         id="feGaussianBlur4321-2" /></filter></defs><style
     type="text/css"
     id="style2665">
	.st0{fill:#C43124;stroke:#010202;stroke-width:5;stroke-miterlimit:10;}
	.st1{fill:#E8A627;stroke:#010202;stroke-width:5;stroke-miterlimit:10;}
	.st2{fill:#F9DE59;stroke:#010202;stroke-width:5;stroke-miterlimit:10;}
</style><style
     type="text/css"
     id="style6963">.st0{fill:#EF4136;stroke:#BE1E2D;stroke-width:6;stroke-miterlimit:10;} .st1{fill:#BE1E2D;} .st2{fill:none;}</style><style
     type="text/css"
     id="style2665-4">
	.st0{fill:#C43124;stroke:#010202;stroke-width:5;stroke-miterlimit:10;}
	.st1{fill:#E8A627;stroke:#010202;stroke-width:5;stroke-miterlimit:10;}
	.st2{fill:#F9DE59;stroke:#010202;stroke-width:5;stroke-miterlimit:10;}
</style><style
     type="text/css"
     id="style6963-4">.st0{fill:#EF4136;stroke:#BE1E2D;stroke-width:6;stroke-miterlimit:10;} .st1{fill:#BE1E2D;} .st2{fill:none;}</style><style
     type="text/css"
     id="style2665-8">
	.st0{fill:#C43124;stroke:#010202;stroke-width:5;stroke-miterlimit:10;}
	.st1{fill:#E8A627;stroke:#010202;stroke-width:5;stroke-miterlimit:10;}
	.st2{fill:#F9DE59;stroke:#010202;stroke-width:5;stroke-miterlimit:10;}
</style><style
     type="text/css"
     id="style2665-2">
	.st0{fill:#C43124;stroke:#010202;stroke-width:5;stroke-miterlimit:10;}
	.st1{fill:#E8A627;stroke:#010202;stroke-width:5;stroke-miterlimit:10;}
	.st2{fill:#F9DE59;stroke:#010202;stroke-width:5;stroke-miterlimit:10;}
</style><style
     type="text/css"
     id="style2665-1">
	.st0{fill:#C43124;stroke:#010202;stroke-width:5;stroke-miterlimit:10;}
	.st1{fill:#E8A627;stroke:#010202;stroke-width:5;stroke-miterlimit:10;}
	.st2{fill:#F9DE59;stroke:#010202;stroke-width:5;stroke-miterlimit:10;}
</style><style
     type="text/css"
     id="style2665-46">
	.st0{fill:#C43124;stroke:#010202;stroke-width:5;stroke-miterlimit:10;}
	.st1{fill:#E8A627;stroke:#010202;stroke-width:5;stroke-miterlimit:10;}
	.st2{fill:#F9DE59;stroke:#010202;stroke-width:5;stroke-miterlimit:10;}
</style><style
     type="text/css"
     id="style2665-5">
	.st0{fill:#C43124;stroke:#010202;stroke-width:5;stroke-miterlimit:10;}
	.st1{fill:#E8A627;stroke:#010202;stroke-width:5;stroke-miterlimit:10;}
	.st2{fill:#F9DE59;stroke:#010202;stroke-width:5;stroke-miterlimit:10;}
</style><style
     type="text/css"
     id="style2665-0">
	.st0{fill:#C43124;stroke:#010202;stroke-width:5;stroke-miterlimit:10;}
	.st1{fill:#E8A627;stroke:#010202;stroke-width:5;stroke-miterlimit:10;}
	.st2{fill:#F9DE59;stroke:#010202;stroke-width:5;stroke-miterlimit:10;}
</style><style
     type="text/css"
     id="style2665-7">
	.st0{fill:#C43124;stroke:#010202;stroke-width:5;stroke-miterlimit:10;}
	.st1{fill:#E8A627;stroke:#010202;stroke-width:5;stroke-miterlimit:10;}
	.st2{fill:#F9DE59;stroke:#010202;stroke-width:5;stroke-miterlimit:10;}
</style><style
     type="text/css"
     id="style2665-469">
	.st0{fill:#C43124;stroke:#010202;stroke-width:5;stroke-miterlimit:10;}
	.st1{fill:#E8A627;stroke:#010202;stroke-width:5;stroke-miterlimit:10;}
	.st2{fill:#F9DE59;stroke:#010202;stroke-width:5;stroke-miterlimit:10;}
</style><style
     type="text/css"
     id="style2665-72">
	.st0{fill:#C43124;stroke:#010202;stroke-width:5;stroke-miterlimit:10;}
	.st1{fill:#E8A627;stroke:#010202;stroke-width:5;stroke-miterlimit:10;}
	.st2{fill:#F9DE59;stroke:#010202;stroke-width:5;stroke-miterlimit:10;}
</style><style
     type="text/css"
     id="style2665-14">
	.st0{fill:#C43124;stroke:#010202;stroke-width:5;stroke-miterlimit:10;}
	.st1{fill:#E8A627;stroke:#010202;stroke-width:5;stroke-miterlimit:10;}
	.st2{fill:#F9DE59;stroke:#010202;stroke-width:5;stroke-miterlimit:10;}
</style><style
     type="text/css"
     id="style2665-3">
	.st0{fill:#C43124;stroke:#010202;stroke-width:5;stroke-miterlimit:10;}
	.st1{fill:#E8A627;stroke:#010202;stroke-width:5;stroke-miterlimit:10;}
	.st2{fill:#F9DE59;stroke:#010202;stroke-width:5;stroke-miterlimit:10;}
</style><style
     type="text/css"
     id="style2665-09">
	.st0{fill:#C43124;stroke:#010202;stroke-width:5;stroke-miterlimit:10;}
	.st1{fill:#E8A627;stroke:#010202;stroke-width:5;stroke-miterlimit:10;}
	.st2{fill:#F9DE59;stroke:#010202;stroke-width:5;stroke-miterlimit:10;}
</style><style
     type="text/css"
     id="style2665-58">
	.st0{fill:#C43124;stroke:#010202;stroke-width:5;stroke-miterlimit:10;}
	.st1{fill:#E8A627;stroke:#010202;stroke-width:5;stroke-miterlimit:10;}
	.st2{fill:#F9DE59;stroke:#010202;stroke-width:5;stroke-miterlimit:10;}
</style><style
     type="text/css"
     id="style2665-40">
	.st0{fill:#C43124;stroke:#010202;stroke-width:5;stroke-miterlimit:10;}
	.st1{fill:#E8A627;stroke:#010202;stroke-width:5;stroke-miterlimit:10;}
	.st2{fill:#F9DE59;stroke:#010202;stroke-width:5;stroke-miterlimit:10;}
</style><style
     type="text/css"
     id="style2665-6">
	.st0{fill:#C43124;stroke:#010202;stroke-width:5;stroke-miterlimit:10;}
	.st1{fill:#E8A627;stroke:#010202;stroke-width:5;stroke-miterlimit:10;}
	.st2{fill:#F9DE59;stroke:#010202;stroke-width:5;stroke-miterlimit:10;}
</style><style
     type="text/css"
     id="style2665-04">
	.st0{fill:#C43124;stroke:#010202;stroke-width:5;stroke-miterlimit:10;}
	.st1{fill:#E8A627;stroke:#010202;stroke-width:5;stroke-miterlimit:10;}
	.st2{fill:#F9DE59;stroke:#010202;stroke-width:5;stroke-miterlimit:10;}
</style><g
     inkscape:groupmode="layer"
     id="g34167"
     inkscape:label="Tutorial_5"
     style="display:inline"
     transform="translate(-15.366778,-58.866778)"><rect
       style="fill:#a3aabf;fill-opacity:1;stroke:#000000;stroke-width:0.3;stroke-linecap:square;stroke-dasharray:none;stroke-opacity:1"
       id="rect34113"
       width="178.96645"
       height="178.96645"
       x="15.516777"
       y="59.016777"
       inkscape:label="Container" /><path
       id="path34115"
       style="display:inline;fill:#f2f2f2;fill-opacity:1;stroke:none;stroke-width:1.00482;stroke-linecap:square;stroke-dasharray:none;stroke-opacity:1"
       inkscape:label="board"
       d="M 194.33768,122.36068 60.866243,153.99286 c -7.220009,1.71112 -11.632828,8.89622 -9.89397,16.10961 l 14.830619,67.7354 H 194.33768 Z" /><path
       id="path34117"
       style="fill:#4d4d4d;fill-opacity:1;stroke:none;stroke-width:0.588375;stroke-linecap:round;stroke-dasharray:none;stroke-opacity:1"
       inkscape:label="simplified_square"
       d="m 194.48322,135.15454 c -1.39751,0.50389 -2.85306,0.39016 -2.85306,0.39016 0,0 -0.55573,0.0829 0.0233,0.51159 0.57915,0.42864 0.59686,-0.11678 0.59686,-0.11678 l 2.23294,-0.52555 z m -7.77989,1.1374 c -0.14467,0.007 -0.29886,0.0305 -0.47077,0.047 -0.0428,0.005 -0.11229,0.0177 -0.20567,0.0398 l -5.2e-4,-0.002 c -1.40233,0.31669 -8.1313,2.43211 -9.50123,2.99827 -1.46126,0.60388 -3.07785,0.4687 -3.07785,0.4687 0,0 -0.55542,0.0835 0.0238,0.51211 0.57913,0.42864 0.59686,-0.1173 0.59686,-0.1173 l 4.27106,-1.00511 c 0,0 6.13293,-2.17448 7.94008,-2.34662 1.80718,-0.17216 1.26607,1.44538 1.26607,1.44538 l 1.38855,8.35247 c 0,0 1.09277,5.6505 1.72754,6.76806 0.63477,1.11754 0.69815,0.30386 0.69815,0.30386 l -1.32757,-4.94337 c 0,0 -0.9871,-5.79129 -1.49293,-7.27088 -0.50592,-1.47955 0.0634,-3.09229 -0.57516,-4.26743 -0.47897,-0.88137 -0.82638,-1.00431 -1.26039,-0.98289 z m 2.37247,0.55966 v 5.1e-4 c -0.036,-0.007 -0.0779,-0.006 -0.12661,0.004 -0.0127,0.002 -0.0253,0.006 -0.0388,0.0103 -0.43208,0.13146 -0.11834,0.55398 -0.11834,0.55398 l 0.87747,3.23546 c 0,0 1.08592,5.45714 1.14877,6.30039 0.0628,0.84323 0.63252,4.14031 0.63252,4.14031 0,0 0.26304,0.67868 0.25269,1.39785 -0.01,0.71913 0.45639,2.01364 1.92288,1.26711 0.35323,-0.17981 0.62206,-0.30776 0.8568,-0.41083 v -0.40979 c -0.1648,0.0492 -0.79117,0.23719 -0.79117,0.23719 0,0 -1.29708,0.63795 -1.36891,-1.12396 -0.0718,-1.76195 -1.4521,-8.35867 -1.4521,-8.35867 l -0.86042,-3.75429 c 0,0 -0.6246,-1.67457 -0.71778,-2.61017 0,0 0.0354,-0.42856 -0.21704,-0.47904 z m -20.55534,3.73982 c -0.14474,0.007 -0.29938,0.0305 -0.47129,0.047 -0.0428,0.005 -0.11255,0.0173 -0.20567,0.0393 l -5.1e-4,-0.002 c -1.40231,0.31667 -8.13025,2.43159 -9.5002,2.99775 -1.46128,0.60389 -3.07733,0.46922 -3.07733,0.46922 0,0 -0.55594,0.0829 0.0233,0.5116 0.57912,0.42865 0.59635,-0.11627 0.59635,-0.11627 l 4.27157,-1.00563 c 0,0 6.13293,-2.17444 7.94009,-2.34662 1.80717,-0.17214 1.26504,1.44539 1.26504,1.44539 l 1.38854,8.35246 c 0,0 1.09332,5.64999 1.72806,6.76754 0.63475,1.11755 0.69763,0.3049 0.69763,0.3049 l -1.32705,-4.94389 c 0,0 -0.98606,-5.79129 -1.4919,-7.27087 -0.50583,-1.47958 0.0634,-3.0923 -0.57516,-4.26744 -0.47897,-0.88137 -0.82718,-1.00384 -1.26142,-0.98237 z m 2.3735,0.55914 v 5.1e-4 c -0.036,-0.007 -0.0783,-0.006 -0.12712,0.004 -0.0127,0.002 -0.0253,0.006 -0.0388,0.0103 -0.43208,0.13145 -0.11834,0.55397 -0.11834,0.55397 l 0.87747,3.23546 c 0,0 1.08486,5.45714 1.14773,6.30039 0.0628,0.84322 0.63252,4.14032 0.63252,4.14032 0,0 0.26363,0.67919 0.25321,1.39836 -0.01,0.71915 0.45692,2.01312 1.9234,1.26659 1.46653,-0.74653 1.58233,-0.66039 3.07837,-1.16685 2.39138,-0.80957 5.6519,-1.5604 6.25646,-1.49862 0.60455,0.0618 5.48546,-0.71779 5.48546,-0.71779 0,0 0.59177,-0.70482 -0.48628,-0.6568 -1.07806,0.0481 -6.41184,1.01909 -6.92516,1.21026 -0.81113,0.30219 -7.34322,2.24637 -7.34322,2.24637 0,0 -1.2971,0.63797 -1.36891,-1.12396 -0.0718,-1.76196 -1.45314,-8.35815 -1.45314,-8.35815 l -0.85938,-3.75532 c 0,0 -0.62468,-1.67455 -0.71778,-2.61018 0,0 0.0358,-0.42806 -0.21653,-0.47852 z m -20.55585,3.73982 c -0.14468,0.007 -0.29884,0.03 -0.47077,0.0465 -0.0428,0.005 -0.11352,0.0182 -0.20671,0.0403 v -0.001 c -1.40229,0.31667 -8.13129,2.43108 -9.50123,2.99724 -1.46126,0.60391 -3.07733,0.46922 -3.07733,0.46922 0,0 -0.55532,0.0829 0.0238,0.5116 0.57915,0.42862 0.59583,-0.11679 0.59583,-0.11679 l 4.27209,-1.00511 c 0,0 6.13241,-2.17394 7.93957,-2.34611 1.80718,-0.17215 1.26607,1.44436 1.26607,1.44436 l 1.38907,8.35297 c 0,0 1.09281,5.65 1.72754,6.76755 0.63478,1.11756 0.69763,0.30489 0.69763,0.30489 l -1.32705,-4.94388 c 0,0 -0.98709,-5.79182 -1.49293,-7.27139 -0.50586,-1.47958 0.0634,-3.09126 -0.57516,-4.26641 -0.47896,-0.88137 -0.82638,-1.00481 -1.26039,-0.9834 z m 2.37247,0.55966 c -0.036,-0.007 -0.0778,-0.007 -0.12661,0.004 -0.0127,0.002 -0.0259,0.006 -0.0393,0.01 -0.43211,0.13146 -0.1173,0.55449 -0.1173,0.55449 l 0.87695,3.23494 c 0,0 1.0859,5.45766 1.14876,6.30091 0.0628,0.84324 0.63252,4.1398 0.63252,4.1398 0,0 0.26203,0.6792 0.25167,1.39836 -0.01,0.71914 0.45692,2.01364 1.9234,1.26711 1.46653,-0.74655 1.58231,-0.65987 3.07836,-1.16634 2.39139,-0.80957 5.65348,-1.56143 6.25802,-1.49965 0.60457,0.0618 5.48545,-0.71727 5.48545,-0.71727 0,0 0.59178,-0.70482 -0.48628,-0.6568 -1.07806,0.0481 -6.4134,1.01909 -6.9267,1.21026 -0.81114,0.30219 -7.34271,2.24637 -7.34271,2.24637 0,0 -1.29759,0.63797 -1.36942,-1.12396 -0.0718,-1.76195 -1.4516,-8.35866 -1.4516,-8.35866 l -0.86092,-3.7543 c 0,0 -0.62416,-1.67453 -0.71727,-2.61017 0,0 0.0353,-0.42806 -0.21704,-0.47853 z m -20.55534,3.73879 c -0.14466,0.007 -0.29885,0.0305 -0.47077,0.047 -0.043,0.005 -0.11298,0.0182 -0.20619,0.0403 v -0.001 c -1.40233,0.31668 -8.13077,2.43108 -9.50071,2.99723 -1.46127,0.6039 -3.07837,0.46974 -3.07837,0.46974 0,0 -0.55483,0.0824 0.0243,0.51108 0.57915,0.42863 0.59635,-0.11627 0.59635,-0.11627 l 4.27054,-1.00563 c 0,0 6.13291,-2.17445 7.94008,-2.34662 1.80718,-0.17216 1.26607,1.44539 1.26607,1.44539 l 1.38855,8.35246 c 0,0 1.09278,5.6505 1.72754,6.76806 0.63477,1.11754 0.69815,0.30386 0.69815,0.30386 l -1.32705,-4.94337 c 0,0 -0.98659,-5.79181 -1.49242,-7.27139 -0.50583,-1.47957 0.063,-3.09127 -0.57567,-4.26641 -0.47898,-0.88137 -0.82638,-1.00481 -1.26039,-0.9834 z m 2.37247,0.56017 c -0.036,-0.007 -0.0784,-0.006 -0.12713,0.005 -0.0126,0.002 -0.0254,0.006 -0.0388,0.01 -0.43208,0.13145 -0.11782,0.55397 -0.11782,0.55397 l 0.87695,3.23546 c 0,0 1.08644,5.45715 1.14929,6.30039 0.0628,0.84325 0.63251,4.14031 0.63251,4.14031 0,0 0.26308,0.67868 0.2527,1.39785 -0.01,0.71915 0.45582,2.01365 1.92237,1.26711 1.46654,-0.74655 1.58337,-0.65988 3.07939,-1.16634 2.39139,-0.80957 5.65193,-1.56144 6.25647,-1.49965 0.60457,0.0618 5.48545,-0.71675 5.48545,-0.71675 0,0 0.5923,-0.70536 -0.48576,-0.65733 -1.07805,0.0481 -6.41338,1.0196 -6.9267,1.21078 -0.81112,0.30218 -7.34219,2.24586 -7.34219,2.24586 0,0 -1.29709,0.63798 -1.36891,-1.12396 -0.0718,-1.76193 -1.45262,-8.35866 -1.45262,-8.35866 l -0.8599,-3.7543 c 0,0 -0.62525,-1.67453 -0.7183,-2.61017 0,0 0.0354,-0.42807 -0.21704,-0.47853 z m -20.55534,3.73931 c -0.14475,0.007 -0.29885,0.0305 -0.47077,0.047 -0.0429,0.005 -0.11294,0.0172 -0.20619,0.0393 l -5.2e-4,-0.001 c -1.40231,0.31666 -8.13025,2.43212 -9.50019,2.99827 -1.46127,0.6039 -3.07785,0.4687 -3.07785,0.4687 0,0 -0.55588,0.0835 0.0233,0.51212 0.57914,0.42863 0.59635,-0.11679 0.59635,-0.11679 l 4.27209,-1.00563 c 0,0 6.13292,-2.17447 7.94008,-2.34662 1.80717,-0.17216 1.26556,1.44539 1.26556,1.44539 l 1.38855,8.35298 c 0,0 1.0933,5.64997 1.72806,6.76754 0.63478,1.11755 0.69659,0.30438 0.69659,0.30438 l -1.32705,-4.94389 c 0,0 -0.98607,-5.79128 -1.49189,-7.27087 -0.50585,-1.47959 0.0639,-3.09229 -0.57465,-4.26744 -0.47898,-0.88136 -0.82718,-1.00385 -1.26142,-0.98237 z m 2.37298,0.55965 c -0.036,-0.007 -0.0778,-0.006 -0.1266,0.005 -0.0127,0.002 -0.0258,0.006 -0.0393,0.01 -0.4321,0.13146 -0.1173,0.55397 -0.1173,0.55397 l 0.87695,3.23546 c 0,0 1.08489,5.45767 1.14773,6.30091 0.0628,0.84324 0.63355,4.1398 0.63355,4.1398 0,0 0.26206,0.67918 0.25167,1.39836 -0.01,0.71913 0.45739,2.01313 1.92391,1.26659 1.46657,-0.74654 1.58181,-0.65988 3.07785,-1.16634 2.39139,-0.80958 5.65243,-1.56092 6.25698,-1.49913 0.60456,0.0618 5.48545,-0.71779 5.48545,-0.71779 0,0 0.59181,-0.70483 -0.48627,-0.6568 -1.07804,0.0481 -6.41236,1.01962 -6.92568,1.21078 -0.81112,0.30219 -7.34322,2.24585 -7.34322,2.24585 0,0 -1.2971,0.63796 -1.36891,-1.12396 -0.0718,-1.76197 -1.45262,-8.35815 -1.45262,-8.35815 l -0.85938,-3.7548 c 0,0 -0.6242,-1.67453 -0.71727,-2.61018 0,0 0.0349,-0.42858 -0.21756,-0.47904 z m 74.6802,0.52452 c -0.14466,0.007 -0.29886,0.0305 -0.47077,0.047 -0.0427,0.005 -0.11284,0.0168 -0.20619,0.0388 -1.40213,0.31746 -8.13128,2.43212 -9.50123,2.99827 -1.46127,0.6039 -3.07733,0.4687 -3.07733,0.4687 0,0 -0.55595,0.083 0.0233,0.5116 0.57915,0.42862 0.59686,-0.11731 0.59686,-0.11731 l 4.27055,-1.00665 c 0,0 6.13346,-2.17343 7.9406,-2.3456 1.80717,-0.17215 1.26555,1.44539 1.26555,1.44539 l 1.38906,8.35246 c 0,0 0.64155,3.30772 1.22732,5.36092 v -2.75126 l -0.12919,-0.4811 c 0,0 -0.98708,-5.7913 -1.49293,-7.27088 -0.50591,-1.47957 0.0634,-3.09231 -0.57516,-4.26744 -0.47897,-0.88137 -0.82639,-1.0043 -1.26039,-0.98288 z m 2.37246,0.56017 c -0.036,-0.007 -0.0783,-0.006 -0.12712,0.005 -0.0127,0.002 -0.0253,0.006 -0.0388,0.0103 -0.43211,0.13139 -0.1173,0.555 -0.1173,0.555 l 0.87643,3.23443 c 0,0 0.24663,1.25143 0.49196,2.53111 v -2.58951 l -0.15038,-0.65577 c 0,0 -0.62461,-1.67455 -0.71778,-2.61018 0,0 0.0352,-0.42891 -0.21705,-0.47955 z m -97.607991,2.65462 c -0.14467,0.007 -0.298853,0.0305 -0.470773,0.047 -0.0429,0.005 -0.112422,0.0172 -0.205672,0.0393 l -5.17e-4,-0.001 c -1.402298,0.31667 -8.131292,2.43159 -9.501228,2.99775 -1.461273,0.60389 -3.077849,0.46923 -3.077849,0.46923 0,0 -0.555892,0.0829 0.02326,0.51159 0.579138,0.42863 0.596862,-0.11627 0.596862,-0.11627 l 4.271574,-1.00511 c 0,0 6.132916,-2.17445 7.940084,-2.34662 1.807168,-0.17215 1.265556,1.44487 1.265556,1.44487 l 1.389063,8.35246 c 0,0 1.092783,5.65052 1.727543,6.76806 0.634768,1.11755 0.697628,0.30438 0.697628,0.30438 l -1.327047,-4.94389 c 0,0 -0.98761,-5.79078 -1.493449,-7.27035 -0.50584,-1.47959 0.06395,-3.0923 -0.574642,-4.26744 -0.47896,-0.88137 -0.826379,-1.0043 -1.260388,-0.98289 z m 2.372465,0.56017 c -0.036,-0.007 -0.07789,-0.007 -0.126608,0.004 -0.0127,0.002 -0.02577,0.006 -0.03927,0.0103 -0.432089,0.13146 -0.117822,0.55449 -0.117822,0.55449 l 0.876949,3.23495 c 0,0 1.085907,5.45767 1.148767,6.3009 0.0628,0.84324 0.63252,4.1398 0.63252,4.1398 0,0 0.26307,0.67919 0.25269,1.39837 -0.01,0.71913 0.45636,2.01312 1.92288,1.26659 1.46656,-0.74653 1.58285,-0.6604 3.07889,-1.16686 2.3914,-0.80957 5.65243,-1.56039 6.25698,-1.49861 0.60456,0.0618 5.48597,-0.71779 5.48597,-0.71779 0,0 0.59127,-0.70483 -0.48679,-0.65681 -1.07805,0.0481 -6.41235,1.01961 -6.92568,1.21078 -0.81111,0.3022 -7.34374,2.24586 -7.34374,2.24586 0,0 -1.29708,0.63796 -1.36891,-1.12396 -0.0718,-1.76195 -1.451583,-8.35815 -1.451583,-8.35815 l -0.860413,-3.75481 c 0,0 -0.624725,-1.67455 -0.717785,-2.61018 0,0 0.03544,-0.42806 -0.217041,-0.47852 z m 74.680196,0.52452 c -0.14474,0.007 -0.29886,0.0305 -0.47077,0.047 -0.0427,0.005 -0.11307,0.0163 -0.20619,0.0382 -1.40214,0.31746 -8.13079,2.43212 -9.50071,2.99827 -1.46129,0.6039 -3.07734,0.4687 -3.07734,0.4687 0,0 -0.55591,0.0829 0.0233,0.5116 0.57914,0.42862 0.59635,-0.1173 0.59635,-0.1173 l 4.27105,-1.00666 c 0,0 6.13345,-2.17344 7.9406,-2.34559 1.80719,-0.17216 1.26453,1.44539 1.26453,1.44539 l 1.38906,8.35297 c 0,0 1.0928,5.64895 1.72754,6.76652 0.63478,1.11754 0.69815,0.3054 0.69815,0.3054 l -1.32705,-4.94388 c 0,0 -0.98658,-5.79129 -1.49242,-7.27087 -0.50583,-1.47958 0.0639,-3.09233 -0.57464,-4.26744 -0.47898,-0.88137 -0.82718,-1.00385 -1.26142,-0.98237 z m 2.37298,0.55965 c -0.036,-0.007 -0.0774,-0.006 -0.12609,0.005 h -5.2e-4 c -0.0127,0.002 -0.0258,0.006 -0.0393,0.0103 -0.4321,0.13138 -0.11679,0.55449 -0.11679,0.55449 l 0.87643,3.23494 c 0,0 1.08488,5.45715 1.14774,6.30039 0.0628,0.84324 0.63303,4.14135 0.63303,4.14135 0,0 0.26313,0.67868 0.2527,1.39785 -0.01,0.71915 0.45693,2.01259 1.9234,1.26607 1.46655,-0.74654 1.5818,-0.65989 3.07785,-1.16634 2.39138,-0.8096 5.65242,-1.56086 6.25698,-1.49913 0.59213,0.0605 5.18954,-0.67061 5.3821,-0.70125 v -0.64027 c -0.0958,-0.0241 -0.21258,-0.0396 -0.38241,-0.032 -1.07807,0.0481 -6.41236,1.01805 -6.92567,1.20923 -0.81112,0.30224 -7.34322,2.24689 -7.34322,2.24689 0,0 -1.29762,0.63745 -1.36943,-1.12448 -0.0718,-1.76195 -1.45211,-8.35763 -1.45211,-8.35763 l -0.85989,-3.75481 c 0,0 -0.62417,-1.67452 -0.71727,-2.61017 0,0 0.0347,-0.42894 -0.21756,-0.47956 z m -97.608511,2.65462 c -0.144746,0.007 -0.299369,0.0304 -0.471289,0.047 -0.0429,0.005 -0.112421,0.0177 -0.205672,0.0398 l -5.17e-4,-0.001 c -1.402302,0.31668 -8.130254,2.43109 -9.500195,2.99724 -1.461268,0.60391 -3.077332,0.46922 -3.077332,0.46922 0,0 -0.556416,0.083 0.02274,0.5116 0.579147,0.42862 0.596863,-0.11628 0.596863,-0.11628 l 4.271574,-1.00562 c 0,0 6.132915,-2.17446 7.940084,-2.34663 1.807172,-0.17214 1.265039,1.44539 1.265039,1.44539 l 1.388545,8.35246 c 0,0 1.093299,5.65051 1.72806,6.76807 0.634772,1.11754 0.697632,0.30385 0.697632,0.30385 l -1.327051,-4.94336 c 0,0 -0.986055,-5.79129 -1.491898,-7.27088 -0.505843,-1.47958 0.06347,-3.09178 -0.575159,-4.26692 -0.478977,-0.88137 -0.827179,-1.00489 -1.261422,-0.9834 z m 2.372982,0.56017 c -0.03596,-0.007 -0.07799,-0.007 -0.126607,0.004 l -5.17e-4,5.1e-4 c -0.01238,0.002 -0.02553,0.006 -0.03876,0.01 -0.432096,0.13147 -0.117823,0.55449 -0.117823,0.55449 l 0.876949,3.23495 c 0,0 1.085398,5.45766 1.148251,6.3009 0.06282,0.84325 0.632519,4.14032 0.632519,4.14032 0,0 0.263089,0.67869 0.252698,1.39785 -0.0099,0.71915 0.457384,2.01364 1.923914,1.2671 1.466541,-0.74654 1.582328,-0.65987 3.078365,-1.16634 2.391385,-0.80955 5.651399,-1.56092 6.255949,-1.49913 0.604539,0.0618 5.48597,-0.71727 5.48597,-0.71727 0,0 0.591783,-0.70535 -0.486276,-0.65732 -1.078058,0.0481 -6.412862,1.01961 -6.926192,1.21078 -0.811119,0.30219 -7.342187,2.24586 -7.342187,2.24586 0,0 -1.297601,0.63796 -1.369426,-1.12397 -0.07182,-1.76195 -1.452624,-8.35866 -1.452624,-8.35866 l -0.859379,-3.75481 c 0,0 -0.62523,-1.67453 -0.718303,-2.61018 0,0 0.03523,-0.42697 -0.216524,-0.478 z m 74.680199,0.52452 c -0.14467,0.007 -0.29884,0.03 -0.47078,0.0465 -0.0427,0.005 -0.11352,0.0173 -0.2067,0.0393 -1.40212,0.31746 -8.13078,2.43159 -9.50071,2.99775 -1.46128,0.60391 -3.07785,0.46871 -3.07785,0.46871 0,0 -0.55534,0.0829 0.0238,0.51159 0.57914,0.42864 0.59635,-0.1173 0.59635,-0.1173 l 4.27105,-1.00614 c 0,0 6.13346,-2.17345 7.9406,-2.3456 1.80719,-0.17216 1.26556,1.44488 1.26556,1.44488 l 1.38906,8.35246 c 0,0 1.09232,5.64998 1.72703,6.76754 0.63478,1.11755 0.69815,0.3049 0.69815,0.3049 l -1.32705,-4.94389 c 0,0 -0.98761,-5.79128 -1.49345,-7.27087 -0.50586,-1.47958 0.064,-3.09181 -0.57464,-4.26693 -0.47899,-0.88136 -0.82639,-1.00429 -1.26039,-0.98288 z m 2.37246,0.55965 c -0.0362,-0.007 -0.0779,-0.007 -0.12661,0.004 v 5.2e-4 c -0.0127,0.002 -0.0252,0.006 -0.0387,0.01 -0.43212,0.13138 -0.11782,0.55501 -0.11782,0.55501 l 0.87694,3.23391 c 0,0 1.08539,5.45767 1.14825,6.30091 0.0628,0.84322 0.63304,4.14135 0.63304,4.14135 0,0 0.26254,0.6787 0.25218,1.39784 -0.01,0.71915 0.45692,2.0126 1.9234,1.26608 1.46654,-0.74654 1.5818,-0.65989 3.07785,-1.16634 2.39138,-0.80959 5.65348,-1.56138 6.25801,-1.49965 0.60456,0.0618 5.48597,-0.71624 5.48597,-0.71624 0,0 0.59127,-0.7048 -0.48679,-0.6568 -1.07808,0.0481 -6.41286,1.01806 -6.92619,1.20923 -0.81112,0.30223 -7.34322,2.2474 -7.34322,2.2474 0,0 -1.29709,0.63692 -1.36891,-1.12499 -0.0718,-1.76195 -1.45159,-8.35763 -1.45159,-8.35763 l -0.86093,-3.75429 c 0,0 -0.62468,-1.67454 -0.71779,-2.61018 0,0 0.0353,-0.42893 -0.21704,-0.47956 z m -95.235528,3.21428 c -0.03606,-0.007 -0.07786,-0.006 -0.126608,0.005 -0.01266,0.002 -0.02575,0.006 -0.03927,0.01 -0.432094,0.13145 -0.117822,0.55398 -0.117822,0.55398 l 0.877466,3.23546 c 0,0 1.085393,5.45715 1.14825,6.30039 0.06287,0.84324 0.63252,4.14031 0.63252,4.14031 0,0 0.262564,0.67921 0.252181,1.39837 -0.01037,0.71915 0.456868,2.01313 1.923396,1.26659 1.466549,-0.74654 1.582324,-0.65987 3.078365,-1.16634 2.391393,-0.80955 5.652955,-1.56092 6.2575,-1.49913 0.604559,0.0618 5.485453,-0.71727 5.485453,-0.71727 0,0 0.591782,-0.70536 -0.486275,-0.65733 -1.078059,0.0481 -6.412874,1.01962 -6.926192,1.21078 -0.811121,0.30219 -7.343222,2.24638 -7.343222,2.24638 0,0 -1.297079,0.63796 -1.368908,-1.12396 -0.07182,-1.76195 -1.452108,-8.35918 -1.452108,-8.35918 l -0.860413,-3.7543 c 0,0 -0.624207,-1.67453 -0.717268,-2.61017 0,0 0.03536,-0.42807 -0.217041,-0.47853 z m 74.679678,0.52503 c -0.14467,0.007 -0.29884,0.0305 -0.47077,0.047 -0.0427,0.005 -0.11241,0.0166 -0.20567,0.0387 -1.40211,0.31746 -8.13027,2.4316 -9.5002,2.99775 -1.46127,0.6039 -3.07888,0.46923 -3.07888,0.46923 0,0 -0.55482,0.0829 0.0243,0.51159 0.57915,0.42862 0.59634,-0.11782 0.59634,-0.11782 l 4.27054,-1.00562 c 0,0 6.13292,-2.17394 7.94009,-2.34611 1.80718,-0.17216 1.26607,1.44487 1.26607,1.44487 l 1.38855,8.35246 c 0,0 1.0933,5.64945 1.72806,6.76703 0.63476,1.11754 0.69763,0.30541 0.69763,0.30541 l -1.32705,-4.94337 c 0,0 -0.98659,-5.79181 -1.49242,-7.27139 -0.50586,-1.47959 0.063,-3.09179 -0.57567,-4.26692 -0.47897,-0.88136 -0.82691,-1.0043 -1.26091,-0.98289 z m 2.37298,0.56017 c -0.0362,-0.007 -0.0778,-0.007 -0.1266,0.004 -0.0126,0.002 -0.0258,0.006 -0.0393,0.01 -0.43212,0.13138 -0.1173,0.555 -0.1173,0.555 l 0.87694,3.23443 c 0,0 1.0854,5.45714 1.14826,6.30039 0.0628,0.84323 0.63303,4.14135 0.63303,4.14135 0,0 0.26308,0.67869 0.2527,1.39785 -0.01,0.71913 0.4558,2.01315 1.92236,1.26659 1.46655,-0.74653 1.58335,-0.66041 3.0794,-1.16686 2.39139,-0.8096 5.65193,-1.56088 6.25647,-1.49913 0.60457,0.0618 5.48597,-0.71675 5.48597,-0.71675 0,0 0.59178,-0.70535 -0.48628,-0.65733 -1.07806,0.0481 -6.4134,1.01909 -6.92671,1.21026 -0.81112,0.30224 -7.34218,2.2469 -7.34218,2.2469 0,0 -1.29709,0.63693 -1.36891,-1.125 -0.0718,-1.76193 -1.45263,-8.35763 -1.45263,-8.35763 l -0.85989,-3.75429 c 0,0 -0.62524,-1.67504 -0.71831,-2.6107 0,0 0.0353,-0.42841 -0.21704,-0.47904 z m -20.55533,3.73879 c -0.14475,0.007 -0.29886,0.0305 -0.47077,0.047 -0.0427,0.005 -0.11297,0.0167 -0.20619,0.0388 -1.40212,0.31746 -8.13077,2.43159 -9.50072,2.99775 -1.46125,0.60389 -3.07733,0.4687 -3.07733,0.4687 0,0 -0.55592,0.0835 0.0233,0.51211 0.57915,0.42863 0.59583,-0.11782 0.59583,-0.11782 l 4.27209,-1.00614 c 0,0 6.13241,-2.17394 7.93956,-2.34611 1.80718,-0.17214 1.26608,1.44539 1.26608,1.44539 l 1.38803,8.35298 c 0,0 1.09381,5.64895 1.72857,6.76651 0.63477,1.11755 0.69712,0.30541 0.69712,0.30541 l -1.32757,-4.94388 c 0,0 -0.98605,-5.79129 -1.4919,-7.27088 -0.50584,-1.47959 0.0639,-3.09129 -0.57464,-4.2664 -0.479,-0.88137 -0.82717,-1.00488 -1.26142,-0.98341 z m 2.37298,0.56018 c -0.036,-0.007 -0.0778,-0.007 -0.12661,0.004 -0.0126,0.002 -0.0258,0.006 -0.0393,0.0103 -0.43211,0.13139 -0.11731,0.555 -0.11731,0.555 l 0.87695,3.23443 c 0,0 1.08487,5.45767 1.14774,6.30091 0.0628,0.84324 0.63355,4.14083 0.63355,4.14083 0,0 0.26204,0.67921 0.25166,1.39837 -0.01,0.71914 0.45687,2.01261 1.9234,1.26607 1.46654,-0.74653 1.58232,-0.65989 3.07836,-1.16634 2.39138,-0.80959 5.65245,-1.56139 6.25699,-1.49965 0.60456,0.0618 5.48597,-0.71675 5.48597,-0.71675 0,0 0.59127,-0.70483 -0.48679,-0.65681 -1.07806,0.0481 -6.41234,1.01858 -6.92568,1.20975 -0.8111,0.30225 -7.34322,2.24689 -7.34322,2.24689 0,0 -1.29709,0.63691 -1.36891,-1.125 -0.0718,-1.76197 -1.45211,-8.35711 -1.45211,-8.35711 l -0.85989,-3.75533 c 0,0 -0.6242,-1.67452 -0.71727,-2.61017 0,0 0.0349,-0.42842 -0.21756,-0.47904 z m 73.81565,0.65887 c -1.66929,0.41329 -7.98628,2.40062 -9.31364,2.94917 -1.46126,0.60389 -3.07734,0.46974 -3.07734,0.46974 0,0 -0.55587,0.0824 0.0233,0.51108 0.57914,0.42863 0.59686,-0.11679 0.59686,-0.11679 l 4.27054,-1.00717 c 0,0 5.30612,-1.87961 7.50032,-2.27996 z m -94.37098,3.07992 c -0.144668,0.007 -0.298857,0.0305 -0.470777,0.047 -0.0428,0.005 -0.112959,0.0168 -0.206189,0.0388 -1.402108,0.31746 -8.1313,2.4316 -9.501229,2.99775 -1.461275,0.6039 -3.077331,0.46922 -3.077331,0.46922 0,0 -0.555923,0.0829 0.02325,0.5116 0.579151,0.42864 0.596863,-0.11782 0.596863,-0.11782 l 4.27054,-1.00615 c 0,0 6.133443,-2.17341 7.940601,-2.34559 1.807172,-0.17214 1.265562,1.44487 1.265562,1.44487 l 1.38854,8.35298 c 0,0 1.09329,5.64946 1.72806,6.76703 0.63476,1.11754 0.69764,0.30489 0.69764,0.30489 l -1.32706,-4.94388 c 0,0 -0.98708,-5.79077 -1.49293,-7.27036 -0.50584,-1.47958 0.0634,-3.09233 -0.57516,-4.26744 -0.47898,-0.88137 -0.82638,-1.00429 -1.26038,-0.98288 z m 2.37246,0.56017 c -0.036,-0.007 -0.0783,-0.007 -0.12712,0.004 v 5.1e-4 c -0.0127,0.002 -0.0253,0.006 -0.0388,0.01 -0.43211,0.1314 -0.11782,0.55501 -0.11782,0.55501 l 0.87695,3.23442 c 0,0 1.08641,5.45716 1.14928,6.30039 0.0628,0.84323 0.63252,4.14135 0.63252,4.14135 0,0 0.26308,0.67869 0.2527,1.39785 -0.01,0.71915 0.45634,2.01262 1.92288,1.26607 1.46654,-0.74653 1.58232,-0.65988 3.07836,-1.16633 2.39139,-0.80959 5.65246,-1.56086 6.25698,-1.49914 0.60456,0.0618 5.48597,-0.71675 5.48597,-0.71675 0,0 0.59129,-0.70481 -0.48679,-0.65681 -1.07806,0.0481 -6.41287,1.01805 -6.92619,1.20923 -0.81111,0.30224 -7.3427,2.24741 -7.3427,2.24741 0,0 -1.29762,0.63691 -1.36943,-1.125 -0.0718,-1.76195 -1.45159,-8.35762 -1.45159,-8.35762 l -0.86041,-3.7543 c 0,0 -0.62473,-1.67454 -0.71779,-2.61017 0,0 0.0354,-0.42893 -0.21704,-0.47956 z m 74.6802,0.52503 c -0.14473,0.007 -0.29885,0.0299 -0.47078,0.0465 -0.0429,0.005 -0.11296,0.0161 -0.20618,0.0382 v 5.2e-4 c -1.40195,0.31817 -8.13079,2.43108 -9.50072,2.99723 -1.46129,0.6039 -3.07733,0.47026 -3.07733,0.47026 0,0 -0.55584,0.0819 0.0233,0.51056 0.57915,0.42864 0.59634,-0.11627 0.59634,-0.11627 l 4.27106,-1.00718 c 0,0 6.13344,-2.17343 7.9406,-2.34559 1.80718,-0.17214 1.26452,1.44539 1.26452,1.44539 l 1.38906,8.35246 c 0,0 1.0928,5.64947 1.72755,6.76703 0.63477,1.11755 0.69763,0.30541 0.69763,0.30541 l -1.32705,-4.94492 c 0,0 -0.98606,-5.79025 -1.4919,-7.26984 -0.50585,-1.47959 0.064,-3.09231 -0.57464,-4.26744 -0.47897,-0.88138 -0.82716,-1.00384 -1.26142,-0.98237 z m 2.3735,0.56017 c -0.0362,-0.007 -0.0779,-0.007 -0.12661,0.004 -0.0127,0.002 -0.0259,0.006 -0.0393,0.01 -0.43209,0.13143 -0.11782,0.55397 -0.11782,0.55397 l 0.87747,3.23546 c 0,0 1.08434,5.45769 1.14721,6.30091 0.0628,0.84324 0.63304,4.14135 0.63304,4.14135 0,0 0.26312,0.67866 0.2527,1.39784 -0.01,0.71914 0.45693,2.0126 1.9234,1.26608 1.46656,-0.74654 1.58234,-0.65988 3.07836,-1.16634 2.39142,-0.80958 5.65193,-1.56133 6.25647,-1.49965 0.14552,0.0149 0.54645,-0.0207 1.05988,-0.0806 v -0.69194 c -1.42338,0.25663 -2.74538,0.51919 -2.98586,0.60874 -0.81111,0.30225 -7.34374,2.24638 -7.34374,2.24638 0,0 -1.29709,0.63797 -1.36891,-1.12396 -0.0718,-1.76195 -1.45263,-8.35867 -1.45263,-8.35867 l -0.85937,-3.75481 c 0,0 -0.62365,-1.67351 -0.71676,-2.60914 0,0 0.0349,-0.42842 -0.21755,-0.47904 z m -97.609034,2.65411 c -0.144747,0.007 -0.299379,0.03 -0.471289,0.0465 -0.04282,0.005 -0.11294,0.0167 -0.206189,0.0388 -1.402117,0.31746 -8.130255,2.43159 -9.500195,2.99775 -1.461269,0.6039 -3.077332,0.46922 -3.077332,0.46922 0,0 -0.555914,0.083 0.02325,0.5116 0.579145,0.42863 0.595829,-0.11731 0.595829,-0.11731 l 4.27209,-1.00665 c 0,0 6.132919,-2.17344 7.940084,-2.3456 1.807178,-0.17214 1.264523,1.44539 1.264523,1.44539 l 1.389579,8.35247 c 0,0 1.092268,5.64945 1.727026,6.76702 0.634772,1.11754 0.697632,0.3049 0.697632,0.3049 l -1.327051,-4.94337 c 0,0 -0.986053,-5.79129 -1.491898,-7.27088 -0.505845,-1.47958 0.06397,-3.09231 -0.574642,-4.26744 -0.478979,-0.88136 -0.827179,-1.00383 -1.261422,-0.98236 z m 2.372982,0.55965 c -0.03604,-0.007 -0.07793,-0.007 -0.126607,0.004 h -5.17e-4 c -0.01234,0.002 -0.02555,0.006 -0.03876,0.01 -0.432107,0.13139 -0.117822,0.55501 -0.117822,0.55501 l 0.876949,3.23443 c 0,0 1.085398,5.45768 1.148251,6.3009 0.06282,0.84324 0.632519,4.14084 0.632519,4.14084 0,0 0.263594,0.67868 0.253215,1.39784 -0.0099,0.71913 0.456855,2.01261 1.923396,1.26608 1.466546,-0.74653 1.5818,-0.65989 3.077849,-1.16634 2.391387,-0.8096 5.651926,-1.56087 6.256465,-1.49913 0.60456,0.0618 5.485974,-0.71624 5.485974,-0.71624 0,0 0.59178,-0.70535 -0.48628,-0.65732 -1.07806,0.0481 -6.412871,1.01856 -6.926191,1.20974 -0.811099,0.30224 -7.342187,2.24689 -7.342187,2.24689 0,0 -1.297601,0.63693 -1.369426,-1.12499 -0.07182,-1.76195 -1.452624,-8.35763 -1.452624,-8.35763 l -0.85938,-3.7543 c 0,0 -0.625226,-1.67452 -0.718302,-2.61017 0,0 0.03526,-0.42783 -0.216524,-0.47904 z m 74.680192,0.52452 c -0.14466,0.007 -0.29885,0.0305 -0.47077,0.047 -0.043,0.005 -0.11407,0.0167 -0.20722,0.0388 -1.40195,0.31818 -8.13027,2.4316 -9.5002,2.99775 -1.46126,0.6039 -3.07733,0.47025 -3.07733,0.47025 0,0 -0.55593,0.0819 0.0233,0.51057 0.57914,0.42864 0.59634,-0.11679 0.59634,-0.11679 l 4.27106,-1.00666 c 0,0 6.13342,-2.17396 7.9406,-2.34611 1.80717,-0.17216 1.26556,1.44539 1.26556,1.44539 l 1.38906,8.35246 c 0,0 1.09283,5.64947 1.72754,6.76703 0.63478,1.11756 0.69763,0.30541 0.69763,0.30541 l -1.32705,-4.94492 c 0,0 -0.98708,-5.79026 -1.49293,-7.26984 -0.50585,-1.47958 0.064,-3.09179 -0.57464,-4.26692 -0.47898,-0.88137 -0.82691,-1.00432 -1.26091,-0.98289 z m 2.37299,0.56069 c -0.036,-0.007 -0.0783,-0.007 -0.12713,0.004 v 5.2e-4 c -0.0127,0.002 -0.0254,0.006 -0.0388,0.01 -0.43211,0.13144 -0.11782,0.55397 -0.11782,0.55397 l 0.87695,3.23494 c 0,0 1.08591,5.45767 1.14877,6.30091 0.0628,0.84323 0.63303,4.14135 0.63303,4.14135 0,0 0.26204,0.67869 0.25167,1.39785 -0.01,0.71914 0.45692,2.01261 1.9234,1.26607 1.46655,-0.74654 1.58231,-0.65986 3.07836,-1.16634 2.3914,-0.80957 5.65298,-1.56133 6.2575,-1.49965 0.60456,0.0618 5.48597,-0.71675 5.48597,-0.71675 0,0 0.59128,-0.70483 -0.48679,-0.65681 -1.07806,0.0481 -6.41285,1.01858 -6.92619,1.20975 -0.81111,0.30225 -7.34323,2.24637 -7.34323,2.24637 0,0 -1.29707,0.63797 -1.3689,-1.12396 -0.0718,-1.76195 -1.4516,-8.35866 -1.4516,-8.35866 l -0.86092,-3.7543 c 0,0 -0.62417,-1.67402 -0.71727,-2.60966 0,0 0.0354,-0.42891 -0.21704,-0.47955 z m -95.236568,3.21375 c -0.03606,-0.007 -0.07733,-0.007 -0.126091,0.004 -0.01266,0.002 -0.02576,0.006 -0.03927,0.01 -0.43211,0.1314 -0.117305,0.555 -0.117305,0.555 l 0.876432,3.23443 c 0,0 1.08591,5.45767 1.148767,6.30091 0.06285,0.84322 0.633036,4.14083 0.633036,4.14083 0,0 0.262048,0.67919 0.251664,1.39836 -0.01037,0.71914 0.456866,2.01262 1.923397,1.26608 1.466551,-0.74653 1.582322,-0.65988 3.078365,-1.16634 2.391387,-0.80959 5.652966,-1.56139 6.257499,-1.49965 0.604559,0.0618 5.485971,-0.71624 5.485971,-0.71624 0,0 0.591783,-0.70586 -0.486276,-0.65784 -1.07806,0.0481 -6.413388,1.01909 -6.926709,1.21026 -0.811107,0.30225 -7.342704,2.24741 -7.342704,2.24741 0,0 -1.2976,0.6369 -1.369425,-1.12499 -0.07184,-1.76197 -1.451591,-8.35815 -1.451591,-8.35815 l -0.860413,-3.75429 c 0,0 -0.624724,-1.67402 -0.717786,-2.60966 0,0 0.03541,-0.42946 -0.217041,-0.48008 z m 74.680708,0.52452 c -0.14467,0.007 -0.29935,0.0304 -0.47128,0.047 -0.0429,0.005 -0.11242,0.0167 -0.20568,0.0388 -1.40194,0.31816 -8.13077,2.43161 -9.50071,2.99775 -1.46126,0.60389 -3.07785,0.46974 -3.07785,0.46974 0,0 -0.5554,0.0825 0.0238,0.51108 0.57914,0.42864 0.59635,-0.11679 0.59635,-0.11679 l 4.27106,-1.00666 c 0,0 6.13241,-2.17342 7.93956,-2.34559 1.80718,-0.17215 1.26608,1.44487 1.26608,1.44487 l 1.38906,8.35247 c 0,0 1.09227,5.64948 1.72703,6.76703 0.63477,1.11756 0.69814,0.3054 0.69814,0.3054 l -1.32756,-4.9444 c 0,0 -0.98554,-5.79128 -1.49139,-7.27087 -0.50583,-1.47959 0.0625,-3.09126 -0.57619,-4.26641 -0.47899,-0.88137 -0.82639,-1.00482 -1.26039,-0.9834 z m 2.37247,0.56121 c -0.036,-0.007 -0.0778,-0.007 -0.12661,0.004 -0.0126,0.002 -0.0258,0.006 -0.0393,0.0103 -0.4321,0.13143 -0.11731,0.55397 -0.11731,0.55397 l 0.87695,3.23546 c 0,0 1.0859,5.45767 1.14877,6.30091 0.0628,0.84324 0.63252,4.14083 0.63252,4.14083 0,0 0.26309,0.67866 0.2527,1.39785 -0.01,0.71913 0.45582,2.01262 1.92236,1.26607 1.46655,-0.74654 1.58335,-0.65988 3.0794,-1.16634 2.39139,-0.80957 5.65194,-1.56081 6.25646,-1.49913 0.60456,0.0618 5.48597,-0.71675 5.48597,-0.71675 0,0 0.59181,-0.70535 -0.48627,-0.65733 -1.07805,0.0481 -6.41339,1.01912 -6.92671,1.21027 -0.81112,0.30224 -7.34219,2.24585 -7.34219,2.24585 0,0 -1.29707,0.63745 -1.36891,-1.12448 -0.0718,-1.76194 -1.45262,-8.35814 -1.45262,-8.35814 l -0.8599,-3.75481 c 0,0 -0.62473,-1.6735 -0.71778,-2.60914 0,0 0.0349,-0.42841 -0.21756,-0.47904 z m -20.55533,3.73827 c -0.14475,0.007 -0.29937,0.0305 -0.47129,0.047 -0.0429,0.005 -0.11243,0.0156 -0.20568,0.0377 v 5.1e-4 c -1.40195,0.31816 -8.13077,2.43159 -9.50071,2.99775 -1.46127,0.60389 -3.07733,0.46974 -3.07733,0.46974 0,0 -0.55592,0.0825 0.0233,0.51108 0.57915,0.42864 0.59635,-0.11679 0.59635,-0.11679 l 4.27157,-1.00717 c 0,0 6.13291,-2.17344 7.94009,-2.34559 1.80717,-0.17215 1.26607,1.44539 1.26607,1.44539 l 1.38751,8.35298 c 0,0 1.09331,5.64897 1.72806,6.76651 0.63478,1.11756 0.69763,0.30541 0.69763,0.30541 l -1.32705,-4.94441 c 0,0 -0.98657,-5.79076 -1.49241,-7.27035 -0.50585,-1.4796 0.0634,-3.09179 -0.57516,-4.26693 -0.47899,-0.88137 -0.82665,-1.00437 -1.2609,-0.98288 z m 2.37298,0.56017 c -0.036,-0.007 -0.0778,-0.007 -0.12661,0.004 -0.0126,0.002 -0.0254,0.006 -0.0388,0.0103 -0.43211,0.13144 -0.11782,0.55449 -0.11782,0.55449 l 0.87695,3.23494 c 0,0 1.08488,5.45715 1.14773,6.30039 0.0628,0.84324 0.63356,4.14084 0.63356,4.14084 0,0 0.26204,0.67918 0.25166,1.39836 -0.01,0.71915 0.45738,2.01262 1.92391,1.26607 1.46654,-0.74654 1.58181,-0.65987 3.07785,-1.16633 2.3914,-0.80957 5.65247,-1.56082 6.25698,-1.49914 0.60457,0.0618 5.48597,-0.71675 5.48597,-0.71675 0,0 0.59128,-0.70483 -0.48679,-0.65681 -1.07806,0.0481 -6.41184,1.01807 -6.92516,1.20923 -0.81112,0.30224 -7.34322,2.24638 -7.34322,2.24638 0,0 -1.29709,0.63798 -1.36891,-1.12397 -0.0718,-1.76193 -1.45262,-8.35814 -1.45262,-8.35814 l -0.8599,-3.75533 c 0,0 -0.6242,-1.6735 -0.71727,-2.60914 0,0 0.0347,-0.42842 -0.21755,-0.47904 z m 69.49343,1.9389 c -2.11555,0.6633 -4.2764,1.37365 -4.99143,1.66915 -1.46126,0.60388 -3.07733,0.46922 -3.07733,0.46922 0,0 -0.55593,0.083 0.0233,0.5116 0.57916,0.42865 0.59738,-0.11627 0.59738,-0.11627 l 4.27054,-1.00718 c 0,0 1.47372,-0.52096 3.17758,-1.07073 z m -90.04877,1.79989 c -0.14468,0.007 -0.29885,0.0305 -0.47077,0.047 -0.043,0.005 -0.11298,0.0156 -0.20619,0.0377 v 5.2e-4 c -1.40195,0.31816 -8.131299,2.43161 -9.501228,2.99775 -1.461278,0.6039 -3.077331,0.47025 -3.077331,0.47025 0,0 -0.556342,0.0819 0.02274,0.51057 0.57914,0.42863 0.59738,-0.11628 0.59738,-0.11628 l 4.27054,-1.00717 c 0,0 6.132909,-2.17342 7.940079,-2.34559 1.80718,-0.17214 1.26607,1.44487 1.26607,1.44487 l 1.38855,8.35298 c 0,0 1.09278,5.64897 1.72754,6.76651 0.63478,1.11756 0.69815,0.30541 0.69815,0.30541 l -1.32705,-4.94492 c 0,0 -0.98708,-5.79025 -1.49293,-7.26984 -0.50584,-1.4796 0.0634,-3.09178 -0.57516,-4.26692 -0.47898,-0.88137 -0.8264,-1.00431 -1.26039,-0.98289 z m 2.37247,0.56017 c -0.036,-0.007 -0.0783,-0.007 -0.12713,0.004 v 5.1e-4 c -0.0127,0.002 -0.0252,0.006 -0.0387,0.01 -0.43209,0.13144 -0.11783,0.55397 -0.11783,0.55397 l 0.87695,3.23547 c 0,0 1.08643,5.45716 1.14929,6.30039 0.0628,0.84324 0.63252,4.14135 0.63252,4.14135 0,0 0.26358,0.67868 0.25321,1.39784 -0.01,0.71914 0.45584,2.01261 1.92236,1.26608 1.46655,-0.74655 1.58285,-0.65987 3.07889,-1.16634 2.39138,-0.80957 5.65193,-1.56081 6.25646,-1.49914 0.60455,0.0618 5.48597,-0.71675 5.48597,-0.71675 0,0 0.59179,-0.70482 -0.48627,-0.6568 -1.07806,0.0481 -6.41288,1.01856 -6.9262,1.20974 -0.81111,0.30223 -7.34373,2.24586 -7.34373,2.24586 0,0 -1.29707,0.63798 -1.36891,-1.12396 -0.0718,-1.76193 -1.45159,-8.35867 -1.45159,-8.35867 l -0.86042,-3.75429 c 0,0 -0.62472,-1.67349 -0.71778,-2.60914 0,0 0.0354,-0.42894 -0.21704,-0.47956 z m 74.68019,0.52452 c -0.14474,0.007 -0.29886,0.0305 -0.47077,0.047 -0.0428,0.005 -0.11297,0.0167 -0.20619,0.0388 v 5.2e-4 c -1.40197,0.31814 -8.13076,2.43107 -9.50071,2.99723 -1.46126,0.60389 -3.07733,0.46922 -3.07733,0.46922 0,0 -0.55592,0.0831 0.0232,0.5116 0.57913,0.42865 0.59635,-0.11627 0.59635,-0.11627 l 4.27157,-1.00718 c 0,0 6.13241,-2.17447 7.93957,-2.34662 1.80717,-0.17216 1.26556,1.44539 1.26556,1.44539 l 1.38854,8.35194 c 0,0 1.09283,5.65052 1.72754,6.76807 0.63477,1.11755 0.69815,0.30437 0.69815,0.30437 l -1.32756,-4.94337 c 0,0 -0.98605,-5.79127 -1.4919,-7.27087 -0.50584,-1.47959 0.0639,-3.09128 -0.57464,-4.26641 -0.479,-0.88137 -0.82719,-1.00486 -1.26143,-0.9834 z m 2.3735,0.56121 c -0.036,-0.007 -0.0779,-0.007 -0.12661,0.004 -0.0127,0.002 -0.0257,0.006 -0.0393,0.01 -0.43208,0.13148 -0.11782,0.55449 -0.11782,0.55449 l 0.87746,3.23494 c 0,0 1.08435,5.45768 1.14722,6.30091 0.0628,0.84324 0.63252,4.14031 0.63252,4.14031 0,0 0.26365,0.67869 0.25322,1.39785 -0.01,0.71913 0.45692,2.01365 1.92339,1.26711 1.46655,-0.74654 1.5818,-0.6609 3.07785,-1.16737 0.94229,-0.31901 1.998,-0.61311 2.99465,-0.86765 V 210.504 c -2.1418,0.66572 -6.00687,1.81694 -6.00687,1.81694 0,0 -1.29709,0.63747 -1.36891,-1.12448 -0.0718,-1.76194 -1.45262,-8.35815 -1.45262,-8.35815 l -0.8599,-3.75429 c 0,0 -0.62417,-1.67454 -0.71727,-2.61017 0,0 0.0353,-0.42859 -0.21704,-0.47904 z m -97.609027,2.65306 c -0.144748,0.007 -0.29885,0.03 -0.470772,0.0465 -0.04295,0.005 -0.112979,0.0167 -0.206189,0.0388 -1.401962,0.31817 -8.130772,2.4316 -9.500712,2.99775 -1.461269,0.6039 -3.077332,0.47025 -3.077332,0.47025 0,0 -0.556406,0.082 0.02274,0.51057 0.579146,0.42865 0.596862,-0.11627 0.596862,-0.11627 l 4.271574,-1.00718 c 0,0 6.132919,-2.17343 7.940084,-2.34559 1.807165,-0.17214 1.264522,1.44539 1.264522,1.44539 l 1.38958,8.35246 c 0,0 1.092274,5.64948 1.727026,6.76703 0.634779,1.11757 0.697632,0.30489 0.697632,0.30489 l -1.327051,-4.9444 c 0,0 -0.986053,-5.79077 -1.491899,-7.27036 -0.505844,-1.47959 0.06397,-3.09178 -0.574641,-4.26692 -0.478979,-0.88137 -0.827181,-1.00437 -1.261422,-0.98289 z m 2.372982,0.56069 c -0.03604,-0.007 -0.07752,-0.007 -0.126091,0.004 h -0.001 c -0.01234,0.002 -0.02555,0.006 -0.03876,0.01 -0.432094,0.13144 -0.117305,0.55397 -0.117305,0.55397 l 0.876949,3.23546 c 0,0 1.084883,5.45769 1.147733,6.30091 0.0628,0.84324 0.633037,4.14083 0.633037,4.14083 0,0 0.263077,0.67868 0.252697,1.39785 -0.01,0.71913 0.456859,2.01263 1.923397,1.26607 1.466539,-0.74653 1.582327,-0.65987 3.078365,-1.16634 2.391388,-0.80957 5.651943,-1.56081 6.256463,-1.49913 0.60457,0.0618 5.48546,-0.71675 5.48546,-0.71675 0,0 0.5923,-0.70535 -0.48576,-0.65733 -1.07807,0.0481 -6.41338,1.0191 -6.92671,1.21026 -0.811104,0.30225 -7.342705,2.24586 -7.342705,2.24586 0,0 -1.297079,0.63799 -1.368909,-1.12396 -0.0718,-1.76194 -1.452625,-8.35815 -1.452625,-8.35815 l -0.859379,-3.75481 c 0,0 -0.625226,-1.67349 -0.718302,-2.60914 0,0 0.03526,-0.42838 -0.216524,-0.47956 z m 74.680195,0.52452 c -0.14466,0.007 -0.29884,0.0305 -0.47077,0.047 -0.0427,0.005 -0.11431,0.0169 -0.20722,0.0388 -1.40248,0.31833 -8.12981,2.43163 -9.49968,2.99775 -1.46126,0.60389 -3.07785,0.46922 -3.07785,0.46922 0,0 -0.55573,0.0831 0.0232,0.5116 0.57914,0.42863 0.59635,-0.11679 0.59635,-0.11679 l 4.27106,-1.00666 c 0,0 6.13291,-2.175 7.94008,-2.34714 1.80719,-0.17216 1.26607,1.44539 1.26607,1.44539 l 1.38855,8.35246 c 0,0 1.09282,5.65 1.72754,6.76755 0.63479,1.11757 0.69815,0.30489 0.69815,0.30489 l -1.32757,-4.94389 c 0,0 -0.98707,-5.79127 -1.49293,-7.27087 -0.50583,-1.47959 0.0639,-3.09075 -0.57464,-4.26589 -0.47897,-0.88138 -0.8264,-1.00482 -1.26039,-0.9834 z m 2.37298,0.5612 c -0.036,-0.007 -0.0783,-0.007 -0.12712,0.004 -0.0127,0.002 -0.0252,0.006 -0.0388,0.0103 -0.43211,0.13148 -0.11782,0.55397 -0.11782,0.55397 l 0.87695,3.23546 c 0,0 1.08643,5.45715 1.14928,6.30039 0.0628,0.84324 0.63252,4.14032 0.63252,4.14032 0,0 0.26202,0.67922 0.25167,1.39836 -0.01,0.71914 0.45691,2.01262 1.92339,1.26607 1.46653,-0.74653 1.58232,-0.65986 3.07837,-1.16633 2.39138,-0.8096 5.65294,-1.56051 6.2575,-1.49862 0.60456,0.0618 5.48545,-0.71779 5.48545,-0.71779 0,0 0.59178,-0.70535 -0.48628,-0.65732 -1.07807,0.048 -6.41286,1.0196 -6.92619,1.21078 -0.81111,0.30225 -7.34322,2.24637 -7.34322,2.24637 0,0 -1.29708,0.63798 -1.36891,-1.12396 -0.0718,-1.76194 -1.45159,-8.35866 -1.45159,-8.35866 l -0.86093,-3.75481 c 0,0 -0.62468,-1.67401 -0.71778,-2.60966 0,0 0.0358,-0.42807 -0.21653,-0.47853 z m -95.235528,3.21324 c -0.03606,-0.007 -0.07838,-0.007 -0.127124,0.004 -0.01266,0.002 -0.02523,0.006 -0.03876,0.01 -0.432098,0.13144 -0.118339,0.55449 -0.118339,0.55449 l 0.877465,3.23494 c 0,0 1.085396,5.45768 1.148251,6.30091 0.06285,0.84323 0.633036,4.14083 0.633036,4.14083 0,0 0.262562,0.6792 0.252181,1.39836 -0.01037,0.71915 0.456865,2.01263 1.923397,1.26608 1.466547,-0.74653 1.58181,-0.65987 3.077848,-1.16634 2.391392,-0.80958 5.652976,-1.56134 6.257499,-1.49965 0.604561,0.0618 5.48597,-0.71675 5.48597,-0.71675 0,0 0.591796,-0.70535 -0.486275,-0.65733 -1.078047,0.0481 -6.412869,1.01909 -6.926192,1.21027 -0.811112,0.30223 -7.343221,2.24637 -7.343221,2.24637 0,0 -1.297078,0.63747 -1.368909,-1.12448 -0.07183,-1.76195 -1.452108,-8.35815 -1.452108,-8.35815 l -0.860412,-3.7548 c 0,0 -0.624204,-1.67351 -0.717269,-2.60915 0,0 0.0354,-0.42894 -0.217041,-0.47956 z m 74.679678,0.52452 c -0.14467,0.007 -0.29883,0.0305 -0.47077,0.047 -0.0428,0.005 -0.11294,0.0161 -0.20619,0.0382 -1.40196,0.31814 -8.13026,2.43212 -9.5002,2.99826 -1.46126,0.60391 -3.07888,0.46871 -3.07888,0.46871 0,0 -0.5548,0.0834 0.0243,0.51211 0.57916,0.42863 0.59635,-0.11679 0.59635,-0.11679 l 4.27105,-1.00717 c 0,0 6.13239,-2.17396 7.93957,-2.34611 1.80717,-0.17216 1.26556,1.44487 1.26556,1.44487 l 1.38958,8.35246 c 0,0 1.09278,5.65052 1.72754,6.76807 0.63477,1.11756 0.69711,0.30437 0.69711,0.30437 l -1.32705,-4.94388 c 0,0 -0.98606,-5.79181 -1.4919,-7.27139 -0.50584,-1.47959 0.063,-3.09025 -0.57567,-4.26538 -0.47898,-0.88139 -0.82638,-1.00482 -1.26039,-0.9834 z m 2.37247,0.56069 c -0.036,-0.007 -0.0778,-0.007 -0.12661,0.004 -0.0126,0.002 -0.0258,0.006 -0.0393,0.01 -0.43208,0.13148 -0.1173,0.55449 -0.1173,0.55449 l 0.87695,3.23495 c 0,0 1.08592,5.45765 1.14877,6.3009 0.0628,0.84324 0.63252,4.14032 0.63252,4.14032 0,0 0.26308,0.67869 0.25269,1.39785 -0.01,0.71915 0.45633,2.01364 1.92288,1.2671 1.46654,-0.74656 1.58285,-0.66091 3.07888,-1.16737 2.39139,-0.80959 5.65242,-1.55999 6.25699,-1.4981 0.60456,0.0618 5.48545,-0.71727 5.48545,-0.71727 0,0 0.5918,-0.70535 -0.48627,-0.65732 -1.07805,0.048 -6.41288,1.0196 -6.9262,1.21078 -0.8111,0.30224 -7.3427,2.24586 -7.3427,2.24586 0,0 -1.29709,0.63797 -1.36891,-1.12397 -0.0718,-1.76193 -1.45262,-8.35866 -1.45262,-8.35866 l -0.8599,-3.75429 c 0,0 -0.62473,-1.67453 -0.71779,-2.61018 0,0 0.0349,-0.42806 -0.21755,-0.47852 z m -20.55534,3.73879 c -0.14474,0.007 -0.29884,0.03 -0.47077,0.0465 -0.0428,0.005 -0.11298,0.0162 -0.20619,0.0382 v 5.2e-4 c -1.40195,0.31814 -8.13076,2.4316 -9.50071,2.99775 -1.46128,0.6039 -3.07785,0.46922 -3.07785,0.46922 0,0 -0.55534,0.0825 0.0238,0.51108 0.57915,0.42864 0.59635,-0.11627 0.59635,-0.11627 l 4.27157,-1.00718 c 0,0 6.13292,-2.17447 7.94009,-2.34662 1.80717,-0.17215 1.26555,1.44538 1.26555,1.44538 l 1.38803,8.35298 c 0,0 1.09382,5.65 1.72858,6.76755 0.63478,1.11756 0.69711,0.30437 0.69711,0.30437 l -1.32705,-4.94388 c 0,0 -0.9871,-5.79128 -1.49293,-7.27088 -0.50585,-1.47957 0.0644,-3.09127 -0.57413,-4.2664 -0.47898,-0.88139 -0.82717,-1.00384 -1.26142,-0.98237 z m 2.3735,0.56017 c -0.036,-0.007 -0.0783,-0.006 -0.12712,0.005 v -5.2e-4 c -0.0126,0.002 -0.0253,0.006 -0.0388,0.01 -0.4321,0.13149 -0.11782,0.55449 -0.11782,0.55449 l 0.87695,3.23494 c 0,0 1.0854,5.45767 1.14825,6.30091 0.0628,0.84324 0.63303,4.14032 0.63303,4.14032 0,0 0.26256,0.67869 0.25218,1.39785 -0.01,0.71913 0.45739,2.01366 1.92392,1.2671 1.46654,-0.74654 1.5813,-0.66091 3.07733,-1.16737 2.39139,-0.8096 5.65242,-1.55998 6.25698,-1.4981 0.60456,0.0618 5.48597,-0.71727 5.48597,-0.71727 0,0 0.59127,-0.70535 -0.48679,-0.65732 -1.07806,0.0481 -6.41133,1.01959 -6.92464,1.21078 -0.81111,0.30224 -7.34374,2.24585 -7.34374,2.24585 0,0 -1.29708,0.63798 -1.36891,-1.12396 -0.0718,-1.76195 -1.45262,-8.35866 -1.45262,-8.35866 l -0.85938,-3.75429 c 0,0 -0.62473,-1.67453 -0.71779,-2.61018 0,0 0.0354,-0.42805 -0.21704,-0.47852 z m 65.1707,3.36465 c -0.23782,0.0856 -0.52969,0.18626 -0.66921,0.24392 -1.46125,0.60392 -3.07733,0.4687 -3.07733,0.4687 0,0 -0.55588,0.0824 0.0232,0.51108 0.57914,0.42863 0.59738,-0.1173 0.59738,-0.1173 l 3.12591,-0.73691 z m -85.72655,0.37363 c -0.14466,0.007 -0.29886,0.0305 -0.47077,0.047 -0.0428,0.005 -0.11297,0.0161 -0.20619,0.0382 v 5.2e-4 c -1.40195,0.31814 -8.131292,2.43159 -9.501231,2.99775 -1.461269,0.60389 -3.077332,0.46922 -3.077332,0.46922 0,0 -0.556331,0.083 0.02274,0.5116 0.57915,0.42862 0.597896,-0.11679 0.597896,-0.11679 l 4.270027,-1.00666 c 0,0 6.13291,-2.17499 7.94008,-2.34714 1.80717,-0.17216 1.26607,1.44539 1.26607,1.44539 l 1.38855,8.35298 c 0,0 1.0933,5.65 1.72806,6.76754 0.63478,1.11756 0.69763,0.30438 0.69763,0.30438 l -1.32705,-4.94389 c 0,0 -0.98708,-5.79127 -1.49293,-7.27087 -0.50584,-1.47959 0.0639,-3.09076 -0.57465,-4.26589 -0.47898,-0.88138 -0.8269,-1.00431 -1.2609,-0.98289 z m 2.37298,0.5612 c -0.036,-0.007 -0.0778,-0.007 -0.12661,0.004 -0.0127,0.002 -0.0263,0.006 -0.0398,0.01 -0.43209,0.13148 -0.1173,0.55398 -0.1173,0.55398 l 0.87695,3.23546 c 0,0 1.08589,5.45714 1.14876,6.30039 0.0628,0.84324 0.63252,4.14031 0.63252,4.14031 0,0 0.26308,0.67871 0.2527,1.39785 -0.01,0.71915 0.45635,2.01417 1.92288,1.26762 1.46656,-0.74654 1.58285,-0.6614 3.07888,-1.16788 2.39139,-0.80959 5.6519,-1.55998 6.25647,-1.4981 0.60455,0.0618 5.48597,-0.71727 5.48597,-0.71727 0,0 0.59178,-0.70536 -0.48628,-0.65733 -1.07806,0.048 -6.41287,1.01959 -6.92619,1.21078 -0.8111,0.30224 -7.34322,2.24638 -7.34322,2.24638 0,0 -1.29707,0.63747 -1.36891,-1.12448 -0.0718,-1.76192 -1.45211,-8.35815 -1.45211,-8.35815 l -0.86041,-3.75429 c 0,0 -0.62471,-1.67453 -0.71778,-2.61018 0,0 0.0358,-0.42857 -0.21653,-0.47904 z m 74.67968,0.52348 c -0.14474,0.007 -0.29884,0.0305 -0.47077,0.047 -0.0428,0.005 -0.11298,0.0161 -0.20619,0.0382 l 5.2e-4,0.001 c -1.40196,0.31812 -8.13078,2.4316 -9.50072,2.99775 -1.46126,0.60392 -3.07784,0.46923 -3.07784,0.46923 0,0 -0.5559,0.0818 0.0233,0.51056 0.57914,0.42862 0.59635,-0.11679 0.59635,-0.11679 l 4.27157,-1.00717 c 0,0 6.13293,-2.17342 7.94008,-2.3456 1.80719,-0.17214 1.26504,1.44539 1.26504,1.44539 l 1.38907,8.35246 c 0,0 1.09228,5.64946 1.72702,6.76703 0.63477,1.11754 0.69815,0.30541 0.69815,0.30541 l -1.32757,-4.94388 c 0,0 -0.98606,-5.79129 -1.4919,-7.27088 -0.50584,-1.4796 0.064,-3.0923 -0.57464,-4.26744 -0.47898,-0.88135 -0.82718,-1.00383 -1.26142,-0.98237 z m 2.3735,0.56069 c -0.036,-0.007 -0.0778,-0.007 -0.12661,0.004 -0.0127,0.002 -0.0257,0.006 -0.0393,0.0103 -0.43211,0.13139 -0.11731,0.55501 -0.11731,0.55501 l 0.87643,3.23391 c 0,0 1.0854,5.45767 1.14825,6.30091 0.0628,0.84322 0.63304,4.14135 0.63304,4.14135 0,0 0.26261,0.67867 0.25218,1.39784 -0.01,0.71914 0.45744,2.01262 1.92392,1.26608 0.83812,-0.42665 1.28423,-0.59501 1.74976,-0.74363 v -0.3452 c -0.62559,0.18713 -1.68465,0.5054 -1.68465,0.5054 0,0 -1.29709,0.63745 -1.36891,-1.12448 -0.0718,-1.76196 -1.45263,-8.35815 -1.45263,-8.35815 l -0.85937,-3.75377 c 0,0 -0.62469,-1.67455 -0.71779,-2.61018 0,0 0.0355,-0.42892 -0.21704,-0.47956 z m -97.60903,2.65359 c -0.14474,0.007 -0.298863,0.0305 -0.470773,0.047 -0.0428,0.005 -0.112969,0.0167 -0.206189,0.0388 v 5.2e-4 c -1.401963,0.31812 -8.130765,2.43108 -9.500712,2.99723 -1.461269,0.6039 -3.077331,0.46922 -3.077331,0.46922 0,0 -0.555878,0.0831 0.02325,0.5116 0.579149,0.42865 0.596346,-0.11679 0.596346,-0.11679 l 4.271574,-1.00666 c 0,0 6.132401,-2.17448 7.939567,-2.34662 1.807168,-0.17216 1.265556,1.44539 1.265556,1.44539 l 1.388546,8.35194 c 0,0 1.092783,5.65054 1.727543,6.76806 0.634769,1.11757 0.698148,0.30438 0.698148,0.30438 l -1.327567,-4.94389 c 0,0 -0.986059,-5.79128 -1.491899,-7.27087 -0.505849,-1.47958 0.06395,-3.09075 -0.574642,-4.26589 -0.478979,-0.88138 -0.827182,-1.00487 -1.261421,-0.9834 z m 2.372981,0.5612 c -0.0359,-0.007 -0.07746,-0.007 -0.12609,0.004 h -10e-4 c -0.0123,0.002 -0.02556,0.006 -0.03876,0.0103 -0.43208,0.13148 -0.117305,0.55397 -0.117305,0.55397 l 0.877465,3.23546 c 0,0 1.084357,5.45768 1.147217,6.30091 0.0628,0.84325 0.63252,4.14031 0.63252,4.14031 0,0 0.263604,0.67869 0.253214,1.39785 -0.01,0.71913 0.456869,2.01367 1.923397,1.26711 1.466539,-0.74654 1.581806,-0.66092 3.077851,-1.16737 2.39138,-0.8096 5.65294,-1.5605 6.2575,-1.49862 0.60455,0.0618 5.48545,-0.71727 5.48545,-0.71727 0,0 0.59127,-0.70534 -0.48679,-0.65732 -1.07806,0.048 -6.41287,1.02012 -6.9262,1.21129 -0.81109,0.30224 -7.342182,2.24586 -7.342182,2.24586 0,0 -1.297069,0.63745 -1.368909,-1.12448 -0.0718,-1.76194 -1.452624,-8.35815 -1.452624,-8.35815 l -0.859896,-3.75481 c 0,0 -0.625232,-1.67452 -0.718302,-2.61017 0,0 0.03524,-0.42751 -0.216525,-0.47853 z m 74.680199,0.52349 c -0.14466,0.007 -0.29884,0.0305 -0.47077,0.047 -0.0428,0.005 -0.11408,0.0167 -0.20723,0.0388 l 5.2e-4,5.2e-4 c -1.40197,0.31814 -8.13027,2.43161 -9.5002,2.99775 -1.46124,0.60391 -3.07784,0.46922 -3.07784,0.46922 0,0 -0.55589,0.0818 0.0232,0.51056 0.57914,0.42862 0.59635,-0.11679 0.59635,-0.11679 l 4.27105,-1.00665 c 0,0 6.13346,-2.17342 7.9406,-2.3456 1.80719,-0.17213 1.26556,1.44487 1.26556,1.44487 l 1.38906,8.35247 c 0,0 1.09283,5.64947 1.72755,6.76703 0.63477,1.11754 0.69763,0.3054 0.69763,0.3054 l -1.32705,-4.94388 c 0,0 -0.98708,-5.79129 -1.49294,-7.27088 -0.50584,-1.47957 0.0639,-3.09179 -0.57464,-4.26692 -0.47898,-0.88136 -0.82689,-1.00429 -1.2609,-0.98288 z m 2.37298,0.5612 c -0.036,-0.007 -0.0783,-0.007 -0.12712,0.004 -0.0127,0.002 -0.0253,0.006 -0.0388,0.0103 -0.43212,0.1314 -0.11782,0.55449 -0.11782,0.55449 l 0.87694,3.23495 c 0,0 1.08592,5.45715 1.14877,6.30039 0.0628,0.84323 0.63304,4.14083 0.63304,4.14083 0,0 0.26202,0.67921 0.25166,1.39836 -0.01,0.71912 0.45692,2.01261 1.9234,1.26608 1.46655,-0.74653 1.5823,-0.65988 3.07836,-1.16634 2.39139,-0.8096 5.65296,-1.56082 6.2575,-1.49913 0.60455,0.0618 5.48597,-0.71675 5.48597,-0.71675 0,0 0.59179,-0.70535 -0.48627,-0.65733 -1.07807,0.048 -6.41337,1.01859 -6.92671,1.20975 -0.81111,0.30226 -7.34322,2.24637 -7.34322,2.24637 0,0 -1.29708,0.63796 -1.36891,-1.12396 -0.0718,-1.76195 -1.45159,-8.35866 -1.45159,-8.35866 l -0.86093,-3.75378 c 0,0 -0.62468,-1.67456 -0.71779,-2.61018 0,0 0.0358,-0.4284 -0.21652,-0.47904 z m -95.235531,3.21428 c -0.03606,-0.007 -0.07839,-0.006 -0.127124,0.005 -0.01266,0.002 -0.02523,0.006 -0.03876,0.0103 -0.432088,0.13148 -0.117822,0.55397 -0.117822,0.55397 l 0.876949,3.23495 c 0,0 1.085909,5.45714 1.148767,6.30039 0.06285,0.84323 0.63252,4.14083 0.63252,4.14083 0,0 0.262566,0.67869 0.252181,1.39785 -0.0024,0.16413 0.02392,0.35843 0.07751,0.55139 h 0.849561 c -0.163117,-0.18207 -0.286319,-0.48594 -0.306958,-0.99219 -0.07182,-1.76194 -1.451591,-8.35815 -1.451591,-8.35815 l -0.860929,-3.75481 c 0,0 -0.624722,-1.67451 -0.717786,-2.61017 0,0 0.03588,-0.42807 -0.216524,-0.47853 z m 74.679681,0.52296 v 5.2e-4 c -0.14466,0.007 -0.29885,0.0305 -0.47077,0.047 -0.0428,0.005 -0.11298,0.0161 -0.20619,0.0382 v 0.001 c -1.40195,0.31813 -8.13026,2.43159 -9.5002,2.99775 -1.46127,0.60391 -3.07836,0.46922 -3.07836,0.46922 0,0 -0.55544,0.0818 0.0238,0.51056 0.57914,0.42861 0.59634,-0.11679 0.59634,-0.11679 l 4.27106,-1.00665 c 0,0 6.13292,-2.17342 7.94008,-2.3456 1.80718,-0.17212 1.26608,1.44488 1.26608,1.44488 l 1.38854,8.35246 c 0,0 0.62335,3.21997 1.202,5.27875 h 0.74155 l -0.84542,-3.14968 c 0,0 -0.98659,-5.79181 -1.49242,-7.27139 -0.50584,-1.4796 0.063,-3.09179 -0.57567,-4.26693 -0.47898,-0.88135 -0.82639,-1.00482 -1.26039,-0.9834 z m 2.37246,0.56121 c -0.036,-0.007 -0.0778,-0.007 -0.1266,0.004 v 5.2e-4 c -0.0127,0.002 -0.0253,0.006 -0.0388,0.01 -0.43212,0.13139 -0.11782,0.555 -0.11782,0.555 l 0.87695,3.23391 c 0,0 1.08589,5.45767 1.14876,6.30091 0.0628,0.84323 0.63252,4.14135 0.63252,4.14135 0,0 0.14518,0.37635 0.21549,0.86455 h 0.64854 c -0.10471,-1.86335 -1.44384,-8.26668 -1.44384,-8.26668 l -0.85938,-3.75378 c 0,0 -0.62524,-1.67402 -0.7183,-2.60966 0,0 0.0349,-0.42893 -0.21756,-0.47956 z m -20.55533,3.73879 c -0.14474,0.007 -0.29937,0.0299 -0.47129,0.0465 -0.0428,0.005 -0.11241,0.0166 -0.20567,0.0387 v 10e-4 c -1.40196,0.31814 -8.13026,2.43159 -9.5002,2.99775 -1.46128,0.60391 -3.07785,0.46922 -3.07785,0.46922 0,0 -0.55584,0.0816 0.0233,0.51056 0.57914,0.42862 0.59634,-0.11627 0.59634,-0.11627 l 4.27158,-1.00769 c 0,0 6.13291,-2.17341 7.94008,-2.34559 1.80718,-0.17213 1.26607,1.44539 1.26607,1.44539 l 1.38752,8.35297 c 0,0 0.0777,0.39556 0.19792,0.97876 h 0.69298 c -0.2578,-1.47168 -0.87319,-4.91803 -1.28468,-6.12159 -0.50584,-1.4796 0.0634,-3.09229 -0.57516,-4.26744 -0.47898,-0.88136 -0.82666,-1.00384 -1.2609,-0.98237 z m 2.3735,0.56017 c -0.036,-0.007 -0.0784,-0.007 -0.12713,0.004 v 5.2e-4 c -0.0127,0.002 -0.0252,0.006 -0.0387,0.01 -0.4321,0.13139 -0.11783,0.555 -0.11783,0.555 l 0.87695,3.23392 c 0,0 1.08538,5.45765 1.14825,6.3009 0.0111,0.14858 0.0517,0.43741 0.0884,0.70694 h 0.74311 c -0.38187,-2.04805 -0.77877,-3.96772 -0.77877,-3.96772 l -0.85938,-3.75326 c 0,0 -0.62471,-1.67454 -0.71778,-2.61018 0,0 0.0354,-0.42892 -0.21704,-0.47955 z m -20.55585,3.73827 c -0.14466,0.007 -0.29886,0.0305 -0.47078,0.047 -0.0428,0.005 -0.11294,0.0167 -0.20619,0.0388 v 0.001 c -1.40195,0.31814 -8.13128,2.43159 -9.50122,2.99775 -1.46126,0.6039 -3.077336,0.46922 -3.077336,0.46922 0,0 -0.555975,0.0818 0.02326,0.51056 0.579146,0.42861 0.596856,-0.11678 0.596856,-0.11678 l 4.27106,-1.00666 c 0,0 6.1324,-2.17341 7.93957,-2.34559 1.80717,-0.17213 1.26607,1.44487 1.26607,1.44487 l 0.83716,5.03277 h 0.61598 c -0.16821,-0.77587 -0.3292,-1.4433 -0.45889,-1.82263 -0.50585,-1.47959 0.0639,-3.09178 -0.57464,-4.26692 -0.47898,-0.88135 -0.8269,-1.00431 -1.2609,-0.98289 z m 2.37246,0.56121 c -0.036,-0.007 -0.0778,-0.007 -0.12661,0.004 -0.0126,0.002 -0.0258,0.006 -0.0393,0.01 -0.43211,0.1314 -0.11731,0.55501 -0.11731,0.55501 l 0.87695,3.23442 c 0,0 0.26076,1.31497 0.52659,2.70837 h 0.59893 l -0.78445,-3.42253 c 0,0 -0.6242,-1.67454 -0.71727,-2.61018 0,0 0.0349,-0.42841 -0.21756,-0.47904 z m 74.6802,0.52452 c -0.14475,0.007 -0.29886,0.0304 -0.47078,0.047 -0.0428,0.005 -0.11297,0.0161 -0.20618,0.0382 -1.40252,0.31579 -8.13023,2.43213 -9.5002,2.99827 -1.46126,0.60388 -3.07785,0.4687 -3.07785,0.4687 0,0 -0.5554,0.0836 0.0238,0.51212 0.57916,0.42865 0.59635,-0.11679 0.59635,-0.11679 l 4.27106,-1.00718 c 0,0 6.13293,-2.17445 7.94008,-2.34662 1.8072,-0.17217 1.26504,1.4459 1.26504,1.4459 l 0.65629,3.94757 h 0.54829 c -0.0754,-0.29994 -0.14658,-0.55248 -0.20981,-0.73743 -0.50583,-1.47959 0.064,-3.09176 -0.57464,-4.26692 -0.47897,-0.88136 -0.82716,-1.00434 -1.26142,-0.98288 z m 2.37401,0.56068 c -0.0362,-0.007 -0.0784,-0.006 -0.12712,0.005 -0.0127,0.002 -0.0257,0.006 -0.0393,0.0103 -0.43209,0.13149 -0.11782,0.55397 -0.11782,0.55397 l 0.87695,3.23546 c 0,0 0.18686,0.96416 0.31523,1.62213 h 0.5612 l -0.53485,-2.33733 c 0,0 -0.62468,-1.67349 -0.71778,-2.60914 0,0 0.0355,-0.42894 -0.21704,-0.47956 z m -98.855979,2.10168 c -1.078069,0.0481 -6.412881,1.01961 -6.926192,1.21078 -0.758146,0.28253 -6.154917,1.89111 -6.903455,2.11409 h 1.153935 c 0.368253,-0.12027 0.734358,-0.21987 1.419035,-0.45166 2.391387,-0.80959 5.652938,-1.56048 6.257499,-1.49861 0.60456,0.0618 5.485453,-0.71727 5.485453,-0.71727 0,0 0.591784,-0.70535 -0.486275,-0.65733 z m 1.246435,0.55088 c -0.144749,0.007 -0.298842,0.0305 -0.470772,0.047 -0.0428,0.005 -0.112969,0.0167 -0.206189,0.0388 l 5.17e-4,0.001 c -1.212107,0.27506 -6.393657,1.88842 -8.663554,2.68718 h 1.456242 c 1.174669,-0.41021 5.872691,-2.02797 7.46001,-2.1792 1.807178,-0.17213 1.265039,1.44539 1.265039,1.44539 l 0.121956,0.73381 h 0.632003 c -0.0065,-0.64982 -0.04811,-1.26531 -0.33383,-1.79111 -0.478979,-0.88135 -0.827182,-1.00434 -1.261422,-0.98288 z m 75.806224,0.53433 c -1.07806,0.048 -6.41287,1.01807 -6.92619,1.20923 -0.35041,0.13057 -1.8018,0.57612 -3.29954,1.03043 h 1.05833 c 1.88808,-0.52278 3.72973,-0.91085 4.16822,-0.8661 0.60457,0.0618 5.48597,-0.71675 5.48597,-0.71675 0,0 0.59127,-0.70485 -0.48679,-0.65681 z m -73.433242,0.0269 c -0.0359,-0.007 -0.07793,-0.007 -0.126607,0.004 l -5.17e-4,5.2e-4 c -0.0123,0.002 -0.02556,0.006 -0.03876,0.0103 -0.43211,0.13139 -0.116789,0.55449 -0.116789,0.55449 l 0.445451,1.64383 h 0.47439 c -0.178499,-0.55619 -0.370353,-1.2271 -0.420647,-1.73271 0,0 0.03525,-0.42837 -0.216524,-0.47956 z m 74.680712,0.52452 c -0.14467,0.007 -0.29936,0.0305 -0.47129,0.047 -0.0428,0.005 -0.11407,0.0163 -0.20722,0.0382 l 5.2e-4,5.2e-4 c -0.77574,0.17468 -3.14593,0.89336 -5.37229,1.60249 h 1.43609 c 1.63533,-0.5167 3.36253,-1.01579 4.18889,-1.09451 1.26485,-0.1205 1.37534,0.6297 1.33016,1.09451 h 0.59272 c -0.0499,-0.24659 -0.11775,-0.48565 -0.23719,-0.70539 -0.47897,-0.88135 -0.8264,-1.00428 -1.26039,-0.98288 z m 2.37247,0.56069 c -0.036,-0.007 -0.0779,-0.007 -0.12661,0.004 -0.0127,0.002 -0.0257,0.006 -0.0393,0.01 -0.4321,0.13148 -0.1173,0.55449 -0.1173,0.55449 l 0.15141,0.55914 h 0.46561 c -0.0534,-0.23186 -0.0973,-0.45661 -0.11628,-0.64751 0,0 0.0347,-0.42893 -0.21755,-0.47956 z" /><path
       id="rect341"
       style="fill:#d30c7b;fill-opacity:1;stroke-width:0.0280093"
       d="m 150.33448,165.83543 -0.63479,2.34006 a 6.0316672,6.0316672 0 0 0 -6.87885,3.92182 l -2.31485,-0.62796 -0.22547,0.83117 2.31485,0.62796 a 6.0316672,6.0316672 0 0 0 3.95392,6.86044 l -0.6348,2.34006 0.83112,0.22546 0.63542,-2.34234 a 6.0316672,6.0316672 0 0 0 6.82617,-3.93365 l 2.36687,0.64207 0.22547,-0.83117 -2.36722,-0.64217 a 6.0316672,6.0316672 0 0 0 -3.90218,-6.84374 l 0.63547,-2.34255 z m -0.79964,2.94775 -1.29762,4.78344 -4.8081,-1.3043 a 5.4027727,5.4027727 0 0 1 6.10572,-3.47914 z m 0.83007,0.22933 a 5.4027727,5.4027727 0 0 1 3.4594,6.06891 l -4.75575,-1.29011 z m -7.16105,4.08022 4.8081,1.3043 -1.29761,4.78342 a 5.4027727,5.4027727 0 0 1 -3.51049,-6.08772 z m 5.63922,1.52976 4.75594,1.29016 a 5.4027727,5.4027727 0 0 1 -6.05256,3.48962 z" /><g
       id="layer11-1"
       style="display:inline"
       transform="matrix(0.58883383,0,0,0.58883383,0.92264248,23.214541)"><path
         id="path3756-0"
         style="mix-blend-mode:normal;fill:#000000;fill-opacity:0.5;stroke:#000000;stroke-width:0.3;paint-order:stroke fill markers;filter:url(#filter4313-5)"
         d="M 109.22744,90.020345 A 50.078861,50.078861 0 0 0 59.148844,140.09894 50.078861,50.078861 0 0 0 109.22744,190.17806 50.078861,50.078861 0 0 0 159.18253,143.4145 L 118.34885,90.89316 a 50.078861,50.078861 0 0 0 -9.12141,-0.872815 z" /><path
         id="path4310-3"
         style="fill:#d30c7b;stroke:#000000;stroke-width:0.3;paint-order:normal"
         d="M 109.22744,90.020345 A 50.078861,50.078861 0 0 0 59.148844,140.09894 50.078861,50.078861 0 0 0 109.22744,190.17806 50.078861,50.078861 0 0 0 159.18253,143.4145 L 118.34885,90.89316 a 50.078861,50.078861 0 0 0 -9.12141,-0.872815 z" /><path
         d="m 151.30774,139.27868 h -12.339 c -0.20523,-7.64198 -3.26925,-14.79708 -8.69591,-20.22419 -5.42805,-5.4276 -12.58408,-8.49208 -20.227,-8.69638 V 98.0191 c 0,-0.447975 -0.36319,-0.811173 -0.81116,-0.811173 -0.44843,0 -0.81163,0.363198 -0.81163,0.811173 v 12.34179 c -15.763923,0.42296 -28.502263,13.1576 -28.931233,28.92012 h -12.34412 c -0.44797,0 -0.81117,0.3632 -0.81117,0.81117 0,0.44843 0.3632,0.81164 0.81117,0.81164 h 12.34272 c 0.20198,7.64707 3.26647,14.80772 8.69637,20.23855 5.42991,5.42992 12.590113,8.49347 20.235793,8.69593 v 12.34086 c 0,0.44797 0.36319,0.81116 0.81164,0.81116 0.44797,0 0.81117,-0.36319 0.81117,-0.81116 V 169.8383 c 7.64291,-0.2043 14.79893,-3.26879 20.22698,-8.69593 5.42992,-5.43083 8.49439,-12.59148 8.69592,-20.23855 h 12.339 c 0.44798,0 0.81117,-0.36321 0.81117,-0.81164 0.009,-0.44937 -0.35671,-0.81071 -0.80145,-0.81071 z m -22.18565,-19.07716 c 5.1209,5.12092 8.0163,11.86879 8.22105,19.07716 H 124.489 c -0.19737,-3.77512 -1.76087,-7.29684 -4.45382,-9.9898 -2.69387,-2.6934 -6.21652,-4.25692 -9.99211,-4.45427 v -12.85323 c 7.20837,0.2043 13.9581,3.10155 19.07716,8.22061 z M 108.4235,139.27868 H 95.594827 c 0.19595,-3.3415 1.58853,-6.45603 3.97525,-8.8423 2.388583,-2.3895 5.507733,-3.78207 8.853423,-3.97617 z m 0,1.62143 v 12.83192 c -3.34615,-0.19365 -6.46484,-1.58668 -8.853423,-3.97572 -2.39044,-2.38998 -3.783,-5.51006 -3.97665,-8.8562 h 12.827763 z m 1.62142,0 h 12.82127 c -0.40258,6.88965 -5.93302,12.42333 -12.82127,12.83145 v -12.83238 z m 0,-1.62143 v -12.81755 c 3.34243,0.19549 6.45742,1.58806 8.84461,3.97525 2.38673,2.38674 3.77931,5.50126 3.97525,8.8423 H 110.04631 Z M 89.332427,120.20152 c 5.12368,-5.12323 11.876223,-8.01908 19.088283,-8.22153 v 12.85324 c -7.78327,0.40674 -14.042883,6.66311 -14.456123,14.44545 h -12.85368 c 0.20846,-7.20837 3.10386,-13.95348 8.2229,-19.07716 z m 0,39.78966 c -5.12415,-5.12416 -8.02001,-11.87715 -8.22152,-19.09061 h 12.85323 c 0.19456,3.78023 1.75854,7.30659 4.4552,10.0037 2.695723,2.69573 6.222093,4.25971 10.001373,4.4552 v 12.85323 c -7.21299,-0.20384 -13.967363,-3.09923 -19.091063,-8.22293 z m 20.712493,8.2229 v -12.8523 c 3.7756,-0.1978 7.29823,-1.76085 9.99212,-4.45472 2.69665,-2.69666 4.26016,-6.22348 4.4552,-10.00371 h 12.8523 c -0.42157,14.86611 -12.42935,26.88314 -27.30009,27.30935 z"
         id="path3371-0"
         style="fill:#f2f2f2;stroke:#000000;stroke-width:1.463;stroke-linecap:butt;stroke-dasharray:none;stroke-opacity:1;paint-order:stroke fill markers" /><path
         id="path4141-7"
         style="fill:#000000;fill-opacity:0.5;stroke:none;stroke-width:0.3;paint-order:stroke fill markers;filter:url(#filter4319-5)"
         d="M 159.18253,143.4145 118.34885,90.89316 a 50.078861,50.078861 0 0 0 -0.12403,3.31556 50.078861,50.078861 0 0 0 40.95771,49.20578 z" /><path
         id="path4317-4"
         style="fill:#f2f2f2;stroke:#000000;stroke-width:0.3;paint-order:normal"
         d="M 159.18253,143.4145 118.34885,90.89316 a 50.078861,50.078861 0 0 0 -0.12403,3.31556 50.078861,50.078861 0 0 0 40.95771,49.20578 z" /></g></g><style
     type="text/css"
     id="style2665-12">
	.st0{fill:#C43124;stroke:#010202;stroke-width:5;stroke-miterlimit:10;}
	.st1{fill:#E8A627;stroke:#010202;stroke-width:5;stroke-miterlimit:10;}
	.st2{fill:#F9DE59;stroke:#010202;stroke-width:5;stroke-miterlimit:10;}
</style><style
     type="text/css"
     id="style2665-52">
	.st0{fill:#C43124;stroke:#010202;stroke-width:5;stroke-miterlimit:10;}
	.st1{fill:#E8A627;stroke:#010202;stroke-width:5;stroke-miterlimit:10;}
	.st2{fill:#F9DE59;stroke:#010202;stroke-width:5;stroke-miterlimit:10;}
</style><style
     type="text/css"
     id="style2665-61">
	.st0{fill:#C43124;stroke:#010202;stroke-width:5;stroke-miterlimit:10;}
	.st1{fill:#E8A627;stroke:#010202;stroke-width:5;stroke-miterlimit:10;}
	.st2{fill:#F9DE59;stroke:#010202;stroke-width:5;stroke-miterlimit:10;}
</style></svg>
