<?xml version="1.0" encoding="UTF-8" standalone="no"?>
<!-- Created with Inkscape (http://www.inkscape.org/) -->

<svg
   width="186.86317mm"
   height="66.591278mm"
   viewBox="0 0 186.86317 66.591278"
   version="1.1"
   id="svg5"
   xml:space="preserve"
   inkscape:version="1.2.2 (732a01da63, 2022-12-09)"
   sodipodi:docname="logo_design.svg"
   inkscape:export-filename="logo_design.svg"
   inkscape:export-xdpi="96"
   inkscape:export-ydpi="96"
   xmlns:inkscape="http://www.inkscape.org/namespaces/inkscape"
   xmlns:sodipodi="http://sodipodi.sourceforge.net/DTD/sodipodi-0.dtd"
   xmlns="http://www.w3.org/2000/svg"
   xmlns:svg="http://www.w3.org/2000/svg"><sodipodi:namedview
     id="namedview7"
     pagecolor="#ffffff"
     bordercolor="#000000"
     borderopacity="0.25"
     inkscape:showpageshadow="2"
     inkscape:pageopacity="0.0"
     inkscape:pagecheckerboard="0"
     inkscape:deskcolor="#d1d1d1"
     inkscape:document-units="mm"
     showgrid="false"
     inkscape:zoom="0.97638868"
     inkscape:cx="337.98016"
     inkscape:cy="445.00721"
     inkscape:window-width="1920"
     inkscape:window-height="991"
     inkscape:window-x="-9"
     inkscape:window-y="-9"
     inkscape:window-maximized="1"
     inkscape:current-layer="g10972" /><defs
     id="defs2"><filter
       inkscape:collect="always"
       style="color-interpolation-filters:sRGB"
       id="filter11778"
       x="-0.039521158"
       y="-0.032799885"
       width="1.0790423"
       height="1.0655998"><feGaussianBlur
         inkscape:collect="always"
         stdDeviation="0.79287678"
         id="feGaussianBlur11780" /></filter><filter
       inkscape:collect="always"
       style="color-interpolation-filters:sRGB"
       id="filter11792"
       x="-0.0099497642"
       y="-0.028989615"
       width="1.0198995"
       height="1.0579792"><feGaussianBlur
         inkscape:collect="always"
         stdDeviation="2.8708165"
         id="feGaussianBlur11794" /></filter></defs><style
     type="text/css"
     id="style2665">
	.st0{fill:#C43124;stroke:#010202;stroke-width:5;stroke-miterlimit:10;}
	.st1{fill:#E8A627;stroke:#010202;stroke-width:5;stroke-miterlimit:10;}
	.st2{fill:#F9DE59;stroke:#010202;stroke-width:5;stroke-miterlimit:10;}
</style><g
     inkscape:groupmode="layer"
     id="layer16"
     inkscape:label="advanced_sticker"
     transform="translate(-10.612448,-101.45187)"><g
       id="g10972"
       inkscape:label="sticker"><path
         id="rect10699"
         style="fill:#000000;fill-opacity:0.5;stroke:none;stroke-width:1.13386;stroke-opacity:1;filter:url(#filter11792)"
         inkscape:label="sticker_shadow"
         d="m 616.65343,-11.593424 -52.9082,18.4843748 -41.1504,55.3203132 2.47657,21.865235 H 52.141704 c -18.835962,0 -34.000001,15.164039 -34.000001,34.000001 v 74 c 0,18.83596 15.164039,34 34.000001,34 H 633.65734 l 70.48437,-55.39063 V 118.0765 c -0.0797,-13.95519 6.47461,-90.484377 6.47461,-90.484377 z"
         transform="matrix(0.26458333,0,0,0.26458333,7.6354244,106.34226)" /><path
         id="path11786"
         style="fill:#f2f2f2;stroke:#000000;stroke-width:1.13386;stroke-opacity:1"
         inkscape:label="sticker"
         d="m 616.65343,-11.593424 -52.9082,18.4843748 -41.1504,55.3203132 2.47657,21.865235 H 52.141704 c -18.835962,0 -34.000001,15.164039 -34.000001,34.000001 v 74 c 0,18.83596 15.164039,34 34.000001,34 H 633.65734 l 70.48437,-55.39063 V 118.0765 c -0.0797,-13.95519 6.47461,-90.484377 6.47461,-90.484377 z"
         transform="matrix(0.26458333,0,0,0.26458333,7.6354244,106.34226)" /></g><g
       transform="matrix(0.26458333,0,0,0.26458333,7.6354244,106.34226)"
       fill-rule="evenodd"
       stroke="#000000"
       stroke-linecap="round"
       stroke-linejoin="round"
       stroke-width="2.0546"
       id="g9375"
       inkscape:label="rubik"><path
         d="m 617.45453,3.5332653 -21.62392,7.4692867 21.27124,7.861595 21.50637,-7.940191 -21.15369,-7.3913627 z"
         fill="#cc0000"
         id="path9321"
         style="fill:#d30c7b;fill-opacity:1;stroke-width:1.3802" /><path
         d="m 640.03906,11.419714 -21.54599,7.959672 27.07457,9.99846 21.17317,-8.626056 z"
         fill="#cc0000"
         id="path9323"
         style="fill:#d30c7b;fill-opacity:1;stroke-width:1.3802" /><path
         d="m 594.39976,11.493608 -26.83946,9.292441 21.0751,8.587095 27.07457,-9.99846 z"
         fill="#cc0000"
         id="path9325"
         style="fill:#d30c7b;fill-opacity:1;stroke-width:1.3802" /><path
         d="m 617.10521,19.883877 -27.15249,10.017941 27.15249,11.057152 27.1525,-11.057152 z"
         fill="#cc0000"
         id="path9327"
         style="fill:#d30c7b;fill-opacity:1;stroke-width:1.3802" /><path
         d="m 668.09843,21.220677 -21.19265,8.645538 29.13284,10.762921 20.68346,-9.41067 -28.62298,-9.99846 z"
         fill="#cc0000"
         id="path9329"
         style="fill:#d30c7b;fill-opacity:1;stroke-width:1.3802" /><path
         id="path9331"
         style="fill:#d30c7b;fill-opacity:1;stroke-width:1.3802"
         d="m 566.19249,21.260092 -10.55078,3.646484 -8.40039,10.785156 10.83398,4.958985 29.25,-10.783203 -21.13281,-8.605469 z" /><path
         d="m 588.63607,30.396904 -29.30951,10.822037 26.89789,12.331478 29.62323,-12.076882 z"
         fill="#cc0000"
         id="path9333"
         style="fill:#d30c7b;fill-opacity:1;stroke-width:1.3802" /><path
         d="m 645.58779,30.396904 -27.21161,11.076633 29.40759,11.998287 27.01546,-12.292517 z"
         fill="#cc0000"
         id="path9335"
         style="fill:#d30c7b;fill-opacity:1;stroke-width:1.3802" /><path
         id="path9337"
         style="fill:#f96e46;fill-opacity:1;stroke-width:1.3802"
         d="m 546.63976,36.463217 -8.8086,11.306641 1.53711,17.482422 19.87891,10.509765 -2.15625,-34.388672 0.23437,-0.01953 z" /><path
         d="m 697.75659,31.787445 -21.03613,9.567191 0.3921,0.03923 -3.21518,35.034244 19.76181,-10.449212 4.09746,-34.191185 z"
         fill="#3465a4"
         id="path9339"
         style="fill:#1e96fc;fill-opacity:1;stroke-width:1.3802" /><path
         d="m 676.07221,41.648866 -27.60392,12.566595 0.35289,0.01962 -1.27432,36.151379 25.34882,-13.42913 3.23479,-35.288843 -0.0588,-0.01962 z"
         fill="#3465a4"
         id="path9341"
         style="fill:#1e96fc;fill-opacity:1;stroke-width:1.3802" /><path
         d="m 558.07104,41.709325 2.17616,34.582825 26.28996,13.90003 -1.1567,-35.955223 h 0.0392 z"
         fill="#fce94f"
         id="path9343"
         style="fill:#f96e46;fill-opacity:1;stroke-width:1.3802" /><path
         d="M 617.12537,41.998181 587.42422,54.094544 616.81165,67.56331 646.61088,53.996467 Z"
         fill="#cc0000"
         id="path9345"
         style="fill:#d30c7b;fill-opacity:1;stroke-width:1.3802" /><path
         d="m 647.82475,54.506332 -30.50525,13.880554 0.33328,37.837494 28.93669,-15.33088 1.27433,-36.367015 -0.0392,-0.01961 z"
         fill="#3465a4"
         id="path9347"
         style="fill:#1e96fc;fill-opacity:1;stroke-width:1.3802" /><path
         d="m 586.36552,54.667554 1.13709,36.033816 29.21144,15.42896 -0.33329,-37.700451 -30.01486,-13.762325 z"
         fill="#fce94f"
         id="path9349"
         style="fill:#f96e46;fill-opacity:1;stroke-width:1.3802" /><path
         d="m 539.47003,66.369594 2.74468,31.152146 19.13438,11.80213 -2.03893,-32.46543 -19.8404,-10.488846 z"
         fill="#fce94f"
         id="path9351"
         style="fill:#f96e46;fill-opacity:1;stroke-width:1.3802" /><path
         d="m 693.52451,67.115247 -19.72284,10.449213 -3.03877,33.09286 18.95771,-11.8411 3.80336,-31.700973 z"
         fill="#3465a4"
         id="path9353"
         style="fill:#1e96fc;fill-opacity:1;stroke-width:1.3802" /><path
         d="m 560.308,77.38644 2.03892,32.54403 25.30986,15.62512 -1.09786,-34.26911 -26.25099,-13.90004 z"
         fill="#fce94f"
         id="path9355"
         style="fill:#f96e46;fill-opacity:1;stroke-width:1.3802" /><path
         d="m 672.80075,78.09179 -25.29038,13.39017 -1.21549,34.48474 23.46723,-14.68398 3.03877,-33.19093 z"
         fill="#3465a4"
         id="path9357"
         style="fill:#1e96fc;fill-opacity:1;stroke-width:1.3802" /><path
         d="m 587.5411,91.79567 1.09786,34.3477 28.38786,17.52687 -0.31368,-36.44561 -29.1718,-15.42896 z"
         fill="#fce94f"
         id="path9359"
         style="fill:#f96e46;fill-opacity:1;stroke-width:1.3802" /><path
         d="m 646.54841,91.99048 -28.89773,15.29192 0.31368,36.38649 27.34865,-17.09559 1.23509,-34.58282 z"
         fill="#3465a4"
         id="path9361"
         style="fill:#1e96fc;fill-opacity:1;stroke-width:1.3802" /><path
         d="m 542.31157,98.6812 2.54866,28.97632 18.36992,11.76317 -1.82329,-28.95617 -19.09542,-11.78265 z"
         fill="#fce94f"
         id="path9363"
         style="fill:#f96e46;fill-opacity:1;stroke-width:1.3802" /><path
         d="m 689.56113,100.03143 -18.89927,11.82162 -2.39179,26.03536 18.35044,-13.25313 2.94075,-24.60385 z"
         fill="#3465a4"
         id="path9365"
         style="fill:#1e96fc;fill-opacity:1;stroke-width:1.3802" /><path
         d="m 562.42404,111.08859 1.80367,28.97632 24.38821,15.62511 -0.92146,-29.01528 -25.27089,-15.58615 z"
         fill="#fce94f"
         id="path9367"
         style="fill:#f96e46;fill-opacity:1;stroke-width:1.3802" /><path
         d="m 669.64348,112.47913 -23.38863,14.64501 -0.96062,27.34865 21.95779,-15.86023 2.39179,-26.13343 z"
         fill="#3465a4"
         id="path9369"
         style="fill:#1e96fc;fill-opacity:1;stroke-width:1.3802" /><path
         d="m 588.65622,127.28469 0.92145,29.03477 27.702,17.74249 -0.23527,-29.29003 -28.38786,-17.4879 z"
         fill="#fce94f"
         id="path9371"
         style="fill:#f96e46;fill-opacity:1;stroke-width:1.3802" /><path
         d="m 645.27878,127.73477 -27.2902,17.07611 0.23525,29.19196 26.09381,-18.82067 0.96061,-27.44673 z"
         fill="#3465a4"
         id="path9373"
         style="fill:#1e96fc;fill-opacity:1;stroke-width:1.3802" /></g><path
       id="rect10977"
       style="mix-blend-mode:multiply;fill:#000000;fill-opacity:0.5;stroke:none;stroke-width:0.3;stroke-dasharray:none;stroke-opacity:1;filter:url(#filter11778)"
       d="m 156.72222,108.12467 -10.88771,14.63683 12.068,-4.21628 z m 27.60813,43.36014 c -4.98367,0 -8.99583,4.01216 -8.99583,8.99583 v 5.65961 l 18.64899,-14.65544 z"
       inkscape:label="crease_shadow" /><path
       id="path11776"
       style="fill:#f2f2f2;fill-opacity:1;stroke:#000000;stroke-width:0.3;stroke-dasharray:none;stroke-opacity:1"
       d="m 156.72222,108.12467 -10.88771,14.63683 12.068,-4.21628 z m 27.60813,43.36014 c -4.98367,0 -8.99583,4.01216 -8.99583,8.99583 v 5.65961 l 18.64899,-14.65544 z"
       inkscape:label="crease" /></g><style
     type="text/css"
     id="style6963">.st0{fill:#EF4136;stroke:#BE1E2D;stroke-width:6;stroke-miterlimit:10;} .st1{fill:#BE1E2D;} .st2{fill:none;}</style></svg>
