<?xml version="1.0" encoding="UTF-8" standalone="no"?>
<!-- Created with Inkscape (http://www.inkscape.org/) -->

<svg
   width="191.95163mm"
   height="46.640358mm"
   viewBox="0 0 191.95163 46.640358"
   version="1.1"
   id="svg5"
   xml:space="preserve"
   inkscape:version="1.2.2 (732a01da63, 2022-12-09)"
   sodipodi:docname="logo_design.svg"
   inkscape:export-filename="logo_design.svg"
   inkscape:export-xdpi="96"
   inkscape:export-ydpi="96"
   xmlns:inkscape="http://www.inkscape.org/namespaces/inkscape"
   xmlns:sodipodi="http://sodipodi.sourceforge.net/DTD/sodipodi-0.dtd"
   xmlns="http://www.w3.org/2000/svg"
   xmlns:svg="http://www.w3.org/2000/svg"><sodipodi:namedview
     id="namedview7"
     pagecolor="#ffffff"
     bordercolor="#000000"
     borderopacity="0.25"
     inkscape:showpageshadow="2"
     inkscape:pageopacity="0.0"
     inkscape:pagecheckerboard="0"
     inkscape:deskcolor="#d1d1d1"
     inkscape:document-units="mm"
     showgrid="false"
     inkscape:zoom="1"
     inkscape:cx="197.99999"
     inkscape:cy="493.49999"
     inkscape:window-width="1920"
     inkscape:window-height="991"
     inkscape:window-x="-9"
     inkscape:window-y="-9"
     inkscape:window-maximized="1"
     inkscape:current-layer="layer15" /><defs
     id="defs2"><filter
       inkscape:collect="always"
       style="color-interpolation-filters:sRGB"
       id="filter6248"
       x="-0.12601689"
       y="-0.087955877"
       width="1.2520338"
       height="1.1759118"><feGaussianBlur
         inkscape:collect="always"
         stdDeviation="0.7861005"
         id="feGaussianBlur6250" /></filter><filter
       inkscape:collect="always"
       style="color-interpolation-filters:sRGB"
       id="filter6254"
       x="-0.01077359"
       y="-0.047530241"
       width="1.0215472"
       height="1.0950605"><feGaussianBlur
         inkscape:collect="always"
         stdDeviation="0.84349512"
         id="feGaussianBlur6256" /></filter></defs><style
     type="text/css"
     id="style2665">
	.st0{fill:#C43124;stroke:#010202;stroke-width:5;stroke-miterlimit:10;}
	.st1{fill:#E8A627;stroke:#010202;stroke-width:5;stroke-miterlimit:10;}
	.st2{fill:#F9DE59;stroke:#010202;stroke-width:5;stroke-miterlimit:10;}
</style><g
     inkscape:groupmode="layer"
     id="layer15"
     inkscape:label="name_sticker"
     transform="translate(-8.7247192,-107.20939)"><g
       id="g4794"
       inkscape:label="sticker"
       style="stroke-width:0.3;stroke-dasharray:none"><path
         id="path5960"
         style="display:inline;fill:#000000;fill-opacity:0.5;stroke:none;stroke-width:0.3;stroke-dasharray:none;filter:url(#filter6254)"
         inkscape:label="sticker_shadow"
         d="m 38.513411,109.23416 c -4.693314,0.0209 -9.107755,0.89714 -13.120129,2.56883 L 11.95741,133.25285 c 0.902172,1.39138 2.215479,2.75418 4.00699,4.06952 -0.121054,1.55207 -0.131321,1.85053 -0.125057,1.89187 -0.05996,0.0406 -6.5633803,4.45677 -4.781103,8.15041 1.170542,3.56095 6.366779,-1.7052 22.321118,-1.70326 13.933118,0.002 17.668802,6.11687 26.147758,6.16397 H 191.78726 c 3.80318,0 6.8647,-3.06151 6.8647,-6.8647 v -16.7504 c 0,-3.80318 -3.06152,-6.86521 -6.8647,-6.86521 H 71.312443 C 59.962479,113.07123 48.601149,109.18926 38.513411,109.23416 Z" /><path
         id="path6252"
         style="display:inline;fill:#f2f2f2;stroke:#000000;stroke-width:0.3;stroke-dasharray:none"
         inkscape:label="sticker"
         d="m 38.513411,109.23416 c -4.693314,0.0209 -9.107755,0.89714 -13.120129,2.56883 L 11.95741,133.25285 c 0.902172,1.39138 2.215479,2.75418 4.00699,4.06952 -0.121054,1.55207 -0.131321,1.85053 -0.125057,1.89187 -0.05996,0.0406 -6.5633803,4.45677 -4.781103,8.15041 1.170542,3.56095 6.366779,-1.7052 22.321118,-1.70326 13.933118,0.002 17.668802,6.11687 26.147758,6.16397 H 191.78726 c 3.80318,0 6.8647,-3.06151 6.8647,-6.8647 v -16.7504 c 0,-3.80318 -3.06152,-6.86521 -6.8647,-6.86521 H 71.312443 C 59.962479,113.07123 48.601149,109.18926 38.513411,109.23416 Z" /></g><g
       id="g4218"
       inkscape:label="cap"
       transform="matrix(0.99987595,0,0,1.0472062,0.00587188,-5.1889382)"><path
         id="path568"
         style="display:inline;fill:#f2f2f2;stroke:#000000;stroke-width:0.3;stroke-dasharray:none"
         inkscape:label="cap"
         d="m 39.046718,112.71791 c -6.353918,0.027 -12.097196,1.84775 -16.766432,5.29345 l 0.02067,0.0133 -6.790091,9.71889 c -0.01175,4.59276 4.919173,7.21057 4.919173,7.21057 22.306846,-12.78925 52.884469,7.97842 52.884469,7.97842 0,0 2.538726,-3.41105 3.744939,-5.06991 1.729037,-2.4195 1.748632,-4.67698 -0.09406,-6.5212 C 64.183,118.5485 50.606771,112.66878 39.046718,112.71791 Z" /><path
         id="rect718"
         style="display:inline;fill:#ffcc00;stroke:#000000;stroke-width:0.3;stroke-dasharray:none"
         d="m 20.335969,134.97147 c 0,0 8.269858,-6.64208 24.722464,-3.47116 17.790729,3.42883 28.220899,11.37058 28.220899,11.37058 l -1.945378,3.40917 c 0,0 -8.986254,-7.29317 -26.797225,-10.65021 -14.08618,-2.65498 -24.163582,2.26405 -24.163582,2.26405 z"
         sodipodi:nodetypes="csccscc"
         inkscape:label="cap_rim" /><path
         id="rect721"
         style="display:inline;fill:#333333;stroke:#000000;stroke-width:0.3;stroke-dasharray:none"
         d="m 20.497909,137.89562 c 0,0 7.819524,-3.9103 19.54608,-2.82205 13.394578,1.24305 22.185285,6.14985 22.185285,6.14985 0,0 -0.305026,1.44528 -3.933216,4.41808 -2.935898,2.40556 -12.274528,-3.24623 -20.405597,-4.4674 -3.415704,-0.51298 -8.607973,-0.47645 -11.700445,-0.09 -7.553144,0.94367 -9.052327,3.69391 -10.739575,1.80648 -1.369291,-1.53175 5.047468,-4.99489 5.047468,-4.99489 z"
         sodipodi:nodetypes="cscssssc"
         inkscape:label="cap_tip" /><path
         id="path988"
         style="fill:#333333;stroke:#000000;stroke-width:0.168619"
         d="m 31.539384,118.67852 a 2.1031117,2.2345561 0 0 0 -2.103179,2.23447 2.1031117,2.2345561 0 0 0 1.419452,2.11131 v 0.88559 h -0.761863 c -0.175072,0 -0.316014,0.14094 -0.316014,0.31601 v 0.52485 c 0,0.17507 0.140942,0.31602 0.316014,0.31602 h 0.761863 v 1.56265 c 0,0.006 3.15e-4,0.0119 5.82e-4,0.018 -1.417739,-0.62968 -2.937075,-2.66143 -2.937075,-2.66143 -0.416945,0.02 -0.433734,0.57662 -0.408958,0.94804 0.02439,0.64804 3.022884,3.25817 4.29204,2.99632 1.386063,-0.0666 3.632152,-1.49267 4.798588,-3.15404 0,-0.35263 0.09357,-0.96075 -0.408959,-0.94804 0,0 -1.975263,2.37213 -3.955979,2.90453 0.0086,-0.033 0.01308,-0.0676 0.01308,-0.10338 v -1.56265 h 0.840871 c 0.175067,0 0.316007,-0.14095 0.316007,-0.31602 v -0.52485 c 0,-0.17507 -0.14094,-0.31601 -0.316007,-0.31601 h -0.840871 v -0.89518 a 2.1031117,2.2345561 0 0 0 1.393311,-2.10172 2.1031117,2.2345561 0 0 0 -2.102885,-2.23447 z m 0,1.02037 a 1.1426371,1.2140519 0 0 1 1.142356,1.2141 1.1426371,1.2140519 0 0 1 -1.142356,1.21409 1.1426371,1.2140519 0 0 1 -1.142647,-1.21409 1.1426371,1.2140519 0 0 1 1.142647,-1.2141 z"
         inkscape:label="anchor" /><path
         id="rect1266"
         style="fill:#ffeda0;fill-opacity:1;stroke:none;stroke-width:0.168619"
         d="m 36.667347,130.64319 c -0.340289,-0.002 -0.673836,0.002 -1.003516,0.009 l -2.264669,4.27984 c 0.955564,-0.0594 1.949875,-0.0921 2.985281,-0.0869 l 2.194385,-4.14681 c -0.654605,-0.0337 -1.292004,-0.0514 -1.911481,-0.0546 z m -1.972476,0.0401 c -1.552536,0.0707 -2.979762,0.23121 -4.280999,0.45108 l -2.352675,4.45615 c 1.311992,-0.24597 2.770446,-0.45352 4.352744,-0.5873 z"
         inkscape:label="cap_reflection" /><path
         id="path2831"
         style="mix-blend-mode:multiply;fill:#e2e2e2;fill-opacity:1;stroke:none;stroke-width:0.168619"
         d="m 71.848879,126.62157 c 0.376676,5.05962 -0.427597,11.34934 -6.634257,11.78953 -13.090717,1.05242 -10.815268,5.98288 -23.139599,3.70183 6.917017,1.96254 13.780717,5.5279 16.220987,3.52844 3.628171,-2.97279 3.933321,-4.41781 3.933321,-4.41781 0,0 -0.973524,-0.54204 -2.756983,-1.30965 7.888574,3.14588 11.861559,6.36617 11.861559,6.36617 l 1.929489,-3.38088 c 0.0048,0.004 0.0508,0.0337 0.0508,0.0337 0,0 2.538913,-3.4113 3.745117,-5.07016 1.729054,-2.41949 1.748589,-4.67706 -0.09414,-6.52128 -1.693659,-1.69505 -3.401363,-3.26526 -5.116352,-4.71987 z"
         inkscape:label="cap_shadow" /></g><path
       id="path5967"
       style="display:inline;mix-blend-mode:multiply;fill:#000000;fill-opacity:0.5;stroke:none;stroke-width:0.3;stroke-dasharray:none;filter:url(#filter6248)"
       inkscape:label="crease_shadow"
       d="m 12.071633,133.14612 c 2.669001,-1.112 5.16186,-2.57244 7.434171,-4.3801 6.486606,-5.38036 9.638464,-11.46095 6.001701,-17.06976 z" /><path
       id="path6246"
       style="display:inline;fill:#f2f2f2;stroke:#000000;stroke-width:0.3;stroke-dasharray:none"
       inkscape:label="crease"
       d="m 12.071633,133.14612 c 2.669001,-1.112 5.16186,-2.57244 7.434171,-4.3801 6.486606,-5.38036 9.638464,-11.46095 6.001701,-17.06976 z" /></g></svg>
