<?xml version="1.0" encoding="UTF-8" standalone="no"?>
<!-- Created with Inkscape (http://www.inkscape.org/) -->

<svg
   width="199.84949mm"
   height="56.596695mm"
   viewBox="0 0 199.84949 56.596695"
   version="1.1"
   id="svg5"
   xml:space="preserve"
   inkscape:version="1.2.2 (732a01da63, 2022-12-09)"
   sodipodi:docname="logo_design.svg"
   inkscape:export-filename="logo_design.svg"
   inkscape:export-xdpi="96"
   inkscape:export-ydpi="96"
   xmlns:inkscape="http://www.inkscape.org/namespaces/inkscape"
   xmlns:sodipodi="http://sodipodi.sourceforge.net/DTD/sodipodi-0.dtd"
   xmlns="http://www.w3.org/2000/svg"
   xmlns:svg="http://www.w3.org/2000/svg"><sodipodi:namedview
     id="namedview7"
     pagecolor="#ffffff"
     bordercolor="#000000"
     borderopacity="0.25"
     inkscape:showpageshadow="2"
     inkscape:pageopacity="0.0"
     inkscape:pagecheckerboard="0"
     inkscape:deskcolor="#d1d1d1"
     inkscape:document-units="mm"
     showgrid="false"
     inkscape:zoom="1.4142136"
     inkscape:cx="339.41126"
     inkscape:cy="499.57094"
     inkscape:window-width="1920"
     inkscape:window-height="991"
     inkscape:window-x="-9"
     inkscape:window-y="-9"
     inkscape:window-maximized="1"
     inkscape:current-layer="layer4" /><defs
     id="defs2"><filter
       inkscape:collect="always"
       style="color-interpolation-filters:sRGB"
       id="filter9476"
       x="-0.014241785"
       y="-0.054192137"
       width="1.0285349"
       height="1.1083858"><feGaussianBlur
         inkscape:collect="always"
         stdDeviation="1.0905205"
         id="feGaussianBlur9478" /></filter><filter
       inkscape:collect="always"
       style="color-interpolation-filters:sRGB"
       id="filter9482"
       x="-0.10910759"
       y="-0.12673233"
       width="1.2142295"
       height="1.2610081"><feGaussianBlur
         inkscape:collect="always"
         stdDeviation="0.85528415"
         id="feGaussianBlur9484" /></filter></defs><style
     type="text/css"
     id="style2665">
	.st0{fill:#C43124;stroke:#010202;stroke-width:5;stroke-miterlimit:10;}
	.st1{fill:#E8A627;stroke:#010202;stroke-width:5;stroke-miterlimit:10;}
	.st2{fill:#F9DE59;stroke:#010202;stroke-width:5;stroke-miterlimit:10;}
</style><g
     inkscape:groupmode="layer"
     id="layer4"
     inkscape:label="carrier"
     style="display:inline"
     transform="translate(-6.8624002,-100.52478)"><g
       id="g11159"
       inkscape:label="sticker"><path
         id="path6062"
         style="mix-blend-mode:normal;fill:#000000;fill-opacity:0.5;stroke:#010202;stroke-width:0.3;stroke-dasharray:none;stroke-opacity:1;filter:url(#filter9476)"
         inkscape:label="carrier_sticker_shadow"
         d="m 148.06796,103.29395 c -0.17249,-0.008 -0.31179,0.008 -0.46095,0.0476 -0.2134,0.0559 -1.23912,0.12056 -2.27945,0.14366 -2.94537,0.0655 -3.76921,0.32881 -4.59713,1.46967 -0.36421,0.50185 -0.70488,1.77254 -0.60668,2.26343 0.0475,0.23746 -0.0234,0.35463 -0.5209,0.863 l -0.57568,0.58859 h -1.1715 c -1.8691,0 -2.93232,0.32946 -3.72174,1.15342 -0.16282,0.16997 -0.42109,0.31342 -0.62838,0.34882 -0.49478,0.0845 -1.19196,0.62396 -1.6583,1.28312 -0.21832,0.30859 -0.56441,0.77227 -0.76895,1.03043 -0.39874,0.50331 -0.68884,1.48794 -0.68884,2.33733 0,0.39733 -0.031,0.44667 -0.47594,0.76636 -0.66951,0.48099 -1.02053,1.03749 -1.21957,1.93218 -0.15859,0.71105 -0.15871,0.79219 -0.001,1.50327 0.17521,0.79013 0.34026,1.09939 0.90795,1.69963 l 0.34624,0.36536 -0.009,1.40405 c -0.005,0.83021 -0.0505,1.45403 -0.11111,1.52703 -0.0564,0.068 -0.18085,0.50158 -0.27595,0.96377 l -0.1726,0.84077 -0.34365,0.0636 c -0.38645,0.0716 -0.85703,0.33841 -1.33325,0.75654 l -0.32143,0.28267 -1.52704,-0.21859 c -1.7229,-0.2464 -3.49069,-0.29134 -4.30671,-0.10956 l -0.5488,0.12248 -0.50695,-0.38344 c -0.40076,-0.30332 -0.67322,-0.41875 -1.30535,-0.55139 -0.75742,-0.15898 -0.83926,-0.15865 -1.56373,5.2e-4 -0.79247,0.1741 -1.20546,0.3763 -1.75389,0.85783 l -0.32195,0.28215 -1.52652,-0.21859 c -1.72291,-0.2464 -3.49068,-0.29136 -4.30671,-0.10956 l -0.54932,0.12248 -0.50643,-0.38344 c -0.40074,-0.30332 -0.67375,-0.41875 -1.30587,-0.55139 -0.75742,-0.15899 -0.83873,-0.15864 -1.56321,5.2e-4 -0.79249,0.17411 -1.20599,0.37631 -1.75441,0.85783 l -0.32143,0.28215 -1.52652,-0.21859 c -1.7229,-0.2464 -3.491204,-0.29133 -4.307233,-0.10956 l -0.548804,0.12248 -0.506946,-0.38344 c -0.400751,-0.30331 -0.673235,-0.41873 -1.305347,-0.55139 -0.757419,-0.15897 -0.838732,-0.15864 -1.563212,5.2e-4 -0.792488,0.17411 -1.205987,0.37632 -1.754415,0.85783 l -0.321427,0.28215 -1.478463,-0.20154 c -2.479138,-0.33769 -2.889478,-0.34893 -4.242635,-0.11989 -2.432878,0.41179 -3.986959,0.93954 -4.466394,1.51722 -0.09764,0.11758 -0.69783,0.14005 -3.733622,0.14005 h -3.61735 l -0.06201,-0.36329 c -0.08097,-0.47416 -0.614597,-1.19931 -1.190108,-1.61696 -0.333456,-0.24199 -0.672115,-0.37684 -1.247469,-0.49764 -0.746809,-0.15584 -0.831951,-0.15614 -1.554427,0.003 -0.792488,0.1741 -1.205988,0.37631 -1.754415,0.85783 l -0.321428,0.28267 -1.527038,-0.21859 c -1.722899,-0.2464 -3.490692,-0.29135 -4.306714,-0.10955 l -0.549321,0.12247 -0.506429,-0.38344 c -0.400749,-0.30332 -0.673235,-0.41875 -1.305346,-0.55139 -0.755677,-0.15815 -0.840916,-0.15832 -1.563729,-10e-4 -0.759071,0.16516 -1.301258,0.43706 -1.800407,0.90175 l -0.260449,0.24237 -1.485698,-0.20154 c -2.900809,-0.39341 -3.465206,-0.36898 -6.120556,0.26562 -1.453712,0.34741 -1.720716,0.45255 -2.325957,0.91622 l -0.46147,0.35347 h -3.579627 -3.579626 l -0.06201,-0.36381 c -0.08097,-0.47417 -0.614595,-1.1988 -1.190108,-1.61644 -0.333456,-0.24199 -0.67263,-0.37736 -1.247986,-0.49816 -0.748362,-0.15729 -0.830473,-0.15691 -1.554427,0.004 -0.753845,0.16772 -1.332122,0.47494 -1.732194,0.91932 -0.212405,0.23579 -0.211086,0.2356 -2.232939,-0.0444 -2.381416,-0.32983 -3.12763,-0.28608 -5.734533,0.33693 -1.419674,0.33929 -1.689779,0.44643 -2.292884,0.90847 l -0.461987,0.35347 h -4.652429 c -5.33271,0 -5.729888,0.0406 -6.562907,0.67024 -1.1304453,0.8544 -1.4889536,1.79982 -1.4831136,3.90829 0.00828,3.00961 0.9646116,4.59714 3.7821976,6.27765 1.096832,0.65422 2.095995,1.36412 2.99775,2.12907 l 0.336931,0.28526 -0.38499,0.10128 c -0.211725,0.0557 -0.594676,0.15281 -0.850594,0.21601 -1.254043,0.30945 -3.14598,2.07666 -3.678328,3.43597 -0.202862,0.51798 -0.56069,2.19038 -0.56069,2.61947 0,0.42908 0.357828,2.10099 0.56069,2.61897 0.239772,0.61223 0.818504,1.40429 1.489314,2.03966 0.933565,0.88428 1.529606,1.22003 2.700094,1.52033 l 1.021643,0.25993 79.668006,0.006 c 73.216046,0.004 79.723486,-0.008 80.365116,-0.15296 0.38397,-0.0867 0.82905,-0.24655 0.98909,-0.35502 0.16005,-0.10846 0.8807,-0.77443 1.60093,-1.4795 0.72023,-0.70506 1.4488,-1.35249 1.61954,-1.43919 0.27248,-0.13846 0.82719,-0.15761 4.53513,-0.15761 2.50471,0 4.22403,0.036 4.22403,0.0889 0,0.15259 0.97856,1.16825 1.41438,1.46812 1.31245,0.90297 5.07425,0.90297 6.38669,0 0.43582,-0.29987 1.41439,-1.31553 1.41439,-1.46812 0,-0.0491 0.2169,-0.0889 0.48214,-0.0889 1.92287,0 3.2713,-0.96367 3.62923,-2.5926 0.15091,-0.6869 0.14917,-0.74958 -0.0496,-1.61489 l -0.2067,-0.90021 0.25114,-0.38085 c 0.13811,-0.20926 0.33879,-0.74838 0.44597,-1.19838 0.0661,-0.27742 0.10051,-0.45512 0.12144,-0.61185 l -20.9305,-16.53077 c -0.0308,0.0276 -0.0579,0.0466 -0.0899,0.0765 l -0.29301,0.27285 -0.53175,-0.14676 c -0.82561,-0.22731 -2.05373,-0.23749 -2.94969,-0.0248 l -0.76843,0.18241 -0.29817,-0.27802 c -0.52367,-0.4884 -0.86423,-0.66898 -1.55908,-0.8263 -0.61877,-0.14011 -0.73813,-0.14 -1.35805,0 -0.70076,0.15827 -1.03546,0.33699 -1.57252,0.83871 -0.22893,0.21377 -0.34456,0.26427 -0.43666,0.19017 -0.0689,-0.0554 -0.43047,-0.16974 -0.80357,-0.25374 -0.61824,-0.13958 -0.73868,-0.13937 -1.35806,0.001 -0.73138,0.16577 -1.37448,0.5429 -1.71772,1.00717 l -0.21084,0.28526 h -6.20117 -6.20118 l 0.0584,-0.21808 c 0.0322,-0.12003 0.0606,-0.50176 0.0615,-0.84853 l 0.003,-0.63097 0.48266,-0.31522 c 0.71254,-0.46591 1.11319,-1.0754 1.28778,-1.95854 0.17125,-0.8661 0.15929,-2.61902 -0.0233,-3.40858 -0.23697,-1.02489 -1.19912,-1.99318 -2.20348,-2.21795 -0.5131,-0.11471 -0.51728,-0.11894 -0.51728,-0.48059 0,-0.30845 0.0598,-0.41253 0.38499,-0.67386 0.57911,-0.46538 0.92787,-1.04374 1.10691,-1.83348 0.1479,-0.65242 0.1479,-0.75421 0,-1.40663 -0.0928,-0.40937 -0.27882,-0.87754 -0.44545,-1.12035 -0.3635,-0.52968 -1.08548,-1.05771 -1.55546,-1.13791 -0.24915,-0.0425 -0.36432,-0.11333 -0.36432,-0.22376 -0.001,-0.45039 -1.36679,-1.7782 -1.9482,-1.89446 -0.22478,-0.045 -0.29169,-0.12799 -0.37879,-0.47025 -0.16041,-0.63075 -0.29487,-0.85435 -0.84956,-1.41594 -0.48975,-0.49591 -0.50902,-0.53603 -0.50902,-1.048 0,-0.79658 -0.27532,-1.86876 -0.60254,-2.34559 -0.44394,-0.64691 -1.06258,-1.04156 -1.9141,-1.22111 -0.2817,-0.0594 -0.48741,-0.0921 -0.65991,-0.10026 z" /><path
         id="path9473"
         style="fill:#f2f2f2;stroke:#010202;stroke-width:0.3;stroke-dasharray:none;stroke-opacity:1"
         inkscape:label="carrier_sticker"
         d="m 148.06796,103.29395 c -0.17249,-0.008 -0.31179,0.008 -0.46095,0.0476 -0.2134,0.0559 -1.23912,0.12056 -2.27945,0.14366 -2.94537,0.0655 -3.76921,0.32881 -4.59713,1.46967 -0.36421,0.50185 -0.70488,1.77254 -0.60668,2.26343 0.0475,0.23746 -0.0234,0.35463 -0.5209,0.863 l -0.57568,0.58859 h -1.1715 c -1.8691,0 -2.93232,0.32946 -3.72174,1.15342 -0.16282,0.16997 -0.42109,0.31342 -0.62838,0.34882 -0.49478,0.0845 -1.19196,0.62396 -1.6583,1.28312 -0.21832,0.30859 -0.56441,0.77227 -0.76895,1.03043 -0.39874,0.50331 -0.68884,1.48794 -0.68884,2.33733 0,0.39733 -0.031,0.44667 -0.47594,0.76636 -0.66951,0.48099 -1.02053,1.03749 -1.21957,1.93218 -0.15859,0.71105 -0.15871,0.79219 -0.001,1.50327 0.17521,0.79013 0.34026,1.09939 0.90795,1.69963 l 0.34624,0.36536 -0.009,1.40405 c -0.005,0.83021 -0.0505,1.45403 -0.11111,1.52703 -0.0564,0.068 -0.18085,0.50158 -0.27595,0.96377 l -0.1726,0.84077 -0.34365,0.0636 c -0.38645,0.0716 -0.85703,0.33841 -1.33325,0.75654 l -0.32143,0.28267 -1.52704,-0.21859 c -1.7229,-0.2464 -3.49069,-0.29134 -4.30671,-0.10956 l -0.5488,0.12248 -0.50695,-0.38344 c -0.40076,-0.30332 -0.67322,-0.41875 -1.30535,-0.55139 -0.75742,-0.15898 -0.83926,-0.15865 -1.56373,5.2e-4 -0.79247,0.1741 -1.20546,0.3763 -1.75389,0.85783 l -0.32195,0.28215 -1.52652,-0.21859 c -1.72291,-0.2464 -3.49068,-0.29136 -4.30671,-0.10956 l -0.54932,0.12248 -0.50643,-0.38344 c -0.40074,-0.30332 -0.67375,-0.41875 -1.30587,-0.55139 -0.75742,-0.15899 -0.83873,-0.15864 -1.56321,5.2e-4 -0.79249,0.17411 -1.20599,0.37631 -1.75441,0.85783 l -0.32143,0.28215 -1.52652,-0.21859 c -1.7229,-0.2464 -3.491204,-0.29133 -4.307233,-0.10956 l -0.548804,0.12248 -0.506946,-0.38344 c -0.400751,-0.30331 -0.673235,-0.41873 -1.305347,-0.55139 -0.757419,-0.15897 -0.838732,-0.15864 -1.563212,5.2e-4 -0.792488,0.17411 -1.205987,0.37632 -1.754415,0.85783 l -0.321427,0.28215 -1.478463,-0.20154 c -2.479138,-0.33769 -2.889478,-0.34893 -4.242635,-0.11989 -2.432878,0.41179 -3.986959,0.93954 -4.466394,1.51722 -0.09764,0.11758 -0.69783,0.14005 -3.733622,0.14005 h -3.61735 l -0.06201,-0.36329 c -0.08097,-0.47416 -0.614597,-1.19931 -1.190108,-1.61696 -0.333456,-0.24199 -0.672115,-0.37684 -1.247469,-0.49764 -0.746809,-0.15584 -0.831951,-0.15614 -1.554427,0.003 -0.792488,0.1741 -1.205988,0.37631 -1.754415,0.85783 l -0.321428,0.28267 -1.527038,-0.21859 c -1.722899,-0.2464 -3.490692,-0.29135 -4.306714,-0.10955 l -0.549321,0.12247 -0.506429,-0.38344 c -0.400749,-0.30332 -0.673235,-0.41875 -1.305346,-0.55139 -0.755677,-0.15815 -0.840916,-0.15832 -1.563729,-10e-4 -0.759071,0.16516 -1.301258,0.43706 -1.800407,0.90175 l -0.260449,0.24237 -1.485698,-0.20154 c -2.900809,-0.39341 -3.465206,-0.36898 -6.120556,0.26562 -1.453712,0.34741 -1.720716,0.45255 -2.325957,0.91622 l -0.46147,0.35347 h -3.579627 -3.579626 l -0.06201,-0.36381 c -0.08097,-0.47417 -0.614595,-1.1988 -1.190108,-1.61644 -0.333456,-0.24199 -0.67263,-0.37736 -1.247986,-0.49816 -0.748362,-0.15729 -0.830473,-0.15691 -1.554427,0.004 -0.753845,0.16772 -1.332122,0.47494 -1.732194,0.91932 -0.212405,0.23579 -0.211086,0.2356 -2.232939,-0.0444 -2.381416,-0.32983 -3.12763,-0.28608 -5.734533,0.33693 -1.419674,0.33929 -1.689779,0.44643 -2.292884,0.90847 l -0.461987,0.35347 h -4.652429 c -5.33271,0 -5.729888,0.0406 -6.562907,0.67024 -1.1304453,0.8544 -1.4889536,1.79982 -1.4831136,3.90829 0.00828,3.00961 0.9646116,4.59714 3.7821976,6.27765 1.096832,0.65422 2.095995,1.36412 2.99775,2.12907 l 0.336931,0.28526 -0.38499,0.10128 c -0.211725,0.0557 -0.594676,0.15281 -0.850594,0.21601 -1.254043,0.30945 -3.14598,2.07666 -3.678328,3.43597 -0.202862,0.51798 -0.56069,2.19038 -0.56069,2.61947 0,0.42908 0.357828,2.10099 0.56069,2.61897 0.239772,0.61223 0.818504,1.40429 1.489314,2.03966 0.933565,0.88428 1.529606,1.22003 2.700094,1.52033 l 1.021643,0.25993 79.668006,0.006 c 73.216046,0.004 79.723486,-0.008 80.365116,-0.15296 0.38397,-0.0867 0.82905,-0.24655 0.98909,-0.35502 0.16005,-0.10846 0.8807,-0.77443 1.60093,-1.4795 0.72023,-0.70506 1.4488,-1.35249 1.61954,-1.43919 0.27248,-0.13846 0.82719,-0.15761 4.53513,-0.15761 2.50471,0 4.22403,0.036 4.22403,0.0889 0,0.15259 0.97856,1.16825 1.41438,1.46812 1.31245,0.90297 5.07425,0.90297 6.38669,0 0.43582,-0.29987 1.41439,-1.31553 1.41439,-1.46812 0,-0.0491 0.2169,-0.0889 0.48214,-0.0889 1.92287,0 3.2713,-0.96367 3.62923,-2.5926 0.15091,-0.6869 0.14917,-0.74958 -0.0496,-1.61489 l -0.2067,-0.90021 0.25114,-0.38085 c 0.13811,-0.20926 0.33879,-0.74838 0.44597,-1.19838 0.0661,-0.27742 0.10051,-0.45512 0.12144,-0.61185 l -20.9305,-16.53077 c -0.0308,0.0276 -0.0579,0.0466 -0.0899,0.0765 l -0.29301,0.27285 -0.53175,-0.14676 c -0.82561,-0.22731 -2.05373,-0.23749 -2.94969,-0.0248 l -0.76843,0.18241 -0.29817,-0.27802 c -0.52367,-0.4884 -0.86423,-0.66898 -1.55908,-0.8263 -0.61877,-0.14011 -0.73813,-0.14 -1.35805,0 -0.70076,0.15827 -1.03546,0.33699 -1.57252,0.83871 -0.22893,0.21377 -0.34456,0.26427 -0.43666,0.19017 -0.0689,-0.0554 -0.43047,-0.16974 -0.80357,-0.25374 -0.61824,-0.13958 -0.73868,-0.13937 -1.35806,0.001 -0.73138,0.16577 -1.37448,0.5429 -1.71772,1.00717 l -0.21084,0.28526 h -6.20117 -6.20118 l 0.0584,-0.21808 c 0.0322,-0.12003 0.0606,-0.50176 0.0615,-0.84853 l 0.003,-0.63097 0.48266,-0.31522 c 0.71254,-0.46591 1.11319,-1.0754 1.28778,-1.95854 0.17125,-0.8661 0.15929,-2.61902 -0.0233,-3.40858 -0.23697,-1.02489 -1.19912,-1.99318 -2.20348,-2.21795 -0.5131,-0.11471 -0.51728,-0.11894 -0.51728,-0.48059 0,-0.30845 0.0598,-0.41253 0.38499,-0.67386 0.57911,-0.46538 0.92787,-1.04374 1.10691,-1.83348 0.1479,-0.65242 0.1479,-0.75421 0,-1.40663 -0.0928,-0.40937 -0.27882,-0.87754 -0.44545,-1.12035 -0.3635,-0.52968 -1.08548,-1.05771 -1.55546,-1.13791 -0.24915,-0.0425 -0.36432,-0.11333 -0.36432,-0.22376 -0.001,-0.45039 -1.36679,-1.7782 -1.9482,-1.89446 -0.22478,-0.045 -0.29169,-0.12799 -0.37879,-0.47025 -0.16041,-0.63075 -0.29487,-0.85435 -0.84956,-1.41594 -0.48975,-0.49591 -0.50902,-0.53603 -0.50902,-1.048 0,-0.79658 -0.27532,-1.86876 -0.60254,-2.34559 -0.44394,-0.64691 -1.06258,-1.04156 -1.9141,-1.22111 -0.2817,-0.0594 -0.48741,-0.0921 -0.65991,-0.10026 z" /></g><path
       id="path8278"
       style="display:inline;fill:#545863;fill-opacity:1;stroke-width:0.095018"
       inkscape:label="carrier"
       d="m 147.71656,107.33557 c -0.072,0.0237 -0.14273,0.25446 -0.17053,0.55604 l -0.0475,0.51521 -0.68316,0.0279 c -0.61429,0.025 -0.69427,0.007 -0.79117,-0.17414 -0.0593,-0.11082 -0.0827,-0.2674 -0.0517,-0.3483 0.0903,-0.23535 -0.13056,-0.40825 -0.52245,-0.40825 -0.4039,0 -0.51571,0.11126 -0.48731,0.48421 0.0256,0.33567 -0.17703,0.48495 -0.60927,0.44855 -0.442,-0.0371 -0.56304,-0.26768 -0.14056,-0.26768 0.18955,0 0.29249,-0.0478 0.29249,-0.13488 0,-0.0741 0.0268,-0.20397 0.0594,-0.28887 0.0522,-0.13554 -0.0346,-0.15111 -0.73639,-0.12661 -0.78938,0.0276 -0.79589,0.0296 -0.82579,0.28888 -0.0277,0.24101 -0.004,0.26148 0.30282,0.26148 0.29224,0 0.33586,0.0319 0.36226,0.26148 0.0293,0.25506 0.043,0.26054 0.56585,0.22944 0.30941,-0.0183 0.562,0.0105 0.5979,0.0687 0.0648,0.10478 -0.19117,2.14987 -0.28887,2.30787 -0.0322,0.052 -0.66522,0.0815 -1.49552,0.0698 -1.39393,-0.0198 -1.44056,-0.014 -1.46916,0.17776 -0.035,0.23456 0.34113,0.49398 0.4532,0.31265 0.0455,-0.074 0.44226,-0.0994 1.24696,-0.0811 l 1.17977,0.0269 -0.006,0.42736 c -0.009,0.592 -0.14706,1.71379 -0.24236,1.97146 -0.0782,0.21177 -0.099,0.21394 -1.88102,0.21394 -1.10954,0 -1.82479,0.037 -1.86138,0.0961 -0.10736,0.17371 0.0487,0.42245 0.45526,0.72606 0.22036,0.16458 0.82421,0.6239 1.34204,1.02112 0.51781,0.39722 1.00354,0.72244 1.08004,0.72244 0.0764,0 -0.42175,-0.41205 -1.10743,-0.91571 -0.68568,-0.50367 -1.24695,-0.95287 -1.24695,-0.99787 0,-0.0451 0.68562,-0.0822 1.52342,-0.0822 1.21073,0 1.53397,0.0271 1.57407,0.13177 0.0276,0.0724 -0.001,0.48946 -0.0646,0.92656 -0.0633,0.43711 -0.12581,0.91104 -0.13901,1.05317 -0.0704,0.75989 -0.15435,1.48182 -0.19895,1.71462 l -0.0501,0.26303 -2.43913,-0.0253 -2.43861,-0.0253 -0.0279,-0.2403 c -0.0206,-0.17614 0.0488,-0.29741 0.26096,-0.45423 0.15915,-0.11768 0.28939,-0.29624 0.28939,-0.39688 0,-0.10057 0.10706,-0.28948 0.23771,-0.42013 l 0.23771,-0.23771 v -1.95647 c 0,-1.95057 -0.001,-1.95752 -0.23357,-2.19004 -0.22604,-0.22623 -0.2754,-0.23306 -1.60249,-0.23306 -1.24138,0 -1.39258,0.0183 -1.61954,0.19688 l -0.25011,0.19689 v 2.02468 c 0,1.6835 0.0236,2.04411 0.14211,2.14251 0.0783,0.0651 0.14262,0.22699 0.14262,0.36018 0,0.40737 0.25129,0.59015 0.81236,0.59015 0.5284,0 0.67556,0.128 0.5612,0.48834 -0.0515,0.16214 -0.1765,0.17673 -1.52238,0.17673 h -1.46658 v -2.47065 c 0,-2.13264 -0.0191,-2.47065 -0.14211,-2.47065 -0.12302,0 -0.14263,0.33862 -0.14263,2.47634 v 2.47633 l -0.35657,-0.0294 -0.35605,-0.0295 -0.0207,-1.71049 c -0.0114,-0.94069 -0.0218,-1.76353 -0.0238,-1.82883 -0.002,-0.0653 -0.0449,-0.11885 -0.0961,-0.11885 -0.0566,0 -0.10315,0.71727 -0.11885,1.82882 l -0.0258,1.82935 -0.87902,0.0274 c -0.77211,0.024 -0.8785,0.048 -0.8785,0.19792 0,0.0937 0.0284,0.19854 0.0631,0.23358 0.0348,0.0349 3.9471,0.0636 8.69404,0.0636 h 8.63048 v -0.2341 c 0,-0.2296 -0.0161,-0.23406 -0.87229,-0.26096 l -0.8723,-0.0274 -0.077,-0.28525 c -0.0424,-0.15678 -0.0964,-0.63825 -0.12041,-1.07022 -0.0242,-0.43194 -0.065,-0.81945 -0.0909,-0.86145 -0.0794,-0.12845 -0.24857,-1.64858 -0.19327,-1.73788 0.0691,-0.11154 3.08147,-0.10872 3.08147,0.003 0,0.0477 -0.28854,0.29264 -0.64131,0.54416 -1.30355,0.92944 -1.85304,1.36477 -1.72237,1.36477 0.0738,0 0.56099,-0.32485 1.08262,-0.72192 0.52162,-0.39707 1.12777,-0.85691 1.3472,-1.02164 0.43702,-0.32819 0.52609,-0.46397 0.44339,-0.67955 -0.0459,-0.11972 -0.34125,-0.14262 -1.84433,-0.14262 -1.07191,0 -1.81284,-0.0375 -1.84744,-0.0935 -0.0317,-0.0515 -0.0784,-0.31859 -0.10335,-0.59376 -0.025,-0.27518 -0.0902,-0.7704 -0.14521,-1.10071 -0.0549,-0.33032 -0.0767,-0.66169 -0.0481,-0.73639 0.0673,-0.17537 2.3956,-0.2018 2.4536,-0.0279 0.0609,0.18281 0.4651,-0.13053 0.4346,-0.33693 -0.0251,-0.16931 -0.11547,-0.18013 -1.40457,-0.16433 -0.75776,0.009 -1.42811,-0.0166 -1.48931,-0.0574 -0.16565,-0.11045 -0.42439,-2.23674 -0.28371,-2.33164 0.0604,-0.0416 0.45215,-0.0632 0.87023,-0.0496 l 0.76016,0.0248 0.0279,-0.6966 c 0.0217,-0.53688 -1.9e-4,-0.68697 -0.0951,-0.65577 z m 0.95964,4.56406 c -0.16519,0.0588 -1.50947,1.02012 -1.50947,1.07952 0,0.0928 0.15873,-0.006 0.88263,-0.54932 0.4289,-0.32181 0.71124,-0.5602 0.62684,-0.5302 z m -6.38669,0.0455 c -0.0508,-0.014 0.19157,0.19279 0.69608,0.5855 0.3397,0.26439 0.66052,0.48024 0.71262,0.47956 0.10028,-10e-4 -0.1305,-0.18592 -0.99323,-0.79375 -0.24859,-0.17516 -0.38497,-0.26289 -0.41547,-0.27131 z m 9.23819,1.69344 c -0.0433,-0.01 -0.0935,0.008 -0.14986,0.0553 -0.0821,0.0681 -0.12557,0.3318 -0.12557,0.75809 0,0.61861 -0.0117,0.65371 -0.21859,0.65371 -0.29767,0 -0.47495,0.18366 -0.33745,0.34933 0.0574,0.0693 0.18457,0.12557 0.28267,0.12557 0.1571,0 0.17828,0.0772 0.17828,0.64906 0,0.3571 -0.0206,0.67016 -0.046,0.69556 -0.0253,0.0254 -0.0651,0.55625 -0.0884,1.17978 -0.0232,0.62352 -0.0728,1.52938 -0.11007,2.01279 l -0.0677,0.87902 h -8.57467 c -8.4945,0 -8.57457,0.001 -8.62377,0.18965 -0.0362,0.13844 -0.12961,0.19017 -0.34365,0.19017 -0.26326,0 -0.29403,0.03 -0.29403,0.28525 0,0.25116 0.0328,0.28474 0.27491,0.28474 0.1535,0 0.29845,0.0614 0.32815,0.13901 0.0404,0.10518 0.26766,0.1457 0.93638,0.1664 0.70963,0.022 0.88366,0.0555 0.88366,0.17001 0,0.11781 -0.2101,0.14709 -1.21181,0.16899 l -1.21129,0.0264 v 0.37466 0.37413 l 1.21129,0.0269 1.21181,0.0264 v 0.28525 0.28526 l -1.21181,0.0263 -1.21129,0.0264 v 0.37724 0.37723 h 1.1684 c 0.6428,0 1.21105,0.0422 1.26245,0.0935 0.0548,0.0548 1.09163,0.10385 2.51303,0.11885 l 2.42001,0.0253 0.0258,1.68671 0.0258,1.68672 h 6.4115 6.41149 v -1.61334 c 0,-1.8613 -0.10797,-1.65797 1.16376,-2.19934 0.94852,-0.40377 0.995,-0.61004 0.11885,-0.52814 -0.80801,0.0754 -0.81991,-0.0892 -0.03,-0.41444 0.81048,-0.33362 0.82194,-0.47077 0.0382,-0.47077 -0.34403,0 -0.6258,-0.0385 -0.6258,-0.0853 0,-0.0467 0.26713,-0.19178 0.59376,-0.32246 0.93404,-0.3737 0.79499,-0.47161 -0.68885,-0.48421 l -1.2826,-0.0109 -0.0698,-0.85525 c -0.16265,-1.99166 -0.35124,-5.397 -0.30334,-5.4746 0.068,-0.11007 1.11613,-0.10913 1.233,0.001 0.10902,0.10276 0.5178,-0.0372 0.5178,-0.17725 0,-0.0593 -0.30208,-0.0977 -0.76378,-0.0977 h -0.76378 l 0.0274,-0.26149 c 0.025,-0.23928 -0.003,-0.26383 -0.32866,-0.29093 l -0.35657,-0.0295 v -0.64027 c 0,-0.50814 -0.0695,-0.78644 -0.19947,-0.81494 z m -1.70635,2.13217 c -0.0554,0 -0.0743,0.0428 -0.0419,0.0951 0.0322,0.0522 0.0778,0.0946 0.10077,0.0946 0.0232,0 0.0419,-0.0425 0.0419,-0.0946 0,-0.0524 -0.0454,-0.0951 -0.10077,-0.0951 z m 3.03185,0.90589 c -0.0183,-0.0175 -0.0881,0.0282 -0.15554,0.10128 -0.0674,0.0731 -0.0807,0.13333 -0.0295,0.13333 0.0986,0 0.2413,-0.18101 0.185,-0.23461 z m -3.83387,3.08043 -8.12405,0.001 -8.12406,0.001 -0.0289,0.38137 -5.2e-4,0.001 -0.0289,0.38086 h 8.18245 8.18244 l -0.0294,-0.38241 z m -11.25926,5.53713 c -1.41503,-0.0164 -2.25506,0.01 -2.31666,0.0713 -0.0553,0.0552 -0.60104,0.0966 -1.27331,0.0966 -0.85995,0 -1.16676,0.0303 -1.13946,0.11214 0.0262,0.0786 0.36051,0.1059 1.12448,0.0925 1.0687,-0.0188 1.41287,0.0508 1.28364,0.25993 -0.0432,0.0698 -0.54605,0.10542 -1.48518,0.10542 h -1.41955 l 0.001,0.35657 c 0.001,0.34485 0.0473,0.39304 1.42886,1.49655 0.78516,0.62712 1.44926,1.22558 1.47536,1.33015 0.0261,0.1045 0.0352,0.72444 0.0202,1.37769 l -0.0279,1.18804 -4.56045,0.0558 c -2.50848,0.0308 -4.61452,0.0366 -4.67982,0.0134 -0.0653,-0.0232 -0.11885,-0.10187 -0.11885,-0.17467 0,-0.10375 0.19262,-0.13229 0.8909,-0.13229 0.67611,0 0.91954,-0.0345 1.00924,-0.14263 0.0876,-0.10543 0.32111,-0.14262 0.89969,-0.14262 0.92105,0 0.92033,0.001 1.37924,-1.0728 0.22689,-0.53102 0.28702,-0.77018 0.21342,-0.84388 -0.19581,-0.1958 -0.55353,0.013 -1.07021,0.62373 -0.28548,0.33748 -0.58368,0.62891 -0.66198,0.64751 -0.16158,0.0384 -0.74356,-0.0264 -2.85047,-0.31729 -2.05087,-0.28314 -3.2852,-0.27284 -4.62866,0.0387 -1.80276,0.41811 -2.45272,0.83891 -1.39991,0.90641 0.51737,0.0332 0.70796,0.14314 0.70796,0.40928 0,0.16851 -0.11689,0.17958 -2.09083,0.19998 -4.02575,0.0416 -3.93666,0.0451 -3.97236,-0.14004 -0.0287,-0.14897 0.062,-0.1664 0.86609,-0.1664 0.68232,0 0.92616,-0.0343 1.01596,-0.14263 0.0876,-0.10543 0.32114,-0.14262 0.89969,-0.14262 0.9237,0 0.94096,-0.0131 1.36994,-1.04335 0.35915,-0.86247 0.36391,-0.95188 0.0512,-0.95188 -0.24529,0 -0.34882,0.087 -1.1653,0.98082 -0.263,0.28793 -0.46946,0.43594 -0.56999,0.40824 -0.0867,-0.0238 -0.41406,-0.0697 -0.72761,-0.10232 -0.31356,-0.0325 -1.21186,-0.14857 -1.99574,-0.25786 -2.40001,-0.33461 -3.76755,-0.25806 -5.6255,0.31471 -1.00718,0.31051 -1.14397,0.65215 -0.26148,0.65215 0.47283,0 0.51988,0.0198 0.57568,0.24185 0.0336,0.13307 0.0452,0.25595 0.0258,0.27285 -0.0193,0.0169 -1.38142,0.0469 -3.02668,0.0667 -2.7898,0.0336 -2.99391,0.0249 -3.02411,-0.13022 -0.029,-0.14898 0.0619,-0.1664 0.8661,-0.1664 0.68231,0 0.92616,-0.0343 1.01596,-0.14263 0.0876,-0.10543 0.32112,-0.14262 0.89968,-0.14262 0.62722,0 0.80911,-0.0324 0.92191,-0.16588 0.17602,-0.20832 0.74414,-1.49693 0.74414,-1.68776 0,-0.20201 -0.43842,-0.17969 -0.6413,0.0326 -0.0915,0.0957 -0.38708,0.40855 -0.65681,0.69557 l -0.49041,0.52193 -0.74517,-0.0811 c -0.40967,-0.0448 -1.36461,-0.16292 -2.12236,-0.26252 -2.70328,-0.35529 -3.126362,-0.34389 -5.083406,0.14108 -1.40653,0.34854 -1.826426,0.73464 -0.856796,0.78754 0.467774,0.0255 0.529154,0.0534 0.582394,0.26562 0.03299,0.1305 0.04367,0.2513 0.02429,0.2682 -0.01934,0.017 -1.380907,0.0468 -3.026172,0.0667 -2.7898,0.0336 -2.993895,0.0249 -3.024105,-0.13022 -0.02901,-0.14898 0.06135,-0.1664 0.86558,-0.1664 0.682308,0 0.926606,-0.0343 1.016476,-0.14263 0.08759,-0.10541 0.321122,-0.14211 0.899686,-0.14211 0.923697,0 0.940963,-0.0131 1.369942,-1.04334 0.357727,-0.85909 0.363372,-0.9524 0.05839,-0.9524 -0.246666,0 -0.268548,0.018 -1.037146,0.85008 l -0.467155,0.50591 -0.797367,-0.061 c -0.438609,-0.0337 -1.383091,-0.14328 -2.09858,-0.24288 -2.218716,-0.30911 -2.701946,-0.32259 -3.913973,-0.11162 -1.361525,0.23699 -2.29215,0.52053 -2.515092,0.76688 -0.206674,0.22839 -0.130239,0.27003 0.567407,0.30903 0.436166,0.0244 0.477452,0.0473 0.504362,0.28008 l 0.02945,0.25373 -8.723498,0.0331 c -4.797899,0.0187 -8.777034,0.0182 -8.842354,-0.002 -0.06531,-0.0197 -0.118856,-0.0957 -0.118856,-0.16847 0,-0.10376 0.192631,-0.13229 0.890902,-0.13229 0.676114,0 0.91949,-0.0345 1.00924,-0.14263 0.08844,-0.10653 0.325394,-0.14211 0.938961,-0.14211 0.733601,0 0.834105,-0.0217 0.946712,-0.20205 0.216988,-0.34745 0.755763,-1.68598 0.700733,-1.74098 -0.173273,-0.17327 -0.52271,-0.009 -0.940511,0.44131 -0.926783,0.99926 -0.753333,0.91023 -1.60197,0.81753 -0.415924,-0.0455 -1.376467,-0.16395 -2.134236,-0.26355 -0.757767,-0.0996 -1.66068,-0.20802 -2.006596,-0.24082 -1.417612,-0.13412 -4.536165,0.59802 -4.471045,1.04955 0.0072,0.0502 0.259718,0.11291 0.561206,0.13901 0.504546,0.0437 0.550389,0.067 0.576709,0.29352 l 0.02842,0.24598 -2.973462,0.0584 c -1.649707,0.0325 -3.010274,0.0221 -3.056144,-0.0238 -0.197403,-0.19744 0.08315,-0.28939 0.88315,-0.28939 0.619663,0 0.86807,-0.0361 0.95343,-0.13901 0.0824,-0.0993 0.363462,-0.1469 0.982886,-0.1664 l 0.867647,-0.0274 0.396358,-0.90227 c 0.217806,-0.49649 0.37651,-0.9349 0.35295,-0.9741 -0.02357,-0.0391 -0.144206,-0.0713 -0.2682,-0.0713 -0.149566,0 -0.379424,0.16601 -0.683163,0.49351 -0.251804,0.27149 -0.545829,0.58605 -0.65319,0.69866 l -0.195337,0.20464 -1.445906,-0.16846 c -0.795232,-0.0928 -1.562721,-0.1926 -1.705323,-0.2217 -0.850632,-0.1735 -2.365486,-0.24696 -3.091284,-0.14986 -1.686215,0.2256 -3.166633,0.69961 -3.123323,0.99994 0.0072,0.0502 0.260234,0.11291 0.561723,0.13901 0.509165,0.0441 0.549995,0.0653 0.577225,0.30076 l 0.02946,0.25373 -8.723499,0.0331 c -4.797899,0.0182 -8.778958,0.0164 -8.846488,-0.004 -0.06753,-0.0205 -0.106823,-0.0853 -0.08733,-0.14418 0.02174,-0.0656 0.359291,-0.11797 0.872815,-0.13487 0.539964,-0.0178 0.906872,-0.077 1.034562,-0.1664 0.135031,-0.0945 0.449861,-0.1385 0.99012,-0.1385 h 0.791683 l 0.328146,-0.73638 c 0.180365,-0.40501 0.371697,-0.81281 0.425297,-0.90641 0.127633,-0.22283 0.03875,-0.35243 -0.241329,-0.35243 -0.159639,0 -0.40033,0.19506 -0.821139,0.66507 -0.736627,0.82275 -0.413855,0.80038 -4.262789,0.29404 -1.534073,-0.20177 -2.040104,-0.21301 -2.945556,-0.0661 -1.164149,0.18883 -2.35096,0.49443 -2.630331,0.67747 -0.391208,0.25634 -0.276289,0.41251 0.326595,0.44391 0.517209,0.027 0.547742,0.0425 0.576192,0.2899 l 0.02997,0.26097 h -6.218225 c -4.894005,0 -6.239551,0.026 -6.317961,0.1204 -0.149589,0.18026 -0.125491,2.21607 0.03307,2.7864 0.20447,0.73544 0.732942,1.26052 2.069641,2.05672 1.468526,0.87474 2.829242,1.88637 3.713985,2.76107 0.787463,0.77848 1.105173,1.2448 1.497583,2.20038 0.151257,0.36835 0.365388,0.73881 0.47594,0.82321 0.190273,0.14547 0.192819,0.16591 0.04444,0.37775 -0.229633,0.32783 -0.198087,0.77451 0.07596,1.07022 v -0.002 l 0.233061,0.25166 H 111.202 198.95995 l 0.23358,-0.23357 c 0.35549,-0.35557 0.34381,-0.81958 -0.0305,-1.21543 l -0.24702,-0.26149 H 156.1822 113.44889 l -0.1943,-0.24701 c -0.42507,-0.54038 -0.34188,-1.24635 0.2005,-1.70274 l 0.28009,-0.23616 30.18472,0.0243 30.1842,0.0238 0.0109,0.3638 c 0.006,0.22027 0.0815,0.43551 0.19121,0.54519 0.17583,0.17526 0.47166,0.18203 10.01437,0.18603 l 9.83299,0.005 0.21343,-0.24598 c 0.13258,-0.15287 0.21394,-0.37057 0.21394,-0.57361 v -0.32763 h 2.04949 c 0.96075,0 1.4892,0.009 1.84691,0.0506 l -5.17953,-4.16977 v 1.60249 l -1.30845,0.0264 c -1.01046,0.0204 -1.31898,-0.001 -1.35598,-0.0977 -0.0258,-0.0685 -0.0365,-0.91434 -0.0222,-1.87947 l 0.0264,-1.75493 h 0.0481 l -2.90318,-2.33681 c -0.52948,-0.0135 -0.61289,-0.0519 -0.61289,-0.1633 0,-0.0941 -0.0472,-0.21827 -0.10542,-0.27647 -0.0678,-0.0678 -0.082,-0.13 -0.0522,-0.18086 l -0.39997,-0.32195 c -1.10114,-7.2e-4 -1.34153,-0.0262 -1.4485,-0.15503 -0.071,-0.0855 -0.30806,-0.23217 -0.52709,-0.32607 -0.30156,-0.12927 -0.40572,-0.23063 -0.42892,-0.41755 -0.0393,-0.31631 -0.21185,-0.32021 -0.25115,-0.006 -0.0233,0.18646 -0.14633,0.29554 -0.54622,0.48472 -0.28396,0.13433 -0.51624,0.28378 -0.51624,0.33228 0,0.0498 -0.57943,0.0879 -1.33894,0.0879 -1.25923,0 -1.34226,-0.011 -1.38906,-0.18965 -0.0695,-0.26576 -0.21756,-0.23733 -0.21756,0.0418 0,0.20455 0.0528,0.23891 0.45113,0.29301 0.24824,0.0337 0.53674,0.0873 0.64131,0.11937 0.10451,0.0318 0.24276,0.0479 0.30696,0.0357 0.13978,-0.0267 2.5156,0.35294 2.574,0.41134 0.10079,0.10082 -0.0911,0.34891 -0.22893,0.29611 -0.0822,-0.0314 -0.6818,-0.0568 -1.33273,-0.0568 -1.17212,0 -1.18352,-0.002 -1.15652,-0.21394 0.015,-0.11759 -0.0155,-0.22612 -0.0677,-0.24082 -0.0523,-0.0147 -0.10845,0.083 -0.12505,0.21653 l -0.0305,0.24288 -1.48208,-0.0264 c -1.40291,-0.0247 -1.48329,-0.0361 -1.50069,-0.21601 -0.0103,-0.10453 -0.0352,-0.25214 -0.0553,-0.32814 -0.0273,-0.10256 0.0912,-0.15531 0.46095,-0.20361 0.66973,-0.0875 0.78497,-0.14126 0.78497,-0.36793 0,-0.24824 -0.15941,-0.25033 -0.23771,-0.003 -0.0566,0.17842 -0.14379,0.19017 -1.42007,0.19017 -1.14317,0 -1.3803,-0.0248 -1.4888,-0.15555 -0.071,-0.0855 -0.30806,-0.23218 -0.5271,-0.32608 -0.30155,-0.12926 -0.40571,-0.23064 -0.42891,-0.41754 -0.0412,-0.33158 -0.20111,-0.31812 -0.28991,0.0248 -0.0556,0.21467 -0.16768,0.31449 -0.49299,0.43873 -0.23144,0.0884 -0.47205,0.22258 -0.53485,0.29818 -0.0892,0.10754 -0.39156,0.13746 -1.38235,0.13746 h -1.26814 l -0.13074,-0.25012 c -0.12223,-0.23336 -0.13458,-0.2376 -0.18138,-0.0584 -0.078,0.29833 0.0401,0.39747 0.5488,0.45837 0.67036,0.0803 0.76312,0.11745 0.62839,0.25218 -0.061,0.061 -0.11059,0.20948 -0.11059,0.32969 v 0.2186 h -9.45214 -9.45213 l -0.0258,-1.52446 -0.0264,-1.52445 -6.37635,0.006 c -5.49245,0.005 -6.39303,-0.0133 -6.49263,-0.13333 -0.0832,-0.10003 -0.10855,-0.59015 -0.091,-1.73633 l 0.0243,-1.59628 z m 39.87302,5.86993 c 0.0596,-1e-5 0.12597,0.14936 0.14727,0.33228 l 0.0388,0.33279 -1.14463,10e-4 c -0.62969,8e-4 -1.23656,0.0259 -1.34824,0.0558 -0.21793,0.0585 -0.39511,-0.11444 -0.25787,-0.25167 0.0709,-0.0709 2.24871,-0.47019 2.56471,-0.47025 z m 9.04337,0.0212 c 0.18783,-0.0103 0.19692,0.0487 0.23254,0.28319 0.027,0.1721 0.0421,0.32066 0.0351,0.32866 -0.0436,0.055 -2.6649,0.0664 -2.7528,0.0119 -0.27202,-0.16885 0.39228,-0.34609 2.22984,-0.59428 0.10992,-0.0148 0.19267,-0.026 0.25528,-0.0295 z m -14.31385,0.015 c 0.32695,0.0203 1.04337,0.11946 1.86551,0.26148 0.47041,0.0813 0.59236,0.13643 0.56896,0.25787 -0.0346,0.17955 0.0354,0.17304 -1.51308,0.13384 l -1.20045,-0.03 0.0227,-0.28422 c 0.0124,-0.15633 0.0433,-0.30576 0.0693,-0.33176 0.0119,-0.012 0.0781,-0.014 0.18707,-0.007 z m -142.743746,0.1018 c 0.06773,3e-5 0.131767,0.004 0.189652,0.0134 0.217479,0.0348 0.417918,0.10043 0.445968,0.14573 0.02806,0.0454 0.586239,0.0827 1.240234,0.0827 1.079892,0 1.185658,0.0157 1.157036,0.1664 -0.02848,0.14703 -0.167073,0.16657 -1.218014,0.17156 -2.107032,0.01 -2.944523,-0.0453 -2.944523,-0.19172 0,-0.17995 0.655568,-0.38829 1.129647,-0.38809 z m 69.505318,0.003 c 0.276859,-0.005 0.517086,0.0404 0.586011,0.15193 0.02949,0.0478 0.610237,0.0868 1.290357,0.0868 1.12661,0 1.23358,0.0149 1.20458,0.1664 -0.0283,0.14745 -0.16648,0.16656 -1.21853,0.17156 -0.65261,0.003 -1.584863,-0.009 -2.071707,-0.0274 -0.76541,-0.0283 -0.881109,-0.0546 -0.854729,-0.19172 0.03951,-0.20513 0.602587,-0.35006 1.064018,-0.3576 z m 11.592058,0 c 0.27686,-0.005 0.51709,0.0404 0.58601,0.15193 0.0295,0.0478 0.60734,0.0868 1.28364,0.0868 0.98768,0 1.22939,0.026 1.22939,0.13229 0,0.0728 -0.0678,0.15847 -0.15038,0.19017 -0.146,0.0562 -1.35041,0.0508 -3.15795,-0.0134 -0.76585,-0.0272 -0.88061,-0.0529 -0.85421,-0.19017 0.0395,-0.20513 0.60207,-0.35006 1.0635,-0.3576 z m -46.551164,0.002 c 0.140998,-0.0118 0.281701,-0.0104 0.40721,0.008 0.222105,0.0329 0.403593,0.0979 0.403593,0.14418 0,0.0463 0.559093,0.0842 1.242301,0.0842 1.131844,0 1.239312,0.0149 1.210262,0.1664 -0.02827,0.14745 -0.166471,0.16656 -1.21853,0.17156 -0.652607,0.003 -1.584859,-0.009 -2.071708,-0.0274 -0.765433,-0.0283 -0.880621,-0.0546 -0.854211,-0.19172 0.03196,-0.16598 0.458088,-0.32015 0.881083,-0.35553 z m 23.184631,0 c 0.140998,-0.0118 0.281184,-0.0104 0.406694,0.008 0.222104,0.0329 0.404109,0.0979 0.404109,0.14418 0,0.0463 0.559092,0.0842 1.242302,0.0842 1.131843,0 1.239312,0.0149 1.210262,0.1664 -0.02827,0.14745 -0.16647,0.16656 -1.218531,0.17156 -0.652606,0.003 -1.58486,-0.009 -2.071708,-0.0274 -0.765434,-0.0283 -0.881138,-0.0546 -0.854728,-0.19172 0.03196,-0.16598 0.458605,-0.32015 0.8816,-0.35553 z m 34.890893,0.002 c 0.27235,-0.004 0.52712,0.0393 0.65474,0.14469 0.0556,0.0458 0.63319,0.0958 1.28313,0.11059 0.97511,0.0221 1.18132,0.0519 1.18132,0.1695 0,0.11889 -0.1975,0.14379 -1.18752,0.14779 -0.65326,0.003 -1.58592,-0.009 -2.07275,-0.0274 -0.76543,-0.0283 -0.88112,-0.0546 -0.85472,-0.19172 0.04,-0.20756 0.54189,-0.34669 0.9958,-0.35346 z m -69.669649,0.01 c 0.140414,-0.0126 0.279841,-0.0124 0.40411,0.005 0.224729,0.0308 0.408761,0.0929 0.408761,0.13797 0,0.0451 0.555687,0.0822 1.235066,0.0822 0.992472,0 1.235584,0.0259 1.235584,0.13229 0,0.0728 -0.06772,0.15847 -0.150379,0.19017 -0.146003,0.056 -1.350399,0.0508 -3.157946,-0.0134 -0.751104,-0.0267 -0.880725,-0.0542 -0.855245,-0.18345 0.03153,-0.15994 0.458809,-0.3127 0.880049,-0.35036 z m 121.720739,2.03036 c 0.12019,0 0.1439,0.4654 0.1664,3.28507 0.0144,1.80678 -0.008,3.34587 -0.0496,3.42047 -0.22168,0.3955 -0.25684,-0.0521 -0.25684,-3.28507 0,-2.95102 0.0192,-3.42047 0.14005,-3.42047 z m -11.77965,0.61754 0.0295,0.35708 0.0295,0.35708 -10.02988,-0.0248 c -8.86332,-0.0218 -10.0304,-0.008 -10.0304,0.11834 0,0.1259 1.16654,0.13952 10.02471,0.11782 l 10.0242,-0.0248 v 0.33434 0.33435 l -10.02058,-0.0248 -10.02006,-0.0248 -0.0279,0.23771 -0.0279,0.23771 -14.42186,0.0243 c -12.01917,0.02 -14.43005,0.003 -14.47095,-0.10387 -0.0269,-0.0704 -0.0363,-0.44494 -0.0207,-0.83199 l 0.0284,-0.70383 h 14.44253 c 11.39258,0 14.46261,-0.0247 14.53761,-0.11782 0.0969,-0.12033 3.89462,-0.17945 15.39286,-0.23875 z m 17.43563,0.13694 1.35393,0.0264 1.35443,0.0264 v 1.85312 1.8526 l -1.28829,0.0264 c -0.70845,0.0145 -1.31762,-0.003 -1.35392,-0.0398 -0.0362,-0.0362 -0.0662,-0.89353 -0.0662,-1.90531 z m 7.12618,0.005 h 1.33067 c 0.82117,0 1.33177,0.0364 1.33377,0.0951 0.0318,0.86538 -0.005,3.53647 -0.0496,3.60857 h -5.2e-4 c -0.0664,0.1073 -2.44565,0.13869 -2.55075,0.0336 -0.0348,-0.0348 -0.0636,-0.88979 -0.0636,-1.90015 z m -10.68927,0.0475 h 1.33015 1.33016 v 1.85312 1.8526 l -1.3038,0.0264 c -1.28812,0.0261 -1.30494,0.0236 -1.35754,-0.19017 -0.0292,-0.11904 -0.0407,-0.9644 -0.0258,-1.87895 z m 7.12618,0 h 1.33067 1.33015 v 1.85312 1.8526 l -1.30845,0.0264 c -1.01048,0.0204 -1.3195,-10e-4 -1.3565,-0.0977 -0.0258,-0.0685 -0.036,-0.91434 -0.0217,-1.87947 z m -19.81067,0.14263 h 0.56999 c 0.31356,0 0.57109,0.0321 0.57309,0.0713 0.002,0.0392 0.008,0.73405 0.0129,1.54409 l 0.009,1.47278 -0.58291,0.0284 -0.58239,0.0279 v -1.572 z m 6.36602,0 h 0.56999 0.56999 v 1.56786 1.56786 h -0.56999 -0.56999 v -1.56786 z m 2.09031,0 h 0.56999 0.56999 v 1.56786 1.56786 h -0.56999 -0.56999 v -1.56786 z m -3.63441,0.0191 0.54622,0.0284 0.0264,1.54409 0.0258,1.54409 h -0.57258 c -0.31488,0 -0.57419,-0.0214 -0.57619,-0.0475 -0.002,-0.0261 -0.004,-0.68888 -0.004,-1.47278 0,-0.7839 0.002,-1.47059 0.004,-1.52549 0.002,-0.0605 0.2158,-0.0882 0.55035,-0.0708 z m -2.68459,0.0284 h 0.57051 0.56999 v 1.52032 1.52032 l -0.59634,0.0284 -0.59635,0.0284 0.0263,-1.54874 z m -108.355141,0.14056 0.279053,0.27853 c 0.340353,0.34036 0.354812,0.6584 0.04547,0.99219 l -0.23306,0.25115 H 43.027348 28.480432 l -0.233061,-0.23306 c -0.283123,-0.28312 -0.304543,-0.70313 -0.05168,-1.01544 l 0.181384,-0.22428 14.5526,-0.0243 z m 22.326803,0.0971 c 1.509944,0 2.749887,0.0321 2.755387,0.0713 0.06453,0.46088 0.025,1.28767 -0.06305,1.32137 -0.179754,0.0689 -5.278162,0.0851 -5.388301,0.0171 -0.09884,-0.0611 -0.166617,-1.05045 -0.08837,-1.29087 0.02975,-0.0914 0.672009,-0.11886 2.784326,-0.11886 z m 5.952092,0.0222 2.731616,0.0253 v 0.69608 0.69609 l -2.64325,0.0165 c -1.453863,0.009 -2.695621,-0.0129 -2.759521,-0.0486 -0.09543,-0.0534 -0.13719,-0.8502 -0.07028,-1.33791 0.0055,-0.0405 1.238964,-0.0614 2.741435,-0.0475 z m -14.941724,0.0253 h 2.755904 2.755387 v 0.69453 0.69505 l -2.693375,0.0176 c -1.481339,0.01 -2.73396,-0.007 -2.78381,-0.0382 -0.04985,-0.0308 -0.07818,-0.35148 -0.06253,-0.71262 z m 17.958594,0 h 2.755387 2.755904 l 0.02791,0.68885 c 0.0208,0.51321 -0.0035,0.68946 -0.09508,0.69246 -0.06762,0.002 -1.291747,0.0128 -2.720248,0.0238 -1.879586,0.0144 -2.622861,-0.0104 -2.689241,-0.0904 -0.05048,-0.0608 -0.07873,-0.38143 -0.06305,-0.71262 z m 5.986198,0 h 2.755387 2.755901 l 0.0279,0.68885 c 0.0207,0.51368 -0.003,0.68943 -0.0951,0.69143 -1.968461,0.0375 -5.343189,0.0308 -5.410519,-0.0109 -0.04984,-0.0308 -0.07766,-0.35147 -0.06201,-0.71262 z m 5.986198,0 h 2.75539 2.75538 l 0.0279,0.68885 c 0.0207,0.51239 -0.004,0.68892 -0.0951,0.69246 -1.29066,0.0381 -5.34351,0.0287 -5.41,-0.0124 -0.0499,-0.0308 -0.0777,-0.35148 -0.062,-0.71262 z m 5.9862,0 h 2.75538 2.75539 l 0.0279,0.64234 c 0.0209,0.47522 -0.005,0.65566 -0.10129,0.69246 -0.18251,0.0701 -5.2936,0.10231 -5.4038,0.0341 -0.0498,-0.0308 -0.0778,-0.35148 -0.062,-0.71262 z m 29.40802,2.95589 0.26097,0.19431 c 0.31751,0.23616 0.38098,0.55537 0.15916,0.80047 -0.0907,0.1002 -0.27954,0.18241 -0.42013,0.18241 -0.31514,0 -0.59607,-0.29253 -0.55397,-0.57671 0.0173,-0.11665 0.14878,-0.29928 0.29249,-0.40617 z m -14.44304,5.2e-4 0.26148,0.19482 c 0.32262,0.24064 0.37015,0.44754 0.17208,0.74983 -0.29229,0.44611 -1.06464,0.17736 -0.98754,-0.34365 0.0173,-0.11665 0.1493,-0.29981 0.29301,-0.4067 z m 7.22178,0 0.26096,0.19482 c 0.32263,0.24065 0.37015,0.44753 0.17209,0.74983 -0.29232,0.4461 -1.06464,0.17736 -0.98754,-0.34365 0.0173,-0.11665 0.14929,-0.29981 0.293,-0.4067 z m -41.665677,0.0367 c 0.161344,0 0.617533,0.40848 0.617533,0.55294 0,0.0476 -0.08857,0.19925 -0.196887,0.33693 -0.113141,0.14385 -0.292097,0.25063 -0.420646,0.25063 -0.209631,0 -0.617533,-0.38824 -0.617533,-0.58756 0,-0.14446 0.45619,-0.55294 0.617533,-0.55294 z m 9.657808,0 c 0.188908,0 0.556556,0.39638 0.556556,0.59996 0,0.0881 -0.0856,0.24579 -0.19017,0.35037 -0.104507,0.10453 -0.275305,0.19017 -0.379821,0.19017 -0.237576,0 -0.569992,-0.32277 -0.569992,-0.55345 0,-0.20559 0.378969,-0.58705 0.583427,-0.58705 z m 7.219719,5.2e-4 c 0.20921,0 0.5581,0.35854 0.5581,0.57361 0,0.10249 -0.0851,0.27163 -0.18965,0.3762 -0.10452,0.10453 -0.27576,0.19017 -0.38034,0.19017 -0.23757,0 -0.56999,-0.32277 -0.56999,-0.55345 0,-0.20495 0.37854,-0.58653 0.58188,-0.58653 z m 2.41122,0 c 0.16135,0 0.61753,0.40848 0.61753,0.55294 0,0.0476 -0.0886,0.19924 -0.19689,0.33693 -0.11315,0.14385 -0.29209,0.25011 -0.42064,0.25011 -0.20963,0 -0.61754,-0.38773 -0.61754,-0.58704 0,-0.14446 0.4562,-0.55294 0.61754,-0.55294 z m 2.3797,0 c 0.19008,0 0.6134,0.42334 0.6134,0.6134 0,0.0808 -0.0856,0.23184 -0.19017,0.33641 -0.35894,0.35894 -0.95033,0.13254 -0.95033,-0.3638 0,-0.23879 0.31253,-0.58601 0.5271,-0.58601 z m -7.21197,0.0109 c 0.11253,0.007 0.22906,0.0802 0.37052,0.22169 0.28783,0.28782 0.29407,0.46327 0.0253,0.71365 -0.25799,0.24038 -0.56848,0.24853 -0.77515,0.0202 -0.21141,-0.23365 -0.19797,-0.54562 0.0331,-0.7767 0.1254,-0.12542 0.23371,-0.18557 0.34623,-0.1788 z m -12.09073,5.2e-4 c 0.104153,-0.002 0.218317,0.06 0.377238,0.185 0.298816,0.23503 0.319179,0.49421 0.05994,0.75344 -0.252146,0.25218 -0.617344,0.24247 -0.802019,-0.0212 -0.198279,-0.28311 -0.186645,-0.47173 0.04548,-0.72088 0.120584,-0.12943 0.215207,-0.19473 0.31936,-0.19637 z m 21.75474,0 c 0.11253,-0.007 0.22136,0.0534 0.34675,0.1788 0.23717,0.23716 0.24408,0.58634 0.016,0.79271 -0.23366,0.21141 -0.54513,0.19798 -0.77618,-0.0331 -0.25085,-0.25078 -0.24002,-0.43382 0.0429,-0.71675 0.14147,-0.14141 0.258,-0.21493 0.37052,-0.22169 z m -16.893021,0.0207 c 0.06084,0.003 0.12421,0.018 0.189136,0.0475 0.129278,0.0589 0.284561,0.21533 0.344681,0.34727 0.09418,0.20672 0.07838,0.27255 -0.113171,0.47645 -0.262771,0.27966 -0.57363,0.30406 -0.7922,0.0625 -0.344597,-0.38078 -0.0543,-0.95473 0.371554,-0.93379 z m -2.383834,0.001 c 0.434188,-0.0123 0.732415,0.60449 0.3514,0.9493 -0.246261,0.22282 -0.517841,0.19537 -0.775664,-0.0791 -0.19156,-0.2039 -0.207371,-0.26973 -0.113171,-0.47645 0.06011,-0.13194 0.215404,-0.28837 0.344682,-0.34727 0.066,-0.0301 0.130726,-0.0447 0.192753,-0.0465 z m 7.221265,5.2e-4 c 0.434183,-0.0124 0.73241,0.60448 0.351399,0.94929 -0.246256,0.22282 -0.517851,0.19487 -0.775663,-0.0796 -0.191425,-0.20389 -0.207391,-0.26973 -0.113171,-0.47645 0.06012,-0.13193 0.215399,-0.28785 0.344682,-0.34675 0.06599,-0.0301 0.130726,-0.0448 0.192753,-0.0465 z m 19.92747,0.0289 c 0.20633,-0.0227 0.38513,0.0873 0.50539,0.31987 0.1237,0.23937 0.11829,0.28596 -0.0584,0.51057 v 5.1e-4 c -0.24932,0.31642 -0.58588,0.31795 -0.83354,0.003 -0.22631,-0.28771 -0.15624,-0.59989 0.17208,-0.76687 0.0738,-0.0375 0.14568,-0.0596 0.21446,-0.0672 z m 21.7413,0.007 c 0.17715,-0.003 0.34121,0.10976 0.46819,0.3328 0.12152,0.21338 0.11866,0.26833 -0.0258,0.48886 -0.29293,0.44705 -1.01337,0.23463 -1.01337,-0.29869 0,-0.10966 0.10939,-0.28526 0.2434,-0.39067 0.11036,-0.0868 0.22134,-0.13042 0.32762,-0.1323 z m -24.13651,5.2e-4 c 0.10629,0.002 0.21727,0.0455 0.32763,0.13229 0.28546,0.22453 0.31521,0.5587 0.0698,0.78083 -0.45061,0.40779 -1.15859,-0.0666 -0.86609,-0.58032 0.12697,-0.22305 0.29156,-0.33591 0.4687,-0.3328 z m 7.22127,0 c 0.10628,0.002 0.21726,0.0455 0.32763,0.13229 0.28547,0.22453 0.31521,0.5587 0.0698,0.78083 -0.45061,0.40779 -1.15806,-0.0661 -0.86558,-0.57981 0.12699,-0.22304 0.29104,-0.33642 0.46819,-0.33331 z m 7.22126,0 c 0.10629,0.002 0.21727,0.0455 0.32763,0.13229 0.28547,0.22451 0.31521,0.5587 0.0698,0.78083 -0.4506,0.40779 -1.15805,-0.0661 -0.86558,-0.57981 0.127,-0.22304 0.29105,-0.33642 0.46819,-0.33331 z m 7.14479,0.002 c 0.13054,-0.0192 0.27059,0.0248 0.40927,0.13384 0.28102,0.22101 0.30864,0.55637 0.0646,0.77722 -0.23345,0.21116 -0.50628,0.19794 -0.75809,-0.0367 -0.24431,-0.22757 -0.25874,-0.3571 -0.0687,-0.62839 0.10107,-0.1443 0.2224,-0.2268 0.35295,-0.24598 z m -4.59559,5.2e-4 c 0.13054,0.0192 0.25188,0.10168 0.35295,0.24598 0.18699,0.26707 0.17579,0.40611 -0.0506,0.63252 -0.23713,0.23705 -0.58633,0.24406 -0.79272,0.016 -0.22549,-0.24925 -0.19381,-0.54348 0.0816,-0.76016 0.13867,-0.10907 0.27822,-0.15354 0.40876,-0.13436 z m -7.26519,0.0165 c 0.17682,0.0224 0.34866,0.11829 0.44493,0.29818 0.0914,0.17084 0.0784,0.25123 -0.0744,0.45682 -0.35406,0.47642 -0.9741,0.28385 -0.9741,-0.30231 0,-0.32349 0.30889,-0.49008 0.60358,-0.45269 z m 26.04699,0.19638 h 9.74979 l 0.23306,0.23306 c 0.17173,0.17161 0.23306,0.33616 0.23306,0.62218 0,0.28601 -0.0615,0.45006 -0.23306,0.62167 l -0.23306,0.23358 -9.76736,-0.003 c -6.77005,-0.002 -9.82164,-0.0343 -9.94306,-0.1049 -0.0964,-0.056 -0.23586,-0.24722 -0.31006,-0.42478 -0.11654,-0.27917 -0.11634,-0.36657 0.001,-0.6475 0.0747,-0.1787 0.2221,-0.37149 0.32763,-0.42789 0.13384,-0.0716 3.13959,-0.10231 9.94203,-0.10231 z m -114.735116,0.47542 23.304521,0.001 c 18.306441,0.001 23.353529,0.0268 23.53293,0.11886 0.852707,0.43822 0.821563,1.68408 -0.05271,2.10943 v 5.2e-4 c -0.266513,0.12973 -2.840126,0.14521 -23.421826,0.14521 -21.823274,-1.3e-4 -23.141541,-0.009 -23.455416,-0.16588 -0.73632,-0.36783 -0.861125,-1.33545 -0.244946,-1.90015 z m 61.391085,1.51825 c 0.162149,0.002 0.330379,0.0861 0.459404,0.25012 0.159999,0.20345 0.175299,0.28388 0.0863,0.45113 -0.05964,0.11201 -0.176516,0.25566 -0.259415,0.31936 -0.225103,0.17283 -0.371625,0.14669 -0.629936,-0.11162 -0.274499,-0.27451 -0.284993,-0.36016 -0.0801,-0.67283 0.105121,-0.16044 0.261598,-0.23864 0.423747,-0.23616 z m -9.618534,0.009 c 0.166226,-0.008 0.332209,0.0537 0.437182,0.2036 0.212064,0.30277 0.183575,0.50738 -0.102319,0.73226 -0.137697,0.10832 -0.281707,0.19688 -0.319877,0.19688 -0.180372,0 -0.569991,-0.41685 -0.569991,-0.60978 0,-0.30607 0.277961,-0.51035 0.555005,-0.52296 z m -2.413806,5.1e-4 c 0.148974,-0.009 0.301679,0.0505 0.433048,0.1819 0.250773,0.25077 0.240032,0.43435 -0.04289,0.71727 -0.274496,0.27455 -0.408532,0.28704 -0.679545,0.0646 -0.299715,-0.24601 -0.334491,-0.45596 -0.120407,-0.72812 0.115687,-0.14709 0.26082,-0.22618 0.409794,-0.23565 z m 4.832263,0 c 0.142791,-0.003 0.281284,0.0524 0.384472,0.1664 0.21878,0.24176 0.196034,0.51653 -0.06253,0.75965 -0.281686,0.26465 -0.400124,0.26029 -0.68678,-0.0264 -0.282923,-0.28292 -0.29418,-0.46599 -0.04341,-0.71675 0.118573,-0.11854 0.265453,-0.18002 0.408244,-0.18294 z m 19.275828,0 c 0.27742,0.0127 0.55595,0.21724 0.55345,0.52297 -0.002,0.23615 -0.0924,0.36576 -0.34881,0.50074 -0.27814,0.14641 -0.28911,0.14448 -0.55708,-0.1235 -0.27177,-0.27177 -0.2882,-0.40636 -0.0853,-0.69608 0.10511,-0.15008 0.27125,-0.21172 0.4377,-0.20413 z m -16.840835,5.2e-4 c 0.136016,0.006 0.272042,0.0669 0.387573,0.18242 0.25077,0.25076 0.239516,0.43384 -0.04341,0.71675 -0.290346,0.29044 -0.437326,0.29327 -0.700215,0.0134 -0.252249,-0.2685 -0.264741,-0.55361 -0.03307,-0.76326 0.116821,-0.10571 0.253108,-0.1551 0.389123,-0.14935 z m 7.214035,0 c 0.16622,-0.008 0.33169,0.0537 0.43666,0.20361 0.20294,0.28972 0.18649,0.42379 -0.0853,0.69556 -0.12827,0.12824 -0.27186,0.23358 -0.31936,0.23358 -0.19448,0 -0.58756,-0.4078 -0.58756,-0.60978 0,-0.30607 0.27848,-0.51035 0.55553,-0.52297 z m 4.7904,0 c 0.0746,-0.004 0.1544,0.006 0.23875,0.0331 0.21371,0.0678 0.41984,0.46652 0.34364,0.66508 -0.0291,0.0759 -0.15461,0.20469 -0.27905,0.28629 -0.26224,0.17187 -0.31746,0.17676 -0.54105,0.0465 -0.5319,-0.30991 -0.28441,-1.00545 0.23771,-1.03095 z m 2.43086,0 c 0.16623,-0.008 0.3322,0.0537 0.43718,0.20361 0.20292,0.28972 0.1865,0.42431 -0.0853,0.69608 h -5.2e-4 c -0.12828,0.12824 -0.27186,0.23306 -0.31936,0.23306 -0.19449,0 -0.58756,-0.4078 -0.58756,-0.60978 0,-0.30607 0.27847,-0.51035 0.55552,-0.52297 z m -12.090218,0.002 c 0.163485,-0.0156 0.331559,0.0328 0.450618,0.16433 0.228447,0.2524 0.193167,0.54435 -0.09302,0.76946 -0.137704,0.10834 -0.281697,0.19689 -0.319877,0.19689 -0.180369,0 -0.569992,-0.41686 -0.569992,-0.60978 0,-0.29128 0.259792,-0.49485 0.532268,-0.5209 z m 7.216098,0.002 c 0.16313,-0.0211 0.3322,0.0262 0.45578,0.16278 0.22841,0.25241 0.19318,0.54435 -0.093,0.76946 -0.13769,0.10834 -0.28168,0.19689 -0.31988,0.19689 -0.15495,0 -0.56999,-0.40497 -0.56999,-0.55604 0,-0.31369 0.25522,-0.53795 0.5271,-0.57309 z m -84.855804,4.88135 -0.540535,0.26562 c -0.691845,0.33975 -1.394085,1.10175 -1.643311,1.78335 -0.251135,0.68684 -0.251135,1.6766 0,2.3611 0.319915,0.87197 1.174357,1.68089 2.072225,1.96164 l 5.17e-4,5.1e-4 c 0.325028,0.10163 14.501918,0.12523 78.397799,0.13023 l 78.000919,0.006 1.38648,-1.35599 c 1.08721,-1.06336 1.54025,-1.43777 2.0991,-1.73426 l 0.71262,-0.37776 h 5.79603 5.79602 l 0.0522,0.73949 c 0.0477,0.67302 0.0799,0.76667 0.35812,1.0449 l 0.30592,0.30593 h 1.37408 1.37407 l 0.31058,-0.31006 c 0.28494,-0.28456 0.31452,-0.37147 0.35812,-1.04542 l 0.0475,-0.73484 1.7079,-0.0264 c 0.93932,-0.0144 1.74314,-0.061 1.78594,-0.10387 0.0429,-0.0429 -0.0172,-0.36758 -0.13332,-0.7214 -0.26623,-0.81094 -0.90624,-1.54367 -1.67949,-1.9234 l -0.54053,-0.26562 h -88.6995 z" /><path
       id="path9143"
       style="display:inline;fill:#000000;fill-opacity:0.5;stroke:#010202;stroke-width:0.3;stroke-dasharray:none;stroke-opacity:1;filter:url(#filter9482)"
       inkscape:label="crease_shadow"
       d="m 185.14736,126.09049 c -0.18467,-1e-5 -0.36959,0.0349 -0.67955,0.10491 -0.65083,0.14699 -0.99585,0.32463 -1.46399,0.74414 l 20.9305,16.53077 c 0.0374,-0.28013 0.0137,-0.47 -0.0786,-0.8754 -0.1246,-0.54745 -0.13152,-0.75117 -0.0377,-1.12189 0.15222,-0.6032 0.15263,-8.65938 0,-9.25473 -0.27303,-1.06495 -0.81746,-1.96466 -1.63659,-2.70475 -0.2731,-0.24674 -0.49774,-0.53042 -0.49868,-0.63045 -0.004,-0.27674 -0.61578,-1.05214 -1.08417,-1.37356 -0.24386,-0.16736 -0.71126,-0.353 -1.12551,-0.447 -0.68113,-0.15444 -0.74109,-0.15326 -1.54513,0.0377 l -0.83664,0.19896 -0.29766,-0.27802 c -0.52335,-0.48809 -0.86382,-0.6685 -1.55856,-0.82579 -0.61877,-0.14011 -0.73812,-0.14 -1.35806,0 -0.6972,0.15749 -1.03588,0.33689 -1.56372,0.8294 l -0.30179,0.28216 -0.6196,-0.16072 c -0.89846,-0.23322 -2.02425,-0.24399 -2.94039,-0.0279 l -0.76843,0.18138 -0.29818,-0.27802 c -0.52366,-0.4884 -0.8642,-0.66898 -1.55907,-0.8263 -0.30939,-0.0701 -0.49385,-0.10489 -0.67851,-0.10491 z"
       transform="rotate(180,193.4592,135.24346)"
       inkscape:export-filename="path9143.svg"
       inkscape:export-xdpi="96"
       inkscape:export-ydpi="96" /><path
       id="path9480"
       style="display:inline;fill:#f2f2f2;stroke:#010202;stroke-width:0.3;stroke-dasharray:none;stroke-opacity:1"
       inkscape:label="crease"
       d="m 185.14736,126.09049 c -0.18467,-1e-5 -0.36959,0.0349 -0.67955,0.10491 -0.65083,0.14699 -0.99585,0.32463 -1.46399,0.74414 l 20.9305,16.53077 c 0.0374,-0.28013 0.0137,-0.47 -0.0786,-0.8754 -0.1246,-0.54745 -0.13152,-0.75117 -0.0377,-1.12189 0.15222,-0.6032 0.15263,-8.65938 0,-9.25473 -0.27303,-1.06495 -0.81746,-1.96466 -1.63659,-2.70475 -0.2731,-0.24674 -0.49774,-0.53042 -0.49868,-0.63045 -0.004,-0.27674 -0.61578,-1.05214 -1.08417,-1.37356 -0.24386,-0.16736 -0.71126,-0.353 -1.12551,-0.447 -0.68113,-0.15444 -0.74109,-0.15326 -1.54513,0.0377 l -0.83664,0.19896 -0.29766,-0.27802 c -0.52335,-0.48809 -0.86382,-0.6685 -1.55856,-0.82579 -0.61877,-0.14011 -0.73812,-0.14 -1.35806,0 -0.6972,0.15749 -1.03588,0.33689 -1.56372,0.8294 l -0.30179,0.28216 -0.6196,-0.16072 c -0.89846,-0.23322 -2.02425,-0.24399 -2.94039,-0.0279 l -0.76843,0.18138 -0.29818,-0.27802 c -0.52366,-0.4884 -0.8642,-0.66898 -1.55907,-0.8263 -0.30939,-0.0701 -0.49385,-0.10489 -0.67851,-0.10491 z"
       transform="rotate(180,193.4592,135.24346)"
       inkscape:export-filename="final\carrier.svg"
       inkscape:export-xdpi="96"
       inkscape:export-ydpi="96" /></g></svg>
